<?xml version="1.0" encoding="UTF-8"?>
<svg id="Capa_2" data-name="Capa 2" xmlns="http://www.w3.org/2000/svg" viewBox="0 0 33.63 18.77">
  <defs>
    <style>
      .cls-1 {
        fill: #fff;
      }

      .cls-2 {
        fill: #d5dce2;
      }

      .cls-3 {
        fill: #ffad01;
      }

      .cls-4 {
        fill: #e86877;
      }

      .cls-5 {
        fill: #d92026;
      }

      .cls-6 {
        fill: #feb100;
      }

      .cls-7 {
        fill: #3d1219;
      }

      .cls-8 {
        fill: #bf3e50;
      }

      .cls-9 {
        fill: #141833;
      }

      .cls-10 {
        fill: #fdb93e;
      }

      .cls-11 {
        fill: #7b1312;
      }

      .cls-12 {
        fill: #bd212f;
      }

      .cls-13 {
        fill: #d94f35;
      }

      .cls-14 {
        fill: #e18425;
      }

      .cls-15 {
        fill: #aabcd4;
      }

      .cls-16 {
        fill: #7b1314;
      }

      .cls-17 {
        fill: #1d1d1b;
      }

      .cls-18 {
        fill: #f5ffff;
      }
    </style>
  </defs>
  <g id="Capa_1-2" data-name="Capa 1">
    <g>
      <path class="cls-6" d="M20.95,2.54c-.11-.08-.23-.16-.35-.24-.1-.06-.2-.12-.31-.18h0c-.13-.07-.26-.14-.39-.2-.89-.43-1.89-.66-2.95-.66-.07,0-.13,0-.2,0-.13,0-.25,.01-.38,.02h0c-.1,0-.2,.02-.3,.03-.12,.01-.24,.03-.35,.05-.19,.03-.37,.07-.55,.12h0c-.17,.05-.34,.1-.51,.16h0c-.57,.2-1.1,.47-1.58,.81-.13,.09-.26,.18-.38,.28-1.6,1.26-2.63,3.22-2.63,5.41,0,3.8,3.09,6.89,6.89,6.89,.8,0,1.57-.14,2.29-.39h0c.28-.1,.56-.22,.82-.35h0c.07-.03,.13-.07,.19-.1,.11-.06,.21-.12,.31-.18,.07-.04,.13-.08,.2-.13h0s.09-.06,.14-.09c.07-.05,.14-.1,.21-.16,.08-.06,.16-.12,.23-.19,.12-.1,.24-.21,.35-.32,.1-.09,.19-.19,.29-.29h0c.08-.08,.15-.17,.22-.25,.08-.09,.15-.18,.22-.28,.88-1.15,1.4-2.6,1.4-4.16,0-2.31-1.14-4.35-2.89-5.6Zm1.36,9.57c-.07,.09-.14,.18-.21,.27-.07,.08-.13,.16-.2,.24-.08,.08-.15,.17-.24,.25-.22,.22-.45,.42-.69,.6-.05,.03-.09,.07-.14,.1-.07,.05-.14,.1-.21,.14-.04,.03-.09,.06-.13,.08-.04,.02-.08,.05-.12,.07,0,0-.02,.01-.03,.02-.09,.05-.17,.1-.26,.15-.41,.22-.84,.39-1.29,.52-.58,.17-1.2,.26-1.84,.26-3.68,0-6.67-2.99-6.67-6.67,0-1.43,.46-2.76,1.23-3.85,0,0,0,0,0,0,.33-.46,.71-.88,1.14-1.24,.04-.03,.07-.06,.11-.09,.06-.05,.13-.1,.19-.15,.63-.47,1.34-.84,2.11-1.06h0c.14-.04,.29-.08,.43-.11,.06-.01,.11-.02,.17-.04,.11-.02,.22-.04,.34-.06,.09-.01,.19-.02,.28-.03h0c.12-.01,.23-.02,.35-.03,.1,0,.21,0,.31,0,1.09,0,2.12,.26,3.03,.73,.12,.06,.24,.13,.36,.2,.1,.06,.2,.12,.29,.18,.11,.07,.22,.15,.33,.23,1.61,1.22,2.66,3.15,2.66,5.33,0,1.48-.49,2.86-1.31,3.96Z"/>
      <path class="cls-6" d="M12.82,12.87c-1.32-1.15-2.15-2.84-2.15-4.73,0-1.1,.28-2.14,.78-3.03,.01,.1,.03,.2,.05,.29,.06,.23,.15,.45,.26,.65-.31,.53-.39,1.16-.21,1.73,.1,.32,.27,.62,.5,.86,.24,.25,.53,.44,.88,.56,.28,.1,.56,.14,.83,.16-.65,.88-1.41,2.27-.94,3.49Z"/>
      <path class="cls-3" d="M22.01,10.75v.31s-.01,.06-.01,.06v.19s-.09-.24-.09-.24l-.11-.29s0,0,0,0,0,0,0-.02c0,0,0,0,0,0-.04-.09-.16-.35-.4-.59-.39-.39-.91-.53-1.53-.43-.11,.02-.21,.03-.32,.03-.05,0-.1,0-.16,0-.07,0-.13,0-.2,0,.06,.12,.1,.24,.14,.35,.04,.12,.07,.23,.09,.35,.03,.13,.04,.25,.05,.37,.05,.05,.15,.16,.33,.29,.25,.18,.63,.38,1.17,.49,.33,.07,.64,.24,.88,.46-.06,.08-.13,.15-.19,.23-.07,.08-.15,.16-.22,.24-.27,.28-.57,.53-.89,.75-.04,.03-.08,.06-.13,.09-.05,.03-.1,.07-.15,.1-.02,.01-.04,.02-.06,.03-.01,0-.02,.02-.04,.02h0s-.04,.02-.06,.03c0,0,0,0-.01,0-.09,.05-.18,.1-.27,.15-.19,.1-.39,.19-.59,.27-.19,.07-.37,.14-.57,.19-.14,.04-.28,.07-.42,.1-.19,.04-.39,.07-.59,.1-.19,.02-.38,.03-.57,.04h0s-.09,0-.14,0c-.19,0-.38,0-.57-.03-.5-.05-.99-.15-1.45-.31,0,0,0,0-.01,0-.1-.03-.2-.07-.3-.11-.37-.15-.73-.33-1.06-.55-.15-.15-.27-.32-.37-.51-.66-1.33,.58-3.02,.96-3.52,.04-.05,.07-.09,.09-.11-.03-.07-.05-.14-.07-.22-.02,0-.03,.01-.05,.01-.04,0-.08,0-.12,0-.32-.01-.65-.05-.96-.16-.28-.1-.54-.26-.75-.48-.2-.21-.34-.46-.43-.74-.14-.44-.09-.92,.11-1.33,.05-.11,.11-.21,.18-.3-.07-.09-.13-.19-.18-.3,0-.01-.01-.02-.02-.03,0,0,0,0,0,0-.06-.13-.11-.26-.14-.4-.06-.24-.08-.49-.04-.74,0,0,0,0,0,0,.07-.11,.15-.21,.23-.31h0s.05-.06,.07-.09c.18-.22,.37-.43,.58-.62,.01-.01,.03-.02,.04-.03,0,0,.02-.01,.02-.02,.02-.02,.04-.04,.06-.06,.04-.03,.08-.07,.12-.1,.03-.02,.05-.04,.08-.06,.08-.07,.17-.13,.25-.2,.7-.52,1.51-.89,2.39-1.08h0s.02,0,.03,0c.11-.02,.21-.04,.32-.06,0,0,.02,0,.02,0,.07-.01,.13-.02,.2-.03,.11-.01,.22-.02,.33-.03,.14,0,.28-.01,.42-.01,1.12,0,2.18,.3,3.09,.81,.11,.06,.22,.13,.33,.2,.09,.06,.18,.12,.26,.18,0,.07-.01,.14-.02,.21-.05,.42-.16,.84-.32,1.23-.14,.32-.31,.63-.53,.9-.04,.05-.08,.1-.13,.15-.03,.03-.06,.06-.09,.09-.03,.03-.06,.06-.09,.09-.02,.02-.04,.04-.06,.05,0,0-.01,.01-.02,.02-.06,.06-.13,.11-.2,.17,.02,0,.05,.01,.07,.02,.09,.03,.17,.08,.24,.14,0,0,0,0,0,0,0,0,0,0,0,0,.02,.02,.04,.04,.06,.06,.04,.04,.07,.09,.1,.14,.12,.2,.16,.44,.16,.66,0,.14-.01,.28-.04,.42-.02,.11-.05,.21-.09,.31,.11,.02,.21,.05,.31,.08,.21,.07,.42,.16,.62,.27,.59,.33,1.02,.89,1.24,1.64,.16,.56,.15,1.01,.15,1.03Z"/>
      <path class="cls-6" d="M21.7,11.43l.06,.16c-.22-.14-.47-.25-.73-.3-.7-.14-1.1-.45-1.26-.6-.02-.21-.06-.41-.12-.61,.09,0,.17-.02,.26-.03,.11-.02,.22-.03,.32-.03,.38,0,.68,.12,.93,.37,.2,.2,.3,.42,.33,.48,0,0,0,.02,0,.02l.09,.26h0s.1,.28,.1,.28h0Z"/>
      <path class="cls-6" d="M22.33,10.76c0-.05,0-.54-.17-1.13-.24-.83-.72-1.46-1.4-1.83-.22-.12-.45-.22-.68-.29,.04-.17,.05-.34,.05-.51,0-.1-.01-.22-.04-.35,0,0,0,0,0,0,0-.02,0-.04-.01-.05,0,0,0,0,0,0,0-.07-.03-.14-.06-.21-.02-.06-.05-.12-.09-.19-.02-.04-.05-.09-.08-.13,.02,.05,.04,.09,.04,.1-.06-.08-.13-.15-.21-.21,0,0,0,0,0,0,.01-.01,.03-.03,.04-.04,.01-.01,.02-.02,.03-.03,.04-.04,.07-.08,.11-.11,.04-.04,.08-.09,.11-.13,.24-.29,.44-.63,.6-1.01,.18-.42,.3-.87,.35-1.32,0,0,0,0,0-.01,1.4,1.15,2.29,2.9,2.29,4.85,0,1.18-.33,2.29-.9,3.23v-.61Z"/>
      <path class="cls-18" d="M20.09,6.59c-.02-.07-.04-.14-.06-.21,.03,.06,.05,.13,.06,.21Z"/>
      <path class="cls-14" d="M16.81,8.61s1.91-.15,1.94-.15h1.48s.5,.42,.53,.44,.54,.29,.56,.33,.5,1.12,.5,1.12l-.6-.41-.38-.24-.54-.09-.6,.04s-.57,.02-.59,.03-.71-.14-.71-.14l-.71-.25-.7-.46-.19-.25v.03Z"/>
      <path class="cls-8" d="M18.53,10.24s-1.06-.43-1.28-.77c0,0,0-.01-.01-.02,.19,.11,.45,.22,.59,.24,.06,0,.13,.02,.19,.04,.24,.07,.43,.27,.52,.51Z"/>
      <path class="cls-4" d="M18.5,10.08l-.2-.29-.33-.19-.76-.2-.2-.05,.16,.29,1.13,1.27h.23l.02-.04,.16-.33-.21-.47Zm-1.26-.63c.19,.11,.45,.22,.59,.24,.06,0,.13,.02,.19,.04,.24,.07,.43,.27,.52,.51,0,0-1.06-.43-1.28-.77,0,0,0-.01-.01-.02Z"/>
      <path class="cls-7" d="M18.53,10.24c-.09-.24-.27-.44-.52-.51-.06-.02-.13-.03-.19-.04-.14-.02-.39-.13-.59-.24h0s-.02-.03-.03-.05c-.1-.16-.18-.31-.25-.44,.3,.19,.76,.44,1.3,.61,0,0,0,0,0,0,0,0,.02,.02,.02,.03,0,0,0,0,0,0,0,0,0,0,0,0,0,0,0,0,0,0,0,0,0,0,0,0,0,0,0,0,0,0,0,0,0,0,0,0,.01,.02,.03,.04,.04,.06,.03,.04,.05,.08,.07,.13,0,0,0,.02,.01,.03,0,0,0,0,0,0,0,0,0,0,0,0h0s0,0,0,0c0,0,0,0,0,0,0,0,0,0,0,0,0,0,0,0,0,0t0,0s0,0,0,0c0,0,0,0,0,0,0,.02,.02,.05,.03,.07,.02,.05,.03,.1,.04,.15,.01,.05,.02,.1,.03,.14h0s0,0,0,0c0,0,0,0,0,0Z"/>
      <path class="cls-1" d="M19.54,7.14s0,.07-.01,.11h0s0,0,0,0h0s0,0,0,0c0,0,0,0,0,0,0,0,0,.01,0,.02,0,.02,0,.04,0,.06-.01,.07-.03,.15-.05,.22-.01,.03-.02,.07-.03,.1,0,.01,0,.02-.01,.03-.09-.01-.17-.02-.26-.02,.03-.06,.05-.13,.06-.21,.03-.24-.07-.45-.23-.47-.16-.02-.31,.16-.34,.4-.01,.11,0,.21,.03,.3-.01,0-.03,0-.04,0-.1,.01-.2,.03-.29,.05,.08-.32,.11-.67,.02-.99,0-.01,0-.03,.01-.05,0,0,0,0,0-.01,0-.01,0-.02,0-.03,0-.02,.01-.04,.02-.07,0,0,0-.02,0-.03,0,0,0-.02,0-.02,0,0,0,0,0,0,0,0,0,0,0,0,0,0,0,0,0,0,0-.01,.01-.02,.02-.03,0-.02,.02-.03,.03-.05,0,0,.01-.02,.02-.02,0,0,0,0,0,0,0,0,0,0,0,0,.03-.03,.06-.06,.09-.09,0,0,0,0,0,0,0,0,.01,0,.02-.01,.02-.01,.04-.02,.06-.03,.02,0,.03-.02,.05-.02,0,0,0,0,0,0,0,0,0,0,0,0,0,0,.02,0,.03-.01,.04-.01,.08-.02,.12-.03,0,0,0,0,0,0,0,0,.02,0,.02,0,.02,0,.04,0,.06,0,0,0,0,0,0,0,.02,0,.03,0,.05,0,0,0,0,0,.01,0,0,0,0,0,0,0,0,0,0,0,0,0,0,0,0,0,0,0,0,0,0,0,.01,0,.04,0,.08,.02,.12,.03,0,0,0,0,0,0,0,0,.01,0,.02,0,.02,0,.04,.02,.06,.03,0,0,.01,0,.02,.01,0,0,.01,.01,.02,.01,0,0,0,0,0,0,0,0,0,0,.01,0,0,0,.02,.02,.03,.02,.02,.01,.03,.03,.04,.05,0,0,0,0,0,0,0,0,0,0,.01,.01,0,0,0,0,0,.01,.01,.02,.03,.04,.04,.07,0,0,0,.02,.01,.03,0,0,0,0,0,0,0,0,0,0,0,0,0,0,0,0,0,0,0,0,0,0,0,0,0,0,0,0,0,0,0,.01,0,.02,.01,.03,.02,.06,.04,.12,.05,.19,0,.03,.01,.06,.02,.09,0,0,0,0,0,0h0s0,0,0,.01c0,.02,0,.04,0,.06,0,.07,0,.15,0,.22Z"/>
      <path class="cls-1" d="M18.15,7.36s0,.02,0,.04c0,0,0,0,0,.01,0,0,0,0,0,0,0,0,0,0,0,0h0s0,0,0,0c0,0,0,0,0,0,0,0,0,0,0,0h0s0,.04,0,.05c0,.05-.02,.11-.03,.16-.01,.06-.03,.11-.04,.16,0,0,0,0,0,0-.05,.01-.09,.03-.13,.04,.04-.08,.05-.18,.05-.29-.01-.26-.16-.46-.33-.45-.17,0-.29,.23-.28,.49,.01,.19,.1,.36,.21,.42-.02,.01-.04,.02-.06,.03-.07-.03-.21-.09-.38-.14,0,0,0-.01,0-.02-.03-.05-.05-.1-.08-.15,0-.01-.01-.02-.02-.04,0,0,0,0,0,0,0,0,0,0,0,0,0,0,0,0,0,0,0,0,0,0,0,0t0,0s0,0,0,0c0,0,0,0,0,0,0,0,0,0,0,0,0,0,0,0,0,0,0,0,0,0,0,0,0-.02-.02-.04-.02-.06-.03-.09-.06-.18-.08-.27,0-.03-.01-.07-.02-.1,0,0,0,0,0,0,0,0,0,0,0,0,0,0,0,0,0-.01,0,0,0,0,0,0h0s0,0,0,0c0,0,0-.02,0-.03,0-.02,0-.04,0-.06,0-.04,0-.08,0-.11,0-.02,0-.03,0-.05,0,0,0-.02,0-.02h0s0,0,0,0h0s0,0,0,0c0,0,0,0,0,0h0s0,0,0,0h0s0,0,0,0c0,0,0,0,0,0h0s0,0,0,0c0,0,0,0,0,0,0,0,0,0,0,0,0,0,0-.01,0-.02,0-.02,0-.03,.01-.05,0-.03,.02-.06,.03-.09,0-.01,0-.02,.01-.04,0,0,0-.01,0-.02,.01-.03,.03-.05,.04-.08,.01-.02,.02-.03,.03-.05,0,0,0,0,0,0,0,0,0,0,0,0h0s0,0,0,0c0,0,0,0,0,0,0,0,0,0,0,0h0s0,0,0,0c0,0,.01-.02,.02-.02,0-.01,.02-.02,.03-.03,.02-.02,.04-.04,.06-.06,0,0,0,0,.01-.01,0,0,0,0,0,0,0,0,.02-.01,.02-.02,.02-.01,.04-.03,.07-.04,.01,0,.02-.01,.03-.02,0,0,0,0,.01,0,.05-.02,.09-.03,.14-.04,0,0,.01,0,.02,0,0,0,0,0,0,0,0,0,0,0,0,0,0,0,0,0,0,0,0,0,.01,0,.02,0,.03,0,.05,0,.08,0,.01,0,.02,0,.04,0,0,0,.02,0,.02,0h0s0,0,0,0c0,0,0,0,0,0,0,0,0,0,0,0,0,0,0,0,0,0,0,0,0,0,0,0,0,0,0,0,0,0h0s0,0,0,0c.02,0,.03,0,.05,0,.02,0,.05,.01,.07,.02,0,0,0,0,0,0,.01,0,.02,.01,.03,.02,.02,.01,.04,.02,.07,.04,0,0,.02,.01,.03,.02,0,0,0,0,.01,.01,.02,.02,.04,.04,.06,.06,0,.01,.02,.02,.03,.03,0,0,0,0,0,0,0,0,0,0,0,0,.04,.05,.07,.1,.09,.16,0,0,0,0,0,0,0,0,0,0,0,0,0,0,0,0,0,.01,0,.02,.01,.03,.02,.05,.01,.03,.02,.07,.03,.1,0,.02,0,.03,.01,.05,0,0,0,.02,0,.03,0,0,0,0,0,0h0s0,0,0,0c0,.04,0,.08,0,.12,0,.09,0,.18,0,.27Z"/>
      <path class="cls-1" d="M18.08,14.16c-.15,.1-.29,.17-.42,.21-.21,.07-.4,.08-.57,.04h0s-.03,0-.04-.01c-.28-.09-.49-.34-.62-.56-.12-.21-.18-.39-.19-.42,0,.05,.03,.55,.31,.9-.06,.02-.11,.04-.17,.06-.47,.15-.86,.13-1.16-.05-.11-.07-.21-.15-.29-.25,0,0,0,0-.01-.01-.13-.16-.22-.34-.28-.5-.03-.07-.05-.14-.06-.2-.04-.16-.06-.28-.06-.3,0,.02,0,.1,0,.22h0s0,.03,0,.05c0,.1,.01,.22,.04,.35-.57-.16-.93-.47-1.13-.89-.28-.57-.17-1.23,.05-1.8,0,0,0,0,0,0,0,0,0,0,0,0,.14-.36,.33-.69,.5-.95,0,0,0,0,0,0,0,0,0,0,0,0,.18-.28,.34-.47,.38-.52,.03,.06,.05,.11,.08,.17,.03,.05,.05,.1,.08,.15h0s.02,.03,.03,.04c0,.01,.02,.03,.03,.04,.02,.03,.03,.05,.05,.08h0s0,0,0,0c0,0,0,0,0,0,.03,.05,.06,.09,.09,.13,0,.01,.02,.02,.03,.04,0,.01,.02,.02,.03,.03,0,.01,.02,.02,.03,.03,.05,.06,.09,.1,.12,.12,0,0,0,0,.01,.01,.01,.01,.02,.02,.02,.02-.01-.02-.03-.03-.04-.05-.02-.02-.04-.05-.05-.07-.01-.01-.02-.03-.03-.04-.01-.02-.02-.03-.04-.05,0-.01-.02-.02-.03-.04,0-.01-.02-.03-.02-.04,0,0-.01-.02-.01-.02,0,0-.01-.02-.02-.03,0,0,0-.02-.01-.02-.03-.05-.06-.1-.08-.16,0-.01-.01-.03-.02-.04,0-.01-.01-.03-.02-.04,0-.01-.01-.03-.02-.04-.01-.03-.03-.06-.04-.09,0-.01-.01-.03-.02-.04-.03-.08-.06-.17-.08-.25,0-.02-.01-.04-.02-.06,0-.03-.02-.05-.02-.08,0-.02,0-.04-.01-.06,0-.01,0-.02,0-.04,0-.02-.01-.05-.02-.07,0-.03-.01-.05-.02-.08,0-.04-.02-.09-.02-.13,0-.02,0-.05-.01-.07,0-.04-.01-.08-.02-.12,0-.05-.01-.11-.02-.16,0-.09-.02-.19-.02-.28h0c-.01-.21-.01-.41-.01-.58,0-.02,0-.03,0-.05,0-.04,0-.08,0-.12,0-.01,0-.03,0-.04,0,0,0-.01,0-.02h0s0-.03,0-.04c0,0,0-.02,0-.02,0,0,0,0,0,0,0-.03,0-.05,.01-.08,0-.02,0-.05,.01-.07,0,0,0-.01,0-.02,0-.02,0-.03,0-.05,.03-.12,.06-.23,.09-.33,0-.01,0-.02,.01-.03,0-.03,.02-.05,.03-.08,0-.02,.01-.03,.02-.05,0-.02,.01-.03,.02-.05,0-.02,.01-.03,.02-.05,0-.01,.01-.03,.02-.04,.01-.03,.02-.05,.04-.07,0-.01,.01-.02,.02-.03,0-.01,.01-.02,.02-.03,0-.01,.01-.02,.02-.03,0-.01,.01-.02,.02-.03,.02-.03,.04-.06,.05-.09,0,0,0-.01,.01-.02,.02-.03,.03-.05,.05-.07,0,0,0,0,0-.01,.02-.02,.03-.04,.03-.04,.22-.26,.5-.46,.81-.58,.44-.17,.9-.16,1.31,.02,.02,0,.04,.02,.06,.03,.02,0,.03,.01,.04,.02,.04,.02,.07,.04,.1,.05,.01,0,.02,.01,.04,.02,.07,.04,.13,.08,.19,.12,.01,0,.03,.02,.04,.03,.01,0,.02,.02,.03,.03,0,0,0,0,0,0h0s0,0,0,0c.02,.02,.05,.04,.07,.06,.01,0,.02,.02,.03,.03,.03,.02,.05,.04,.07,.06,.01,.01,.03,.02,.04,.04,0,0,0,0,.01,.01,0,0,.01,0,.01,.01,.02,.02,.03,.03,.05,.05-.18-.02-.37,.02-.52,.1-.24,.13-.4,.36-.46,.62-.02,.1-.03,.2-.03,.29,0,.02,0,.03,0,.05,0,.01,0,.02,0,.03,0,0,0,.01,0,.02,0,0,0,0,0,0,0,.01,0,.02,0,.04,0,0,0,.02,0,.03,0,.01,0,.02,0,.03,0,.02,0,.03,0,.05,0,.02,0,.03,0,.05,0,.02,0,.03,.01,.05,0,.02,0,.03,.01,.05,0,.03,.02,.06,.02,.09,0,.01,0,.03,.01,.04,0,0,0,0,0,0,0,.01,0,.03,.01,.04,0,.01,.01,.03,.02,.04,.02,.04,.03,.08,.05,.12-.26-.04-.54-.03-.76,.09-.01,0-.03,.02-.04,.03,0,0-.01,0-.02,.01,0,0,0,0,0,0,0,0-.01,0-.02,.01,0,0,0,0,0,0,0,0-.01,0-.02,.01,0,0,0,0,0,0,0,0,0,0-.01,.01,0,0,0,0,0,0,0,0,0,0-.01,0,0,0,0,0,0,0,0,0-.02,.02-.02,.02,0,0-.01,.01-.02,.02h0s-.01,.01-.02,.02c0,0,0,0,0,0,0,0,0,0,0,0,0,0,0,0,0,0,0,0,0,0,0,0,0,0-.01,.01-.02,.02,0,0,0,0,0,0,0,0,0,0,0,.01,0,0,0,0,0,0,0,0,0,.01,0,.02,0,0,0,0,0,0,0,0,0,0,0,.01,0,0,0,0,0,.01-.02,.03-.03,.05-.04,.08,0,0,0,0,0,0,0,0,0,.01,0,.02,0,.01,0,.02-.01,.03,0,0,0,0,0,0,0,0,0,.01,0,.02,0,0,0,0,0,0h0s0,0,0,.01c0,0,0,.02,0,.03,0,.01,0,.03-.01,.04,0,0,0,0,0,0,0,0,0,0,0,0,0,0,0,0,0,0,0,0,0,.02,0,.03,0,0,0,0,0,0,0,0,0,0,0,.01,0,0,0,0,0,.01h0s0,0,0,.01t0,0s0,0,0,0c0,0,0,.02,0,.02,0,0,0,.02,0,.03,0,0,0,0,0,0,0,.04,0,.09-.01,.13,0,.17,.01,.34,.05,.51,0,.03,.01,.05,.02,.08,.12,.43,.38,.86,.71,1.24,.02,.02,.04,.05,.06,.07,.07,.08,.14,.16,.22,.24,0,0,0,0,0,0,.02,.02,.03,.03,.05,.05-.02,.13-.02,.27-.02,.42,0,.03,0,.05,0,.08,0,.03,0,.05,0,.08,0,0,0,0,0,0,0,.03,0,.06,0,.09,0,.03,0,.05,0,.08,0,.02,0,.04,0,.06,0,.01,0,.02,0,.04,0,.03,0,.05,0,.08,0,0,0,0,0,.01,0,.02,0,.05,.01,.07,0,.03,0,.05,.01,.08,0,.02,0,.05,.01,.07,0,0,0,.01,0,.02,0,.01,0,.03,0,.04,0,.02,0,.04,.01,.07,0,.02,0,.03,.01,.05,.01,.06,.03,.11,.04,.17,0,.02,0,.03,.01,.05,0,.02,.01,.03,.02,.05,0,.02,0,.03,.01,.04,.04,.13,.09,.26,.15,.38,0,.02,.01,.03,.02,.05,.04,.08,.08,.16,.12,.24,0,.01,.02,.03,.03,.04,.04,.06,.08,.12,.12,.18,.01,.02,.02,.03,.03,.04,.03,.05,.07,.09,.1,.14,.01,.01,.02,.03,.04,.04,.08,.1,.17,.2,.27,.29,.01,.01,.03,.03,.04,.04,.03,.03,.06,.06,.1,.08,.01,.01,.03,.02,.04,.03,.03,.03,.06,.05,.1,.07Z"/>
      <path class="cls-12" d="M20.36,2.79s0-.01,0-.02c0-.02,0-.05,0-.07,0-.1-.01-.2-.02-.29-.01-.1-.03-.19-.05-.29-.01-.05-.02-.09-.03-.14,0,0,0,0,0,0,0,0,0,0,0,0,0,0,0,0,0,0,0,0,0,0,0,0,0,0,0,0,0,0,0,0,0-.02,0-.03,0-.02-.01-.05-.02-.07-.03-.09-.06-.18-.1-.27-.02-.04-.04-.09-.06-.13-.01-.02-.02-.04-.04-.07,0,0,0-.02-.01-.03,0,0,0,0,0,0,0,0,0,0,0,0h0s0,0,0,0c0,0,0,0,0,0,0,0,0,0,0,0-.1-.16-.21-.31-.34-.44,0,0,0,0,0,0,0,0,0,0,0,0,0,0,0,0-.01-.01,0,0-.02-.02-.03-.02-.02-.02-.03-.03-.05-.05-.04-.04-.08-.07-.13-.11-.04-.03-.09-.07-.13-.1-.02-.02-.05-.03-.07-.05-.02,0-.04-.02-.05-.03,0,0,0,0,0,0,0,0,0,0,0,0,0,0,0,0-.01,0,0,0,0,0,0,0,0,0,0,0,0,0,0,0,0,0-.01,0-.01,0-.02-.01-.04-.02-.02-.01-.04-.02-.07-.03-.05-.02-.1-.04-.14-.06-.05-.02-.1-.04-.15-.05-.02,0-.05-.02-.07-.02,0,0-.02,0-.03,0,0,0,0,0,.02,0-.01,0-.02,0-.04,0-.1-.02-.2-.04-.3-.05-.05,0-.1,0-.15,0-.02,0-.04,0-.07,0h0s0,0,0,0c0,0,0,0-.01,0-.01,0-.02,0-.03,0-.1,0-.19,.01-.29,.03-.05,0-.1,.02-.15,.03-.02,0-.05,.01-.07,.02,0,0,0,0,0,0,0,0,0,0,0,0,0,0-.02,0-.03,0-.09,.03-.18,.06-.27,.1-.04,.02-.08,.04-.13,.06-.02,.01-.04,.02-.06,.04,0,0,0,0,0,0,0,0,0,0,0,0,0,0,0,0,0,0,0,0,0,0,0,0,0,0-.01,0-.02,.01-.08,.05-.15,.1-.22,.16-.04,.03-.07,.06-.1,.09,0,0,0,0-.01,.01,0,0,0,0,0,0,0,0,0,0,0,0,0,0,0,0,0,0,0,0,0,0,0,0,0,0,0,0,0,.01-.02,.02-.03,.03-.05,.05-.03,.04-.06,.08-.09,.12,0,0,0,0,0,0,0,.01-.02,.02-.02,.03,0,0,0,0,0,.01-.01,.02-.02,.03-.03,.05-.01,.02-.02,.04-.03,.05,0,0,0,0,0,0,0,0,0,0,0,0,0,0,0,0,0,0,0,0,0,.02-.01,.03-.02,.04-.04,.08-.06,.12,0,.02-.01,.03-.02,.05,0,0,0,0,0,.01-.15,.37-.27,1,.11,1.76-.08-.11-.15-.22-.21-.34-.08-.15-.15-.32-.19-.49-.05-.04-.24-.2-.29-.23-.1-.07-.2-.13-.3-.18-.05-.03-.1-.05-.15-.07-.01,0-.03-.01-.04-.02,0,0,0,0,0,0t0,0s0,0,0,0c0,0,0,0,0,0-.02,0-.04-.02-.07-.03-.09-.04-.19-.07-.29-.09-.05-.01-.09-.02-.14-.03,0,0-.07-.02-.07-.01,0,0,.04,0,0,0,0,0-.01,0-.02,0-.01,0-.02,0-.03,0-.09,0-.18-.01-.27,0-.04,0-.09,0-.13,0-.01,0-.02,0-.03,0,0,0,0,0,0,0-.02,0-.04,0-.06,.01-.08,.02-.16,.04-.24,.06-.02,0-.04,.01-.06,.02,0,0-.02,0-.03,0,0,0,0,0,0,0s0,0,0,0c-.03,.02-.07,.03-.11,.05-.07,.04-.14,.08-.2,.12,0,0-.02,.01-.03,.02,0,0,0,0,0,0,0,0,0,0,0,0,0,0,0,0,0,0-.01,.01-.03,.02-.04,.03-.03,.03-.06,.05-.09,.08-.03,.03-.05,.06-.08,.09-.01,.02-.03,.03-.04,.05,0,0,0,0,0,0,0,0,0,0,0,0,0,0,0,.01-.01,.02-.05,.06-.09,.13-.12,.2-.02,.03-.04,.07-.05,.11h0s0,0,0,0h0s0,0,0,0v.03s-.01,0-.01,0c0,0,0,0,0,.01,0,.01,0,.02-.01,.03-.03,.08-.05,.15-.06,.23,0,.02,0,.04-.01,.06,0,0,0,0,0,0h0s0,.02,0,.03c0,.01,0,.02,0,.03h0c-.01,.09-.02,.19-.03,.3,0,.08,0,.17,0,.25,.02,.3,.09,.64,.26,1-.04-.05-.07-.1-.1-.15-.15-.23-.27-.49-.34-.76-.03,.01-.05,.03-.08,.05-.03,.02-.06,.04-.08,.06,0,0,0,0,0,0h0s0,0,0,0c0,0,0,0,0,0,0,0,0,0,0,0-.01,0-.02,.02-.03,.03-.05,.04-.09,.09-.14,.13-.02,.02-.04,.04-.05,.07,0,0,0,0,0,0,0,0,0,0,0,0,0,0,0,.01-.01,.02,0,.01-.02,.02-.02,.03-.03,.05-.06,.1-.09,.16,0,.01-.01,.03-.02,.04,0,0,0,.01,0,.02h0s0,0,0,0h0s0,0,0,0c0,0,0,0,0,0,0,0,0,0,0,0h0s0,0,0,0c0,0,0,0,0,0,0,0,0,0,0,0,0,0,0,0,0,0,0,0,0,.01,0,.02,0,.01-.01,.03-.02,.04-.02,.06-.04,.11-.05,.17,0,.03-.01,.06-.02,.09,0,.01,0,.02,0,.03,0,0,0,0,0,0,0,0,0,0,0,0,0,0,0,0,0,0t0,0s0,0,0,0h0s0,.01,0,.02c-.01,.12-.01,.25,0,.37,0,.01,0,.03,0,.04,0,0,0,0,0,0,0,0,0,0,0,0,0,0,0,0,0,0,0,0,0,0,0,0,0,.03,.01,.06,.02,.09,.01,.06,.03,.12,.05,.18,0,.03,.02,.05,.03,.08h0s.02,.06,.04,.1c0,0,0,0,0,0,0,0,0,0,0,0,0,0,0,0,0,0,0,0,0,0,0,0,0,0,0,0,0,0,0,0,0,0,0,0,0,0,0,0,0,0,0,.01,.01,.03,.02,.04,0,0,0,0,0,0,.04,.09,.09,.22,.16,.35,.03,.05,.05,.1,.08,.15,.13,.23,.29,.46,.47,.62h0s0,0,0,0c-.01,0-.03,0-.04-.01-.03-.02-.06-.03-.09-.05-.17-.1-.32-.23-.45-.37-.01,.02-.03,.05-.04,.07-.04,.06-.07,.13-.1,.19,0,0,0,0,0,0,0,0,0,0,0,0,0,0,0,0,0,0,0,0,0,0,0,0,0,0,0,0,0,0,0,0,0,0,0,0,0,0,0,.02,0,.03,0,.02-.01,.04-.02,.06-.01,.04-.02,.07-.03,.11-.01,.04-.02,.07-.03,.11,0,.02,0,.04-.01,.06,0,.01,0,.02,0,.03,0,0,0,0,0,.01,0,0,0,0,0,0h0s0,.07,0,.1c0,.03,0,.07,0,.1,0,.07,0,.14,.01,.21,0,0,0,.01,0,.02,0,0,0,0,0-.01,0,0,0,.01,0,.02,0,.02,0,.04,0,.05,0,.03,.01,.06,.02,.09,.02,.06,.03,.12,.06,.18,0,0,0,.02,.01,.03,0,0,0,0,0,0,0,0,0,0,0,0,0,0,0,0,0,0,0,0,0,0,0,0h0s0,0,0,0c0,0,0,0,0,0,0,0,0,0,0,0,0,0,0,0,0,0,0,0,0,.01,0,.02,.01,.03,.03,.06,.04,.08,.03,.06,.06,.11,.1,.17,.02,.03,.04,.06,.06,.08,0,0,0,0,0,0,0,0,0,0,0,0,0,0,0,0,0,0,0,0,0,.01,.01,.02,0,.01,.02,.02,.03,.03,.04,.05,.09,.1,.13,.14,.02,.02,.05,.05,.08,.07,.01,0,.02,.02,.03,.03,0,0,0,0,0,0,0,0,.02,.01,.02,.02,.05,.04,.11,.08,.17,.11,.03,.02,.06,.03,.09,.05,.02,0,.04,.02,.05,.02,0,0,0,0,.01,0h0s0,0,0,0c0,0,0,0,0,0,0,0,0,0,0,0h0s0,0,0,0c.07,.03,.14,.05,.21,.07,.07,.02,.15,.04,.22,.05,.04,0,.08,.01,.12,.02,0,0,.02,0,.03,0,0,0,0,0,0,0,0,0,0,0,0,0,.02,0,.03,0,.05,0,.14,.02,.29,.02,.43,.03-.06-.27-.11-.59-.12-.94h0c-.01-.18-.01-.36,0-.53,0-.08,.01-.17,.02-.25,.03-.2,.07-.38,.14-.55,.09-.21,.21-.4,.35-.57,0,0,0,0,0,0,.04-.06,.07-.09,.08-.1,0,0,0,0,0,0h0c.24-.27,.53-.47,.86-.6,.5-.19,1.03-.18,1.49,.03,.75,.34,1.04,.78,1.14,.97,.05,.04,.09,.08,.13,.13,0-.02,.02-.04,.03-.06,0-.01,.01-.02,.02-.03,.06-.09,.13-.16,.22-.22,.02-.01,.04-.03,.06-.04,0,0,.02-.02,.03-.02,.04-.02,.08-.04,.12-.06,.02-.01,.04-.02,.06-.03,0,0,.02,0,.03-.01h0s0,0,0,0c0,0,0,0,0,0,0,0,0,0,0,0,0,0,0,0,0,0h0s.01,0,.02-.01c.15-.09,.29-.2,.42-.32,.02-.02,.04-.03,.05-.05,0,0,.01-.01,.02-.02h0s0,0,0,0c0,0,0,0,0,0,0,0,0,0,0,0,.03-.03,.07-.07,.1-.1,.04-.04,.07-.08,.11-.13,.03-.03,.05-.06,.08-.1,.06-.08,.12-.16,.17-.24,.01-.02,.03-.04,.04-.07,0,0,.01-.02,.02-.03,0,0,0,0,0-.01,0,0,0,0,0,0,0,0,0,0,0,0,0,0,0,0,0,0,0,0,0,0,0,0h0s.04-.08,.06-.11c.09-.18,.17-.36,.24-.55,.03-.1,.06-.19,.09-.29,0,0,0,0,0-.02,0,0,0,0,0,0h0s0,0,0,0,0,0,0,0h0s0,0,0,0c0,0,0,0,0,0,0,0,0,0,0,0,0,0,0-.01,0-.02,0-.02,.01-.05,.02-.07,.01-.05,.02-.1,.03-.15,.04-.2,.06-.4,.07-.6,0-.05,0-.1,0-.15v-.02s0,0,0,0Zm-4-1.33s0-.02,.01-.02c0,0,0,.01-.01,.02Zm.15-.23s0,0,0,0h0s0,0,0,0Zm.08,1.94s0,0,0,0c0,0,0,0,0,0,0,0,0,0,0,0Z"/>
      <path class="cls-11" d="M20.14,13.6c-.07,.18-.25,.54-.59,.68-.27,.11-.6,.06-.98-.15-1.34-.75-1.7-2.21-1.64-3.09,0,0,1.38,4.22,3.21,2.56Z"/>
      <path class="cls-12" d="M21.53,13.71c-.31,.13-.57,.09-.82,.03-.09-.02-.18-.06-.26-.12,0,0,0,0,0,0h-.03c-.17-.13-.31-.28-.42-.44-.17-.23-.28-.44-.28-.46,0,.03,.15,.5,.43,.88-1.83,1.66-3.21-2.56-3.21-2.56,.14,.13,.29,.25,.43,.36,.09,.07,.19,.14,.29,.21,.46,.31,1.01,.59,1.41,.59,.07,0,.14,0,.2-.03l.05-.02,.02-.05s.14-.41,.15-.95c.24,.25,.69,.59,1.44,.74,.57,.11,1.07,.6,1.12,1.09,.03,.31-.14,.56-.49,.71Z"/>
      <path class="cls-10" d="M21.8,10.3s-.03-.06-.05-.09c-.06-.11-.14-.26-.19-.33-.13-.18-.28-.37-.47-.55-.55-.52-1.18-.71-1.82-.57-.76,.17-1.44,.1-1.9,.01h0c-.28-.06-.47-.12-.55-.15,0,0-.01,0-.02,0,0,0,0,0,0,0t0,0s-.01,0-.01,0h0c-.11-.03-.21-.06-.3-.09l.08,.18c.04,.08,.97,2.07,1.94,2.41h0s.09-.01,.11-.05c.18-.4,.16-.89-.02-1.29-.01-.03-.03-.06-.04-.09,.12,.03,.24,.05,.36,.07,.52,.97,.27,2,.2,2.25-.33,.05-.99-.25-1.64-.75-.19-.15-.38-.31-.56-.49,0,0,0,0,0,0-.07-.07-.14-.15-.21-.22-.47-.58-.66-1.45-.66-1.45-.03,.14-.04,.28-.03,.41-.07-.16-.12-.32-.14-.48-.01-.1-.02-.19-.02-.29,0-.02,0-.03,0-.05,0-.09,.02-.18,.05-.25,.05-.13,.12-.23,.23-.29,.22-.13,.54-.1,.81-.03,.01,0,.03,0,.04,.01,.27,.07,.48,.18,.48,.18l.06,.03,.05-.04c.24-.17,.95-.48,1.83-.36,.05,0,.1,.01,.15,.02,.3,.06,.62,.16,.94,.34,.36,.2,.62,.47,.8,.76,0,0,0,0,0,0,0,0,0,0,0,0,.09,.14,.16,.29,.22,.44,0,0,0,0,0,0,.09,.23,.22,.62,.26,.82Z"/>
      <path class="cls-17" d="M19.18,9.76c-.09,0-.17-.01-.25-.03,0-.02-.02-.03-.03-.05l.19-.11c.03,.06,.06,.12,.09,.18Z"/>
      <path class="cls-17" d="M16.71,10.52c.07,.08,.14,.15,.21,.22-.08-.07-.15-.14-.21-.22Z"/>
      <path class="cls-17" d="M19.18,9.76c-.09,0-.17-.01-.25-.03,0-.02-.02-.03-.03-.05l.19-.11c.03,.06,.06,.12,.09,.18Z"/>
      <path class="cls-17" d="M14.19,9.08c.09,0,.09-.14,0-.14s-.09,.14,0,.14h0Z"/>
      <polygon class="cls-17" points="16.51 1.23 16.51 1.24 16.51 1.23 16.51 1.23"/>
      <polygon class="cls-17" points="16.58 3.17 16.58 3.17 16.58 3.17 16.58 3.17"/>
      <polygon class="cls-17" points="16.58 3.17 16.59 3.18 16.59 3.17 16.58 3.17"/>
      <polygon class="cls-17" points="16.59 3.18 16.59 3.18 16.59 3.18 16.59 3.18"/>
      <path class="cls-17" d="M18.62,11.05s-.07,.05-.11,.05c-.01,0-.02,0-.03-.01-.05-.03-.06-.09-.04-.14,0,0,0,0,0-.01t0,0s0,0,0,0,0,0,0,0c0,0,0,0,0-.01,0-.01,0-.02,.01-.03,0-.01,0-.02,.01-.04,0-.01,0-.03,.01-.04,.01-.05,.03-.1,.03-.16,0,0,0,0,0-.01h0s0,0,0,0c0,0,0,0,0,0,0,0,0,0,0,0,0,0,0,0,0,0,0,0,0,0,0,0,0-.01,0-.03,0-.04,0-.02,0-.05,0-.07,0-.05,0-.1,0-.15,0-.03,0-.05,0-.08,0-.01,0-.03,0-.04,0,0,0,0,0,0h0s0,0,0,0c0,0,0,0,0,0h0s-.02-.1-.03-.15c-.01-.05-.03-.1-.04-.15,0-.02-.02-.05-.03-.07,0,0,0,0,0,0,0,0,0,0,0,0t0,0s0,0,0,0c0,0,0,0,0,0,0,0,0,0,0,0,0,0,0,0,0,0h0s0,0,0,0c0,0,0,0,0,0,0-.01,0-.02-.01-.03-.02-.04-.04-.09-.07-.13-.01-.02-.03-.04-.04-.06,0,0,0,0,0,0,0,0,0,0,0,0,0,0,0,0,0,0,0,0,0,0,0,0,0,0,0,0,0,0,0,0,0,0,0,0,0,0-.02-.02-.02-.03,0,0,0,0,0,0-.03-.04-.03-.1,0-.14,.04-.04,.11-.04,.14,0,.06,.07,.11,.14,.15,.22,.01,.03,.03,.06,.04,.09,.18,.4,.2,.89,.02,1.29Z"/>
      <polygon class="cls-17" points="16.2 1.94 16.2 1.95 16.2 1.94 16.2 1.94"/>
      <polygon class="cls-17" points="16.2 1.94 16.2 1.94 16.2 1.94 16.2 1.94"/>
      <path class="cls-17" d="M16.37,1.44s0,.01-.01,.02c0,0,0-.02,.01-.02Z"/>
      <polygon class="cls-17" points="12.91 6.71 12.91 6.71 12.91 6.71 12.91 6.71"/>
      <path class="cls-17" d="M16.81,8.61s0,0-.01,0h0s0,0,.01,0Z"/>
      <path class="cls-16" d="M20.49,3.41l-.25,.85-.54,1-.07,.07h0l-.25,.24-.11,.11-.09,.09h0l-.12,.11-.17,.08h0l-.13,.06h0s-.12,.11-.12,.11l-.19,.16-.14,.28-.05,.1-.1-.12-.12-.15-.04-.05h0s-.01-.02-.01-.02l-.06-.06-.14-.16-.07-.08-.1-.1-.3-.32-.51-.23-.53-.13-.54,.08-.49,.14-.21,.22-.23,.18-.14,.14-.15,.11-.14,.1v.36l-.15,.21-.07,.1v.22s0,.11,0,.11h0s-.04,.23-.04,.23l-.09,.54v.09s.07,.42,.07,.42l.07,.32h0s.02,.13,.02,.13h-.57l-.6-.18-.48-.23-.31-.29-.25-.63-.07-.76,.17-.34,.04-.09,.12-.22,.06-.1-.08-.08-.23-.23-.02-.02s0,0,0,0l-.05-.82,.06-.24,.11-.48,.03-.13,.3-.38,.02-.03,.26-.13h.03s.06-.04,.06-.04v-.46l.14-.07h.01s0,0,0,0c0,.12,.03,.23,.05,.34,.04,.21,.11,.41,.19,.58,.44,.92,1.42,1.25,2.49,1.33,.36,.03,.73,.03,1.09,.02,.5-.02,.99-.06,1.43-.09,.65-.05,1.12-.29,1.44-.58h0c.59-.53,.73-1.24,.73-1.27,0,0,0,0,0,0l.15,.14Z"/>
      <path class="cls-17" d="M19.22,7.46c0,.08-.03,.15-.06,.21-.07,.13-.17,.2-.27,.19-.09-.01-.16-.08-.2-.18-.03-.08-.05-.19-.03-.3,.03-.24,.18-.42,.34-.4,.16,.02,.26,.23,.23,.47Z"/>
      <path class="cls-12" d="M20.14,13.6c-1.83,1.66-3.21-2.56-3.21-2.56l.72,.57,2.5,1.99Z"/>
      <path class="cls-11" d="M19.71,12.72s.9,1.32,2.15,.77l-.35,.39-.47,.05-.54-.13-.19-.17-.31-.34-.3-.57Z"/>
      <path class="cls-17" d="M21.65,13.98c-.21,.09-.4,.13-.59,.13-.17,0-.33-.04-.48-.11,0,0,0,0-.01,0-.07-.04-.13-.08-.2-.13,0,0,0,0-.01-.01-.08-.07-.16-.16-.22-.25,0-.01-.02-.03-.03-.04-.26-.37-.39-.81-.4-.84,0,0,0,0,0,0,0,0,.02,.04,.04,.08,0,0,0,0,0,0,.05,.09,.13,.22,.24,.37,.08,.1,.16,.2,.26,.29,.05,.05,.1,.09,.16,.13,0,0,.02,.01,.03,.02,.05,.04,.11,.06,.17,.09,.03,.01,.06,.02,.09,.03,.06,.01,.12,.03,.19,.04,.19,.03,.4,.03,.63-.07,.14-.06,.25-.13,.33-.22,0,0,0,0,0,0,.13-.14,.18-.3,.16-.49,0-.06-.02-.11-.04-.17-.02-.07-.05-.15-.09-.22-.06-.11-.15-.22-.25-.31-.2-.19-.47-.34-.75-.4-.5-.1-.87-.29-1.13-.48-.13-.09-.23-.19-.31-.27-.15-.15-.21-.27-.22-.28l.18-.08s0,.01,.03,.03c.05,.05,.15,.16,.33,.29,.25,.18,.63,.38,1.17,.49,.33,.07,.64,.24,.88,.46,.1,.09,.19,.19,.26,.3,.04,.06,.08,.13,.11,.2,.06,.13,.1,.26,.11,.39,.05,.44-.2,.82-.67,1.02Z"/>
      <polygon class="cls-17" points="12.86 8.14 12.86 8.14 12.86 8.14 12.86 8.14"/>
      <path class="cls-17" d="M14.26,8.93s0,.03,0,.04h0s-.03,.06-.06,.07h0s-.01,0-.02,.01c-.02,0-.03,.01-.05,.01-.04,0-.08,0-.12,0-.32-.01-.65-.05-.96-.16-.28-.1-.54-.26-.75-.48-.2-.21-.34-.46-.43-.74-.14-.44-.09-.92,.11-1.33,.05-.11,.11-.21,.18-.3,.02-.03,.04-.05,.06-.08,0,0,0,0,0,0,.04-.04,.1-.05,.15-.03,.03,.05,.05,.1,.08,.15,0,.03-.02,.05-.03,.07,0,0-.01,.02-.02,.03,0,0,0,0,0,0h0s0,0,0,0t0,0s-.02,.03-.03,.04c0,.01-.01,.02-.02,.03-.01,.02-.03,.05-.04,.07-.04,.06-.07,.13-.1,.19,0,0,0,0,0,0,0,0,0,0,0,0,0,0,0,0,0,0,0,0,0,0,0,0t0,0s0,0,0,0c0,0,0,.01,0,.02,0,0,0,0,0,0,0,.02-.01,.04-.02,.06-.01,.04-.02,.07-.03,.11-.01,.04-.02,.07-.03,.11,0,.02,0,.04-.01,.06,0,.01,0,.02,0,.03,0,0,0,0,0,.01,0,0,0,0,0,0h0s0,.07,0,.1c0,.03,0,.07,0,.1,0,.07,0,.14,.01,.21,0,0,0,.01,0,.02,0,0,0,0,0-.01,0,0,0,.01,0,.02,0,.02,0,.04,0,.05,0,.03,.01,.06,.02,.09,.02,.06,.03,.12,.06,.18,0,0,0,.02,.01,.03,0,0,0,0,0,0,0,0,0,0,0,0,0,0,0,0,0,0s0,0,0,0c0,0,0,0,0,0,0,0,0,0,0,0,0,0,0,0,0,0,0,0,0,0,0,0,0,0,0,0,0,0,0,0,0,.01,0,.02,.01,.03,.03,.05,.04,.08,.03,.06,.06,.11,.1,.17,.02,.03,.04,.05,.06,.08h0s0,0,0,0c0,0,0,0,0,0,0,0,0,.01,.01,.02,0,.01,.02,.02,.03,.03,.04,.05,.09,.1,.13,.14,.03,.02,.05,.05,.08,.07,.01,0,.02,.02,.03,.03,0,0,0,0,0,0,0,0,.01,0,.02,.01,0,0,0,0,0,0,.05,.04,.11,.08,.17,.11,.03,.02,.06,.03,.09,.05,.02,0,.04,.02,.05,.03,0,0,0,0,.01,0h0s0,0,0,0c0,0,0,0,0,0s0,0,0,0h0s0,0,0,0c.07,.03,.14,.05,.21,.07,.07,.02,.15,.04,.22,.05,.04,0,.08,.01,.12,.02,0,0,.02,0,.03,0,0,0,0,0,0,0,0,0,0,0,0,0,.02,0,.03,0,.05,0,.14,.02,.29,.02,.43,.03,0,0,.01,0,.02,0,0,0,.01,0,.02,0,0,0,.02,0,.02,0,0,0,0,0,0,0,.03,0,.05,.03,.07,.05h0s.02,.05,.02,.07Z"/>
      <path class="cls-17" d="M18.11,6.35l-.23,.08s-.06-.16-.24-.36c-.16-.17-.41-.38-.81-.56-.4-.18-.87-.19-1.31-.02-.31,.12-.59,.32-.81,.58,0,0-.01,.01-.03,.04-.13,.16-.24,.33-.32,.53-.06,.14-.1,.29-.13,.45,0,0,0,0,0,0,0,0,0,0,0,0-.06,.34-.06,.73-.04,1.11,.04,.59,.15,1.15,.23,1.5-.03-.05-.05-.11-.08-.17-.03-.06-.05-.12-.08-.18h0s-.01-.05-.02-.08c-.02-.07-.04-.14-.06-.22h0c-.02-.08-.04-.16-.06-.25-.06-.27-.11-.57-.14-.87h0s0-.07,0-.11c0-.09-.01-.18-.01-.27,0-.08,0-.16,0-.23,0-.08,.01-.17,.02-.25,.03-.2,.07-.38,.14-.55,.09-.21,.21-.4,.35-.57,0,0,0,0,0,0,.02-.03,.05-.06,.08-.09,0,0,0,0,0,0h0s0,0,0,0c.24-.27,.53-.47,.86-.6,.5-.19,1.03-.18,1.49,.03,.75,.34,1.04,.78,1.14,.97,.03,.05,.04,.08,.04,.09Z"/>
      <path class="cls-17" d="M14.72,6v.06s-.01,.01-.03,.04c-.09,.12-.38,.54-.48,1.23,0,0,0,0,0,0-.04,.26-.04,.55,0,.88h0s-.01-.02-.01-.02l-.2-.26h0s0,0,0,0h0s.08-.41,.08-.41l.09-.45,.02-.1,.07-.57,.21-.19h0s.25-.23,.25-.23Z"/>
      <path class="cls-13" d="M19.75,1.04s-2.34-1.24-3.51,.58v-.34l.45-.57,.56-.43,.75-.1h.51l.59,.1,.36,.33,.3,.44Z"/>
      <path class="cls-13" d="M16.04,2.4s-1.79-1.19-3.08,.07l-.03-.22,.52-.43,.7-.22,.35-.04,.33-.04,.36,.15,.26,.06,.32,.14,.26,.11v.42Z"/>
      <path class="cls-17" d="M16.03,1.96s-.02-.02-.03-.02c0,0-.02-.01-.02-.02-.1-.07-.21-.14-.32-.21-.05-.03-.1-.06-.15-.08t0,0c-.11-.05-.22-.1-.33-.14h0c-.12-.04-.24-.07-.36-.09-.38-.06-.77-.03-1.12,.13-.31,.14-.58,.37-.76,.66-.11,.17-.18,.36-.22,.55-.02,.08-.03,.17-.04,.26,0,.02,0,.04,0,.05,0,.05,0,.1,0,.15,0,.05,0,.1,.01,.15,0,.06,.02,.12,.03,.18,0,0,0,0,0,0,0,0,0,.01,0,.02,0,.02,.01,.05,.02,.07,.02,.08,.04,.15,.07,.22h0s.02,.06,.03,.09c.06,.16,.14,.31,.24,.45,.03,.05,.07,.1,.1,.15-.11-.23-.18-.45-.21-.66-.02-.12-.03-.23-.04-.33,0-.06,0-.12,0-.18,0-.03,0-.05,0-.08,0-.11,.01-.21,.03-.3h0s0-.02,0-.02c0,0,0,0,0,0,0,0,0-.02,0-.03h0s0,0,0,0c0-.02,0-.04,.01-.06,0-.01,0-.03,0-.04,.01-.07,.03-.13,.05-.19,0-.01,0-.02,.01-.03,0,0,0,0,0-.01,0,0,0,0,0,0v-.03s.01,0,.01,0h0s0,0,0,0c0,0,0,0,0,0,.01-.02,.02-.05,.03-.07,0-.01,.01-.02,.02-.04,.04-.07,.08-.13,.12-.2,0,0,0-.01,.01-.02,0,0,0,0,0,0,0,0,0,0,0,0,.01-.02,.03-.03,.04-.05,.03-.03,.05-.06,.08-.09,.03-.03,.06-.05,.09-.08,.01-.01,.03-.02,.04-.03,0,0,0,0,0,0,0,0,0,0,0,0,0,0,0,0,0,0,0,0,.02-.01,.03-.02,.06-.05,.13-.09,.2-.12,.03-.02,.07-.03,.11-.05,0,0,0,0,0,0,0,0,0,0,0,0,0,0,.02,0,.03-.01,.02,0,.04-.01,.06-.02,.08-.03,.16-.05,.24-.06,.02,0,.04,0,.06-.01,0,0,0,0,0,0,.01,0,.02,0,.03,0,.04,0,.09,0,.13,0,.09,0,.18,0,.27,0,0,0,.01,0,.02,0,0,0,0,0,.01,0,0,0,.01,0,.02,0,.03,0,0,0,0,0,0,0,.06,0,.07,.01,.05,0,.09,.02,.14,.03,.06,.01,.12,.03,.17,.05,0,0,0,0,0,0,.04,.01,.07,.02,.11,.04,.02,0,.04,.02,.07,.03,0,0,0,0,0,0,0,0,0,0,0,0t0,0s0,0,0,0c.01,0,.03,.01,.04,.02,.05,.02,.1,.05,.15,.07,.06,.03,.12,.06,.17,.1h0s.02,.01,.03,.02c.03,.02,.06,.04,.09,.06,.05,.03,.24,.2,.29,.23h0c.06,.04,.01-.12,.04-.17,.04-.07,.01-.14-.05-.19Z"/>
      <path class="cls-17" d="M20.63,3.06c0,.07-.01,.14-.02,.21-.05,.42-.16,.84-.32,1.23-.14,.32-.31,.63-.53,.9-.04,.05-.08,.1-.13,.15-.03,.03-.06,.06-.09,.09-.03,.03-.06,.06-.09,.09-.02,.02-.04,.04-.06,.05,0,0-.01,.01-.02,.02-.06,.06-.13,.11-.2,.17-.04,.03-.08,.06-.11,.08-.01,0-.02,.02-.03,.02-.08,.05-.16,.1-.24,.14,0,0-.01-.01-.02-.02-.02-.01-.04-.03-.05-.04,0,0-.01,0-.02-.01,0,0,0,0,0,0-.02-.01-.05-.02-.07-.03-.01,0-.03-.01-.04-.01,0,0,0,0-.01,0,0,0,0,0,0,0,0,0,0,0,0,0,0,0,0,0,0,0,0,0-.01,0-.01,0-.02,0-.03,0-.05,0,0-.01,.02-.02,.03-.03,.01,0,.02-.02,.03-.02,.02,0,.03-.01,.04-.02h0s0,0,0,0c0,0,.01,0,.02,0,0,0,0,0,0,0,0,0,0,0,0,0,.01,0,.03-.02,.04-.02,.02-.01,.04-.02,.06-.03,0,0,.02,0,.03-.01h0s0,0,0,0c0,0,0,0,0,0,0,0,0,0,0,0,0,0,0,0,0,0h0s.01,0,.02-.01c.03-.02,.05-.03,.08-.05,.02-.01,.03-.02,.05-.03,.02-.01,.04-.03,.05-.04,0,0,.01,0,.02-.01,0,0,0,0,0,0,0,0,0,0,0,0,.01-.01,.03-.02,.04-.03,0,0,0,0,0,0s0,0,0,0c0,0,0,0,0,0,.02-.01,.03-.02,.04-.04,.02-.01,.03-.03,.05-.04,.02-.02,.04-.04,.07-.06,.02-.02,.04-.03,.05-.05l.02-.02s0,0,0,0c0,0,0,0,0,0h0s.07-.07,.1-.1c.04-.04,.07-.08,.11-.13,0,0,0,0,0,0,.03-.03,.05-.06,.07-.09,.06-.08,.12-.16,.17-.24,.01-.02,.03-.04,.04-.07,0,0,.01-.02,.02-.03,0,0,0,0,0-.01,0,0,0,0,0,0,0,0,0,0,0,0,0,0,0,0,0,0,0,0,0,0,0,0h0s.04-.08,.06-.11c.09-.18,.17-.36,.24-.55,.03-.1,.06-.19,.09-.29,0,0,0,0,0-.02,0,0,0,0,0,0h0s0,0,0,0c0,0,0,0,0,0h0s0,0,0,0c0,0,0,0,0,0,0,0,0,0,0,0,0,0,0-.01,0-.02,0-.02,.01-.05,.02-.07,.01-.05,.02-.1,.03-.15,0-.02,0-.04,.01-.06,0-.01,0-.02,0-.03,0,0,0,0,0,0,0-.04,.01-.08,.02-.12,0-.03,0-.05,0-.08,0,0,0,0,0,0,0-.02,0-.05,0-.07,0-.03,0-.05,0-.08,0,0,0,0,0,0,0-.05,0-.1,0-.15,0-.02,0-.05,0-.07,0,0,0-.02,0-.03,0-.02,0-.04,0-.06v-.02s0,0,0,0v-.02s0-.05,0-.07c0-.1-.01-.2-.02-.29,0,0,0,0,0,0-.01-.09-.03-.18-.05-.28,0,0,0,0,0,0-.01-.05-.02-.09-.03-.14,0,0,0,0,0,0,0,0,0,0,0,0,0,0,0,0,0,0,0,0,0,0,0,0h0s0-.02,0-.03c0-.02-.01-.05-.02-.07-.03-.09-.06-.18-.1-.27-.02-.04-.04-.09-.06-.13-.01-.02-.02-.04-.04-.07,0,0,0-.02-.01-.03,0,0,0,0,0,0,0,0,0,0,0,0h0s0,0,0,0c0,0,0,0,0,0,0,0,0,0,0,0-.1-.16-.21-.31-.34-.44,0,0,0,0,0,0h0s0,0-.01-.01c0,0-.02-.02-.03-.02-.02-.02-.03-.03-.05-.05-.04-.04-.08-.07-.13-.11-.04-.03-.09-.07-.13-.1-.02-.02-.05-.03-.07-.05-.02,0-.04-.02-.05-.03,0,0,0,0,0,0,0,0,0,0,0,0,0,0,0,0-.01,0t0,0s0,0,0,0c0,0,0,0-.01,0-.01,0-.02-.01-.04-.02-.02-.01-.04-.02-.07-.03-.05-.02-.1-.04-.14-.06-.05-.02-.1-.04-.15-.05-.02,0-.05-.02-.07-.02,0,0,0,0,0,0,0,0,0,0,0,0,0,0,0,0-.01,0,0,0,0,0,0,0-.01,0-.02,0-.04,0-.1-.02-.2-.04-.3-.05-.05,0-.1,0-.15,0-.02,0-.04,0-.07,0h0s0,0,0,0c0,0,0,0-.01,0-.01,0-.02,0-.03,0-.1,0-.19,.01-.29,.03-.05,0-.1,.02-.14,.03-.02,0-.05,.01-.07,.02,0,0,0,0,0,0,0,0,0,0,0,0,0,0-.02,0-.03,0-.09,.03-.18,.06-.27,.1-.04,.02-.08,.04-.13,.06-.02,.01-.04,.02-.06,.04,0,0,0,0,0,0,0,0,0,0,0,0,0,0,0,0,0,0,0,0,0,0,0,0,0,0-.01,0-.02,.01-.08,.05-.15,.1-.22,.16-.04,.03-.07,.06-.1,.09,0,0,0,0-.01,.01,0,0,0,0,0,0,0,0,0,0,0,0,0,0,0,0,0,0,0,0,0,0,0,0,0,0,0,0-.01,.01-.02,.02-.03,.03-.05,.05-.03,.04-.06,.08-.09,.12,0,0,0,0,0,0,0,.01-.02,.02-.02,.03,0,0,0,0,0,.01-.01,.02-.02,.03-.03,.05-.01,.02-.02,.04-.03,.05,0,0,0,0,0,0,0,0,0,0,0,0,0,0,0,0,0,0,0,0,0,.02-.01,.03-.01,.02-.02,.05-.04,.07,0,0,0,0,0,0,0,.01-.01,.03-.02,.04,0,.02-.01,.03-.02,.05,0,0,0,0,0,.01,0,.01,0,.02-.01,.04s0,.02-.01,.04c0,0,0,.02,0,.03,0,0,0,.01,0,.02,0,.01,0,.03-.01,.04,0,.02,0,.03-.01,.05,0,.02-.01,.04-.01,.06,0,.01,0,.03,0,.04,0,0,0,0,0,0,0,0,0,0,0,.01,0,0,0,.02,0,.03,0,.01,0,.02,0,.04,0,.01,0,.03,0,.04s0,.03,0,.05,0,.03,0,.05c0,0,0,0,0,0,0,0,0,0,0,0,0,0,0,0,0,0,0,0,0,0,0,.01,0,.01,0,.03,0,.05-.03,.33,.02,.73,.25,1.18-.08-.11-.15-.22-.21-.34-.08-.15-.15-.32-.19-.49h0c-.03-.12-.05-.25-.06-.38,0,0,0-.01,0-.02,0-.11,0-.23,.02-.34,0-.01,0-.03,0-.04,0,0,0,0,0,0,.02-.08,.04-.15,.06-.23,.11-.3,.29-.56,.54-.77,.31-.26,.69-.43,1.08-.5,.42-.08,.86-.04,1.27,.11,.42,.16,.79,.44,1.07,.79,.26,.32,.43,.7,.52,1.1,.02,.09,.04,.18,.05,.27,.01,.09,.02,.18,.03,.28,.01,.16,.01,.32,0,.48Z"/>
      <path class="cls-13" d="M12.78,3.84s-.74,.41-.74,1.17l-.08-.37,.07-.55,.31-.38,.42-.2,.02,.33Z"/>
      <path class="cls-17" d="M12.91,6.71s-.03,0-.04-.01c-.03-.02-.06-.03-.09-.05-.07-.04-.15-.09-.21-.15-.09-.07-.17-.14-.24-.22-.03-.03-.06-.07-.09-.11-.03-.03-.05-.07-.08-.11h0c-.07-.1-.13-.2-.18-.3,0-.01-.01-.02-.02-.03,0,0,0,0,0,0-.06-.13-.11-.26-.14-.4-.06-.24-.08-.49-.04-.74,0,0,0,0,0,0,0-.03,0-.05,.01-.08,.05-.27,.16-.52,.33-.73,.15-.19,.34-.33,.55-.43,.04-.02,.08-.04,.12-.05,.01,0,.03-.01,.04-.02,.03-.01,.05,0,.08,0,0,.02,0,.05,0,.08,0,.06,0,.12,0,.18,0,0,0,0-.01,0,0,0-.01,0-.02,0t0,0s0,0,0,0c0,0,0,0,0,0,0,0,0,0,0,0-.02,0-.03,.01-.04,.02-.02,0-.03,.02-.05,.03-.02,0-.03,.02-.05,.03-.03,.02-.05,.03-.08,.05-.03,.02-.06,.04-.08,.06,0,0,0,0,0,0h0s0,0,0,0c0,0,0,0,0,0,0,0,0,0,0,0-.01,0-.02,.02-.03,.03-.05,.04-.09,.09-.14,.13-.02,.02-.04,.04-.05,.07,0,0,0,0,0,0,0,0,0,0,0,0,0,0,0,.01-.01,.02,0,.01-.02,.02-.02,.03-.03,.05-.06,.1-.09,.16,0,.01-.01,.03-.02,.04,0,0,0,.01,0,.02h0s0,0,0,0h0s0,0,0,0c0,0,0,0,0,0,0,0,0,0,0,0h0s0,0,0,0c0,0,0,0,0,0,0,0,0,0,0,0,0,0,0,0,0,0,0,0,0,.01,0,.02,0,.01-.01,.03-.02,.04-.02,.06-.04,.11-.05,.17,0,.03-.01,.06-.02,.09,0,.01,0,.02,0,.03,0,0,0,0,0,0,0,0,0,0,0,0h0s0,0,0,0h0s0,.01,0,.02c-.01,.12-.01,.25,0,.37,0,.01,0,.03,0,.04,0,0,0,0,0,0,0,0,0,0,0,0,0,0,0,0,0,0,0,0,0,0,0,0,0,0,0,0,0,0,0,0,0,0,0,0,0,.03,.01,.06,.02,.09,.01,.06,.03,.12,.05,.18,0,.03,.02,.05,.03,.08h0s.02,.06,.04,.1c0,0,0,0,0,0,0,0,0,0,0,0,0,0,0,0,0,0,0,0,0,0,0,0,0,0,0,0,0,0,0,0,0,0,0,0,0,.01,.01,.03,.02,.04,0,0,0,0,0,0,0,.01,0,.02,.01,.03,.04,.09,.09,.2,.15,.32,.03,.05,.05,.1,.08,.15,.06,.11,.13,.22,.2,.32,.08,.11,.17,.22,.27,.3Z"/>
      <path class="cls-17" d="M21.44,9.26s.37,.86,.34,1.04,.09,.23,.11,.24,.07,0,.07,0v-.19l-.14-.5-.15-.38-.1-.21h-.12Z"/>
      <path class="cls-15" d="M14.24,7.26s.16,2.7,1.25,3.62c0,0-.48-.32-.77-.71s-.46-1.16-.46-1.16l-.16-1.07,.14-.68Z"/>
      <path class="cls-17" d="M14.94,10.39s0,0-.02-.02c0,0,0,0-.01-.01-.03-.02-.07-.07-.12-.12,0,0-.02-.02-.03-.03,0-.01-.02-.02-.03-.03,0-.01-.02-.02-.03-.04-.03-.04-.06-.08-.09-.13,0,0,0,0,0,0,0,0,0,0,0,0-.02-.02-.03-.05-.05-.08,0-.01-.02-.03-.03-.04,0-.01-.02-.03-.03-.04h0s-.05-.1-.08-.15c-.03-.05-.05-.11-.08-.17-.02-.05-.05-.11-.07-.17,0,0,0-.01,0-.02h0s-.02-.05-.03-.07c-.03-.07-.05-.14-.07-.22-.01-.04-.03-.09-.04-.14,0-.02,0-.04-.01-.05,0-.02-.01-.05-.02-.07,0-.02-.01-.05-.02-.07-.02-.08-.03-.17-.05-.26,0-.02,0-.05-.01-.07,0-.04-.01-.09-.02-.13-.01-.13-.03-.26-.03-.41,0-.1,0-.19,0-.3,0-.1,0-.21,.01-.32v-.02s0-.02,0-.03c0-.04,0-.08,0-.11h.23s0,0,0,0c0,0,0,0,0,0,0,0,0,0,0,0,0,.03-.01,.11-.02,.24,0,0,0,0,0,0,0,0,0,.02,0,.02,0,.01,0,.02,0,.04h0s0,.01,0,.02c0,.01,0,.03,0,.04,0,.04,0,.08,0,.12,0,.02,0,.03,0,.05,0,.17,0,.36,.01,.58h0c0,.09,.01,.18,.02,.28,0,.05,.01,.11,.02,.16,0,.04,.01,.08,.02,.12,0,.02,0,.05,.01,.07,0,.04,.02,.09,.02,.13,0,.03,.01,.06,.02,.08,0,.02,.01,.05,.02,.07,0,.01,0,.02,0,.04,0,.02,0,.04,.01,.06,0,.03,.01,.05,.02,.08,0,.02,.01,.04,.02,.06,.03,.08,.05,.17,.08,.25,0,.01,.01,.03,.02,.04,.01,.03,.02,.06,.04,.09,0,.01,.01,.03,.02,.04,0,.01,.01,.03,.02,.04,0,.01,.01,.03,.02,.04,.03,.05,.05,.11,.08,.16,0,0,0,.02,.01,.02,0,.01,.01,.02,.02,.03,0,0,0,.02,.01,.02,0,.01,.02,.03,.02,.04,0,.01,.02,.03,.03,.04,.01,.02,.02,.03,.04,.05,.01,.01,.02,.03,.03,.04,.02,.02,.04,.05,.05,.07,.01,.02,.03,.03,.04,.05Z"/>
      <path class="cls-17" d="M14.58,5.86h0s-.11,.37-.11,.37l-.26,.86-.13,.45-.09,.3v.03s-.01,.01-.01,.01c-.01-.19-.01-.38,0-.54,0-.03,0-.06,0-.08,0-.06,.01-.11,.02-.16,.1-.58,.35-.96,.48-1.12,0,0,0,0,0,0,.04-.06,.07-.09,.08-.1,0,0,0,0,0,0Z"/>
      <path class="cls-15" d="M13.97,10.06s-1.73,2.26,.53,3.19l.09,.41v.21l-.52-.15-.28-.2-.15-.19-.21-.17-.06-.12-.23-.75v-.47l.14-.64,.22-.57,.36-.52,.11-.02Z"/>
      <path class="cls-17" d="M14.65,13.73l-.03,.24h0c-.45-.1-.8-.29-1.06-.55-.15-.15-.27-.32-.37-.51-.66-1.33,.58-3.02,.96-3.52,.04-.05,.07-.09,.09-.11,0,0,0,0,0,0,0,0,.01-.02,.01-.02l.04,.1,.06,.16s0,0-.01,.01c-.04,.05-.2,.25-.38,.52,0,0,0,0,0,0,0,0,0,0,0,0-.17,.26-.36,.59-.5,.95,0,0,0,0,0,0,0,0,0,0,0,0-.22,.57-.33,1.23-.05,1.8,.2,.42,.56,.73,1.13,.89,.01,0,.03,0,.04,.01,.02,0,.05,.01,.07,.02Z"/>
      <path class="cls-15" d="M14.52,13.16s.36,1.62,1.8,.71l.19,.28,.12,.16-.02,.15-.46,.09-.4,.04-.4-.03-.17-.12-.28-.13-.18-.32-.03-.23-.16-.44v-.15Z"/>
      <path class="cls-17" d="M16.79,14.5s-.03,.01-.05,.02c-.34,.14-.66,.21-.94,.21-.26,0-.5-.06-.71-.18-.24-.14-.39-.36-.47-.58-.03-.09-.06-.18-.07-.26-.06-.32-.02-.6-.03-.62,0,.01,.02,.23,.12,.5,.1,.27,.27,.58,.57,.76,.34,.2,.79,.2,1.33,0,.05-.02,.1-.04,.15-.06l.1,.22Z"/>
      <path class="cls-15" d="M16.29,13.58s.31,1.05,1.48,.33l.46,.14,.07,.18-.3,.1-.56,.24-.65-.09-.28-.35-.17-.38-.05-.18Z"/>
      <path class="cls-17" d="M18.38,14.24s-.06,.04-.09,.07c-.35,.25-.69,.38-.99,.38-.12,0-.23-.02-.34-.05-.08-.03-.16-.07-.23-.11-.08-.05-.14-.12-.19-.19-.28-.35-.3-.86-.31-.9,0,.02,.07,.21,.19,.42,.13,.22,.33,.46,.62,.56,.3,.1,.65,.02,1.04-.24,.05-.03,.1-.07,.16-.11l.15,.19Z"/>
      <path class="cls-17" d="M20.45,13.61s0,0,0,0c0,.01-.02,.05-.04,.1-.01,.04-.03,.08-.05,.13,0,.01-.01,.02-.02,.03-.04,.08-.09,.16-.15,.25-.04,.05-.08,.1-.13,.15h0c-.11,.11-.24,.21-.4,.27-.13,.05-.27,.08-.42,.08,0,0,0,0,0,0t0,0s0,0,0,0t0,0c-.14,0-.29-.03-.45-.08-.12-.04-.24-.1-.36-.16-.05-.03-.09-.05-.13-.08-.02,0-.03-.02-.04-.03-.06-.04-.12-.08-.17-.12-.03-.02-.06-.05-.1-.07-.01-.01-.03-.02-.04-.03-.03-.03-.07-.06-.1-.08-.01-.01-.03-.03-.04-.04-.1-.09-.19-.19-.27-.29-.01-.01-.02-.03-.04-.04-.04-.04-.07-.09-.1-.14-.01-.01-.02-.03-.03-.04-.04-.06-.08-.12-.12-.18,0-.01-.02-.03-.03-.04-.04-.08-.09-.16-.12-.24,0-.02-.01-.03-.02-.05-.06-.13-.11-.25-.15-.38,0-.02,0-.03-.01-.04,0-.02-.01-.03-.02-.05,0-.02,0-.03-.01-.05-.02-.06-.03-.11-.04-.17,0-.02,0-.03-.01-.05,0-.02,0-.04-.01-.07,0-.01,0-.03,0-.04,0,0,0-.01,0-.02,0-.02,0-.05-.01-.07,0-.03,0-.05-.01-.08,0-.02,0-.05-.01-.07,0,0,0,0,0-.01,0-.03,0-.06,0-.08,0-.01,0-.02,0-.04,0-.02,0-.04,0-.06,0-.03,0-.05,0-.08,0-.03,0-.06,0-.09,0,0,0,0,0,0,0-.03,0-.05,0-.08,0-.03,0-.06,0-.08,0-.15,0-.3,.02-.42,0-.03,0-.06,.01-.08l.18,.04c0,.06-.02,.13-.02,.2,0,.13,0,.28,0,.44,.07,.87,.5,2.01,1.64,2.65,.03,.02,.06,.03,.09,.05,.34,.17,.64,.2,.89,.1,.19-.08,.33-.22,.42-.37,.08-.12,.13-.23,.17-.31,.01-.03,.02-.06,.03-.07h0s.01-.03,.01-.03h.03s.22,.1,.22,.1h.03Z"/>
      <path class="cls-17" d="M16.71,10.83s-.11-.1-.22-.24c.07,.08,.14,.16,.22,.24Z"/>
      <path class="cls-1" d="M15.59,8.41v1.35s.2,.67,.21,.68,.49,.19,.49,.19l.14-.12-.28-.76-.11-.69-.26-.33-.2-.33Z"/>
      <path class="cls-17" d="M19.47,11.16c0,.15-.02,.29-.03,.41-.04,.31-.11,.52-.12,.54l-.02,.05-.05,.02c-.06,.02-.13,.03-.2,.03-.03,0-.05,0-.08,0,0,0-.01,0-.02,0,0,0-.01,0-.02,0,0,0-.02,0-.03,0-.03,0-.06,0-.09-.02-.02,0-.03,0-.05-.01-.02,0-.03,0-.05-.01-.01,0-.02,0-.03-.01-.01,0-.02,0-.04-.01-.02,0-.04-.01-.06-.02-.01,0-.02,0-.04-.01-.02,0-.04-.01-.05-.02-.02,0-.03-.01-.05-.02-.08-.03-.17-.07-.26-.12-.02,0-.03-.02-.05-.02,0,0,0,0-.01,0-.03-.01-.06-.03-.08-.05-.09-.05-.18-.1-.27-.16-.02,0-.03-.02-.04-.03-.02,0-.03-.02-.04-.03-.01,0-.03-.02-.04-.03-.03-.02-.05-.03-.07-.05-.05-.03-.1-.07-.14-.1-.02-.02-.05-.03-.07-.05-.14-.11-.29-.23-.43-.36h0c-.06-.05-.11-.11-.17-.16-.02-.02-.03-.03-.05-.05,0,0,0,0,0,0-.07-.08-.15-.16-.22-.24-.02-.02-.04-.05-.06-.08-.12-.16-.25-.38-.33-.63,0,0,0,0,0,0,0,0,0,0,0-.01-.04-.12-.06-.24-.07-.38,0,0,0,0,0,0,0-.13,0-.27,.03-.41h0s.04,.15,.09,.33h0c.02,.07,.05,.15,.08,.24,.11,.28,.27,.62,.49,.89,.07,.08,.14,.16,.21,.22,0,0,0,0,0,0,.18,.18,.37,.34,.56,.49,.65,.5,1.31,.8,1.64,.75,.03-.1,.08-.31,.11-.6,.02-.24,.02-.53-.03-.84-.03-.15-.07-.31-.12-.46-.04-.12-.09-.23-.15-.35,.08,.01,.17,.02,.25,.03,.06,.12,.1,.24,.14,.35,.04,.12,.07,.23,.09,.35,.03,.13,.04,.25,.05,.37,0,.11,.01,.22,0,.32Z"/>
      <path class="cls-17" d="M16.04,9.07s-.08-.01-.17-.07c-.11-.07-.22-.22-.21-.5,0,0,0-.01,0-.02h0s.24-.07,.24-.07c0,0-.05,.11-.05,.25,0,.12,.04,.28,.18,.41Z"/>
      <path class="cls-17" d="M15.67,8.46s-.03,.52,.19,.7c0,0,.15,.47,.24,.72s.05-.2,.05-.2l-.02-.14,.02-.14-.09-.33-.16-.19-.22-.42Z"/>
      <path class="cls-17" d="M15.71,8.34s-.16,.39,.06,.7,.09-.16,.09-.16l-.08-.19,.03-.19v-.1s-.1-.06-.1-.06Z"/>
      <path class="cls-14" d="M17.19,8.72s-.99-.74-1.31-.12c0,0,.59-.08,.85,.41,.09,.16,.45-.29,.45-.29Z"/>
      <path class="cls-17" d="M22.01,10.75v.31s-.01,.06-.01,.06v.19s-.09-.24-.09-.24l-.11-.29s0,0,0,0,0,0,0-.02c0,0,0,0,0,0-.04-.09-.16-.35-.4-.59-.39-.39-.91-.53-1.53-.43-.11,.02-.21,.03-.32,.03-.05,0-.1,0-.16,0-.07,0-.13,0-.2,0-.01-.03-.03-.06-.04-.08,0,0,0,0,0,0,0-.01-.01-.03-.02-.04,0,0,0,0,0,0,0-.01-.02-.03-.02-.04l-.12,.07-.07,.04s.02,.03,.03,.05c-.12-.02-.24-.04-.36-.07-.02,0-.03,0-.04-.01-.09-.02-.17-.04-.25-.07-.54-.17-1.01-.42-1.3-.61,.07,.13,.15,.28,.25,.44,0,.01,.02,.03,.03,.04h0s0,.01,.01,.02c.33,.53,.78,1.15,1.23,1.37,.02,.01,.05,.02,.07,.03,.01,0,.02,0,.03,.01l-.07,.2h0s-.01,0-.02,0c0,0,0,0,0,0-.01,0-.02,0-.03-.01-.02,0-.03-.01-.05-.02,0,0,0,0,0,0-.02,0-.03-.02-.05-.03-.01,0-.02-.01-.03-.02-.02-.01-.05-.03-.07-.04,0,0-.02-.01-.02-.02,0,0,0,0,0,0-.02-.01-.04-.03-.06-.04-.02-.01-.03-.02-.05-.04-.01,0-.02-.02-.03-.03-.01,0-.02-.02-.03-.03-.03-.02-.05-.05-.08-.07-.01-.01-.02-.02-.03-.03-.03-.03-.06-.06-.09-.09-.03-.03-.06-.06-.09-.09-.02-.02-.04-.05-.06-.07-.03-.04-.06-.07-.09-.11-.01-.02-.03-.03-.04-.05-.01-.02-.03-.03-.04-.05,0,0,0,0,0-.01-.02-.03-.04-.05-.06-.08,0,0,0,0,0-.01-.01-.02-.03-.03-.04-.05-.01-.02-.02-.03-.04-.05-.01-.02-.02-.03-.04-.05-.01-.02-.02-.03-.04-.05-.02-.03-.04-.05-.06-.08-.06-.08-.11-.16-.16-.24-.01-.02-.02-.04-.04-.06-.07-.12-.14-.23-.2-.34,0-.01-.01-.02-.02-.03-.04-.06-.07-.13-.1-.18,0,0,0,0,0,0,0,0,0,0,0,0-.02-.04-.04-.08-.06-.12,0-.01-.01-.02-.02-.03,0-.02-.02-.03-.02-.04-.03-.07-.05-.11-.06-.12l-.08-.18c.09,.03,.19,.06,.3,.1l-.08,.2s0,0,0,0c0,0,.01,0,.02,0,0,0,.01,0,.02,0,0,0,.01,0,.02,0,.02,0,.03,.01,.05,.02,0,0,0,0,0,0,0,0,0,0,0,0,0,0,.02,0,.03,.01,.01,0,.02,0,.04,.01,0,0,0,0,0,0,0,0,.02,0,.02,0,.02,0,.05,.01,.07,.02h0s0,0,0,0c.01,0,.03,0,.04,.01,.01,0,.03,0,.04,.01,.02,0,.04,0,.06,.01h0s.08,.02,.13,.03c.02,0,.04,0,.06,.01,0,0,0,0,0,0,.02,0,.05,0,.07,.01,.26,.14,.58,.29,.94,.39h0c.33,.1,.69,.16,1.06,.16,.13,0,.25-.01,.38-.03,.61-.1,1.06,.03,1.38,.23,.14,.08,.25,.18,.34,.27,.03,.03,.06,.06,.09,.09,.06,.07,.11,.13,.15,.19h0s.02,.03,.03,.05c0,0,0,0,0,0,.04,.06,.07,.12,.1,.16-.09-.39-.24-.76-.37-1.03,0,0,0,0,0,0-.01-.03-.02-.06-.04-.09,0-.01-.01-.02-.02-.03,0-.01-.01-.03-.02-.04,0-.02-.01-.03-.02-.05,0,0,0,0,0,0,0,0,0,0,0,0t0,0h0s0,0,0,0c-.02-.04-.04-.07-.06-.11-.02-.04-.04-.07-.06-.11,0,0,0,0,0,0,0,0,0,0,0,0-.19-.29-.44-.56-.8-.76-.02-.01-.04-.02-.06-.03,0,0-.01,0-.02,0-.03-.02-.06-.03-.09-.04-.01,0-.03-.01-.04-.02-.01,0-.02-.01-.03-.02-.03-.01-.06-.03-.09-.04-.02,0-.04-.02-.05-.02-.02,0-.04-.02-.06-.02,0,0,0,0,0,0,0,0,0,0-.01,0-.02,0-.04-.01-.06-.02,0,0,0,0,0,0-.01,0-.02,0-.04-.01-.01,0-.02,0-.04-.01-.02,0-.03,0-.05-.01-.01,0-.03,0-.04-.01-.03,0-.05-.01-.08-.02-.02,0-.05-.01-.07-.02,0,0,0,0,0,0-.02,0-.04,0-.05-.01-.02,0-.04,0-.06-.01-.05,0-.1-.02-.15-.02-.12-.02-.24-.02-.36-.03-.72,0-1.27,.24-1.48,.38l-.05,.04-.06-.03s-.22-.11-.48-.18c-.01,0-.03,0-.04-.01-.27-.07-.59-.1-.81,.03-.1,.06-.18,.16-.23,.29-.03,.07-.04,.16-.05,.25h0s0,.03,0,.05c0,.04,0,.08,0,.12h0s0,0,0,0c0,.01,0,.02,0,.04,0,0,0,.02,0,.02,0,0,0,0,0,0,0,.01,0,.03,0,.04,0,0,0,.02,0,.03,0,0,0,0,0,0h0s0,0,0,0c0,0,0,.02,0,.02-.01,0-.03-.02-.04-.03,0,0-.01-.01-.02-.02,0,0,0,0-.01-.01,0,0,0,0-.01-.01,0-.01-.02-.02-.03-.03,0,0,0,0,0-.01-.02-.03-.04-.06-.05-.09,0-.01,0-.02-.01-.04,0,0,0-.01,0-.02,0-.01,0-.02,0-.03,0,0,0-.02,0-.02,0,0,0-.01,0-.02h0s0-.02,0-.03c0-.01,0-.02,0-.03,0,0,0,0,0,0,0,0,0-.01,0-.02,0,0,0-.01,0-.02,0,0,0,0,0,0,0-.01,0-.03,0-.04h0s0-.01,0-.02c0,0,0,0,0-.01,0,0,0-.02,0-.03,0,0,0,0,0,0,0,0,0,0,0,0,0,0,0,0,0,0,0-.01,0-.03,.01-.04s0-.03,.01-.04h0s0,0,0,0c0,0,0-.01,0-.02,0,0,0,0,0,0,0-.01,0-.02,.01-.03,0,0,0-.01,0-.02,0,0,0,0,0,0,.01-.03,.03-.06,.04-.08,0,0,0,0,0-.01,0,0,0,0,0-.01,0,0,0,0,0,0,0,0,0-.01,0-.02,0,0,0,0,0,0,0,0,0,0,0-.01,0,0,0,0,0,0,0,0,.01-.01,.02-.02,0,0,0,0,0,0,0,0,0,0,0,0,0,0,0,0,0,0,0,0,0,0,0,0,0,0,.01-.01,.02-.02h0s.01-.01,.02-.02c0,0,.02-.02,.02-.02,0,0,0,0,0,0,0,0,0,0,.01,0,0,0,0,0,0,0,0,0,0,0,.01-.01,0,0,0,0,0,0,0,0,.01,0,.02-.01,0,0,0,0,0,0,0,0,.01,0,.02-.01,0,0,0,0,0,0,0,0,.01,0,.02-.01,.01,0,.03-.02,.04-.03,.22-.13,.5-.14,.76-.09,.02,0,.04,0,.05,0,.1,.02,.19,.04,.28,.07,.17,.05,.31,.11,.38,.14,.02-.01,.04-.02,.06-.03,.09-.05,.21-.11,.36-.16,.04-.02,.08-.03,.13-.04,.03,0,.05-.02,.08-.02,.07-.02,.15-.04,.22-.06,.09-.02,.19-.04,.29-.05,.01,0,.03,0,.04,0,.13-.01,.26-.02,.39-.02,.03,0,.05,0,.08,0,.09,0,.17,.01,.26,.02,.09,.01,.18,.03,.27,.05,.11,.02,.21,.05,.31,.08,.21,.07,.42,.16,.62,.27,.59,.33,1.02,.89,1.24,1.64,.16,.56,.15,1.01,.15,1.03Z"/>
      <path class="cls-17" d="M16.81,8.61c.11,.08,.33,.23,.63,.39-.43-.08-.7-.19-.73-.2l.08-.2h0s0,0,.01,0t0,0Z"/>
      <path class="cls-14" d="M16.83,8.51s.4,.26,1.09,.33,.11,.21,.11,.21l-.45-.05-.43-.17-.33-.32h.02Z"/>
      <path class="cls-17" d="M19.65,6.34s-.06-.1-.1-.14c-.02-.02-.04-.04-.06-.06,0,0,0,0,0,0,0,0,0,0,0,0-.07-.06-.15-.11-.24-.14-.02,0-.05-.02-.07-.02-.05-.01-.1-.02-.15-.03-.05,0-.1,0-.15,0h0c-.09,0-.18,.03-.27,.06-.03,.01-.06,.03-.09,.04-.02,.01-.04,.02-.06,.04-.09,.06-.16,.13-.22,.22,0,.01-.01,.02-.02,.03,0,0-.01,.02-.01,.03,0,0-.01,.02-.01,.03-.02,.04-.04,.09-.05,.14-.02,.05-.02,.11-.03,.16,0,.07,.07,.14,.13,.14,.06,0,.11-.04,.12-.09,0-.01,0-.03,.01-.05,0,0,0,0,0-.01,0-.01,0-.02,0-.03,0-.02,.01-.04,.02-.07,0,0,0-.02,0-.03,0,0,0-.02,0-.02,0,0,0,0,0,0s0,0,0,0c0,0,0,0,0,0,0-.01,.01-.02,.02-.03,0-.02,.02-.03,.03-.05,0,0,.01-.02,.02-.02,0,0,0,0,0,0,0,0,0,0,0,0,0,0,0,0,0,0,.03-.03,.05-.06,.08-.08,0,0,0,0,0,0,0,0,.01,0,.02-.01,.02-.01,.04-.02,.05-.03,.02,0,.03-.02,.05-.02,0,0,0,0,0,0,0,0,0,0,0,0,0,0,.02,0,.03-.01,.04-.01,.08-.02,.12-.03,0,0,0,0,0,0,0,0,.02,0,.02,0,.02,0,.04,0,.06,0,0,0,0,0,0,0,.02,0,.03,0,.05,0,0,0,0,0,.01,0,0,0,0,0,0,0,0,0,0,0,0,0,0,0,0,0,0,0,0,0,0,0,.01,0,.04,0,.08,.02,.12,.03,0,0,0,0,0,0,0,0,.01,0,.02,0,.02,0,.04,.02,.06,.03,0,0,.01,0,.02,.01,0,0,0,0,0,0,0,0,0,0,.01,0,0,0,0,0,0,0,0,0,0,0,0,0,0,0,0,0,0,0,0,0,.02,.02,.03,.02,.02,.01,.03,.03,.04,.05,0,0,0,0,0,0,0,0,0,0,.01,.01h0s0,0,0,.01c.02,.02,.03,.04,.04,.07,0,.01,0,.02,.01,.03,0,0,0,0,0,0t0,0s0,0,0,0c0,0,0,0,0,0,0,0,0,0,0,0,0,.01,0,.02,.01,.03,.02,.06,.04,.12,.05,.19,0,.03,.01,.06,.02,.09,0,0,0,0,0,0h0s0,0,0,.01c0,.02,0,.04,0,.06,0,.07,0,.15,0,.22,0,.04,0,.07-.01,.11h0s0,0,0,0h0s0,0,0,0c0,0,0,0,0,0,0,0,0,.01,0,.02,0,.02,0,.04-.01,.06,0,.01,0,.02,0,.04,0,0,0,0,0,0,0,.01,0,.02,0,.03,0,0,0,0,0,0,0,0,0,.01,0,.02,0,.01,0,.02,0,.03,0,0,0,0,0,0,0,.03-.02,.06-.03,.09-.01,.03-.02,.07-.03,.1,0,.01,0,.02-.01,.03,0,0,0,.01,0,.02,0,0,0,.01,0,.02,0,0,0,0,0,0,0,0,0,0,0,0h0s0,0,0,0c0,0,0,0,0,0,0,0,0,0,0,.01-.02,.06-.02,.12,.02,.17,.05,0,.1,.01,.15,.02,.03-.01,.05-.03,.06-.05,.02-.05,.04-.09,.06-.14,.04-.1,.07-.21,.09-.31,.03-.14,.04-.28,.04-.42,0-.22-.05-.47-.16-.66Zm-.28,.07s0,0,0,0c0,0,0,0,0,0,0,0,0,0-.01-.01Z"/>
      <path class="cls-17" d="M16.31,6.52s.55-.75,1.16-.72c0,0-1.03-.39-1.16,.72Z"/>
      <path class="cls-17" d="M19.54,5.64s-.06,.06-.09,.09c-.02,.02-.04,.04-.06,.05,0,0-.01,.01-.02,.02-.07-.02-.13-.04-.2-.06h0s-.08-.02-.12-.02c-.24-.04-.43-.04-.43-.04,.02-.01,.05-.03,.07-.04,.23-.12,.43-.15,.58-.12,.04,0,.07,.02,.1,.03,.06,.02,.11,.05,.16,.09Z"/>
      <path class="cls-2" d="M16.89,7.15s.28,.78,1.24,.33v.31l-.19,.2-.42,.14-.4-.12-.27-.13-.06-.59,.1-.14Z"/>
      <path class="cls-17" d="M17.93,7.86h0c-.05,.11-.13,.19-.23,.2-.04,0-.09,0-.12-.03-.11-.07-.2-.23-.21-.42-.02-.26,.11-.48,.28-.49,.17,0,.32,.19,.33,.45,0,.11-.01,.21-.05,.29Z"/>
      <path class="cls-17" d="M18.36,7.73s-.02,.1-.04,.15c-.02,.07-.09,.11-.17,.09-.07-.02-.11-.09-.1-.16,0,0,0,0,0,0,.02-.05,.03-.11,.04-.16,.01-.05,.02-.11,.03-.16,0-.02,0-.04,0-.05h0s0,0,0,0c0,0,0,0,0,0,0,0,0,0,0,0h0s0,0,0,0c0,0,0,0,0,0,0,0,0,0,0-.01,0-.01,0-.02,0-.04,0-.09,.01-.18,0-.27,0-.04,0-.08,0-.12,0,0,0,0,0,0h0s0,0,0,0c0,0,0-.02,0-.03,0-.02,0-.03-.01-.05,0-.04-.02-.07-.03-.1,0-.02-.01-.03-.02-.05,0,0,0,0,0-.01,0,0,0,0,0,0,0,0,0,0,0,0-.03-.06-.05-.11-.09-.16,0,0,0,0,0,0,0,0,0,0,0,0,0-.01-.02-.02-.03-.03-.02-.02-.04-.04-.06-.06,0,0,0,0-.01-.01,0,0-.02-.01-.03-.02-.02-.01-.04-.03-.07-.04-.01,0-.02-.01-.03-.02,0,0,0,0,0,0-.02,0-.05-.02-.07-.02-.02,0-.03,0-.05,0,0,0,0,0,0,0h0s0,0,0,0c0,0,0,0,0,0,0,0,0,0,0,0,0,0,0,0,0,0,0,0,0,0,0,0,0,0,0,0,0,0h0s-.02,0-.02,0c-.01,0-.02,0-.04,0-.03,0-.05,0-.08,0,0,0-.01,0-.02,0,0,0,0,0,0,0,0,0,0,0,0,0,0,0,0,0,0,0,0,0-.01,0-.02,0-.05,0-.1,.02-.14,.04,0,0,0,0-.01,0-.01,0-.02,.01-.03,.02-.02,.01-.05,.03-.07,.04,0,0-.02,.01-.02,.02,0,0,0,0,0,0,0,0,0,0-.01,.01-.02,.02-.04,.04-.06,.06,0,.01-.02,.02-.03,.03,0,0-.01,.01-.02,.02h0s0,0,0,0c0,0,0,0,0,0h0s0,0,0,0c0,0,0,0,0,0-.01,.02-.02,.03-.03,.05-.02,.03-.03,.05-.04,.08,0,0,0,.01,0,.02,0,.01,0,.02-.01,.04-.01,.03-.02,.06-.03,.09,0,.02,0,.03-.01,.05,0,0,0,.01,0,.02,0,0,0,0,0,0,0,0,0,0,0,0,0,0,0,0,0,0h0s0,0,0,0c0,0,0,0,0,0h0s0,0,0,0h0s0,0,0,0c0,0,0,0,0,0h0s0,0,0,0h0s0,.02,0,.03c0,.02,0,.03,0,.05,0,.04,0,.08,0,.11,0,.02,0,.04,0,.06,0,0,0,.02,0,.03,0,0,0,0,0,0h0s0,0,0,0c0,0,0,0,0,.01,0,0,0,0,0,0,0,0,0,0,0,0,0,.03,.01,.07,.02,.1,.02,.09,.05,.18,.08,.27,0,.02,.01,.04,.02,.06,0,0,0,0,0,0,0,0,0,0,0,0,0,0,0,0,0,0,0,0,0,0,0,0,0,0,0,0,0,0t0,0s0,0,0,0c0,0,0,0,0,0,0,0,0,0,0,0,0,0,0,0,0,0,0,.01,.01,.02,.02,.04,.02,.05,.05,.1,.08,.15,0,0,0,.01,0,.02,.02,.06,0,.13-.06,.17-.02,.02-.05,.02-.08,.02-.01,0-.03,0-.04-.01-.03-.01-.05-.03-.06-.06-.03-.05-.05-.1-.07-.15,0-.01-.01-.03-.02-.05-.14-.33-.23-.69-.14-1.04,.06-.26,.23-.49,.46-.62,.16-.09,.35-.12,.52-.1,.06,0,.12,.02,.18,.04,.09,.04,.18,.09,.25,.15,.05,.04,.09,.08,.13,.13,.07,.09,.13,.2,.17,.31,0,.01,0,.03,.01,.04,.1,.32,.06,.67-.02,.99Z"/>
      <polygon class="cls-17" points="21.99 11.32 21.91 11.08 22 11.07 22 11.13 21.99 11.32"/>
      <path class="cls-3" d="M19.95,6.2c.03,.06,.06,.12,.09,.19-.11-.23-.31-.4-.34-.43,.08,.06,.16,.12,.21,.21,0,0-.01-.04-.04-.1,.03,.04,.06,.09,.08,.13Z"/>
    </g>
    <g>
      <path class="cls-9" d="M1.87,17.88c-.63,0-.95-.24-1.11-.45-.22-.28-.27-.64-.16-1.04,.08-.31,.22-.71,.37-1.11-.24-.01-.47-.13-.65-.32-.23-.24-.34-.58-.3-.91,.04-.39,.28-.82,.65-1.15,.32-.29,.9-.65,1.84-.74,.11-.01,.21-.02,.31-.02,1.32-.02,2.03,.73,2.14,1.48,.08,.56-.15,1.12-.61,1.51,.14,.2,.22,.44,.22,.7,0,.47-.26,.95-.71,1.33-.32,.28-.89,.62-1.77,.71-.07,0-.15,.01-.22,.01h0Zm.65-2.09c-.12,.34-.17,.53-.2,.64,.29-.1,.48-.44,.47-.62,0,0,0,0,0-.01-.01,0-.04,0-.08,0-.02,0-.04,0-.06,0-.02,0-.03,0-.05,0-.02,0-.05,0-.07,0Zm.66-1.87s-.05,.14-.12,.32c.06-.11,.11-.22,.12-.33,0,0,0,.01,0,.01Z"/>
      <path class="cls-9" d="M4.28,17.38c-.36,0-.67-.2-.81-.54h0s0-.02,0-.02c-.06-.17-.04-.36,.06-.51,.1-.14,.25-.23,.42-.23,.01,0,.02-.02,.03-.02,.04-.03,.19-.19,.57-.83-.15-.16-.23-.36-.26-.46-.06-.17-.03-.36,.06-.51,.1-.15,.26-.25,.44-.26h.02s.02,0,.02,0c.02,0,.03,0,.05,0h.02s.03,0,.03,0c.1,0,.31-.02,.55-.03,.28-.02,.58-.05,.74-.06,.07,0,.11-.01,.13-.01,.02,0,.03,0,.05,0,.25,0,.59,.11,.76,.38,.11,.19,.12,.41,.03,.62,.2,.02,.38,.13,.48,.31,.11,.2,.09,.45-.04,.65-.81,1.22-1.11,1.34-1.34,1.36-.01,0-.03,0-.04,0-.28,0-.74-.16-.98-.5-.17,.28-.33,.45-.5,.54h0c-.12,.07-.24,.11-.37,.12-.02,0-.04,0-.06,0Z"/>
      <path class="cls-9" d="M7.44,17.12c-.5,0-1.05-.34-1.08-.93-.03-.43,.12-.99,.39-1.45,.35-.59,.84-.94,1.38-.97,.03,0,.05,0,.08,0,.15,0,.28,.02,.4,.06,.1-.06,.21-.1,.33-.11,.01,0,.02,0,.04,0,.18,0,.57,.07,.76,.39,.11,.19,.12,.42,.02,.62,.2,.02,.37,.14,.47,.31,.11,.2,.09,.45-.05,.65-.84,1.22-1.11,1.33-1.36,1.34-.01,0-.02,0-.03,0-.18,0-.43-.07-.65-.2-.21,.18-.42,.27-.63,.29-.02,0-.04,0-.06,0Z"/>
      <path class="cls-9" d="M10.09,16.96c-.52,0-.97-.24-1.18-.66-.18-.36-.16-.77,.07-1.07l.17-.22c.1-.13,.18-.24,.26-.34,.1-.45,.48-.98,1.07-1.19,.09-.04,.17-.04,.2-.04,0,0,.01,0,.02,0,.39,0,.69,.35,.76,.69,.06,.27-.03,.47-.17,.59,.09-.06,.19-.09,.29-.09,0,0,.02,0,.02,0,.23,0,.43,.12,.54,.32,.11,.21,.09,.46-.06,.65-.32,.45-.71,.85-1.01,1.03-.17,.14-.46,.3-.92,.33-.02,0-.04,0-.06,0Zm1-2.07h.01s.06-.07,.09-.1c-.02,0-.03,.02-.05,.02-.02,0-.05,.03-.07,.05,0,0,.01,.02,.02,.02Z"/>
      <path class="cls-9" d="M11.95,16.86c-.5,0-1.06-.36-1.09-.96-.02-.43,.15-.99,.43-1.44,.36-.58,.86-.91,1.41-.94,.01,0,.03,0,.04,0,.16,0,.31,.02,.44,.07,.1-.06,.21-.1,.33-.1h.02c.19,0,.58,.08,.77,.4,.11,.19,.12,.43,0,.63,.2,.02,.37,.14,.46,.32,.11,.21,.08,.46-.06,.66-.87,1.19-1.15,1.3-1.4,1.31h-.01c-.18,0-.44-.07-.67-.22-.22,.17-.43,.26-.63,.27,0,0-.02,0-.03,0Z"/>
      <path class="cls-1" d="M11.94,16.61c-.39,0-.82-.27-.84-.72-.02-.38,.14-.89,.39-1.3,.32-.51,.75-.8,1.21-.82,.01,0,.02,0,.03,0,.21,0,.36,.05,.47,.11,.08-.09,.18-.14,.3-.15h.01c.15,0,.43,.07,.55,.28,.07,.12,.07,.27,0,.4-.06,.1-.17,.37-.28,.64,.04-.04,.1-.12,.1-.12h0s.14-.16,.31-.16h0c.13,0,.26,.07,.32,.19,.06,.12,.05,.28-.04,.4-.87,1.19-1.09,1.2-1.21,1.21h-.01c-.15,0-.46-.09-.67-.29-.23,.22-.44,.34-.63,.35,0,0-.01,0-.02,0Zm.79-1.94s-.09,.08-.14,.15c-.17,.22-.29,.51-.34,.73,.04-.04,.07-.08,.12-.14,.2-.26,.33-.56,.37-.73Z"/>
      <path class="cls-9" d="M16.96,16.75c-.89,0-1.35-.6-1.4-1.17-.04-.52,.23-1.12,.92-1.38,0-.13,.02-.27,.09-.41,.16-.35,.59-.71,1.18-.72h0c.07,0,.14,0,.21,.01,.51,.07,.73,.43,.75,.71,.02,.21-.05,.41-.18,.57l.02,.02c.22,.17,.29,.44,.18,.71-.09,.21-.26,.32-.41,.38,.02,.2-.02,.42-.13,.61-.22,.41-.67,.66-1.23,.67h0Z"/>
      <path class="cls-1" d="M16.95,16.59c-.79,0-1.19-.52-1.24-1.02-.04-.49,.24-1.06,.94-1.26-.03-.14-.02-.3,.05-.45,.14-.31,.52-.62,1.03-.63h0c.06,0,.12,0,.19,.01,.42,.06,.59,.33,.61,.56,.03,.29-.16,.56-.44,.66-.04,.01-.08,.02-.12,.02-.03,0-.06,0-.08,0,0,.01,0,.02,0,.04,0,.07-.05,.19-.13,.29,.08-.01,.15-.03,.21-.05,.14-.04,.16-.08,.16-.08,0-.12,.08-.21,.19-.21,.05,0,.08,.02,.1,.03h.01s.01,.02,.01,.02c.16,.12,.21,.32,.13,.52-.08,.18-.25,.28-.45,.34,.05,.2,.02,.43-.09,.64-.19,.36-.59,.57-1.09,.58h0Zm.2-1.68c-.49,0-.7,.32-.7,.62,0,.22,.14,.44,.43,.44h0c.36,0,.45-.23,.47-.3,.02-.06,.01-.12,0-.15-.17,.04-.26,.09-.26,.15,0,.12-.09,.21-.2,.21-.03,0-.06,0-.08-.02-.13-.05-.24-.17-.27-.32-.04-.16,.02-.32,.13-.43,.11-.1,.28-.16,.47-.2Zm.33-.66s.07,0,.1,.01c-.02-.03-.03-.06-.04-.09-.02-.11,.04-.21,.14-.25,.14-.06,.19-.16,.19-.18,0,0-.03-.02-.08-.02h0s0,0,0,0c0,0-.02,0-.03,0-.23,0-.39,.21-.41,.36,0,.06,0,.14,.14,.17Z"/>
      <path class="cls-5" d="M17.49,14.76s-.01,0-.02,0c-.13-.03-.25-.04-.36-.04-1.1,.01-1.11,1.38-.27,1.37,.65,0,.77-.64,.53-.79-.26,.05-.47,.13-.48,.32,0,.03-.02,.06-.04,.06,0,0-.01,0-.02,0-.18-.05-.26-.32-.09-.47,.34-.31,1.52-.17,1.51-.56,0-.03,.01-.04,.03-.04,0,0,.01,0,.02,0,.11,.08,.13,.2,.08,.33-.07,.17-.28,.24-.52,.29,.25,.38-.02,1.16-.96,1.17-1.37,.01-1.48-1.78-.07-2-.29-.35,.16-1.02,.86-1.03,.05,0,.11,0,.17,.01,.64,.09,.58,.77,.14,.91-.02,0-.05,.01-.07,.01-.19,0-.36-.21-.24-.25,.31-.12,.43-.48,.07-.52-.02,0-.04,0-.06,0-.5,0-.83,.73-.3,.85,.09,.01,.17,.02,.27,.04,.08,.02-.07,.34-.19,.34Z"/>
      <path class="cls-9" d="M20.9,16.77s-.04,0-.06,0c-.49-.01-.87-.25-1.06-.66-.18-.4-.15-.96,.08-1.25,.1-.14,.27-.22,.44-.22h.02c.22,0,.41,.14,.49,.34,.04,.01,.09,.02,.15,.03,0,0,.02,0,.03,0,.13,0,.29-.03,.44-.08-.61-.23-1.58-.63-1.38-1.51,.23-1.01,1.78-2.23,2.86-2.25,.02,0,.04,0,.06,0,.97,.02,1.31,.61,1.31,1.15,0,.74-.6,1.6-1.22,1.86,.2,.22,.32,.5,.26,.85-.17,1.02-1.57,1.72-2.42,1.73h0Z"/>
      <path class="cls-9" d="M24.97,16.61s-.02,0-.03,0c-.18,0-.44-.1-.66-.27-.21,.14-.42,.22-.61,.22-.01,0-.03,0-.04,0-.25,0-.5-.11-.69-.27-.23-.2-.36-.47-.35-.77,.03-.75,.74-2.21,1.94-2.22,.02,0,.05,0,.07,0,.18,0,.33,.04,.47,.11,.09-.05,.19-.07,.3-.08,.01,0,.02,0,.04,0,.21,0,.59,.13,.75,.45,.1,.2,.09,.44-.04,.63,.19,.04,.35,.17,.43,.35,.09,.22,.05,.47-.11,.66-.94,1.1-1.22,1.19-1.46,1.2Z"/>
      <path class="cls-9" d="M27.01,16.7s-.04,0-.06,0c-.19,0-.36-.06-.52-.14-.09,.06-.2,.09-.32,.1-.02,0-.03,0-.05,0h-.06s-.06-.02-.06-.02c-.3-.1-.85-.43-.82-1.02,0-.15,.03-.47,.95-2.07,.43-.75,.86-1.42,.87-1.45h0s0-.03,0-.03c.11-.15,.29-.35,.64-.35,.02,0,.05,0,.07,0,.19,0,.55,.11,.71,.41,.1,.19,.1,.41,0,.6-.01,.02-.03,.05-.09,.16-.07,.13-.19,.33-.33,.57,.46,.09,.76,.48,.75,1,0,.41-.2,.93-.5,1.39-.26,.38-.67,.84-1.19,.85h0Z"/>
      <path class="cls-9" d="M29.14,16.82s-.09,0-.14,0c-.48-.03-.83-.21-1.05-.54-.19-.28-.21-.59-.19-.8,.05-.75,.87-1.9,2-1.92,.05,0,.09,0,.14,0,.72,.05,1.02,.45,1.13,.69,.07,.14,.1,.29,.11,.46,.19,.04,.35,.18,.42,.36,.09,.22,.04,.46-.12,.65-.28,.32-.6,.64-1.17,.69-.34,.26-.74,.41-1.13,.41Z"/>
      <path class="cls-9" d="M32.5,18.77s-.09,0-.13,0c-.6-.05-1.1-.37-1.37-.87-.34,.05-.7,.11-1.07,.17-.92,.16-1.96,.34-3.05,.35-.33,0-.66,0-.97-.03-.43-.04-.82-.19-1.11-.45-.35-.31-.53-.74-.49-1.22,.05-.65,.4-.75,.6-.75,.02,0,.04,0,.05,0,.16,.01,.3,.09,.41,.22h0c.16,.21,.44,.33,.85,.36,.54,.04,1.1,.06,1.7,.05,.73-.01,1.41-.06,2.06-.1,.29-.02,.56-.04,.83-.05,.03-.17,.08-.34,.14-.51,0,0,0,0,0,0-.02,0-.04,0-.06,0-.24-.02-.45-.18-.53-.4-.08-.22-.03-.46,.14-.63h0c.07-.07,.13-.14,.21-.21-.07-.15-.1-.3-.11-.37-.03-.17,.02-.34,.13-.47,.11-.13,.27-.21,.44-.21,.02,0,.04,0,.06,0,.03,0,.05,0,.08,.01h.02s.03,.01,.03,.01c.07,0,.23,.03,.52,.05,.26,.02,.55,.04,.7,.05h0c.06,0,.11,0,.13,0,.21,.02,.58,.16,.72,.48,.1,.21,.07,.46-.08,.65-.13,.18-.64,1.04-.82,1.55,0,0,0,0,0,0,.77,.16,1.11,.73,1.09,1.23-.02,.6-.51,1.06-1.13,1.07h0Z"/>
      <path class="cls-1" d="M32.5,18.53s-.07,0-.11,0c-.58-.05-1.04-.38-1.24-.89-.4,.05-.82,.12-1.26,.2-.91,.16-1.94,.33-3.01,.35-.33,0-.64,0-.95-.03-.37-.03-.72-.17-.97-.39-.29-.26-.44-.62-.4-1.01,.01-.13,.04-.52,.36-.52,0,0,.02,0,.03,0,.09,0,.18,.05,.25,.14h0c.21,.26,.54,.41,1.03,.45,.55,.05,1.11,.06,1.72,.05,.73-.01,1.42-.06,2.07-.1,.36-.02,.7-.05,1.03-.07,.03-.23,.09-.48,.18-.73,.1-.28,.32-.64,.52-.95-.14,.16-.32,.36-.51,.55h0c-.1,.11-.21,.13-.28,.13-.01,0-.02,0-.03,0-.14-.01-.27-.11-.32-.24-.05-.13-.01-.27,.09-.37h0c.12-.12,.24-.24,.35-.35-.11-.13-.16-.31-.18-.44-.02-.1,0-.2,.07-.28,.06-.07,.15-.12,.25-.12,.01,0,.02,0,.03,0,.02,0,.04,0,.06,.01h0s0,0,0,0c0,0,.01,0,.02,0,.06,0,.24,.03,.56,.06,.27,.02,.56,.04,.71,.05,.06,0,.11,0,.12,0,.16,.01,.42,.13,.52,.34,.06,.13,.04,.28-.05,.4-.16,.21-.67,1.09-.85,1.62-.03,.1-.06,.19-.08,.29,.01,0,.03,0,.04,0,.79,.07,1.13,.55,1.12,1.01-.02,.47-.4,.82-.89,.83h0Z"/>
      <path class="cls-5" d="M24.85,16.43s.05,.02,.08,.05c.28,.35,.71,.5,1.2,.54,1.96,.16,3.61-.06,5.08-.12,0-.26,.06-.56,.18-.89,.14-.37,.52-.95,.8-1.34-.18,0-.38-.02-.54-.03-.16,.17-.4,.45-.65,.72-.04,.04-.08,.06-.12,.05-.09,0-.15-.11-.08-.19,.22-.21,.43-.43,.59-.6-.03,0-.06,0-.07,0-.18-.01-.26-.28-.27-.4-.01-.07,.03-.12,.08-.11,0,0,.01,0,.02,0,.04,.02,.32,.05,.63,.07,.37,.03,.78,.06,.83,.06,.13,.01,.42,.16,.29,.34-.18,.24-.7,1.14-.89,1.69-.07,.21-.12,.42-.13,.61,.1,0,.2,0,.3,.01,1.26,.1,1.07,1.41,.16,1.34-.52-.04-.95-.36-1.09-.92-1.53,.17-3.38,.7-5.38,.54-.62-.05-1.2-.44-1.15-1.13,0-.06,.03-.3,.12-.3Zm7.06,.83c.07,.27,.23,.46,.52,.48,.33,.03,.46-.44-.07-.48-.15-.01-.3-.01-.45,0Z"/>
      <path class="cls-1" d="M20.9,16.52s-.03,0-.05,0c-.39,0-.69-.19-.84-.51-.16-.34-.1-.8,.05-.99,.06-.08,.15-.12,.25-.13h.01c.13,0,.24,.09,.27,.21v.03s.01,.03,.01,.03c.03,.04,.19,.11,.36,.11,.01,0,.02,0,.04,0,.21,0,.48-.06,.71-.16,.17-.07,.27-.14,.32-.19-.11-.06-.32-.14-.47-.2-.6-.23-1.41-.55-1.25-1.24,.21-.91,1.65-2.04,2.62-2.06,.02,0,.03,0,.05,0,.99,.02,1.06,.7,1.06,.9,0,.73-.74,1.68-1.31,1.69h0s-.01,0-.02,0c-.24,0-.54-.33-.61-.42-.07-.09-.08-.22-.04-.34,.04-.1,.13-.18,.23-.2,.27-.06,.51-.29,.63-.49,.08-.12,.11-.22,.12-.28-.12,.03-.41,.19-.75,.48-.39,.33-.6,.62-.64,.78,.06,.08,.31,.21,.46,.28,.46,.24,1.08,.56,.97,1.17-.15,.87-1.4,1.51-2.18,1.52Z"/>
      <path class="cls-5" d="M20.88,15.46c.48,.01,1.28-.27,1.35-.6,.07-.39-1.95-.57-1.76-1.37,.18-.78,1.55-1.88,2.42-1.86,1.65,.04,.4,2.11-.26,2.1-.09,0-.33-.2-.41-.32-.02-.03-.02-.13,.04-.14,.73-.15,1.26-1.26,.74-1.27-.4,0-1.57,.95-1.68,1.47-.11,.47,1.57,.68,1.43,1.45-.13,.75-1.33,1.33-1.97,1.32-.83-.02-.73-.95-.6-1.1,.01-.02,.04-.03,.06-.03s.04,.01,.04,.03c.02,.25,.4,.33,.6,.34Z"/>
      <path class="cls-1" d="M24.97,16.36s-.01,0-.02,0c-.16,0-.47-.13-.65-.35-.23,.19-.44,.29-.63,.3,0,0-.02,0-.03,0-.19,0-.39-.08-.54-.21-.18-.15-.27-.35-.26-.57,.03-.69,.69-1.97,1.7-1.99,.02,0,.04,0,.06,0,.22,0,.38,.07,.49,.15,.08-.08,.18-.12,.29-.12,0,0,.02,0,.02,0,.16,0,.43,.11,.53,.31,.06,.13,.05,.27-.03,.4-.07,.1-.2,.35-.33,.61,.04-.04,.08-.08,.11-.11h0s0,0,0,0c.1-.09,.19-.13,.3-.14,0,0,.01,0,.02,0,.14,0,.26,.09,.31,.21,.06,.13,.03,.28-.07,.4-.95,1.11-1.16,1.11-1.28,1.11Zm-.41-1.93s-.1,.08-.17,.16c-.18,.21-.31,.47-.38,.67,.05-.04,.1-.1,.16-.17,.2-.24,.34-.5,.39-.66Z"/>
      <path class="cls-1" d="M27.01,16.45s-.03,0-.04,0c-.22-.01-.41-.09-.57-.22-.05,.1-.16,.17-.29,.17-.01,0-.02,0-.03,0h-.03s-.03-.01-.03-.01c-.23-.08-.67-.33-.65-.77,0-.11,.02-.41,.92-1.96,.43-.75,.86-1.43,.87-1.44h0s0-.01,0-.01c.09-.12,.21-.25,.45-.25,.02,0,.04,0,.06,0,.13,0,.39,.07,.5,.28,.06,.12,.06,.25,0,.37,0,.02-.03,.05-.09,.16-.12,.2-.32,.56-.55,.97,.08-.03,.15-.04,.23-.04,.01,0,.03,0,.04,0,.42,.02,.68,.32,.67,.77,0,.37-.18,.84-.46,1.26-.18,.27-.55,.73-.99,.74h0Zm-.31-1.07c0,.06,.03,.1,.05,.12,.07-.05,.21-.21,.39-.51,.05-.09,.1-.17,.13-.25-.19,.17-.41,.42-.57,.63Z"/>
      <path class="cls-5" d="M27.29,12.31c.09-.12,.15-.15,.29-.15,.14,0,.39,.11,.29,.28-.02,.04-.69,1.18-1.17,2.1,.32-.35,.73-.67,1-.65,1.06,.06-.08,2.31-.8,2.27-.35-.02-.59-.25-.69-.54-.04,.13-.08,.29-.1,.41,0,.06-.04,.08-.1,.08-.18-.06-.49-.25-.48-.52,.03-.56,1.75-3.29,1.75-3.29Zm-.92,2.96c0,.22,.1,.44,.31,.45,.32,.02,1.13-1.48,.83-1.49-.26-.01-.91,.7-1.14,1.04Z"/>
      <path class="cls-1" d="M29.14,16.57s-.08,0-.12,0c-.4-.03-.69-.17-.86-.43-.15-.22-.16-.47-.15-.64,.05-.67,.8-1.67,1.75-1.69,.04,0,.08,0,.12,0,.57,.04,.81,.32,.92,.54,.08,.18,.11,.39,.08,.6,.04-.01,.08-.02,.12-.02,.01,0,.02,0,.03,0,.14,0,.25,.09,.3,.22,.05,.13,.02,.28-.08,.39-.27,.31-.55,.59-1.07,.61-.31,.26-.68,.4-1.04,.41Zm.79-1.9s-.24,.07-.26,.33c0,.11,.05,.19,.12,.26,.19-.27,.23-.52,.19-.57,0,0-.02-.01-.06-.02Z"/>
      <path class="cls-5" d="M29.79,14.02c.95,.06,.94,.92,.48,1.56,.12-.02,.23-.08,.32-.16,.12-.12,.16-.16,.21-.2,.05-.05,.1-.07,.14-.07,.09,0,.14,.11,.06,.2-.28,.32-.51,.54-.98,.53-.29,.26-.65,.43-1.05,.4-.73-.05-.8-.53-.78-.8,.04-.54,.72-1.51,1.61-1.45Zm-.61,1.85c.11,0,.23-.03,.35-.11-.28-.14-.49-.41-.5-.79-.11,.18-.18,.37-.19,.54,0,.12,.03,.33,.34,.35Zm.7-1.49c-.16-.01-.49,.17-.52,.56-.02,.27,.18,.49,.43,.59,.39-.43,.6-1.12,.08-1.15Z"/>
      <path class="cls-5" d="M24.52,13.74c.31,.01,.45,.15,.5,.32,.06-.09,.11-.15,.14-.2,.05-.07,.1-.1,.17-.09,.13,0,.43,.14,.31,.32-.17,.24-.81,1.54-.66,1.55,.11,0,.46-.36,.83-.73,.05-.05,.1-.07,.14-.07,.09,0,.14,.11,.06,.2-.44,.52-.94,1.03-1.1,1.02-.14,0-.59-.2-.58-.52-.25,.27-.53,.48-.74,.47-.27-.01-.57-.22-.56-.53,.02-.64,.66-1.78,1.5-1.75Zm-.81,1.85c.51,.02,1.39-1.48,.91-1.5-.59-.02-1.21,1.49-.91,1.5Z"/>
      <path class="cls-1" d="M10.09,16.71c-.43,0-.79-.19-.96-.53-.14-.27-.12-.59,.04-.81l.16-.21c.11-.15,.22-.28,.3-.39,.06-.39,.41-.88,.93-1.07,.05-.02,.1-.02,.12-.03,0,0,0,0,.01,0,.28,0,.47,.29,.52,.5,.05,.22-.05,.35-.17,.4-.12,.05-.28,.22-.29,.29,.02,.03,.09,.1,.13,.15,.07,.07,.15,.15,.22,.25,.06-.07,.12-.14,.19-.22h0s0,0,0,0c.03-.04,.14-.15,.3-.16,0,0,0,0,.01,0,.13,0,.25,.07,.32,.19,.06,.12,.05,.27-.04,.39-.31,.43-.69,.82-.95,.97-.14,.12-.39,.26-.79,.28-.02,0-.04,0-.05,0Zm-.19-1.05s.05,.05,.12,.05c0,0,0,0,.01,0,.05,0,.09-.01,.11-.02-.02-.01-.04-.03-.06-.04-.04-.03-.07-.05-.11-.09-.02,.03-.05,.07-.08,.1Z"/>
      <path class="cls-5" d="M12.65,13.98c.31-.01,.46,.11,.52,.28,.05-.09,.09-.16,.12-.21,.04-.07,.1-.1,.16-.11,.13,0,.44,.11,.33,.3-.15,.26-.69,1.6-.54,1.59,.11,0,.43-.39,.77-.79,.05-.05,.09-.08,.13-.08,.09,0,.15,.09,.08,.19-.4,.55-.85,1.1-1.02,1.11-.14,0-.6-.15-.62-.47-.23,.29-.49,.52-.7,.53-.27,.01-.59-.17-.6-.48-.03-.64,.52-1.82,1.36-1.86Zm-.66,1.91c.51-.02,1.27-1.59,.79-1.57-.59,.02-1.09,1.58-.79,1.57Z"/>
      <path class="cls-1" d="M4.27,17.13c-.26,0-.48-.14-.58-.39h0s0-.01,0-.01c-.04-.1-.02-.2,.03-.28,.05-.08,.14-.12,.22-.12h0c.07,0,.08-.01,.17-.07,.18-.14,.51-.69,.74-1.09-.17-.09-.29-.29-.34-.47-.03-.1-.02-.21,.03-.3,.05-.09,.15-.14,.25-.15h0s0,0,0,0c.01,0,.03,0,.04,0h0s0,0,0,0c0,0,.01,0,.02,0,0,0,.01,0,.02,0,.1,0,.32-.02,.58-.04,.28-.02,.58-.05,.74-.06,.06,0,.11,0,.12-.01,.01,0,.02,0,.03,0,.15,0,.42,.07,.54,.26,.07,.12,.08,.26,0,.39-.06,.11-.16,.37-.25,.65,.04-.05,.1-.13,.1-.13h0s.14-.16,.3-.18c0,0,.02,0,.02,0,.13,0,.25,.07,.31,.18,.07,.12,.05,.27-.03,.39-.81,1.23-1.05,1.25-1.16,1.26,0,0-.02,0-.03,0-.23,0-.84-.2-.88-.68,0-.09,0-.19,.02-.31-.25,.52-.49,.93-.74,1.08h0c-.08,.05-.18,.08-.27,.08-.01,0-.03,0-.04,0Z"/>
      <path class="cls-1" d="M7.43,16.87c-.39,0-.8-.25-.83-.7-.02-.38,.12-.89,.36-1.31,.31-.52,.73-.82,1.19-.85,.02,0,.04,0,.07,0,.19,0,.33,.04,.44,.1,.08-.09,.18-.15,.3-.15,0,0,.02,0,.02,0,.15,0,.42,.07,.54,.27,.07,.12,.07,.26,0,.39-.06,.11-.16,.37-.26,.65,.04-.05,.1-.13,.1-.13h0s.14-.16,.3-.17c0,0,.01,0,.02,0,.13,0,.25,.07,.31,.19,.07,.12,.05,.27-.03,.39-.84,1.22-1.06,1.23-1.18,1.24,0,0-.01,0-.02,0h0c-.15,0-.46-.08-.66-.28-.22,.23-.43,.35-.63,.36-.01,0-.03,0-.04,0Zm.76-1.96s-.08,.08-.14,.15c-.16,.22-.27,.52-.33,.73,.03-.04,.07-.08,.11-.14,.2-.27,.31-.57,.35-.74Z"/>
      <path class="cls-5" d="M8.1,14.22c.31-.02,.46,.1,.53,.27,.05-.09,.09-.16,.12-.21,.04-.07,.09-.11,.16-.11,.13,0,.44,.1,.34,.29-.14,.26-.65,1.62-.5,1.61,.11,0,.42-.4,.75-.81,.05-.05,.09-.08,.13-.08,.09,0,.15,.09,.08,.19-.39,.56-.83,1.12-.99,1.13-.14,0-.6-.14-.63-.46-.22,.3-.48,.53-.68,.54-.27,.02-.59-.16-.61-.47-.04-.63,.47-1.84,1.31-1.89Zm-.61,1.93c.51-.03,1.23-1.62,.75-1.59-.58,.04-1.05,1.61-.75,1.59Z"/>
      <path class="cls-5" d="M3.88,16.54c.14-.01,.19-.03,.32-.13,.26-.2,.7-.98,.99-1.49-.07,0-.13,.01-.17,.01-.18,.01-.3-.24-.33-.35-.02-.07,.02-.12,.07-.12,0,0,.01,0,.02,0,.04,0,.34,0,.66-.03,.39-.03,.81-.07,.86-.08,.13-.01,.45,.09,.34,.29-.14,.26-.63,1.63-.48,1.61,.11,0,.42-.41,.74-.82,.05-.05,.09-.08,.13-.09,.09,0,.15,.09,.08,.19-.37,.57-.81,1.13-.97,1.15-.14,.01-.61-.13-.64-.46-.03-.34,.24-.96,.45-1.38-.16,.01-.34,.03-.49,.05-.24,.56-.7,1.69-1.05,1.9-.05,.03-.12,.05-.17,.05-.16,.01-.31-.07-.38-.23-.02-.04,.01-.08,.03-.07Z"/>
      <path class="cls-1" d="M1.86,17.64c-.52,0-.79-.19-.91-.35-.17-.21-.21-.5-.12-.82,.26-.97,1.07-2.8,1.1-2.88h0s0-.01,0-.01c.02-.04,.04-.08,.07-.11-.49,.28-.68,.78-.7,.99,0,.05,0,.07,.03,.11,.05,.08,.06,.19,.01,.29-.05,.1-.15,.17-.27,.19-.02,0-.03,0-.05,0-.19,0-.38-.09-.53-.24-.18-.19-.26-.46-.24-.72,.05-.56,.72-1.51,2.27-1.67,.1,0,.2-.02,.29-.02,1.17-.02,1.79,.63,1.89,1.27,.07,.49-.14,1.07-.74,1.44,.25,.19,.35,.47,.35,.73,0,.39-.23,.81-.62,1.15-.3,.25-.82,.57-1.63,.65-.07,0-.13,.01-.2,.01h0Zm.51-2.17c-.16,.46-.29,.87-.32,1.02-.02,.12,0,.18,0,.19,.01,.01,.05,.03,.12,.03,.02,0,.04,0,.05,0,.49-.05,.82-.58,.8-.91,0-.12-.05-.26-.34-.25-.03,0-.05,0-.08,0-.01,0-.02,0-.03,0-.09,0-.16-.03-.22-.08Zm.58-1.64s-.18,.49-.36,1.01c0,0,.02,0,.03,0,.49-.05,.85-.61,.83-1.05-.02-.43-.39-.52-.7-.51-.02,0-.05,0-.07,0,.1,.03,.19,.09,.25,.17,.08,.11,.09,.24,.04,.38h0Z"/>
      <path class="cls-5" d="M.43,14.02c.04-.46,.63-1.3,2.05-1.44,2.23-.22,2.56,1.95,.76,2.46,1.41,.17,.74,2.06-1.28,2.26-.81,.08-1.11-.31-.97-.85,.26-.96,1.09-2.84,1.09-2.84,.07-.13,.15-.18,.29-.19,.15-.01,.35,.05,.28,.24-.03,.06-.84,2.29-.92,2.7-.06,.31,.04,.55,.45,.51,1.02-.1,1.53-1.77,.34-1.65-.12,.01-.05-.21,.05-.22,1.14-.11,1.67-2.22-.07-2.05-1.09,.11-1.49,1.04-1.51,1.4,0,.1,.01,.18,.06,.26,.01,.02,0,.09-.08,.1-.29,.03-.58-.31-.54-.69Z"/>
      <path class="cls-5" d="M9.31,15.47c.21-.27,.37-.49,.5-.65,.01-.28,.28-.76,.78-.93,.01,0,.02,0,.04,0,.18,0,.36,.38,.25,.43-.15,.06-.45,.31-.44,.54,.01,.22,.48,.43,.5,.79,0,.02,0,.04,0,.06,.13-.14,.3-.34,.47-.55,.05-.05,.09-.08,.13-.08,.09,0,.15,.09,.08,.19-.33,.47-.69,.8-.9,.91-.14,.13-.35,.22-.66,.24-.72,.04-1.01-.6-.75-.94Zm.67,.43c.26-.01,.39-.16,.38-.28,0-.17-.33-.25-.48-.51-.08,.11-.17,.24-.27,.38-.11,.16,.04,.43,.37,.42Z"/>
    </g>
  </g>
</svg>