<?xml version="1.0" encoding="UTF-8"?>
<svg id="Capa_2" data-name="Capa 2" xmlns="http://www.w3.org/2000/svg" viewBox="0 0 15.67 17.1">
  <defs>
    <style>
      .cls-1 {
        fill: #fff;
      }

      .cls-2 {
        fill: #d5dce2;
      }

      .cls-3 {
        fill: #ffad01;
      }

      .cls-4 {
        fill: #e86877;
      }

      .cls-5 {
        fill: #3d1219;
      }

      .cls-6 {
        fill: #bf3e50;
      }

      .cls-7 {
        fill: #fdb93e;
      }

      .cls-8 {
        fill: #7b1312;
      }

      .cls-9 {
        fill: #bd212f;
      }

      .cls-10 {
        fill: #d94f35;
      }

      .cls-11 {
        fill: #e18425;
      }

      .cls-12 {
        fill: #aabcd4;
      }

      .cls-13 {
        fill: #7b1314;
      }

      .cls-14 {
        fill: #1d1d1b;
      }

      .cls-15 {
        fill: #f5ffff;
      }
    </style>
  </defs>
  <g id="Capa_1-2" data-name="Capa 1">
    <g>
      <path class="cls-15" d="M12.38,2.89c-.13-.09-.26-.18-.4-.27-.11-.07-.23-.14-.35-.21h0c-.15-.08-.29-.16-.45-.23-1.02-.48-2.15-.75-3.35-.75-.07,0-.15,0-.22,0-.15,0-.29,.01-.43,.02h0c-.12,0-.23,.02-.34,.04-.14,.02-.27,.04-.4,.06-.21,.04-.42,.08-.62,.14h0c-.2,.05-.39,.11-.58,.18h0c-.64,.23-1.25,.54-1.8,.92-.15,.1-.29,.21-.43,.32C1.17,4.55,0,6.77,0,9.26c0,4.32,3.51,7.83,7.83,7.83,.91,0,1.79-.16,2.6-.45h0c.32-.11,.64-.25,.94-.4h0c.07-.04,.15-.08,.22-.12,.12-.07,.24-.14,.36-.21,.07-.05,.15-.1,.22-.14h0c.05-.04,.1-.07,.16-.11,.08-.06,.16-.12,.24-.18,.09-.07,.18-.14,.27-.21,.14-.12,.27-.24,.4-.36,.11-.11,.22-.22,.33-.33h0c.09-.09,.17-.19,.25-.29,.09-.1,.17-.21,.25-.31,1-1.31,1.59-2.95,1.59-4.73,0-2.62-1.3-4.95-3.28-6.37Zm1.55,10.88c-.08,.1-.16,.2-.24,.3-.07,.09-.15,.18-.23,.27-.09,.1-.18,.19-.27,.28-.25,.24-.51,.47-.78,.68-.05,.04-.11,.08-.16,.12-.08,.06-.16,.11-.24,.16-.05,.03-.1,.07-.15,.1-.04,.03-.09,.05-.13,.08-.01,0-.02,.01-.03,.02-.1,.06-.2,.12-.3,.17-.46,.25-.96,.45-1.47,.6-.67,.19-1.37,.29-2.09,.29C3.65,16.85,.24,13.45,.24,9.26c0-1.63,.52-3.14,1.4-4.38,0,0,0,0,0,0,.37-.53,.81-1,1.3-1.42,.04-.03,.08-.07,.13-.1,.07-.06,.14-.11,.22-.17,.72-.54,1.53-.95,2.41-1.21h0c.16-.05,.33-.09,.49-.13,.06-.01,.13-.03,.19-.04,.13-.02,.25-.05,.38-.06,.1-.01,.21-.03,.32-.04h0c.13-.01,.27-.02,.4-.03,.12,0,.24,0,.36,0,1.24,0,2.41,.3,3.44,.83,.14,.07,.28,.15,.41,.23,.11,.07,.22,.14,.33,.21,.13,.08,.25,.17,.38,.27,1.84,1.39,3.03,3.59,3.03,6.06,0,1.69-.55,3.25-1.49,4.51Z"/>
      <path class="cls-15" d="M3.14,14.64c-1.5-1.31-2.44-3.23-2.44-5.38,0-1.25,.32-2.43,.89-3.45,.01,.11,.03,.22,.06,.33,.06,.26,.17,.51,.3,.75-.35,.6-.44,1.32-.24,1.97,.11,.36,.31,.7,.57,.98,.27,.29,.61,.5,1,.64,.32,.11,.64,.16,.94,.19-.73,1-1.61,2.58-1.07,3.98Z"/>
      <path class="cls-3" d="M13.6,12.24v.36s-.01,.07-.01,.07v.21s-.1-.27-.1-.27l-.12-.33s0,0,0,0,0-.01-.01-.03c0,0,0,0,0,0-.04-.1-.18-.4-.46-.68-.45-.44-1.04-.61-1.74-.49-.12,.02-.24,.03-.36,.04-.06,0-.12,0-.18,0-.08,0-.15,0-.22,0,.06,.13,.12,.27,.16,.4,.04,.13,.08,.27,.1,.39,.03,.15,.05,.29,.06,.42,.05,.06,.17,.19,.38,.33,.28,.2,.72,.43,1.34,.55,.38,.08,.73,.27,1,.52-.07,.09-.14,.17-.22,.26-.08,.09-.17,.18-.25,.27-.31,.32-.65,.6-1.01,.86-.05,.03-.1,.07-.14,.1-.06,.04-.12,.08-.17,.11-.02,.01-.04,.03-.07,.04-.01,0-.03,.02-.04,.03h0s-.04,.03-.06,.04c0,0,0,0-.01,0-.1,.06-.2,.12-.31,.17-.22,.11-.44,.22-.68,.31-.21,.08-.43,.16-.65,.22-.16,.04-.31,.08-.47,.12-.22,.05-.44,.08-.67,.11-.21,.02-.43,.04-.65,.04h0c-.05,0-.11,0-.16,0-.22,0-.43,0-.65-.03-.57-.05-1.12-.17-1.65-.35,0,0,0,0-.01,0-.11-.04-.23-.08-.34-.13-.42-.17-.83-.38-1.21-.62-.17-.17-.31-.37-.42-.59-.75-1.52,.65-3.44,1.1-4.01,.05-.06,.08-.1,.1-.13-.03-.08-.06-.16-.08-.25-.02,0-.04,.01-.06,.01-.05,0-.09,0-.14,0-.37-.02-.74-.06-1.09-.18-.32-.11-.62-.3-.85-.55-.22-.24-.39-.52-.49-.84-.16-.5-.1-1.05,.12-1.52,.06-.12,.12-.23,.2-.34-.08-.11-.14-.22-.2-.34,0-.01-.01-.02-.02-.04,0,0,0,0,0,0-.07-.15-.12-.3-.16-.46-.07-.28-.09-.56-.05-.84,0,0,0,0,0,0,.08-.12,.17-.24,.26-.36h0s.05-.07,.08-.1c.2-.25,.42-.48,.66-.7,.01-.01,.03-.03,.04-.04,0,0,.02-.02,.03-.02,.02-.02,.05-.04,.07-.07,.04-.04,.09-.08,.13-.12,.03-.02,.06-.05,.09-.07,.09-.08,.19-.15,.29-.22,.8-.59,1.72-1.01,2.72-1.23h0s.02,0,.04,0c.12-.03,.24-.05,.36-.07,0,0,.02,0,.03,0,.07-.01,.15-.02,.22-.03,.12-.01,.25-.03,.37-.03,.16-.01,.32-.02,.48-.02,1.28,0,2.48,.34,3.52,.92,.13,.07,.25,.15,.37,.23,.1,.07,.2,.13,.3,.21,0,.08-.01,.16-.02,.24-.05,.48-.18,.95-.37,1.39-.16,.36-.36,.71-.6,1.02-.05,.06-.09,.12-.14,.17-.03,.04-.06,.07-.1,.11-.03,.03-.06,.07-.1,.1-.02,.02-.04,.04-.06,.06,0,0-.02,.02-.03,.02-.07,.07-.15,.13-.23,.19,.03,0,.05,.02,.08,.02,.1,.04,.19,.09,.28,.16,0,0,0,0,0,0,0,0,0,0,.01,0,.02,.02,.04,.04,.06,.06,.04,.05,.08,.1,.11,.16,.13,.23,.18,.5,.19,.76,0,.16-.01,.32-.05,.48-.02,.12-.06,.24-.1,.35,.12,.03,.24,.06,.36,.09,.24,.08,.48,.18,.7,.3,.68,.37,1.16,1.02,1.41,1.86,.19,.63,.17,1.15,.17,1.17Z"/>
      <path class="cls-1" d="M13.24,13l.07,.18c-.25-.16-.53-.28-.83-.34-.8-.16-1.25-.51-1.43-.69-.03-.24-.07-.47-.14-.69,.1,0,.2-.02,.29-.04,.13-.02,.25-.03,.36-.03,.43,0,.78,.14,1.06,.42,.23,.23,.35,.48,.37,.55,0,0,0,.02,0,.02l.11,.3h0s.11,.31,.11,.31h0Z"/>
      <path class="cls-15" d="M13.96,12.25c0-.06,.01-.61-.19-1.29-.28-.94-.82-1.66-1.59-2.08-.25-.14-.51-.25-.78-.33,.04-.2,.06-.39,.06-.58,0-.12-.01-.25-.04-.4,0,0,0,0,0,0,0-.02,0-.04-.01-.06,0,0,0,0,0,0-.01-.08-.04-.16-.07-.23-.03-.07-.06-.14-.1-.21-.03-.05-.06-.1-.1-.15,.03,.06,.04,.11,.04,.11-.06-.09-.15-.17-.24-.24,0,0,0,0,0,0,.02-.01,.03-.03,.05-.05,.01-.01,.03-.03,.04-.04,.04-.04,.08-.09,.12-.13,.04-.05,.09-.1,.13-.15,.27-.33,.5-.72,.68-1.14,.21-.48,.34-.99,.4-1.5,0,0,0-.01,0-.02,1.59,1.31,2.61,3.3,2.61,5.52,0,1.35-.37,2.6-1.02,3.68v-.7Z"/>
      <path class="cls-15" d="M11.41,7.5c-.02-.08-.04-.16-.07-.23,.03,.07,.06,.15,.07,.23Z"/>
      <path class="cls-11" d="M7.67,9.79s2.17-.17,2.21-.17h1.69s.57,.48,.6,.5,.62,.33,.64,.38,.57,1.28,.57,1.28l-.69-.47-.43-.27-.61-.1-.68,.05s-.65,.03-.67,.03-.81-.16-.81-.16l-.8-.28-.8-.52-.22-.28v.03Z"/>
      <path class="cls-6" d="M9.64,11.65s-1.21-.49-1.46-.87c0,0,0-.01-.01-.02,.22,.13,.51,.25,.67,.27,.07,.01,.15,.02,.22,.04,.27,.08,.48,.31,.59,.58Z"/>
      <path class="cls-4" d="M9.61,11.47l-.22-.33-.38-.21-.87-.22-.22-.06,.18,.33,1.29,1.44h.26l.02-.04,.18-.38-.23-.53Zm-1.44-.71c.22,.13,.51,.25,.67,.27,.07,.01,.15,.02,.22,.04,.27,.08,.48,.31,.59,.58,0,0-1.21-.49-1.46-.87,0,0,0-.01-.01-.02Z"/>
      <path class="cls-5" d="M9.64,11.65c-.1-.27-.31-.5-.59-.58-.07-.02-.14-.03-.22-.04-.16-.02-.45-.15-.67-.27h0s-.02-.03-.03-.05c-.11-.18-.21-.35-.28-.5,.34,.21,.86,.5,1.48,.7,0,0,0,0,0,0,0,.01,.02,.02,.03,.03,0,0,0,0,0,0,0,0,0,0,0,0,0,0,0,0,0,0,0,0,0,0,0,0,0,0,0,0,0,0,0,0,0,0,0,0,.02,.02,.03,.05,.05,.07,.03,.05,.06,.09,.08,.14,0,.01,.01,.02,.02,.03,0,0,0,0,0,0,0,0,0,0,0,0h0s0,0,0,0c0,0,0,0,0,0,0,0,0,0,0,0,0,0,0,0,0,0t0,0s0,0,0,0c0,0,0,0,0,0,.01,.03,.02,.05,.03,.08,.02,.05,.03,.11,.05,.17,.01,.05,.02,.11,.03,.16h0s0,0,0,0c0,0,0,0,0,0Z"/>
      <path class="cls-1" d="M10.79,8.13s0,.08-.01,.12h0s0,0,0,0h0s0,0,0,0c0,0,0,0,0,0,0,0,0,.02,0,.02,0,.02,0,.04-.01,.06-.02,.08-.04,.17-.06,.25-.01,.04-.02,.08-.04,.11,0,.01,0,.03-.01,.04-.1-.01-.19-.02-.29-.02,.04-.07,.06-.15,.07-.24,.03-.28-.08-.52-.26-.54-.18-.02-.35,.18-.38,.46-.02,.13,0,.24,.04,.34-.02,0-.03,0-.05,0-.11,.01-.22,.03-.33,.05,.09-.37,.13-.77,.02-1.13,0-.02,.01-.03,.01-.05,0,0,0,0,0-.01,0-.01,0-.02,0-.04,0-.03,.01-.05,.02-.08,0-.01,0-.02,.01-.03,0,0,0-.02,0-.03,0,0,0,0,0,0,0,0,0,0,0,0,0,0,0,0,0,0,0-.01,.01-.02,.02-.04,.01-.02,.02-.04,.04-.06,0,0,.01-.02,.02-.03,0,0,0,0,0,0,0,0,0,0,0,0,.03-.04,.06-.07,.1-.1,0,0,0,0,0,0,0,0,.02-.01,.02-.02,.02-.01,.04-.03,.06-.04,.02-.01,.04-.02,.06-.03,0,0,0,0,0,0,0,0,0,0,0,0,.01,0,.02,0,.03-.01,.04-.02,.09-.03,.13-.03,0,0,0,0,0,0,0,0,.02,0,.03,0,.02,0,.05,0,.07,0,0,0,0,0,0,0,.02,0,.03,0,.05,0,0,0,0,0,.02,0,0,0,0,0,0,0,0,0,0,0,0,0,0,0,0,0,0,0,0,0,.01,0,.01,0,.04,0,.09,.02,.13,.04,0,0,0,0,0,0,0,0,.02,0,.02,.01,.02,.01,.04,.02,.07,.04,0,0,.02,.01,.02,.02,0,0,.02,.01,.02,.02,0,0,0,0,0,0,0,0,.01,0,.01,0,.01,0,.02,.02,.03,.03,.02,.02,.03,.03,.05,.05,0,0,0,0,0,0,0,0,0,0,.01,.02,0,0,0,0,0,.01,.02,.02,.03,.05,.05,.08,0,.01,.01,.02,.02,.03,0,0,0,0,0,0,0,0,0,0,0,0,0,0,0,0,0,0,0,0,0,0,0,0,0,0,0,0,0,0,0,.01,0,.02,.01,.04,.03,.07,.05,.14,.06,.21,0,.04,.01,.07,.02,.11,0,0,0,0,0,.01h0s0,0,0,.01c0,.02,0,.04,0,.06,0,.08,0,.17,0,.25Z"/>
      <path class="cls-1" d="M9.21,8.38s0,.03,0,.04c0,0,0,0,0,.01,0,0,0,0,0,0,0,0,0,0,0,0h0s0,0,0,0c0,0,0,0,0,0,0,0,0,0,0,0h0s0,.04,0,.06c-.01,.06-.02,.12-.04,.19-.01,.06-.03,.13-.05,.19,0,0,0,0,0,0-.05,.02-.1,.03-.15,.05,.04-.09,.06-.21,.05-.33-.02-.3-.19-.53-.38-.52-.19,.01-.33,.26-.32,.56,.01,.22,.11,.4,.24,.48-.02,.01-.04,.03-.06,.04-.08-.04-.24-.1-.44-.16,0,0,0-.01,0-.02-.03-.06-.06-.11-.09-.17,0-.01-.01-.03-.02-.04,0,0,0,0,0,0,0,0,0,0,0,0,0,0,0,0,0,0,0,0,0,0,0,0t0,0s0,0,0,0c0,0,0,0,0,0,0,0,0,0,0,0,0,0,0,0,0,0,0,0,0,0,0,0,0-.02-.02-.04-.03-.07-.04-.1-.07-.2-.09-.3,0-.04-.02-.08-.02-.12,0,0,0,0,0,0,0,0,0,0,0,0,0,0,0,0,0-.01,0,0,0,0,0,0h0s0,0,0,0c0-.01,0-.02,0-.03,0-.02,0-.04,0-.06,0-.04,0-.09,0-.13,0-.02,0-.04,0-.06,0,0,0-.02,0-.03h0s0,0,0,0h0s0,0,0,0c0,0,0,0,0,0h0s0,0,0,0h0s0,0,0,0c0,0,0,0,0,0h0s0,0,0,0c0,0,0,0,0,0,0,0,0,0,0,0,0,0,0-.02,0-.02,0-.02,0-.04,.01-.06,0-.03,.02-.07,.03-.1,0-.01,0-.03,.02-.04,0,0,0-.02,.01-.02,.01-.03,.03-.06,.05-.09,.01-.02,.02-.04,.04-.06,0,0,0,0,0,0,0,0,0,0,0,0h0s0,0,0,0c0,0,0,0,0,0,0,0,0,0,0,0h0s0,0,0,0c0,0,.01-.02,.02-.02,.01-.01,.02-.02,.03-.04,.02-.02,.04-.04,.07-.06,0,0,0,0,.01-.01,0,0,0,0,0,0,0,0,.02-.01,.03-.02,.02-.02,.05-.03,.08-.05,.01,0,.03-.01,.04-.02,0,0,0,0,.01,0,.05-.02,.11-.04,.16-.05,0,0,.02,0,.02,0,0,0,0,0,0,0,0,0,0,0,0,0,0,0,0,0,0,0,0,0,.01,0,.02,0,.03,0,.06,0,.09,0,.01,0,.03,0,.04,0,0,0,.02,0,.03,0h0s0,0,0,0c0,0,0,0,0,0,0,0,0,0,0,0,0,0,0,0,0,0,0,0,0,0,0,0,0,0,0,0,0,0h0s0,0,0,0c.02,0,.04,0,.05,.01,.03,0,.05,.02,.08,.03,0,0,0,0,.01,0,.01,0,.03,.01,.04,.02,.03,.01,.05,.03,.07,.04,.01,0,.02,.01,.03,.02,0,0,.01,0,.02,.01,.02,.02,.05,.04,.07,.06,.01,.01,.02,.02,.03,.04,0,0,0,0,0,0,0,0,0,0,0,0,.04,.06,.07,.12,.1,.18,0,0,0,0,0,0,0,0,0,0,0,0,0,0,0,0,0,.01,0,.02,.01,.04,.02,.06,.01,.04,.02,.08,.03,.12,0,.02,0,.04,.01,.06,0,.01,0,.02,0,.03,0,0,0,0,0,0h0s0,0,0,0c0,.04,0,.09,.01,.13,0,.1,0,.21-.01,.31Z"/>
      <path class="cls-1" d="M9.12,16.11c-.17,.11-.32,.19-.48,.24-.23,.08-.45,.1-.65,.04h0s-.03,0-.05-.02c-.32-.11-.55-.38-.7-.63-.14-.24-.21-.45-.22-.48,0,.05,.03,.63,.35,1.03-.06,.02-.13,.05-.19,.07-.53,.17-.98,.15-1.32-.06-.13-.08-.24-.17-.33-.28,0,0,0,0-.01-.01-.15-.18-.25-.38-.31-.57-.03-.08-.05-.16-.07-.23-.05-.18-.06-.31-.07-.34,0,.02-.01,.12-.01,.25h0s0,.04,0,.06c0,.11,.01,.25,.04,.4-.65-.18-1.06-.53-1.29-1.01-.32-.65-.19-1.4,.06-2.05,0,0,0,0,0,0,0,0,0,0,0,0,.16-.41,.38-.79,.57-1.08,0,0,0,0,0,0,0,0,0,0,0,0,.21-.32,.39-.54,.43-.6,.03,.07,.06,.13,.09,.19,.03,.06,.06,.11,.09,.17h0s.02,.03,.03,.05c.01,.02,.02,.03,.03,.05,.02,.03,.04,.06,.06,.09h0s0,0,0,0c0,0,0,0,0,0,.04,.05,.07,.1,.1,.14,.01,.01,.02,.03,.03,.04,.01,.01,.02,.03,.03,.04,.01,.01,.02,.02,.03,.03,.06,.07,.1,.11,.13,.14,0,0,0,0,.01,.01,.01,.01,.02,.02,.02,.02-.02-.02-.03-.04-.05-.06-.02-.03-.04-.05-.06-.08-.01-.02-.02-.03-.04-.05-.01-.02-.03-.04-.04-.06,0-.01-.02-.03-.03-.04,0-.01-.02-.03-.03-.04,0,0-.01-.02-.02-.03,0-.01-.01-.02-.02-.03,0,0-.01-.02-.02-.03-.03-.06-.07-.12-.1-.18,0-.02-.02-.03-.02-.05,0-.02-.01-.03-.02-.05,0-.02-.01-.03-.02-.05-.01-.03-.03-.07-.04-.1,0-.02-.01-.03-.02-.05-.04-.09-.07-.19-.1-.28,0-.02-.01-.04-.02-.07,0-.03-.02-.06-.03-.09,0-.02-.01-.04-.02-.06,0-.01,0-.03-.01-.04,0-.03-.01-.05-.02-.08,0-.03-.01-.06-.02-.09-.01-.05-.02-.1-.03-.15,0-.03,0-.05-.01-.08,0-.05-.01-.09-.02-.14,0-.06-.02-.12-.02-.18-.01-.11-.02-.21-.03-.31h0c-.01-.24-.02-.47-.01-.66,0-.02,0-.04,0-.06,0-.05,0-.1,0-.14,0-.02,0-.03,0-.05,0,0,0-.01,0-.02h0s0-.03,0-.04c0,0,0-.02,0-.03,0,0,0,0,0,0,0-.03,0-.06,.01-.09,0-.03,0-.05,.01-.08,0,0,0-.02,0-.02,0-.02,0-.04,.01-.05,.03-.14,.06-.27,.1-.38,0-.01,0-.02,.01-.04,.01-.03,.02-.06,.03-.09,0-.02,.01-.04,.02-.06,0-.02,.01-.04,.02-.05,0-.02,.02-.04,.02-.05,0-.02,.01-.03,.02-.05,.01-.03,.03-.06,.04-.08,0-.01,.01-.02,.02-.03,0-.01,.01-.02,.02-.04,0-.01,.01-.02,.02-.03,0-.01,.02-.03,.02-.04,.02-.04,.04-.07,.06-.1,0,0,.01-.02,.02-.02,.02-.03,.04-.06,.05-.08,0,0,0,0,.01-.01,.02-.03,.03-.04,.03-.04,.25-.3,.56-.52,.92-.66,.5-.19,1.03-.18,1.49,.02,.02,.01,.05,.02,.07,.03,.02,0,.03,.02,.05,.02,.04,.02,.08,.04,.12,.06,.01,0,.03,.01,.04,.02,.08,.04,.15,.09,.22,.13,.02,.01,.03,.02,.04,.03,.01,0,.03,.02,.04,.03,0,0,0,0,0,0h0s0,0,0,0c.03,.02,.06,.04,.08,.06,.01,.01,.03,.02,.04,.03,.03,.02,.06,.05,.08,.07,.01,.01,.03,.03,.04,.04,0,0,.01,.01,.02,.02,0,0,.01,.01,.02,.02,.02,.02,.04,.04,.05,.06-.2-.02-.42,.02-.6,.12-.27,.14-.46,.41-.53,.71-.03,.11-.04,.22-.04,.33,0,.02,0,.04,0,.06,0,.01,0,.03,0,.04,0,0,0,.01,0,.02,0,0,0,0,0,0,0,.01,0,.03,0,.04,0,.01,0,.02,0,.03,0,.01,0,.02,0,.04,0,.02,0,.04,0,.06,0,.02,0,.04,.01,.06,0,.02,0,.04,.01,.06,0,.02,0,.04,.01,.06,0,.03,.02,.07,.03,.1,0,.01,0,.03,.01,.04,0,0,0,0,0,0,0,.01,0,.03,.02,.04,0,.02,.01,.03,.02,.05,.02,.05,.04,.1,.06,.14-.3-.05-.62-.04-.87,.11-.02,0-.03,.02-.05,.03,0,0-.01,0-.02,.01,0,0,0,0,0,0,0,0-.01,0-.02,.01,0,0,0,0,0,0,0,0-.01,0-.02,.01,0,0,0,0,0,0,0,0-.01,0-.02,.01,0,0,0,0,0,0,0,0,0,0-.01,0,0,0,0,0,0,0,0,0-.02,.02-.03,.03,0,0-.01,.01-.02,.02h0s-.01,.02-.02,.02c0,0,0,0,0,0,0,0,0,0,0,.01,0,0,0,0,0,0,0,0,0,0,0,0,0,0-.01,.02-.02,.02,0,0,0,0,0,0,0,0,0,.01-.01,.02,0,0,0,0,0,0,0,0,0,.01-.01,.02,0,0,0,0,0,0,0,0,0,0,0,.01,0,0,0,0,0,.01-.02,.03-.03,.06-.05,.09,0,0,0,0,0,0,0,0,0,.01,0,.02,0,.01,0,.02-.01,.03,0,0,0,0,0,0,0,0,0,.01,0,.02,0,0,0,0,0,0h0s0,0,0,.01c0,.01,0,.02,0,.03,0,.02,0,.03-.01,.05,0,0,0,0,0,.01,0,0,0,0,0,0,0,0,0,0,0,0,0,0,0,.02,0,.03,0,0,0,0,0,.01,0,0,0,0,0,.01,0,0,0,0,0,.01h0s0,0,0,.01t0,0s0,0,0,0c0,0,0,.02,0,.03,0,.01,0,.02,0,.03,0,0,0,0,0,0,0,.05-.01,.1-.01,.15,0,.19,.01,.38,.06,.58,0,.03,.01,.06,.02,.09,.14,.49,.44,.98,.81,1.41,.02,.03,.05,.06,.07,.08,.08,.09,.16,.18,.25,.27,0,0,0,0,0,0,.02,.02,.04,.04,.05,.06-.02,.15-.03,.31-.03,.48,0,.03,0,.06,0,.09,0,.03,0,.06,0,.09,0,0,0,0,0,0,0,.03,0,.07,0,.1,0,.03,0,.06,0,.09,0,.02,0,.05,0,.07,0,.01,0,.03,0,.04,0,.03,0,.06,.01,.09,0,0,0,0,0,.01,0,.03,0,.06,.01,.08,0,.03,0,.06,.01,.09,0,.03,0,.05,.01,.08,0,0,0,.01,0,.02,0,.01,0,.03,0,.04,0,.02,.01,.05,.02,.08,0,.02,0,.03,.01,.05,.01,.06,.03,.13,.05,.19,0,.02,.01,.04,.02,.05,0,.02,.01,.04,.02,.06,0,.02,.01,.03,.02,.05,.05,.15,.1,.29,.17,.44,0,.02,.02,.04,.02,.05,.04,.09,.09,.18,.14,.27,0,.02,.02,.03,.03,.05,.04,.07,.09,.14,.13,.21,.01,.02,.02,.03,.04,.05,.04,.05,.08,.1,.12,.15,.01,.02,.03,.03,.04,.05,.09,.11,.2,.23,.31,.33,.02,.02,.03,.03,.05,.04,.04,.03,.07,.06,.11,.1,.01,.01,.03,.02,.04,.04,.04,.03,.07,.06,.11,.08Z"/>
      <path class="cls-9" d="M11.72,3.18s0-.02,0-.03c0-.03,0-.06,0-.08,0-.11-.01-.22-.03-.33-.01-.11-.03-.22-.06-.32-.01-.05-.02-.11-.04-.16,0,0,0,0,0,0,0,0,0,0,0,0,0,0,0,0,0,0,0,0,0,0,0,0,0,0,0,0,0,0,0-.01,0-.02,0-.03,0-.03-.02-.05-.02-.08-.03-.1-.07-.21-.12-.31-.02-.05-.05-.1-.07-.14-.01-.03-.03-.05-.04-.07,0,0-.01-.02-.02-.03,0,0,0,0,0,0,0,0,0,0,0,0h0s0,0,0,0c0,0,0,0,0,0,0,0,0,0,0,0-.11-.18-.24-.35-.39-.5,0,0,0,0,0,0,0,0,0,0,0,0,0,0,0,0-.01-.01,0,0-.02-.02-.03-.03-.02-.02-.04-.04-.06-.05-.05-.04-.1-.08-.15-.12-.05-.04-.1-.08-.15-.11-.03-.02-.05-.04-.08-.05-.02-.01-.04-.02-.06-.03,0,0,0,0,0,0,0,0,0,0,0,0,0,0,0,0-.01-.01,0,0,0,0,0,0,0,0,0,0,0,0,0,0-.01,0-.02,0-.01,0-.03-.02-.04-.02-.03-.01-.05-.03-.08-.04-.05-.03-.11-.05-.16-.07-.06-.02-.11-.04-.17-.06-.03,0-.06-.02-.08-.02,0,0-.03,0-.03,0,0,0,0,0,.02,0-.01,0-.03,0-.04,0-.11-.03-.23-.05-.34-.06-.06,0-.11,0-.17-.01-.03,0-.05,0-.08,0h0s0,0,0,0c0,0,0,0-.01,0-.01,0-.03,0-.04,0-.11,0-.22,.01-.33,.03-.06,0-.11,.02-.17,.03-.03,0-.06,.01-.08,.02,0,0,0,0,0,0,0,0,0,0,0,0-.01,0-.02,0-.03,0-.1,.03-.21,.07-.3,.11-.05,.02-.1,.05-.14,.07-.02,.01-.05,.03-.07,.04,0,0,0,0,0,0,0,0,0,0,0,0,0,0,0,0,0,0,0,0,0,0,0,0,0,0-.01,0-.02,.01-.09,.06-.17,.12-.25,.18-.04,.03-.08,.07-.12,.11,0,0-.01,.01-.02,.02,0,0,0,0,0,0,0,0,0,0,0,0,0,0,0,0,0,0,0,0,0,0,0,0,0,0,0,0-.01,.01-.02,.02-.03,.04-.05,.06-.04,.04-.07,.09-.11,.13,0,0,0,0,0,0,0,.01-.02,.02-.03,.04,0,0,0,0,0,.01-.01,.02-.03,.04-.04,.06-.01,.02-.02,.04-.04,.06,0,0,0,0,0,0,0,0,0,0,0,0,0,0,0,0,0,0,0,.01-.01,.02-.02,.03-.02,.04-.04,.09-.06,.14,0,.02-.02,.04-.02,.06,0,0,0,0,0,.01-.17,.42-.31,1.14,.13,2-.09-.12-.17-.25-.24-.39-.09-.17-.17-.36-.22-.55-.05-.04-.27-.22-.32-.26-.11-.08-.22-.14-.34-.21-.06-.03-.11-.06-.17-.08-.02,0-.03-.01-.05-.02,0,0,0,0,0,0t0,0s0,0,0,0c0,0,0,0,0,0-.03-.01-.05-.02-.08-.03-.11-.04-.21-.07-.32-.1-.05-.01-.11-.02-.16-.03,0,0-.08-.02-.08-.01,0,0,.04,0,.01,0,0,0-.01,0-.02,0-.01,0-.02,0-.04,0-.1,0-.2-.01-.3,0-.05,0-.1,0-.15,.01-.01,0-.03,0-.04,0,0,0,0,0,0,0-.02,0-.05,0-.07,.01-.09,.02-.19,.04-.27,.07-.02,0-.05,.02-.07,.02,0,0-.02,0-.03,.01,0,0,0,0,0,0s0,0,0,0c-.04,.02-.08,.04-.12,.06-.08,.04-.15,.09-.23,.14,0,0-.02,.01-.03,.02,0,0,0,0,0,0,0,0,0,0,0,0,0,0,0,0,0,0-.02,.01-.03,.02-.05,.04-.03,.03-.07,.06-.1,.09-.03,.03-.06,.06-.09,.1-.02,.02-.03,.03-.04,.05,0,0,0,0,0,0,0,0,0,0,0,0,0,0,0,.01-.01,.02-.05,.07-.1,.15-.14,.22-.02,.04-.04,.08-.06,.12h0s0,0,0,0h0s0,0,0,0v.03s-.01,0-.01,0c0,0,0,0,0,.01,0,.01,0,.03-.01,.04-.03,.09-.05,.17-.07,.26,0,.02,0,.05-.01,.07,0,0,0,0,0,0h0s0,.02,0,.03c0,.01,0,.02,0,.03h0c-.01,.1-.03,.22-.03,.34,0,.09,0,.19,0,.29,.02,.34,.1,.73,.29,1.14-.04-.05-.08-.11-.12-.17-.17-.27-.31-.56-.39-.86-.03,.02-.06,.04-.09,.05-.03,.02-.06,.04-.09,.06,0,0,0,0,0,0h0s0,0,0,0c0,0,0,0,0,0,0,0,0,0,0,0-.01,.01-.03,.02-.04,.03-.06,.05-.11,.1-.15,.15-.02,.02-.04,.05-.06,.07,0,0,0,0,0,0,0,0,0,0,0,0,0,0-.01,.02-.02,.02,0,.01-.02,.03-.03,.04-.04,.06-.07,.12-.1,.18,0,.02-.02,.03-.02,.05,0,0,0,.02-.01,.02h0s0,0,0,0h0s0,0,0,0c0,0,0,0,0,0,0,0,0,0,0,0h0s0,0,0,0c0,0,0,0,0,0,0,0,0,0,0,0,0,0,0,0,0,0,0,0,0,.01,0,.02,0,.02-.01,.03-.02,.05-.02,.06-.04,.13-.06,.19,0,.03-.01,.07-.02,.1,0,.01,0,.02,0,.03,0,0,0,0,0,0,0,0,0,0,0,0,0,0,0,0,0,0t0,0s0,0,0,0h0s0,.01,0,.02c-.02,.14-.01,.28,0,.42,0,.02,0,.03,0,.05,0,0,0,0,0,0,0,0,0,0,0,0,0,0,0,0,0,.01,0,0,0,0,0,0,0,.04,.01,.07,.02,.11,.01,.07,.03,.14,.05,.21,0,.03,.02,.06,.03,.09h0s.03,.07,.04,.11c0,0,0,0,0,.01,0,0,0,0,0,0,0,0,0,0,0,0,0,0,0,0,0,0,0,0,0,0,0,0,0,0,0,0,0,0,0,0,0,0,0,0,0,.01,.01,.03,.02,.04,0,0,0,0,0,0,.04,.11,.11,.25,.19,.4,.03,.06,.06,.11,.09,.17,.15,.26,.33,.53,.54,.7h0s0,0,0,0c-.02,0-.03,0-.05-.02-.03-.02-.07-.04-.1-.06-.19-.12-.37-.26-.52-.42-.02,.03-.03,.05-.05,.08-.04,.07-.08,.14-.11,.22,0,0,0,0,0,0,0,0,0,0,0,0,0,0,0,0,0,0,0,0,0,0,0,0,0,0,0,0,0,0,0,0,0,0,0,0,0,0,0,.02-.01,.03,0,.02-.02,.04-.02,.06-.01,.04-.03,.08-.04,.12-.01,.04-.02,.08-.03,.13,0,.02,0,.04-.01,.07,0,.01,0,.02,0,.04,0,0,0,0,0,.01,0,0,0,0,0,0h0s0,.07,0,.11c0,.04,0,.07,0,.11,0,.08,0,.16,.01,.23,0,0,0,.02,0,.02,0,0,0,0,0-.01,0,0,0,.02,0,.02,0,.02,0,.04,.01,.06,0,.03,.01,.07,.02,.1,.02,.07,.04,.14,.07,.21,0,.01,0,.02,.01,.03,0,0,0,0,0,0,0,0,0,0,0,0,0,0,0,0,0,0,0,0,0,0,0,0h0s0,0,0,0c0,0,0,0,0,0,0,0,0,0,0,0,0,0,0,0,0,0,0,0,0,.01,0,.02,.01,.03,.03,.06,.05,.09,.03,.07,.07,.13,.11,.19,.02,.03,.04,.06,.07,.09,0,0,0,0,0,0,0,0,0,0,0,0,0,0,0,0,0,0,0,0,0,.01,.01,.02,0,.01,.02,.02,.03,.04,.05,.06,.1,.11,.15,.16,.03,.03,.06,.05,.09,.08,.01,.01,.02,.02,.04,.03,0,0,0,0,0,0,0,0,.02,.01,.02,.02,.06,.04,.12,.09,.19,.12,.04,.02,.07,.04,.11,.06,.02,0,.04,.02,.06,.03,0,0,.01,0,.02,0h0s0,0,0,0c0,0,0,0,0,0,0,0,0,0,0,0h0s0,0,0,0c.08,.03,.16,.06,.24,.08,.08,.02,.17,.04,.25,.06,.04,0,.09,.02,.13,.02,.01,0,.02,0,.03,0,0,0,0,0,0,0,0,0,0,0,0,0,.02,0,.04,0,.05,0,.16,.02,.33,.03,.49,.03-.07-.31-.12-.67-.14-1.07v.02c-.02-.22-.02-.43,0-.62,0-.1,.01-.19,.02-.28,.03-.23,.08-.44,.16-.63,.11-.24,.24-.46,.39-.65,0,0,0,0,0,0,.05-.06,.08-.1,.09-.11,0,0,0,0,0,0h0c.27-.3,.6-.53,.98-.68,.57-.22,1.17-.21,1.7,.03,.86,.39,1.19,.89,1.29,1.11,.05,.04,.1,.09,.14,.15,.01-.02,.02-.04,.03-.06,0-.01,.02-.02,.02-.04,.07-.1,.15-.18,.25-.25,.02-.01,.04-.03,.07-.04,.01-.01,.02-.02,.04-.03,.05-.02,.09-.04,.14-.07,.02-.01,.04-.02,.07-.04,0,0,.02-.01,.03-.02h0s0,0,0,0c0,0,0,0,0,0,0,0,0,0,0,0,0,0,0,0,0,0h0s.02,0,.02-.01c.17-.11,.33-.23,.48-.37,.02-.02,.04-.04,.06-.06,0,0,.02-.02,.02-.02h0s0,0,0,0c0,0,0,0,0,0,0,0,0,0,0,0,.04-.04,.07-.08,.11-.12,.04-.05,.08-.09,.12-.14,.03-.04,.06-.07,.09-.11,.07-.09,.13-.18,.19-.28,.02-.03,.03-.05,.05-.08,0-.01,.01-.02,.02-.03,0,0,0,0,0-.01,0,0,0,0,0,0,0,0,0,0,0,0,0,0,0,0,0,0,0,0,0,0,0,0h0s.05-.09,.07-.13c.11-.2,.2-.41,.27-.63,.04-.11,.07-.22,.1-.33,0,0,0-.01,0-.02,0,0,0,0,0,0h0s0,0,0,0,0,0,0,0h0s0,0,0,0c0,0,0,0,0,0,0,0,0,0,0,0,0,0,0-.01,0-.02,0-.03,.01-.06,.02-.08,.01-.06,.02-.11,.04-.17,.04-.23,.07-.45,.08-.68,0-.06,0-.11,0-.17v-.03s0,0,0,0ZM7.17,1.66s0-.02,.01-.02c0,0,0,.02-.01,.02Zm.17-.26s0,0,0,0h0s0,0,0,0Zm.09,2.21s0,0,0,0c0,0,0,0,0,0,0,0,0,0,0,0Z"/>
      <path class="cls-8" d="M11.47,15.48c-.08,.21-.29,.61-.67,.77-.31,.13-.68,.07-1.11-.17-1.53-.86-1.93-2.51-1.87-3.51,0,0,1.58,4.8,3.66,2.91Z"/>
      <path class="cls-9" d="M13.05,15.59c-.35,.15-.64,.1-.93,.03-.11-.02-.21-.07-.3-.13,0,0,0,0,0,0l-.04-.02c-.19-.13-.35-.31-.48-.48-.2-.26-.32-.5-.32-.52,0,.04,.17,.57,.48,1.01-2.08,1.89-3.66-2.91-3.66-2.91,.16,.15,.33,.29,.49,.41,.1,.08,.21,.16,.33,.24,.53,.36,1.15,.67,1.6,.67,.08,0,.15,0,.22-.03l.06-.02,.02-.06s.16-.47,.17-1.08c.27,.28,.78,.67,1.64,.85,.65,.13,1.22,.69,1.28,1.24,.04,.36-.16,.64-.56,.81Z"/>
      <path class="cls-7" d="M13.36,11.72s-.03-.06-.06-.11c-.07-.13-.16-.3-.22-.38-.14-.21-.32-.42-.53-.63-.62-.59-1.34-.81-2.08-.65-.86,.19-1.64,.12-2.16,.01h0c-.32-.06-.54-.14-.62-.17,0,0-.01,0-.02,0,0,0,0,0,0,0t0,0s-.01,0-.01,0h0c-.12-.03-.24-.07-.34-.11l.09,.2c.04,.1,1.1,2.35,2.21,2.74h0s.1-.01,.12-.06c.21-.46,.18-1.01-.02-1.47-.01-.03-.03-.07-.05-.1,.13,.03,.27,.06,.41,.08,.59,1.11,.31,2.28,.23,2.55-.38,.06-1.12-.28-1.86-.85-.21-.17-.43-.35-.64-.56,0,0,0,0,0,0-.08-.08-.16-.17-.24-.25-.53-.66-.76-1.65-.76-1.65-.03,.16-.04,.32-.03,.47-.08-.18-.13-.37-.16-.55-.02-.11-.02-.22-.02-.33,0-.02,0-.04,0-.05,0-.11,.03-.2,.06-.29,.05-.15,.14-.26,.26-.33,.25-.15,.61-.11,.92-.03,.01,0,.03,.01,.05,.01,.3,.08,.55,.2,.55,.2l.07,.03,.06-.04c.27-.19,1.08-.54,2.08-.41,.06,0,.12,.02,.17,.03,.34,.06,.7,.19,1.07,.39,.41,.22,.7,.53,.91,.87,0,0,0,0,0,0,0,0,0,0,0,0,.1,.16,.19,.33,.25,.5,0,0,0,0,0,0,.11,.27,.25,.7,.3,.93Z"/>
      <path class="cls-14" d="M10.38,11.1c-.1,0-.19-.02-.29-.03,0-.02-.02-.04-.03-.06l.21-.12c.04,.07,.07,.14,.1,.2Z"/>
      <path class="cls-14" d="M7.56,11.97c.08,.09,.16,.17,.24,.25-.09-.08-.17-.16-.24-.25Z"/>
      <path class="cls-14" d="M10.38,11.1c-.1,0-.19-.02-.29-.03,0-.02-.02-.04-.03-.06l.21-.12c.04,.07,.07,.14,.1,.2Z"/>
      <path class="cls-14" d="M4.7,10.33c.1,0,.1-.15,0-.15s-.1,.15,0,.15h0Z"/>
      <polygon class="cls-14" points="7.34 1.4 7.34 1.41 7.34 1.4 7.34 1.4"/>
      <polygon class="cls-14" points="7.42 3.61 7.42 3.61 7.42 3.61 7.42 3.61"/>
      <polygon class="cls-14" points="7.42 3.61 7.42 3.61 7.42 3.61 7.42 3.61"/>
      <polygon class="cls-14" points="7.43 3.62 7.43 3.62 7.43 3.62 7.43 3.62"/>
      <path class="cls-14" d="M9.74,12.57s-.07,.06-.12,.05c-.01,0-.03,0-.04-.01-.06-.03-.07-.1-.04-.16,0,0,0-.01,0-.01t0,0s0,0,0,0,0,0,0,0c0,0,0,0,0-.01,0-.01,0-.03,.01-.04,0-.01,0-.03,.01-.04,0-.02,0-.03,.01-.05,.02-.06,.03-.12,.04-.18,0,0,0,0,0-.01h0s0,0,0,0c0,0,0,0,0,0,0,0,0,0,0,0,0,0,0,0,0,0,0,0,0,0,0,0,0-.01,0-.03,0-.04,0-.03,0-.05,0-.08,0-.06,0-.12,0-.17,0-.03,0-.06,0-.09,0-.02,0-.03,0-.04,0,0,0,0,0,0h0s0,0,0,0c0,0,0,0,0,0h0c0-.06-.02-.11-.03-.17-.01-.06-.03-.11-.05-.17,0-.03-.02-.05-.03-.08,0,0,0,0,0,0,0,0,0,0,0,0t0,0s0,0,0,0c0,0,0,0,0,0,0,0,0,0,0,0,0,0,0,0,0,0h0s0,0,0,0c0,0,0,0,0,0,0-.01-.01-.02-.02-.03-.02-.05-.05-.1-.08-.14-.01-.02-.03-.05-.05-.07,0,0,0,0,0,0,0,0,0,0,0,0,0,0,0,0,0,0,0,0,0,0,0,0,0,0,0,0,0,0,0,0,0,0,0,0,0-.01-.02-.02-.03-.03,0,0,0,0,0,0-.04-.05-.04-.11,0-.16,.04-.04,.12-.05,.16,0,.07,.08,.12,.16,.17,.25,.02,.03,.03,.06,.05,.1,.2,.46,.22,1.01,.02,1.47Z"/>
      <polygon class="cls-14" points="6.99 2.21 6.99 2.22 6.99 2.21 6.99 2.21"/>
      <polygon class="cls-14" points="6.99 2.21 6.99 2.2 6.99 2.2 6.99 2.21"/>
      <path class="cls-14" d="M7.18,1.64s0,.02-.01,.02c0-.01,0-.02,.01-.02Z"/>
      <polygon class="cls-14" points="3.24 7.64 3.24 7.64 3.24 7.64 3.24 7.64"/>
      <path class="cls-14" d="M7.67,9.79s-.01,0-.02,0h0s0,0,.01,0Z"/>
      <path class="cls-13" d="M11.87,3.88l-.29,.96-.62,1.13-.08,.07h0l-.29,.27-.13,.12-.1,.1h0l-.14,.13-.2,.09h0l-.15,.07h0s-.14,.12-.14,.12l-.21,.18-.16,.32-.06,.12-.11-.13-.14-.17-.05-.06h0s-.01-.02-.01-.02l-.06-.07-.16-.18-.08-.09-.11-.12-.34-.37-.58-.26-.6-.15-.62,.09-.55,.16-.24,.25-.26,.21-.16,.16-.17,.12-.15,.11v.41l-.18,.23-.08,.11v.25s0,.13,0,.13h0s-.04,.26-.04,.26l-.1,.62-.02,.1,.1,.48,.08,.37h0s.03,.14,.03,.14h-.65l-.68-.21-.54-.26-.36-.33-.29-.72-.08-.86,.19-.39,.05-.1,.13-.26,.06-.12-.09-.1-.26-.26-.03-.03s0,0,0,0l-.06-.94,.06-.27,.13-.54,.03-.15,.34-.43,.03-.03,.29-.15h.03s.07-.05,.07-.05v-.53l.15-.08h.01s0,0,0,0c.01,.13,.03,.26,.05,.38,.05,.24,.12,.46,.21,.66,.5,1.05,1.61,1.42,2.83,1.52,.41,.03,.83,.03,1.24,.02,.57-.02,1.13-.06,1.62-.1,.74-.05,1.27-.33,1.64-.67h0c.67-.61,.83-1.41,.83-1.45,0,0,0,0,0,0l.18,.16Z"/>
      <path class="cls-14" d="M10.43,8.48c-.01,.09-.04,.17-.07,.24-.07,.14-.19,.23-.31,.22-.1-.01-.18-.09-.22-.2-.04-.09-.05-.21-.04-.34,.03-.28,.21-.48,.38-.46,.18,.02,.3,.26,.26,.54Z"/>
      <path class="cls-9" d="M11.47,15.48c-2.08,1.89-3.66-2.91-3.66-2.91l.81,.65,2.84,2.26Z"/>
      <path class="cls-8" d="M10.98,14.47s1.02,1.51,2.45,.87l-.39,.45-.53,.06-.61-.14-.22-.2-.35-.39-.34-.65Z"/>
      <path class="cls-14" d="M13.18,15.9c-.23,.1-.46,.15-.67,.15-.19,0-.37-.04-.55-.13,0,0,0,0-.01,0-.08-.04-.15-.09-.22-.15,0,0-.01,0-.02-.01-.09-.08-.18-.18-.25-.28-.01-.02-.02-.03-.03-.05-.29-.42-.44-.92-.45-.96,0,0,0,0,0,0,0,.01,.02,.04,.05,.1,0,0,0,0,0,0,.05,.1,.15,.25,.27,.42,.09,.11,.19,.23,.3,.34,.06,.05,.12,.1,.18,.15,.01,0,.02,.02,.03,.02,.06,.04,.13,.07,.19,.1,.04,.01,.07,.02,.11,.03,.07,.02,.14,.03,.21,.04,.22,.04,.45,.04,.72-.08,.16-.07,.28-.15,.37-.25,0,0,0,0,0,0,.15-.15,.21-.34,.19-.56,0-.06-.02-.13-.04-.19-.03-.08-.06-.17-.11-.24-.07-.13-.17-.25-.28-.36-.23-.22-.53-.39-.85-.45-.57-.11-.99-.33-1.29-.54-.15-.11-.26-.21-.35-.3-.17-.17-.24-.31-.25-.32l.21-.09s.01,.01,.03,.04c.05,.06,.17,.19,.38,.33,.28,.2,.72,.43,1.34,.55,.38,.08,.73,.27,1,.52,.11,.11,.21,.22,.29,.35,.05,.07,.09,.15,.13,.23,.07,.14,.11,.29,.12,.44,.05,.51-.23,.93-.76,1.16Z"/>
      <polygon class="cls-14" points="3.19 9.27 3.18 9.27 3.19 9.27 3.19 9.27"/>
      <path class="cls-14" d="M4.77,10.16s0,.03,0,.05h0s-.03,.06-.06,.08h0s-.02,.01-.02,.01c-.02,0-.04,.01-.06,.01-.05,0-.09,0-.14,0-.37-.02-.74-.06-1.09-.18-.32-.11-.62-.3-.85-.55-.22-.24-.39-.52-.49-.84-.16-.5-.1-1.05,.12-1.52,.06-.12,.12-.23,.2-.34,.02-.03,.04-.06,.07-.09,0,0,0,0,0,0,.04-.05,.11-.05,.17-.03,.03,.06,.06,.11,.09,.17,0,.03-.02,.06-.04,.08,0,.01-.02,.02-.03,.03,0,0,0,0,0,0h0s0,0,0,0t0,0s-.02,.03-.04,.05c0,.01-.02,.02-.02,.04-.02,.03-.03,.05-.05,.08-.04,.07-.08,.14-.11,.22,0,0,0,0,0,0,0,0,0,0,0,0,0,0,0,0,0,0,0,0,0,0,0,0t0,0s0,0,0,0c0,0,0,.02-.01,.03,0,0,0,0,0,0,0,.02-.02,.04-.02,.06-.01,.04-.03,.08-.04,.12-.01,.04-.02,.08-.03,.13,0,.02,0,.04-.01,.07,0,.01,0,.02,0,.04,0,0,0,0,0,.01,0,0,0,0,0,0h0s0,.07,0,.11c0,.04,0,.07,0,.11,0,.08,0,.16,.01,.23,0,0,0,.02,0,.02,0,0,0,0,0-.01,0,0,0,.02,0,.02,0,.02,0,.04,.01,.06,0,.03,.01,.07,.02,.1,.02,.07,.04,.14,.07,.21,0,.01,0,.02,.01,.03,0,0,0,0,0,0,0,0,0,0,0,0,0,0,0,0,0,0s0,0,0,0c0,0,0,0,0,0,0,0,0,0,0,0,0,0,0,0,0,0,0,0,0,0,0,0,0,0,0,0,0,0,0,0,0,.01,0,.02,.01,.03,.03,.06,.05,.09,.03,.06,.07,.13,.11,.19,.02,.03,.04,.06,.07,.09h0s0,0,0,0c0,0,0,0,0,0,0,0,.01,.01,.01,.02,0,.01,.02,.02,.03,.04,.05,.06,.1,.11,.15,.16,.03,.03,.06,.05,.09,.08,.01,.01,.02,.02,.04,.03,0,0,0,0,0,0,0,0,.01,0,.02,.01,0,0,0,0,0,0,.06,.04,.12,.09,.19,.12,.04,.02,.07,.04,.11,.06,.02,0,.04,.02,.06,.03,0,0,.01,0,.02,0h0s0,0,0,0c0,0,0,0,0,0s0,0,0,0h0s0,0,0,0c.08,.03,.16,.06,.24,.08,.08,.02,.17,.04,.25,.06,.04,0,.09,.02,.13,.02,.01,0,.02,0,.03,0,0,0,0,0,0,0,0,0,0,0,0,0,.02,0,.04,0,.05,0,.16,.02,.33,.03,.49,.03,0,0,.01,0,.02,0,0,0,.01,0,.02,0,0,0,.02,0,.03,0,0,0,0,0,0,0,.03,.01,.06,.03,.08,.06h0s.02,.05,.03,.08Z"/>
      <path class="cls-14" d="M9.16,7.23l-.26,.09s-.06-.18-.27-.41c-.18-.2-.47-.44-.92-.64-.46-.21-.99-.22-1.49-.02-.35,.14-.67,.36-.92,.66,0,0-.01,.01-.03,.04-.15,.18-.27,.38-.37,.6-.07,.15-.12,.33-.15,.51,0,0,0,0,0,0,0,0,0,0,0,0-.07,.39-.07,.83-.04,1.26,.05,.67,.17,1.31,.26,1.71-.03-.06-.06-.12-.09-.19-.03-.07-.06-.14-.09-.21h0s-.02-.06-.02-.09c-.02-.08-.04-.16-.06-.25h0c-.02-.09-.04-.18-.06-.28-.07-.31-.13-.65-.16-.98h0s0-.08,0-.12c0-.1-.01-.2-.01-.3,0-.09,0-.18,0-.27,0-.1,.01-.19,.02-.28,.03-.23,.08-.44,.16-.63,.11-.24,.24-.46,.39-.65,0,0,0,0,0,0,.03-.04,.06-.07,.09-.1,0,0,0,0,0,0h0s0,0,0,0c.27-.3,.6-.53,.98-.68,.57-.22,1.17-.21,1.7,.03,.86,.39,1.19,.89,1.29,1.11,.03,.06,.04,.1,.04,.1Z"/>
      <path class="cls-14" d="M5.3,6.83v.07s-.01,.01-.03,.04c-.11,.14-.44,.62-.54,1.4,0,0,0,0,0,0-.04,.29-.05,.63,0,1h0s-.01-.02-.01-.02l-.23-.3h0s0,0,0,0h0s.09-.46,.09-.46l.1-.51,.02-.11,.08-.65,.24-.22h0s.29-.26,.29-.26Z"/>
      <path class="cls-10" d="M11.03,1.18s-2.66-1.41-3.99,.66v-.39l.51-.65,.63-.49,.85-.11h.58l.67,.11,.41,.38,.34,.5Z"/>
      <path class="cls-10" d="M6.8,2.73s-2.04-1.36-3.5,.08l-.03-.25,.59-.49,.79-.25,.4-.05,.37-.05,.41,.17,.29,.07,.37,.16,.3,.12v.48Z"/>
      <path class="cls-14" d="M6.79,2.23s-.02-.02-.04-.03c0,0-.02-.01-.03-.02-.12-.08-.24-.16-.36-.24-.06-.03-.12-.06-.18-.09t0,0c-.12-.06-.25-.12-.38-.16h0c-.13-.05-.27-.08-.41-.1-.43-.07-.87-.03-1.28,.14-.36,.15-.66,.42-.87,.75-.12,.19-.21,.41-.25,.63-.02,.1-.03,.19-.04,.29,0,.02,0,.04,0,.06,0,.06,0,.11,0,.17,0,.06,0,.11,.01,.17,0,.07,.02,.14,.03,.2,0,0,0,0,0,.01,0,0,0,.01,0,.02,0,.03,.01,.06,.02,.08,.02,.09,.05,.17,.08,.26h0s.03,.07,.04,.1c.07,.18,.16,.35,.27,.51,.04,.06,.08,.11,.12,.17-.12-.26-.2-.52-.24-.76-.02-.13-.04-.26-.05-.38,0-.07,0-.14,0-.2,0-.03,0-.06,0-.09,0-.13,.02-.24,.03-.34h0s0-.02,0-.03c0,0,0,0,0,0,0-.01,0-.02,0-.03h0s0,0,0,0c0-.02,0-.05,.01-.07,0-.02,0-.03,0-.04,.02-.07,.04-.15,.06-.22,0-.01,0-.03,.01-.04,0,0,0,0,0-.01,0,0,0,0,0,0v-.03s.01,0,.01,0h0s0,0,0,0c0,0,0,0,0,0,.01-.03,.02-.05,.04-.08,0-.01,.01-.03,.02-.04,.04-.08,.09-.15,.14-.22,0,0,0-.01,.01-.02,0,0,0,0,0,0,0,0,0,0,0,0,.01-.02,.03-.04,.04-.05,.03-.03,.06-.07,.09-.1,.03-.03,.06-.06,.1-.09,.02-.01,.03-.03,.05-.04,0,0,0,0,0,0,0,0,0,0,0,0,0,0,0,0,0,0,0,0,.02-.01,.03-.02,.07-.05,.15-.1,.23-.14,.04-.02,.08-.04,.12-.06,0,0,0,0,0,0,0,0,0,0,0,0,0,0,.02,0,.03-.01,.02,0,.04-.02,.07-.02,.09-.03,.18-.05,.27-.07,.02,0,.05,0,.07-.01,0,0,0,0,0,0,.01,0,.03,0,.04,0,.05,0,.1,0,.15-.01,.1,0,.2,0,.3,0,0,0,.01,0,.02,0,0,0,0,0,.02,0,0,0,.01,0,.02,0,.03,0-.01,0-.01,0,0,0,.07,.01,.08,.01,.05,0,.11,.02,.16,.03,.07,.02,.13,.03,.2,.06,0,0,0,0,0,0,.04,.01,.08,.03,.13,.04,.03,0,.05,.02,.08,.03,0,0,0,0,0,0,0,0,0,0,0,0t0,0s0,0,0,0c.02,0,.03,.01,.05,.02,.06,.03,.11,.05,.17,.08,.07,.04,.13,.07,.2,.11h0s.03,.02,.04,.02c.03,.02,.07,.04,.1,.07,.06,.04,.27,.22,.32,.26h0c.06,.05,.02-.13,.05-.2,.04-.08,.01-.16-.05-.21Z"/>
      <path class="cls-14" d="M12.02,3.48c0,.08-.01,.16-.02,.24-.05,.48-.18,.95-.37,1.39-.16,.36-.36,.71-.6,1.02-.05,.06-.09,.12-.14,.17-.03,.04-.06,.07-.1,.11-.03,.03-.06,.07-.1,.1-.02,.02-.04,.04-.06,.06,0,0-.02,.02-.03,.02-.07,.07-.15,.13-.23,.19-.04,.03-.09,.06-.13,.09-.01,0-.02,.02-.04,.03-.09,.06-.18,.11-.27,.16,0,0-.01-.01-.02-.02-.02-.02-.04-.03-.06-.04,0,0-.01,0-.02-.01,0,0,0,0,0,0-.03-.01-.05-.03-.08-.04-.02,0-.03-.01-.05-.02,0,0,0,0-.01,0,0,0,0,0,0,0,0,0,0,0,0,0,0,0,0,0,0,0,0,0-.01,0-.02,0-.02,0-.03,0-.05,0,0-.01,.02-.02,.03-.04,.01-.01,.02-.02,.04-.03,.02,0,.03-.02,.05-.02h0s0,0,0,0c0,0,.01,0,.02,0,0,0,0,0,0,0,0,0,0,0,0,0,.02,0,.03-.02,.05-.03,.02-.01,.04-.02,.07-.04,0,0,.02-.01,.03-.02h0s0,0,0,0c0,0,0,0,0,0,0,0,0,0,0,0,0,0,0,0,0,0h0s.02-.01,.02-.02c.03-.02,.06-.04,.09-.06,.02-.01,.04-.02,.05-.04,.02-.01,.04-.03,.06-.04,0,0,.01,0,.02-.01,0,0,0,0,0,0,0,0,0,0,0,0,.02-.01,.03-.02,.05-.04,0,0,0,0,0,0s0,0,0,0c0,0,0,0,0,0,.02-.01,.03-.03,.05-.04,.02-.02,.04-.03,.06-.05,.03-.02,.05-.04,.08-.07,.02-.02,.04-.04,.06-.06l.03-.03s0,0,0,0c0,0,0,0,0,0h0s.07-.08,.11-.12c.04-.05,.08-.09,.12-.14,0,0,0,0,0,0,.03-.04,.06-.07,.08-.11,.07-.09,.13-.18,.19-.28,.02-.03,.03-.05,.05-.08,0-.01,.01-.02,.02-.03,0,0,0,0,0-.01,0,0,0,0,0,0,0,0,0,0,0,0,0,0,0,0,0,0,0,0,0,0,0,0h0s.05-.09,.07-.13c.11-.2,.2-.41,.27-.63,.04-.11,.07-.22,.1-.33,0,0,0-.01,0-.02,0,0,0,0,0,0h0s0,0,0,0c0,0,0,0,0,0h0s0,0,0,0c0,0,0,0,0,0,0,0,0,0,0,0,0,0,0-.01,0-.02,0-.03,.01-.06,.02-.08,.01-.06,.02-.11,.04-.17,0-.02,0-.05,.01-.07,0-.01,0-.03,0-.04,0,0,0,0,0,0,0-.05,.01-.09,.02-.14,0-.03,0-.06,.01-.09,0,0,0,0,0,0,0-.03,0-.05,0-.08,0-.03,0-.06,0-.09,0,0,0,0,0,0,0-.06,0-.11,.01-.17,0-.03,0-.05,0-.08,0-.01,0-.02,0-.03,0-.02,0-.04,0-.06v-.03s0,0,0,0v-.03s0-.06,0-.08c0-.11-.01-.22-.03-.33,0,0,0,0,0,0-.01-.11-.03-.21-.05-.31,0,0,0,0,0,0-.01-.05-.02-.11-.04-.16,0,0,0,0,0,0,0,0,0,0,0,0,0,0,0,0,0,0,0,0,0,0,0,0h0s0-.02,0-.03c0-.03-.02-.05-.02-.08-.03-.1-.07-.21-.12-.31-.02-.05-.05-.1-.07-.14-.01-.03-.03-.05-.04-.07,0,0-.01-.02-.02-.03,0,0,0,0,0,0,0,0,0,0,0,0h0s0,0,0,0c0,0,0,0,0,0,0,0,0,0,0,0-.11-.18-.24-.35-.39-.5,0,0,0,0,0,0h0s0-.01-.01-.01c0,0-.02-.02-.03-.03-.02-.02-.04-.04-.06-.05-.05-.04-.1-.08-.15-.12-.05-.04-.1-.08-.15-.11-.03-.02-.05-.04-.08-.05-.02-.01-.04-.02-.06-.03,0,0,0,0,0,0,0,0,0,0,0,0,0,0,0,0-.01-.01t0,0s0,0,0,0c0,0-.01,0-.02,0-.01,0-.03-.02-.04-.02-.03-.01-.05-.03-.08-.04-.05-.03-.11-.05-.16-.07-.06-.02-.11-.04-.17-.06-.03,0-.06-.02-.08-.02,0,0,0,0,0,0,0,0,0,0,0,0,0,0,0,0-.01,0,0,0,0,0,0,0-.01,0-.03,0-.04,0-.11-.03-.23-.05-.34-.06-.06,0-.11,0-.17-.01-.02,0-.05,0-.08,0h0s0,0,0,0c0,0,0,0-.01,0-.01,0-.03,0-.04,0-.11,0-.22,.01-.33,.03-.06,0-.11,.02-.16,.03-.03,0-.06,.01-.08,.02,0,0,0,0,0,0,0,0,0,0,0,0-.01,0-.02,0-.03,0-.1,.03-.21,.07-.31,.11-.05,.02-.1,.04-.14,.07-.02,.01-.05,.03-.07,.04,0,0,0,0,0,0,0,0,0,0,0,0,0,0,0,0,0,0,0,0,0,0,0,0,0,0-.01,0-.02,.01-.09,.06-.17,.12-.25,.18-.04,.03-.08,.07-.12,.1,0,0-.01,.01-.02,.02,0,0,0,0,0,0,0,0,0,0,0,0,0,0,0,0,0,0,0,0,0,0,0,0,0,0,0,0-.01,.01-.02,.02-.03,.04-.05,.06-.04,.04-.07,.09-.11,.13,0,0,0,0,0,0,0,.01-.02,.02-.03,.04,0,0,0,0,0,.01-.01,.02-.03,.04-.04,.06-.01,.02-.02,.04-.04,.06,0,0,0,0,0,0,0,0,0,0,0,0,0,0,0,0,0,0,0,.01-.01,.02-.02,.03-.01,.03-.03,.06-.04,.08,0,0,0,0,0,0,0,.02-.01,.03-.02,.05,0,.02-.02,.04-.02,.06,0,0,0,0,0,.01,0,.01-.01,.03-.02,.04s-.01,.03-.02,.04c0,.01,0,.02-.01,.03,0,0,0,.01,0,.02,0,.02-.01,.03-.02,.05,0,.02-.01,.04-.02,.05,0,.02-.01,.04-.02,.06,0,.01,0,.03-.01,.04,0,0,0,0,0,0,0,0,0,0,0,.01,0,0,0,.02,0,.03,0,.01,0,.03,0,.04,0,.02,0,.03,0,.05s0,.03,0,.05,0,.03,0,.05c0,0,0,0,0,0,0,0,0,0,0,0,0,0,0,0,0,0,0,0,0,0,0,.01,0,.02,0,.03,0,.05-.03,.38,.03,.83,.28,1.34-.09-.12-.17-.25-.24-.39-.09-.17-.17-.36-.22-.55h0c-.04-.14-.06-.29-.07-.43,0,0,0-.02,0-.02,0-.13,0-.26,.03-.39,0-.02,0-.03,0-.04,0,0,0,0,0,0,.02-.09,.04-.17,.07-.26,.12-.34,.34-.64,.61-.88,.35-.3,.78-.49,1.23-.57,.48-.09,.98-.04,1.44,.13,.47,.18,.9,.5,1.22,.89,.29,.36,.49,.8,.6,1.25,.02,.1,.04,.2,.06,.3,.02,.1,.03,.21,.03,.31,.01,.18,.01,.36,0,.54Z"/>
      <path class="cls-10" d="M3.09,4.37s-.84,.46-.85,1.33l-.09-.42,.08-.63,.35-.43,.48-.22,.03,.37Z"/>
      <path class="cls-14" d="M3.24,7.64s-.03,0-.05-.02c-.03-.02-.07-.04-.1-.06-.09-.05-.17-.11-.24-.17-.1-.08-.19-.16-.27-.26-.04-.04-.07-.08-.1-.12-.03-.04-.06-.08-.09-.12h0c-.08-.11-.14-.23-.2-.35,0-.01-.01-.02-.02-.04,0,0,0,0,0,0-.07-.15-.12-.3-.16-.46-.07-.28-.09-.56-.05-.84,0,0,0,0,0,0,0-.03,0-.06,.01-.09,.05-.3,.18-.59,.37-.83,.17-.21,.38-.37,.62-.49,.04-.02,.09-.04,.13-.06,.01,0,.03-.01,.04-.02,.03-.01,.06,0,.09,0,0,.03,0,.06,0,.09,0,.07,0,.13,0,.2,0,0,0,0-.01,0,0,0-.01,0-.02,0t0,0s0,0,0,0c0,0,0,0,0,0,0,0,0,0,0,0-.02,0-.03,.02-.05,.02-.02,0-.04,.02-.06,.03-.02,.01-.04,.02-.06,.03-.03,.02-.06,.04-.09,.05-.03,.02-.06,.04-.09,.06,0,0,0,0,0,0h0s0,0,0,0c0,0,0,0,0,0,0,0,0,0,0,0-.01,.01-.03,.02-.04,.03-.06,.05-.11,.1-.16,.15-.02,.02-.04,.05-.06,.07,0,0,0,0,0,0,0,0,0,0,0,0,0,0-.01,.02-.02,.02,0,.01-.02,.03-.03,.04-.04,.06-.07,.12-.1,.18,0,.02-.02,.03-.02,.05,0,0,0,.02-.01,.02h0s0,0,0,0h0s0,0,0,0c0,0,0,0,0,0,0,0,0,0,0,0h0s0,0,0,0c0,0,0,0,0,0,0,0,0,0,0,0,0,0,0,0,0,0,0,0,0,.01,0,.02,0,.02-.01,.03-.02,.05-.02,.06-.04,.13-.06,.19,0,.03-.01,.07-.02,.1,0,.01,0,.02,0,.03,0,0,0,0,0,0,0,0,0,0,0,0h0s0,0,0,0h0s0,.01,0,.02c-.02,.14-.01,.28,0,.42,0,.02,0,.03,0,.05,0,0,0,0,0,0,0,0,0,0,0,0,0,0,0,0,0,.01,0,0,0,0,0,0,0,0,0,0,0,0,0,0,0,0,0,0,0,.04,.01,.07,.02,.11,.01,.07,.03,.14,.05,.21,0,.03,.02,.06,.03,.09h0s.03,.07,.04,.11c0,0,0,0,0,.01,0,0,0,0,0,0,0,0,0,0,0,0,0,0,0,0,0,0,0,0,0,0,0,0,0,0,0,0,0,0,0,.01,.01,.03,.02,.04,0,0,0,0,0,0,0,.01,0,.02,.01,.04,.04,.1,.1,.23,.17,.37,.03,.06,.06,.11,.09,.17,.07,.12,.15,.25,.23,.36,.09,.13,.2,.25,.3,.34Z"/>
      <path class="cls-14" d="M12.95,10.54s.42,.98,.39,1.18,.1,.26,.12,.28,.08,0,.08,0v-.22l-.16-.57-.17-.43-.11-.24h-.14Z"/>
      <path class="cls-12" d="M4.76,8.26s.18,3.08,1.42,4.12c0,0-.54-.36-.87-.81s-.53-1.32-.53-1.32l-.18-1.22,.16-.78Z"/>
      <path class="cls-14" d="M5.56,11.82s-.01,0-.02-.02c0,0,0,0-.01-.01-.03-.03-.08-.07-.13-.14,0-.01-.02-.02-.03-.03,0-.01-.02-.02-.03-.04-.01-.01-.02-.03-.03-.04-.03-.04-.07-.09-.1-.14,0,0,0,0,0,0,0,0,0,0,0,0-.02-.03-.04-.06-.06-.09-.01-.02-.02-.03-.03-.05-.01-.02-.02-.03-.03-.05h0c-.03-.05-.06-.11-.09-.17-.03-.06-.06-.12-.09-.19-.03-.06-.05-.12-.08-.19,0,0,0-.01,0-.02h0s-.02-.05-.03-.08c-.03-.08-.06-.16-.08-.25-.02-.05-.03-.1-.04-.16,0-.02-.01-.04-.02-.06,0-.03-.01-.05-.02-.08,0-.03-.01-.05-.02-.08-.02-.09-.04-.19-.05-.29,0-.03,0-.06-.01-.08,0-.05-.01-.1-.02-.15-.02-.15-.03-.3-.03-.46,0-.11,0-.22,0-.34,0-.12,0-.24,.02-.36v-.02s0-.02,0-.04c0-.04,0-.09,.01-.13h.27s0,0,0,0c0,0,0,0,0,0,0,0,0,0,0,0,0,.03-.01,.13-.02,.27,0,0,0,0,0,0,0,0,0,.02,0,.03,0,.01,0,.03,0,.04h0s0,.02,0,.02c0,.02,0,.03,0,.05,0,.04,0,.09,0,.14,0,.02,0,.04,0,.06,0,.19,0,.41,.01,.66h0c0,.1,.01,.21,.03,.32,0,.06,.01,.12,.02,.18,0,.05,.01,.09,.02,.14,0,.03,0,.05,.01,.08,0,.05,.02,.1,.03,.15,0,.03,.01,.06,.02,.09,0,.03,.01,.06,.02,.08,0,.01,0,.03,.01,.04,0,.02,.01,.04,.02,.06,0,.03,.02,.06,.03,.09,0,.02,.01,.04,.02,.07,.03,.1,.06,.19,.1,.28,0,.02,.01,.03,.02,.05,.01,.03,.03,.07,.04,.1,0,.02,.01,.03,.02,.05,0,.02,.01,.03,.02,.05,0,.02,.01,.03,.02,.05,.03,.06,.06,.12,.1,.18,0,0,0,.02,.02,.03,0,.01,.01,.02,.02,.03,0,0,.01,.02,.02,.03,0,.01,.02,.03,.03,.04,0,.01,.02,.03,.03,.04,.01,.02,.03,.04,.04,.06,.01,.02,.02,.03,.04,.05,.02,.03,.04,.05,.06,.08,.02,.02,.03,.04,.05,.06Z"/>
      <path class="cls-14" d="M5.14,6.67h0s-.13,.42-.13,.42l-.29,.97-.15,.51-.1,.34v.03s-.01,.02-.01,.02c-.02-.22-.01-.43,0-.62,0-.03,0-.06,.01-.1,0-.06,.02-.12,.03-.18,.12-.65,.4-1.09,.55-1.28,0,0,0,0,0,0,.05-.06,.08-.1,.09-.11,0,0,0,0,0,0Z"/>
      <path class="cls-12" d="M4.45,11.44s-1.96,2.57,.6,3.63l.1,.47v.24l-.59-.18-.32-.23-.17-.22-.24-.2-.07-.13-.26-.86v-.53l.16-.72,.25-.65,.41-.59,.12-.02Z"/>
      <path class="cls-14" d="M5.22,15.63l-.04,.27h0c-.51-.12-.91-.33-1.21-.62-.17-.17-.31-.37-.42-.59-.75-1.52,.65-3.44,1.1-4.01,.05-.06,.08-.1,.1-.13,0,0,0,0,0,0,0-.01,.01-.02,.02-.02l.04,.12,.07,.19s0,0-.01,.02c-.05,.06-.23,.28-.43,.6,0,0,0,0,0,0,0,0,0,0,0,0-.19,.29-.4,.67-.57,1.08,0,0,0,0,0,0,0,0,0,0,0,0-.25,.65-.38,1.4-.06,2.05,.23,.48,.63,.83,1.29,1.01,.01,0,.03,0,.04,.01,.03,0,.05,.01,.08,.02Z"/>
      <path class="cls-12" d="M5.07,14.97s.41,1.84,2.05,.81l.22,.31,.13,.18-.02,.17-.53,.1-.46,.04-.46-.04-.19-.13-.32-.15-.21-.37-.04-.26-.18-.5v-.17Z"/>
      <path class="cls-14" d="M7.66,16.49s-.04,.02-.06,.03c-.39,.16-.75,.24-1.07,.24-.3,0-.57-.07-.8-.21-.28-.16-.44-.41-.53-.66-.04-.1-.07-.2-.08-.3-.07-.37-.03-.68-.03-.71,0,.01,.03,.26,.14,.57,.11,.3,.31,.66,.65,.86,.39,.23,.9,.23,1.51,0,.06-.02,.11-.04,.17-.07l.11,.25Z"/>
      <path class="cls-12" d="M7.09,15.45s.35,1.2,1.69,.37l.52,.16,.08,.21-.34,.12-.64,.28-.74-.1-.32-.4-.19-.43-.05-.21Z"/>
      <path class="cls-14" d="M9.47,16.21s-.07,.05-.1,.07c-.4,.29-.78,.43-1.13,.43-.13,0-.26-.02-.38-.06-.1-.03-.18-.08-.26-.13-.09-.06-.16-.13-.22-.21-.32-.4-.34-.98-.35-1.03,0,.03,.08,.24,.22,.48,.15,.25,.38,.52,.7,.63,.34,.11,.74,.02,1.18-.27,.06-.04,.12-.08,.18-.13l.17,.22Z"/>
      <path class="cls-14" d="M11.82,15.49s0,0,0,0c0,.02-.02,.06-.04,.12-.02,.04-.04,.09-.06,.14,0,.01-.01,.02-.02,.04-.04,.09-.1,.19-.17,.28-.04,.06-.09,.12-.15,.17h0c-.12,.12-.27,.23-.45,.31-.15,.06-.31,.09-.48,.09,0,0,0,0-.01,0t0,0s0,0,0,0t0,0c-.16,0-.33-.03-.51-.09-.13-.05-.27-.11-.41-.19-.05-.03-.1-.06-.15-.09-.02-.01-.03-.02-.05-.03-.07-.04-.13-.09-.2-.13-.04-.03-.07-.06-.11-.08-.02-.01-.03-.02-.04-.04-.04-.03-.07-.06-.11-.1-.02-.02-.03-.03-.05-.04-.11-.11-.22-.22-.31-.33-.01-.02-.03-.03-.04-.05-.04-.05-.08-.1-.12-.15-.01-.02-.02-.03-.04-.05-.05-.07-.09-.14-.13-.21,0-.02-.02-.03-.03-.05-.05-.09-.1-.18-.14-.27,0-.02-.02-.04-.02-.05-.07-.14-.12-.29-.17-.44,0-.02-.01-.03-.02-.05,0-.02-.01-.04-.02-.06,0-.02-.01-.04-.02-.05-.02-.06-.03-.13-.05-.19,0-.02,0-.03-.01-.05,0-.02-.01-.05-.02-.08,0-.02,0-.03,0-.04,0,0,0-.01,0-.02,0-.03,0-.05-.01-.08,0-.03,0-.06-.01-.09,0-.03,0-.06-.01-.08,0,0,0,0,0-.01,0-.03,0-.06-.01-.09,0-.01,0-.03,0-.04,0-.02,0-.05,0-.07,0-.03,0-.06,0-.09,0-.03,0-.07,0-.1,0,0,0,0,0,0,0-.03,0-.06,0-.09,0-.03,0-.06,0-.09,0-.17,0-.34,.03-.48,0-.03,0-.06,.01-.09l.2,.05c-.01,.07-.02,.15-.02,.23,0,.15,0,.32,0,.5,.08,.99,.57,2.29,1.86,3.02,.04,.02,.07,.04,.11,.06,.39,.19,.72,.23,1.01,.11,.21-.09,.37-.25,.48-.42,.09-.13,.15-.26,.19-.35,.01-.03,.02-.06,.03-.08h0s.01-.04,.01-.04h.03s.25,.12,.25,.12l.03,.02Z"/>
      <path class="cls-14" d="M7.56,12.32s-.12-.11-.25-.27c.08,.09,.16,.18,.25,.27Z"/>
      <path class="cls-1" d="M6.29,9.57v1.54s.23,.76,.24,.78,.56,.22,.56,.22l.16-.13-.32-.86-.12-.79-.29-.38-.23-.38Z"/>
      <path class="cls-14" d="M10.7,12.69c0,.17-.02,.33-.04,.47-.05,.36-.13,.59-.14,.61l-.02,.06-.06,.02c-.07,.02-.14,.03-.22,.03-.03,0-.06,0-.09,0,0,0-.02,0-.03,0,0,0-.02,0-.02,0,0,0-.02,0-.03,0-.03,0-.07-.01-.1-.02-.02,0-.04,0-.06-.01-.02,0-.04,0-.05-.01-.01,0-.03,0-.04-.01-.01,0-.03,0-.04-.01-.02,0-.05-.02-.07-.02-.01,0-.03,0-.04-.01-.02,0-.04-.02-.06-.02-.02,0-.04-.01-.05-.02-.1-.04-.19-.08-.29-.14-.02,0-.04-.02-.05-.03,0,0,0,0-.01,0-.03-.02-.06-.03-.1-.05-.1-.06-.21-.12-.31-.18-.02-.01-.03-.02-.05-.03-.02-.01-.03-.02-.05-.03-.02-.01-.03-.02-.05-.03-.03-.02-.06-.04-.08-.06-.06-.04-.11-.08-.16-.12-.03-.02-.05-.04-.08-.06-.16-.13-.33-.26-.49-.41h0c-.06-.06-.13-.12-.19-.18-.02-.02-.04-.04-.05-.06,0,0,0,0,0,0-.08-.09-.17-.18-.25-.27-.02-.03-.04-.06-.07-.09-.14-.18-.29-.43-.38-.72,0,0,0,0,0-.01,0,0,0-.01,0-.02-.04-.13-.07-.28-.08-.43,0,0,0,0,0,0-.01-.15,0-.31,.03-.47h0s.04,.18,.1,.37h0c.03,.08,.06,.17,.09,.27,.12,.32,.31,.7,.55,1.01,.08,.09,.16,.18,.24,.25,0,0,0,0,0,0,.21,.2,.42,.39,.64,.56,.74,.57,1.49,.91,1.86,.85,.03-.11,.09-.36,.12-.68,.02-.27,.02-.6-.04-.95-.03-.17-.07-.35-.14-.53-.05-.13-.1-.26-.17-.39,.1,.01,.19,.02,.29,.03,.06,.13,.12,.27,.16,.4,.04,.13,.08,.27,.1,.39,.03,.15,.05,.29,.06,.42,0,.13,.01,.25,0,.37Z"/>
      <path class="cls-14" d="M6.81,10.32s-.09-.02-.19-.08c-.12-.08-.25-.25-.24-.56,0,0,0-.01,0-.02h0s.28-.08,.28-.08c0,0-.06,.12-.06,.29,0,.14,.04,.31,.2,.47Z"/>
      <path class="cls-14" d="M6.38,9.62s-.04,.59,.21,.8c0,0,.17,.53,.27,.82s.05-.23,.05-.23l-.03-.16,.02-.16-.11-.37-.18-.22-.25-.48Z"/>
      <path class="cls-14" d="M6.43,9.49s-.18,.44,.07,.8,.1-.18,.1-.18l-.09-.22,.04-.21v-.12s-.11-.07-.11-.07Z"/>
      <path class="cls-11" d="M8.11,9.92s-1.12-.84-1.49-.14c0,0,.67-.1,.97,.47,.1,.18,.51-.33,.51-.33Z"/>
      <path class="cls-14" d="M13.6,12.24v.36s-.01,.07-.01,.07v.21s-.1-.27-.1-.27l-.12-.33s0,0,0,0,0-.01-.01-.03c0,0,0,0,0,0-.04-.1-.18-.4-.46-.68-.45-.44-1.04-.61-1.74-.49-.12,.02-.24,.03-.36,.04-.06,0-.12,0-.18,0-.08,0-.15,0-.22,0-.02-.03-.03-.06-.05-.1,0,0,0,0,0,0,0-.02-.02-.03-.03-.05,0,0,0,0,0,0,0-.02-.02-.03-.03-.05l-.14,.08-.08,.04s.02,.04,.03,.06c-.14-.02-.28-.04-.41-.08-.02,0-.03,0-.05-.01-.1-.02-.19-.05-.29-.08-.62-.19-1.14-.48-1.48-.7,.08,.14,.17,.32,.28,.5,.01,.02,.02,.03,.03,.05h0s0,.01,.01,.02c.37,.61,.89,1.31,1.4,1.56,.03,.01,.05,.02,.08,.04,.01,0,.03,.01,.04,.01l-.08,.23h0s-.01,0-.02,0c0,0,0,0,0,0-.01,0-.03-.01-.04-.02-.02,0-.04-.02-.06-.02,0,0,0,0,0,0-.02,0-.04-.02-.06-.03-.01,0-.03-.01-.04-.02-.03-.01-.05-.03-.08-.05,0,0-.02-.01-.03-.02,0,0,0,0,0,0-.02-.01-.04-.03-.07-.05-.02-.01-.04-.03-.06-.04-.01,0-.03-.02-.04-.03-.01-.01-.03-.02-.04-.03-.03-.03-.06-.05-.09-.08-.01-.01-.03-.02-.04-.03-.03-.03-.07-.07-.1-.1-.03-.03-.07-.07-.1-.11-.02-.03-.05-.05-.07-.08-.04-.04-.07-.08-.11-.12-.02-.02-.03-.04-.05-.06-.01-.02-.03-.04-.04-.06,0,0,0,0-.01-.01-.02-.03-.04-.06-.07-.09,0,0,0,0-.01-.01-.01-.02-.03-.04-.04-.06-.01-.02-.03-.04-.04-.06-.01-.02-.03-.04-.04-.06-.01-.02-.03-.04-.04-.06-.02-.03-.04-.06-.06-.09-.06-.09-.12-.19-.18-.28-.01-.02-.03-.05-.04-.07-.08-.14-.16-.26-.22-.38,0-.01-.01-.02-.02-.04-.04-.07-.08-.14-.11-.21,0,0,0,0,0,0,0,0,0,0,0,0-.03-.05-.05-.1-.07-.14,0-.01-.01-.03-.02-.04,0-.02-.02-.03-.02-.05-.04-.08-.06-.13-.07-.14l-.09-.2c.1,.03,.22,.07,.34,.11l-.09,.23s0,0,0,0c0,0,.01,0,.02,0,0,0,.01,0,.02,0,0,0,.01,0,.02,0,.02,0,.04,.01,.06,.02,0,0,0,0,.01,0,0,0,0,0,.01,0,.01,0,.02,0,.04,.01,.01,0,.03,0,.04,.01,0,0,0,0,0,0,0,0,.02,0,.03,0,.03,0,.05,.02,.08,.02h0s0,0,0,0c.02,0,.03,0,.05,.01,.02,0,.03,0,.05,.01,.02,0,.04,.01,.06,.02h0s.09,.02,.14,.03c.02,0,.05,0,.07,.01,0,0,0,0,0,0,.03,0,.05,.01,.08,.02,.3,.16,.67,.33,1.07,.45h0c.38,.11,.79,.19,1.21,.18,.14,0,.29-.02,.43-.04,.69-.11,1.21,.04,1.57,.26,.16,.09,.29,.2,.39,.31,.04,.04,.07,.07,.1,.11,.07,.07,.12,.15,.17,.22h0s.03,.04,.04,.06c0,0,0,0,0,0,.04,.07,.08,.13,.11,.19-.1-.44-.28-.86-.42-1.17,0,0,0,0,0,0-.01-.03-.03-.07-.04-.1,0-.01-.01-.03-.02-.04,0-.02-.01-.03-.02-.05,0-.02-.02-.04-.03-.05,0,0,0,0,0,0,0,0,0,0,0,0t0,0h0s0,0,0,0c-.02-.04-.04-.08-.07-.12-.02-.04-.05-.08-.07-.12,0,0,0,0,0,0,0,0,0,0,0,0-.21-.33-.51-.64-.91-.87-.02-.01-.04-.02-.06-.04,0,0-.01,0-.02,0-.03-.02-.07-.03-.1-.05-.02,0-.03-.02-.05-.02-.01,0-.03-.01-.04-.02-.03-.02-.07-.03-.1-.04-.02,0-.04-.02-.06-.02-.02,0-.05-.02-.07-.03,0,0,0,0,0,0,0,0,0,0-.01,0-.02,0-.04-.02-.06-.02,0,0,0,0,0,0-.01,0-.03,0-.04-.01-.01,0-.03,0-.04-.01-.02,0-.04-.01-.05-.02-.02,0-.03,0-.05-.01-.03,0-.06-.02-.09-.02-.03,0-.05-.01-.08-.02,0,0,0,0,0,0-.02,0-.04,0-.06-.01-.02,0-.04,0-.06-.01-.06-.01-.12-.02-.17-.03-.14-.02-.27-.03-.4-.03-.81-.01-1.45,.27-1.68,.44l-.06,.04-.07-.03s-.25-.12-.55-.2c-.02,0-.03,0-.05-.01-.31-.08-.67-.12-.92,.03-.12,.07-.21,.18-.26,.33-.03,.08-.05,.18-.06,.28h0s0,.04,0,.05c0,.05,0,.09,0,.14h0s0,0,0,0c0,.01,0,.03,0,.04,0,0,0,.02,0,.03,0,0,0,0,0,0,0,.02,0,.03,0,.05,0,0,0,.02,0,.03,0,0,0,0,0,0h0s0,0,0,0c0,0,0,.02,0,.03-.01-.01-.03-.02-.04-.03,0,0-.01-.01-.02-.02,0,0,0,0-.01-.01,0,0,0,0-.01-.01-.01-.01-.02-.02-.03-.04,0,0,0,0,0-.01-.02-.03-.04-.07-.06-.11,0-.01-.01-.03-.02-.04,0,0,0-.01,0-.02,0-.01,0-.03,0-.04,0,0,0-.02,0-.03,0,0,0-.01,0-.02h0s0-.02,0-.04c0-.01,0-.03,0-.04,0,0,0,0,0,0,0,0,0-.01,0-.02,0,0,0-.01,0-.02,0,0,0,0,0,0,0-.02,0-.03,0-.05h0s0-.02,0-.02c0,0,0,0,0-.01,0,0,0-.02,0-.03,0,0,0,0,0,0,0,0,0,0,0,0,0,0,0,0,0-.01,0-.02,0-.03,.01-.05s0-.03,.01-.04h0s0,0,0,0c0,0,0-.01,0-.02,0,0,0,0,0,0,0-.01,0-.02,.01-.03,0,0,0-.01,0-.02,0,0,0,0,0,0,.01-.03,.03-.06,.05-.09,0,0,0,0,0-.01,0,0,0,0,0-.01,0,0,0,0,0,0,0,0,0-.01,.01-.02,0,0,0,0,0,0,0,0,0-.01,.01-.02,0,0,0,0,0,0,0,0,.01-.02,.02-.02,0,0,0,0,0,0,0,0,0,0,0,0,0,0,0,0,0-.01,0,0,0,0,0,0,0,0,.01-.02,.02-.02h0s.01-.01,.02-.02c0,0,.02-.02,.03-.03,0,0,0,0,0,0,0,0,0,0,.01,0,0,0,0,0,0,0,0,0,.01,0,.02-.01,0,0,0,0,0,0,0,0,.01-.01,.02-.01,0,0,0,0,0,0,0,0,.01-.01,.02-.01,0,0,0,0,0,0,0,0,.01,0,.02-.01,.01-.01,.03-.02,.05-.03,.25-.15,.57-.15,.87-.11,.02,0,.04,0,.06,.01,.11,.02,.22,.05,.32,.08,.19,.06,.35,.12,.44,.16,.02-.01,.04-.03,.06-.04,.11-.06,.24-.13,.41-.19,.05-.02,.1-.03,.15-.05,.03,0,.06-.02,.09-.03,.08-.02,.17-.04,.25-.06,.1-.02,.22-.04,.33-.05,.02,0,.03,0,.05,0,.15-.01,.29-.02,.44-.02,.03,0,.06,0,.09,0,.1,0,.2,.01,.29,.02,.1,.01,.2,.03,.31,.05,.12,.03,.24,.06,.36,.09,.24,.08,.48,.18,.7,.3,.68,.37,1.16,1.02,1.41,1.86,.19,.63,.17,1.15,.17,1.17Z"/>
      <path class="cls-14" d="M7.67,9.79c.12,.09,.37,.26,.72,.44-.49-.09-.8-.21-.83-.22l.09-.23h0s0,0,.01,0t0,0Z"/>
      <path class="cls-11" d="M7.7,9.68s.45,.3,1.24,.38,.12,.23,.12,.23l-.51-.05-.49-.19-.38-.37h.03Z"/>
      <path class="cls-14" d="M10.92,7.21c-.03-.06-.07-.11-.11-.16-.02-.02-.04-.04-.06-.06,0,0,0,0-.01,0,0,0,0,0,0,0-.08-.07-.18-.12-.28-.16-.03,0-.05-.02-.08-.02-.06-.02-.11-.02-.17-.03-.06,0-.11,0-.17,0h0c-.1,0-.21,.03-.3,.07-.03,.01-.07,.03-.1,.05-.02,.01-.04,.03-.07,.04-.1,.07-.18,.15-.25,.25,0,.01-.02,.02-.02,.04,0,.01-.01,.02-.02,.03,0,.01-.01,.02-.02,.03-.02,.05-.04,.1-.06,.16-.02,.06-.03,.12-.03,.19,0,.08,.08,.16,.15,.15,.07,0,.12-.04,.14-.1,0-.02,.01-.03,.01-.05,0,0,0,0,0-.01,0-.01,0-.02,0-.04,0-.03,.01-.05,.02-.08,0-.01,0-.02,.01-.03,0,0,0-.02,0-.03,0,0,0,0,0,0s0,0,0,0c0,0,0,0,0,0,0-.01,.01-.02,.02-.04,.01-.02,.02-.04,.04-.06,0,0,.01-.02,.02-.03,0,0,0,0,0,0,0,0,0,0,0,0,0,0,0,0,0,0,.03-.03,.06-.07,.1-.09,0,0,0,0,0,0,0,0,.02-.01,.02-.02,.02-.01,.04-.03,.06-.04,.02-.01,.04-.02,.06-.03,0,0,0,0,0,0,0,0,0,0,0,0,.01,0,.02,0,.03-.01,.04-.02,.09-.03,.13-.03,0,0,0,0,0,0,0,0,.02,0,.03,0,.02,0,.05,0,.07,0,0,0,0,0,0,0,.02,0,.03,0,.05,0,0,0,0,0,.02,0,0,0,0,0,0,0,0,0,0,0,0,0,0,0,0,0,0,0,0,0,.01,0,.01,0,.04,0,.09,.02,.13,.04,0,0,0,0,0,0,0,0,.02,0,.02,.01,.02,.01,.04,.02,.07,.04,0,0,.01,0,.02,.01,0,0,0,0,0,0,0,0,0,0,.01,0,0,0,0,0,0,0,0,0,0,0,0,0,0,0,0,0,0,0,.01,0,.02,.02,.03,.03,.02,.02,.03,.03,.05,.05,0,0,0,0,0,0,0,0,0,0,.01,.02h0s0,0,0,.01c.02,.02,.03,.05,.05,.08,0,.01,.01,.02,.02,.03,0,0,0,0,0,0t0,0s0,0,0,0c0,0,0,0,0,0,0,0,0,0,0,0,0,.01,0,.02,.01,.04,.03,.07,.05,.14,.06,.21,0,.04,.01,.07,.02,.11,0,0,0,0,0,.01h0s0,0,0,.01c0,.02,0,.04,0,.06,0,.08,0,.17,0,.25,0,.04,0,.08-.01,.12h0s0,0,0,0h0s0,0,0,0c0,0,0,0,0,0,0,0,0,.02,0,.02,0,.02,0,.04-.01,.06,0,.01,0,.03,0,.04,0,0,0,0,0,0,0,.01,0,.03,0,.04,0,0,0,0,0,0,0,0,0,.01,0,.02,0,.01,0,.02,0,.04,0,0,0,0,0,0,0,.04-.02,.07-.03,.1-.01,.04-.02,.08-.04,.11,0,.01,0,.03-.01,.04,0,0,0,.01,0,.02,0,0,0,.01,0,.02,0,0,0,0,0,0,0,0,0,0,0,0h0s0,0,0,0c0,0,0,0,0,0,0,0,0,0,0,.01-.03,.06-.03,.14,.03,.19,.06,0,.12,.02,.17,.03,.03-.01,.05-.03,.07-.06,.02-.05,.05-.11,.07-.16,.04-.12,.08-.23,.1-.35,.03-.16,.05-.32,.05-.48,0-.25-.05-.53-.19-.76Zm-.32,.08s0,0,0,0c0,0,0,0,0,0,0,0,0,0-.01-.02Z"/>
      <path class="cls-14" d="M7.11,7.42s.63-.85,1.32-.81c0,0-1.17-.44-1.32,.81Z"/>
      <path class="cls-14" d="M10.78,6.42s-.06,.07-.1,.1c-.02,.02-.04,.04-.06,.06,0,0-.02,.02-.03,.02-.08-.03-.15-.05-.23-.06h0s-.09-.02-.14-.03c-.27-.05-.49-.04-.49-.04,.03-.02,.05-.03,.08-.04,.26-.14,.48-.17,.67-.13,.04,0,.08,.02,.11,.03,.07,.03,.13,.06,.19,.1Z"/>
      <path class="cls-2" d="M7.77,8.14s.32,.89,1.42,.37v.35l-.21,.22-.48,.16-.45-.13-.31-.15-.07-.67,.11-.16Z"/>
      <path class="cls-14" d="M8.95,8.94h0c-.06,.13-.15,.22-.26,.22-.05,0-.1-.01-.14-.04-.13-.08-.22-.26-.24-.48-.02-.3,.13-.55,.32-.56,.19-.01,.36,.22,.38,.52,0,.12-.01,.24-.05,.33Z"/>
      <path class="cls-14" d="M9.44,8.8c-.01,.06-.03,.11-.04,.17-.02,.08-.11,.13-.19,.11-.08-.02-.13-.11-.11-.18,0,0,0,0,0,0,.02-.06,.03-.12,.05-.19,.01-.06,.03-.12,.04-.19,0-.02,0-.04,0-.06h0s0,0,0,0c0,0,0,0,0,0,0,0,0,0,0,0h0s0,0,0,0c0,0,0,0,0,0,0,0,0-.01,0-.01,0-.01,0-.03,0-.04,.01-.1,.01-.2,.01-.31,0-.04,0-.09-.01-.13,0,0,0,0,0,0h0s0,0,0,0c0-.01,0-.02,0-.03,0-.02,0-.04-.01-.06,0-.04-.02-.08-.03-.12,0-.02-.01-.04-.02-.06,0,0,0,0,0-.01,0,0,0,0,0,0,0,0,0,0,0,0-.03-.06-.06-.12-.1-.18,0,0,0,0,0,0,0,0,0,0,0,0,0-.01-.02-.02-.03-.04-.02-.02-.04-.04-.07-.06,0,0-.01,0-.02-.01-.01,0-.02-.02-.03-.02-.02-.02-.05-.03-.07-.04-.01,0-.03-.01-.04-.02,0,0,0,0-.01,0-.03,0-.05-.02-.08-.03-.02,0-.04,0-.05-.01,0,0,0,0,0,0h0s0,0,0,0c0,0,0,0,0,0,0,0,0,0,0,0,0,0,0,0,0,0,0,0,0,0,0,0,0,0,0,0,0,0h0s-.02,0-.03,0c-.01,0-.03,0-.04,0-.03,0-.06,0-.09,0,0,0-.01,0-.02,0,0,0,0,0,0,0,0,0,0,0,0,0,0,0,0,0,0,0,0,0-.02,0-.02,0-.06,.01-.11,.03-.16,.05,0,0,0,0-.01,0-.01,0-.03,.01-.04,.02-.03,.01-.05,.03-.08,.05,0,0-.02,.01-.03,.02,0,0,0,0,0,0,0,0,0,0-.01,.01-.02,.02-.05,.04-.07,.06-.01,.01-.02,.02-.03,.04,0,0-.01,.02-.02,.02h0s0,0,0,0c0,0,0,0,0,0h0s0,0,0,0c0,0,0,0,0,0-.01,.02-.03,.04-.04,.06-.02,.03-.03,.06-.05,.09,0,0,0,.02-.01,.02,0,.01-.01,.03-.02,.04-.01,.03-.02,.07-.03,.1,0,.02,0,.04-.01,.06,0,0,0,.02,0,.02,0,0,0,0,0,0,0,0,0,0,0,0,0,0,0,0,0,0h0s0,0,0,0c0,0,0,0,0,0h0s0,0,0,0h0s0,0,0,0c0,0,0,0,0,0h0s0,0,0,0h0s0,.02,0,.03c0,.02,0,.04,0,.06,0,.04,0,.09,0,.13,0,.02,0,.04,0,.06,0,.01,0,.02,0,.03,0,0,0,0,0,0h0s0,0,0,.01c0,0,0,0,0,.01,0,0,0,0,0,0,0,0,0,0,0,0,0,.04,.01,.08,.02,.12,.02,.1,.05,.2,.09,.3,0,.02,.02,.04,.03,.07,0,0,0,0,0,0,0,0,0,0,0,0,0,0,0,0,0,0,0,0,0,0,0,0,0,0,0,0,0,0t0,0s0,0,0,0c0,0,0,0,0,0,0,0,0,0,0,0,0,0,0,0,0,0,0,.01,.01,.03,.02,.04,.03,.06,.06,.12,.09,.17,0,0,0,.01,0,.02,.03,.07,0,.15-.06,.19-.03,.02-.06,.02-.09,.02-.02,0-.03,0-.05-.01-.03-.01-.06-.03-.07-.06-.03-.06-.06-.11-.09-.17,0-.02-.02-.03-.02-.05-.16-.37-.26-.78-.16-1.18,.07-.29,.26-.56,.53-.71,.18-.1,.39-.14,.6-.12,.07,0,.14,.02,.2,.05,.11,.04,.2,.1,.29,.17,.05,.04,.1,.09,.14,.15,.08,.1,.15,.22,.19,.35,0,.01,0,.03,.01,.04,.11,.36,.07,.76-.02,1.13Z"/>
      <polygon class="cls-14" points="13.58 12.88 13.48 12.61 13.59 12.59 13.58 12.66 13.58 12.88"/>
      <path class="cls-3" d="M11.25,7.05c.04,.07,.07,.14,.1,.21-.12-.27-.36-.46-.39-.49,.09,.06,.18,.14,.24,.24,0,0-.02-.05-.04-.11,.04,.05,.07,.1,.1,.15Z"/>
    </g>
  </g>
</svg>