<svg xmlns="http://www.w3.org/2000/svg" viewBox="0 0 192 108"><defs><style>.cls-1{fill:none;}.cls-1,.cls-2{opacity:0.32;}.cls-3{opacity:0.36;}</style></defs><g id="Capa_2" data-name="Capa 2"><g id="Capa_2-2" data-name="Capa 2"><rect class="cls-1" width="192" height="108"/><g class="cls-2"><g class="cls-3"><path d="M140.62,21.87a2.84,2.84,0,0,0-2.8-1h-.06a3.72,3.72,0,0,0-2.13,1.76l0,0s-.4.73-.6,1.16a51.73,51.73,0,0,1,1.13-5.46,3,3,0,0,0-.62-3.09,5.3,5.3,0,0,0-4.71-1.25l-.09,0a3.26,3.26,0,0,0-2.12,1.65,6.5,6.5,0,0,0-3.83-.14l-.28.06c-3.54.91-6.4,3.88-8,8.38l-.12.35A21,21,0,0,0,115.4,28l0,0v0a22.76,22.76,0,0,0-.27,3.34c.47-.88,1-1.83,1.49-2.81l.07-.11a19.42,19.42,0,0,1,.46-2.27h0a14.29,14.29,0,0,1,.68-2.19h0c1.22-3.15,3.38-5.85,6.47-6.63,2.44-.61,3.79.11,4.58,1.38.25-.8.45-1.43.59-1.84a1.54,1.54,0,0,1,1.07-1.1c1-.25,3.63.11,3.07,1.79-.73,2.23-2.79,13.61-1.62,13.33.8-.2,2.75-3.76,4.67-7.44a1.69,1.69,0,0,1,.93-.84c.68-.17,1.31.5.9,1.37-2.24,4.95-4.85,10-6.12,10.31-1,.25-4.91-.2-5.6-2.69-1.33,2.62-3,4.85-4.58,5.25a5,5,0,0,1-2.72-.11,3.8,3.8,0,0,1-1.74-1,3.27,3.27,0,0,1-1-1.67,9.61,9.61,0,0,1-.21-1.32,21.66,21.66,0,0,1-1.14,1.86l0,.19a5.13,5.13,0,0,0,1.31,2.39,5.86,5.86,0,0,0,1.58,1.19,7,7,0,0,0,4.81.65l.16,0q2.27-.57,4.38-3.74a8.44,8.44,0,0,0,5.71,1.2l.09,0c.9-.22,2.59-.64,7.44-11.4a3,3,0,0,0-.34-3.14ZM122.34,33.31c4-1,7.33-14.43,3.56-13.51-1.88.49-3.23,3-4,5.73-.85,3.07-.94,6.37-.26,7.43A.58.58,0,0,0,122.34,33.31Zm3-9.36a7.05,7.05,0,0,1,.88-1.39,18,18,0,0,1-1.68,6.36,12.61,12.61,0,0,1-.68,1.25A17.22,17.22,0,0,1,125.32,24Z"/><path d="M163.15,28.83l-.11-.07h-.1a1.15,1.15,0,0,0-.78,0,1.49,1.49,0,0,0-1.09,1.92s-.1.31-1.15.86a10.09,10.09,0,0,1-1.54.71,4.82,4.82,0,0,0,.49-2.47.72.72,0,0,0,0-.29,2.16,2.16,0,0,0,.67-.08,3.43,3.43,0,0,0,.9-.35,5.11,5.11,0,0,0,2.34-5.85c-.54-1.8-2.32-3.64-5.68-3.39a5.88,5.88,0,0,0-1.48.21h-.06a9.24,9.24,0,0,0-7,6.59,5.63,5.63,0,0,0,.33,3.6c-5.12,2.7-6.36,7.6-5.25,11.33s5.17,7.29,11.31,5.94H155c3.84-.89,6.58-3.18,7.51-6.33a7.13,7.13,0,0,0-.37-5.15A5.13,5.13,0,0,0,165,32.63a3.3,3.3,0,0,0-1.87-3.8Zm.23,3.39c-.29,1.42-1.79,2.32-3.6,3.13,2.55,2.55,1.74,9.08-5.58,10.69-10.64,2.36-14.41-11.42-3.78-15.51-2.84-2.26-.43-8.25,5-9.43a9.93,9.93,0,0,1,1.29-.21c5.13-.33,5.77,5.06,2.61,6.86a1.32,1.32,0,0,1-.53.24c-1.46.31-3.17-1-2.25-1.57,2.22-1.5,2.54-4.46-.35-4.15a2.74,2.74,0,0,0-.5.07c-3.91.85-5.24,7.07-.9,7.14.7-.05,1.38-.09,2.12-.09s0,2.72-.88,2.91l-.12,0a14,14,0,0,0-2.83.3c-8.56,1.9-6.41,12.61.11,11.18,5-1.12,4.95-6.27,2.84-7-2,.8-3.49,1.77-3.24,3.28.05.25,0,.46-.22.5,0,0-.09,0-.13,0A2.27,2.27,0,0,1,151,37c2.12-2.91,11.54-3.82,10.91-6.8,0-.22,0-.36.15-.39a.36.36,0,0,1,.17,0,2,2,0,0,1,1.15,2.39Zm-7.82-4.59a1.64,1.64,0,0,0,.43.66l-.83.08c-1.11,0-1.3-.6-1.37-1.11a3.49,3.49,0,0,1,2.61-3.5l.37-.08a1.35,1.35,0,0,1,.66.06,2.29,2.29,0,0,1-1.19,1.74,1.73,1.73,0,0,0-.68,2.16ZM150,39.94a3.47,3.47,0,0,0,2.64,2,1.76,1.76,0,0,0,.65,0,1.66,1.66,0,0,0,1.2-2c-.07-.47.54-1,1.81-1.58a2,2,0,0,1,.22,1.19c0,.55-.36,2.48-3.14,3.13h0A3.29,3.29,0,0,1,149.26,40c-.51-2.26.66-5.07,4.44-5.93a8,8,0,0,0-3.34,2.36A3.47,3.47,0,0,0,150,40Z"/><path d="M116.94,62.25a4.85,4.85,0,0,1-2.28,1.83c-2.36.77-3.26-.71-3.56-1.62a10.14,10.14,0,0,1-.16-4.59,6.86,6.86,0,0,0,6,4.38Z"/><path d="M144.26,68.26c-2.2.67-4-.23-5.25-2a22.88,22.88,0,0,1,3.33-1.33C146.39,63.68,146.79,67.49,144.26,68.26Z"/><path d="M144.26,68.26c-2.2.67-4-.23-5.25-2a22.88,22.88,0,0,1,3.33-1.33C146.39,63.68,146.79,67.49,144.26,68.26Z"/><path d="M151.23,65.14a6.92,6.92,0,0,1-4.1,8.76,7.81,7.81,0,0,1-.81.29,11.33,11.33,0,0,1-11.82-2.94c-2.8,1.56-5.68,3.33-8.74,5.2-6.27,3.84-13.39,8.19-21.28,11.48-2.38,1-4.8,1.85-7.12,2.57a13.47,13.47,0,0,1-8.31,0,9.48,9.48,0,0,1-6-6.27,9.23,9.23,0,0,1-.38-1.8,3.27,3.27,0,0,1,.24-2,2.36,2.36,0,0,1,1.22-1.14.7.7,0,0,1,.24-.09,2.8,2.8,0,0,1,2.21.29l.08,0a6.18,6.18,0,0,0,1.36.58c2.07.71,4.54.58,7.53-.34a136,136,0,0,0,12.88-4.67c2.9-1.23,5.65-2.47,8.31-3.7l.06,0,1.76-.81a.76.76,0,0,0,.11-.08c1.65-.76,3.25-1.54,4.83-2.31,2.56-1.23,5-2.41,7.42-3.52a25.81,25.81,0,0,1-.84-6,1.34,1.34,0,0,1,0-.2,0,0,0,0,1,0,0,38,38,0,0,1,.63-6.14c.15-.74.3-1.49.43-2.19-.19.55-.43,1.16-.65,1.8-.42,1.16-.91,2.42-1.43,3.69,0,.07-.05.12-.06.19a3.22,3.22,0,0,1-1.65,1.69l-.27.11a2.8,2.8,0,0,1-1.67,0,15.51,15.51,0,0,0,1-2.5,1.38,1.38,0,0,0,.12-.29c.4-1,.76-2,1.14-2.89.24-.68.47-1.32.67-1.91.36-.9.67-1.74.92-2.42,1.24-.39,2.76-.9,4.11-1.37-.9,3.65-2,9.1-2,12.26a21.51,21.51,0,0,0,1.29,7.08c-10.68,4.78-22.2,11.34-37.2,15.93-3.26,1-6.47,1.29-9.25.14h0a2.55,2.55,0,0,1-.48.27l-.24.09a6.5,6.5,0,0,1-1.48.32,8.1,8.1,0,0,0,.29,1.15c1.57,5.22,7.08,6.41,11.81,5,15.24-4.69,27.32-14.1,38.18-19.88a9.33,9.33,0,0,0,10.77,3.57c6.89-2.11,4.4-12.37-5.17-9.43-.76.24-1.51.5-2.28.81a18.38,18.38,0,0,1-.86-4.89,71.74,71.74,0,0,1,1.58-15.14c.48-1.7-2.15-2-3.14-1.62-.44.11-3.49,1.12-6.33,2a43.19,43.19,0,0,1-4.87,1.33s-.11,0-.14,0a.68.68,0,0,0-.29,1.07c.47.84,1.83,2.62,3.21,2.21.15-.06.34-.1.57-.19-.17.44-.36.9-.57,1.39-.25.65-.56,1.35-.86,2s-.69,1.61-1.06,2.41a1.18,1.18,0,0,0-.15.3h0c-.2.47-.34.87-.89,2.08a2.74,2.74,0,0,1-.26-2.7l0,0c.29-.63.56-1.25.86-1.88s.48-1.19.73-1.76a6.94,6.94,0,0,1-2.63-2.72,2.8,2.8,0,0,1-.42-1.82l.12-.46a2.49,2.49,0,0,1,1.48-1.62l.21-.08.48-.09,0,0c.06,0,.1,0,.16,0,.45-.08,1.87-.47,4.34-1.22,2.05-.61,4.23-1.31,5.42-1.69.48-.16.81-.29.94-.31a5.36,5.36,0,0,1,4.83,1,3.07,3.07,0,0,1,.8,3.1,69.49,69.49,0,0,0-1.51,14.53,20.28,20.28,0,0,0,.26,2.36A.85.85,0,0,0,140,61c6.07-1.85,10,.75,11.25,4.16Z"/><path d="M66,73.52a6,6,0,0,0-1.81-1.67c-2.24-1.38-5.42-1.69-7.95-2-1.36-.14-3.57-.32-4.21-.74-.14-1.27.54-4.07,2.45-7.66.61-1.13,1.18-2.1,1.72-2.93a11.67,11.67,0,0,1,2.4-2.81,2.22,2.22,0,0,1,.06.44,5.68,5.68,0,0,1-.11,1.94,8.5,8.5,0,0,1-3.19,5.51,2.55,2.55,0,0,0-1.11,2.15,2.92,2.92,0,0,0,1.25,2.4c.82.48,4,2,5.73,1.33l.15-.06c3.88-1.63,6.41-9.53,5.13-15a6.62,6.62,0,0,0-.42-1.37,8.24,8.24,0,0,0-.71-1.35,6.7,6.7,0,0,0-2.5-2.3,3,3,0,0,0-.61-.26,2.33,2.33,0,0,0-.66-.22,6.13,6.13,0,0,0-2.07-.25,11.75,11.75,0,0,0-4,.84l-.33.13a11.32,11.32,0,0,0-1.95,1.06A10.86,10.86,0,0,0,51.54,52a21.81,21.81,0,0,0-3.1,3.18A14.94,14.94,0,0,0,47,57.06a34.4,34.4,0,0,0-2.49,4.06,29.41,29.41,0,0,0-1.18,2.72,17.55,17.55,0,0,0-1.47,8.78c.85,5.57,7.84,5.47,12.9,5.44a32.81,32.81,0,0,1,4.05.09,7.51,7.51,0,0,1-1.75,2.32,16.74,16.74,0,0,1-4.77,3.27l-.27.09a4.25,4.25,0,0,1-3,.23L49,83.88l-.13-.17A2.45,2.45,0,0,0,46.23,83l-.09,0a2.74,2.74,0,0,0-1.47,1.67c-.56,1.84.42,5.4,2.58,7.48A7.07,7.07,0,0,0,55,93.47l.36-.14c3.82-1.58,8.37-5.91,10.53-10.62a13.43,13.43,0,0,0,.88-2.59,9.41,9.41,0,0,0,.19-4.49,6.17,6.17,0,0,0-.87-2.12l0,0Zm-1.68,5.29c-.89,5.35-6.67,11.24-10.7,12.74-6.17,2.3-8.22-4.8-7.71-6.4a.62.62,0,0,1,.34-.4.36.36,0,0,1,.41.11c.9,1.79,4,1.28,5.42.75,3.58-1.37,8.72-5.79,8.2-8.44-.62-3.09-16.07,1.56-17.08-5-.35-2.27.3-5.36,1.63-8.46a32.66,32.66,0,0,1,1.47-3,31.7,31.7,0,0,1,3.47-4.95h0a17.58,17.58,0,0,1,2-2.09,12.94,12.94,0,0,1,3.78-2.42,9.89,9.89,0,0,1,3.3-.69.48.48,0,0,1,.29,0,4.2,4.2,0,0,1,2.19.52.42.42,0,0,1,.26.14,4.49,4.49,0,0,1,1.82,2.15,7.15,7.15,0,0,1,.64,2.3c.67,4.6-1.48,10.87-4.23,11.86-.63.23-3-.54-4-1.15-.26-.17-.52-.93-.12-1.21,3.54-2.33,4.9-7.88,4-10.42a1.73,1.73,0,0,0-.28-.56,1.75,1.75,0,0,1-.39-.47,1.63,1.63,0,0,0-1.58-.12,2.62,2.62,0,0,0-.89.58,8.41,8.41,0,0,0-1.55,1.59.15.15,0,0,1-.11.09,29.29,29.29,0,0,0-3.47,5.73h0c-1.39,3-2.34,6-2,7.9.56,3.58,12.14.73,14.56,5.48a21.56,21.56,0,0,0,.32,3.83Z"/><path d="M64.36,78.82a7.35,7.35,0,0,0,0-2.88A3.65,3.65,0,0,0,64,75,20.78,20.78,0,0,0,64.36,78.82Z"/><path d="M87,72.78a2,2,0,0,1-.13-.46c-.29.64-.54,1.28-.8,1.89-.35.79-.69,1.51-1,2.06a7.73,7.73,0,0,1-.53.89,2.8,2.8,0,0,1-1,1,4.15,4.15,0,0,1-1.53.16c-1.57-.06-3.63-.6-4.31-2.28-1.08,2.76-2.5,5.1-4,5.65a4.67,4.67,0,0,1-5-1.06,3.61,3.61,0,0,1-.74-1.21,16.89,16.89,0,0,1-.45-7.24v0c.56-4.27,2.55-8.72,6.42-10.05,2.35-.85,3.78-.24,4.67.9.19-.79.35-1.44.42-1.87a1.61,1.61,0,0,1,1-1.21c1-.33,3.59-.2,3.21,1.53-.49,2.28-1.49,13.79-.34,13.38.24-.08.52-.47.91-1.1a32.94,32.94,0,0,0,1.61-3.32s0,0,0,0c.46-1,.93-2.21,1.41-3.35l0-.07h0c0-.73.1-1.52.2-2.32a3.3,3.3,0,0,0-1.38,1.62l0,.07,0,0c0,.08,0,.11-.09.18a9.49,9.49,0,0,1-.38,1c.16-2.34.4-4.57.59-5.52a3.08,3.08,0,0,0-.93-3,2.07,2.07,0,0,0-.38-.28A5.62,5.62,0,0,0,80,58.21l-.16,0A3.3,3.3,0,0,0,78,60.05a6.73,6.73,0,0,0-4.09.31,2.41,2.41,0,0,0-.45.16c-4.12,1.71-6.3,6-7.1,10.42A22.15,22.15,0,0,0,66,73.51l0,0a16.68,16.68,0,0,0,.67,6.61l0,.09a5.11,5.11,0,0,0,1.35,2.12,5.31,5.31,0,0,0,2.27,1.37,6.92,6.92,0,0,0,4.6-.06l.21-.08a8.29,8.29,0,0,0,3.76-4,8.81,8.81,0,0,0,1.93.67,8.13,8.13,0,0,0,2,.22,6.11,6.11,0,0,0,1.95-.28l.12,0a3.57,3.57,0,0,0,1.15-.86,13.06,13.06,0,0,0,.95-1.34c.05-.08.12-.22.17-.29A14.2,14.2,0,0,0,88,76.21c.22-.5.49-1,.75-1.68A3,3,0,0,1,87,72.76ZM75.7,64.41C71.33,66,71.2,79,73.43,78.2,77.27,76.84,79.36,63.12,75.7,64.41Zm-.37,8.75a10.27,10.27,0,0,1-.68,1.7,16.51,16.51,0,0,1,.81-6,6,6,0,0,1,.81-1.7,17.4,17.4,0,0,1-.94,6Z"/><path d="M97.56,56.83c-1.51.54-3.46,4.88-4.58,8.33a24.55,24.55,0,0,0-.78,2.76,4.21,4.21,0,0,0,.72,1.28,2.59,2.59,0,0,0,2.93,1.14C98.25,69.54,99.86,56.05,97.56,56.83Zm-.51,6.83a15,15,0,0,1-1.4,4.94,2.46,2.46,0,0,1-.74-.75,42.13,42.13,0,0,1,2.39-6.41c-.06.66-.13,1.39-.25,2.23Zm.51-6.83c-1.51.54-3.46,4.88-4.58,8.33a24.55,24.55,0,0,0-.78,2.76,4.21,4.21,0,0,0,.72,1.28,2.59,2.59,0,0,0,2.93,1.14C98.25,69.54,99.86,56.05,97.56,56.83Zm-.51,6.83a15,15,0,0,1-1.4,4.94,2.46,2.46,0,0,1-.74-.75,42.13,42.13,0,0,1,2.39-6.41c-.06.66-.13,1.39-.25,2.23Zm.51-6.83c-1.51.54-3.46,4.88-4.58,8.33a24.55,24.55,0,0,0-.78,2.76,4.21,4.21,0,0,0,.72,1.28,2.59,2.59,0,0,0,2.93,1.14C98.25,69.54,99.86,56.05,97.56,56.83Zm-.51,6.83a15,15,0,0,1-1.4,4.94,2.46,2.46,0,0,1-.74-.75,42.13,42.13,0,0,1,2.39-6.41c-.06.66-.13,1.39-.25,2.23Zm.51-6.83c-1.51.54-3.46,4.88-4.58,8.33a24.55,24.55,0,0,0-.78,2.76,4.21,4.21,0,0,0,.72,1.28,2.59,2.59,0,0,0,2.93,1.14C98.25,69.54,99.86,56.05,97.56,56.83Zm-.51,6.83a15,15,0,0,1-1.4,4.94,2.46,2.46,0,0,1-.74-.75,42.13,42.13,0,0,1,2.39-6.41c-.06.66-.13,1.39-.25,2.23Zm8.29-7.52a1.38,1.38,0,0,0-.15-.39,6.45,6.45,0,0,0-1.06-2A5.23,5.23,0,0,0,98,52l-.33.13a6.26,6.26,0,0,0-1.59,1c.37-2.87.76-5.52,1-7.43.06-.5.13-.94.17-1.34s.11-.74.13-.94a4.28,4.28,0,0,1,.06-.5,3,3,0,0,0-1-2.75,5.14,5.14,0,0,0-4.57-.57l-.39.15A4.17,4.17,0,0,0,89,42.9l0,.14s-.2,1.08-.52,2.77c-.1.77-.27,1.65-.45,2.66-.34,2.25-.77,5-1.19,7.78-.08.54-.13,1.07-.22,1.6-.52,3.71-.84,6.54-1,8.69-.13,1.68-.13,2.92-.14,3.83.46-1,.93-2.21,1.41-3.35l0-.07h0c0-.73.1-1.52.2-2.32.16-1.56.34-3.19.57-4.86.53-4.14,1.21-8.47,1.75-11.63.29-1.72.52-3.07.67-3.91.12-.64.18-1,.18-1a2.23,2.23,0,0,1,1.55-1.88s.06,0,.12-.06l.3-.1c1.12-.24,2.88-.05,2.68,1.32a4.48,4.48,0,0,0-.07.6c-.1.47-.18,1.17-.29,2-.53,3.68-1.45,10.57-2.05,16.37,1.37-3.53,3.41-7.11,5.5-7.81,2.7-.89,4.28.73,5,3.43a18.89,18.89,0,0,1,0,8.11c-.66,3.68-2.18,6.92-4.22,7.61a6.1,6.1,0,0,1-6.54-1.78.52.52,0,0,0-.13-.17,1.46,1.46,0,0,1,0,.42v0a19.66,19.66,0,0,0,.46,2.92c.07.47,0,.69-.53.86a6.12,6.12,0,0,1-1.38-.07,5.47,5.47,0,0,1-1.91-.57A3,3,0,0,1,87,72.75a2,2,0,0,1-.13-.46c-.29.64-.54,1.28-.8,1.89a5.09,5.09,0,0,0,2,2,7.72,7.72,0,0,0,1.84.72,9.09,9.09,0,0,0,3,.32h.29l.24-.08c.09,0,.19,0,.2-.11A2.49,2.49,0,0,0,95.18,75a8,8,0,0,0,4.85-.08l.3-.13c2.33-.94,3.69-3.6,4.47-5.91.3-.88.51-1.76.68-2.48a.27.27,0,0,1,0-.14,29.09,29.09,0,0,0,.42-2.95v0a12.72,12.72,0,0,1,0-4,13.62,13.62,0,0,0-.63-3.15Zm-9.49,14.2c2.4-.8,4-14.29,1.71-13.51-1.51.54-3.46,4.88-4.58,8.33a24.55,24.55,0,0,0-.78,2.76,4.21,4.21,0,0,0,.72,1.28A2.59,2.59,0,0,0,95.85,70.34Zm1.44-8.91c-.06.66-.13,1.39-.25,2.23a15,15,0,0,1-1.4,4.94,2.46,2.46,0,0,1-.74-.75,42.13,42.13,0,0,1,2.39-6.41Zm.27-4.6c-1.51.54-3.46,4.88-4.58,8.33a24.55,24.55,0,0,0-.78,2.76,4.21,4.21,0,0,0,.72,1.28,2.59,2.59,0,0,0,2.93,1.14C98.25,69.54,99.86,56.05,97.56,56.83Zm-.51,6.83a15,15,0,0,1-1.4,4.94,2.46,2.46,0,0,1-.74-.75,42.13,42.13,0,0,1,2.39-6.41c-.06.66-.13,1.39-.25,2.23Zm.51-6.83c-1.51.54-3.46,4.88-4.58,8.33a24.55,24.55,0,0,0-.78,2.76,4.21,4.21,0,0,0,.72,1.28,2.59,2.59,0,0,0,2.93,1.14C98.25,69.54,99.86,56.05,97.56,56.83Zm-.51,6.83a15,15,0,0,1-1.4,4.94,2.46,2.46,0,0,1-.74-.75,42.13,42.13,0,0,1,2.39-6.41c-.06.66-.13,1.39-.25,2.23Zm.51-6.83c-1.51.54-3.46,4.88-4.58,8.33a24.55,24.55,0,0,0-.78,2.76,4.21,4.21,0,0,0,.72,1.28,2.59,2.59,0,0,0,2.93,1.14C98.25,69.54,99.86,56.05,97.56,56.83Zm-.51,6.83a15,15,0,0,1-1.4,4.94,2.46,2.46,0,0,1-.74-.75,42.13,42.13,0,0,1,2.39-6.41c-.06.66-.13,1.39-.25,2.23Z"/><path d="M111,57.87a10,10,0,0,0,.16,4.59c.29.91,1.2,2.4,3.56,1.62A4.9,4.9,0,0,0,117,62.25a6.86,6.86,0,0,1-6-4.38ZM115.42,51a4.58,4.58,0,0,0-2.21,5.68,5,5,0,0,0,5,3.11C119.77,55.44,119.33,49.73,115.42,51Zm2,6.73a2.45,2.45,0,0,1-1.67-1.52,2.66,2.66,0,0,1,.92-3.17,1.18,1.18,0,0,1,.51-.1c.44.24.83,2.24.24,4.8Zm-2-6.73a4.58,4.58,0,0,0-2.21,5.68,5,5,0,0,0,5,3.11C119.77,55.44,119.33,49.73,115.42,51Zm2,6.73a2.45,2.45,0,0,1-1.67-1.52,2.66,2.66,0,0,1,.92-3.17,1.18,1.18,0,0,1,.51-.1c.44.24.83,2.24.24,4.8Zm-6.47.16a10,10,0,0,0,.16,4.59c.29.91,1.2,2.4,3.56,1.62A4.9,4.9,0,0,0,117,62.25a6.86,6.86,0,0,1-6-4.38Zm0,0a10,10,0,0,0,.16,4.59c.29.91,1.2,2.4,3.56,1.62A4.9,4.9,0,0,0,117,62.25a6.86,6.86,0,0,1-6-4.38ZM115.42,51a4.58,4.58,0,0,0-2.21,5.68,5,5,0,0,0,5,3.11C119.77,55.44,119.33,49.73,115.42,51Zm2,6.73a2.45,2.45,0,0,1-1.67-1.52,2.66,2.66,0,0,1,.92-3.17,1.18,1.18,0,0,1,.51-.1c.44.24.83,2.24.24,4.8Zm-2-6.73a4.58,4.58,0,0,0-2.21,5.68,5,5,0,0,0,5,3.11C119.77,55.44,119.33,49.73,115.42,51Zm2,6.73a2.45,2.45,0,0,1-1.67-1.52,2.66,2.66,0,0,1,.92-3.17,1.18,1.18,0,0,1,.51-.1c.44.24.83,2.24.24,4.8Zm-6.47.16a10,10,0,0,0,.16,4.59c.29.91,1.2,2.4,3.56,1.62A4.9,4.9,0,0,0,117,62.25a6.86,6.86,0,0,1-6-4.38Zm17.55-5.34a2.38,2.38,0,0,0-.77-.55c-.38.94-.74,1.91-1.14,2.89a3,3,0,0,1-.12.29,15.89,15.89,0,0,1-1,2.5,6.45,6.45,0,0,1-1.11,1.68,8,8,0,0,1-3.45,2.34,11.38,11.38,0,0,1-6.54,6.07c-3.55,1.14-5.61.19-6.83-1.17v0a7.17,7.17,0,0,1-1.36-2.44c-.06-.25-.13-.5-.18-.78v0a11.94,11.94,0,0,1,0-4,16.35,16.35,0,0,1,1.15-4,11.29,11.29,0,0,1,6.63-6.62c4.63-1.51,7.29.61,8.24,3.93h0a12.16,12.16,0,0,1,.21,5.06c-.06.37-.15.74-.24,1.12a5.12,5.12,0,0,0,.7-.55,4.65,4.65,0,0,0,1.16-1.56s0,0,0-.08c.54-1.21.69-1.61.89-2.07h0a1.27,1.27,0,0,1,.15-.31c.37-.8.72-1.62,1.06-2.41a.78.78,0,0,0-.32.06l-.24.09a3.06,3.06,0,0,0-.8.49,2.45,2.45,0,0,0-.16-.48,8.28,8.28,0,0,0-2.22-3.77,6.89,6.89,0,0,0-2-1.26,9,9,0,0,0-6.44,0c-.31.09-.6.21-.87.31a13.4,13.4,0,0,0-6.55,6.48,16.07,16.07,0,0,0-1,2.51,15,15,0,0,0-.4,8.68,9.12,9.12,0,0,0,.61,1.43,6.37,6.37,0,0,0,1.53,2.12v0a5.25,5.25,0,0,0,.88.71c2,1.38,4.57,1.59,7.64.61a2.78,2.78,0,0,0,.51-.17l.38-.15a14.11,14.11,0,0,0,1.46-.72,13.89,13.89,0,0,0,5-5.36,9.25,9.25,0,0,0,4.33-3.72h0A17.93,17.93,0,0,0,129,55.83c0-.07.05-.12.06-.19a3,3,0,0,0-.6-3.12ZM115.42,51a4.58,4.58,0,0,0-2.21,5.68,5,5,0,0,0,5,3.11C119.77,55.44,119.33,49.73,115.42,51Zm.34,5.2a2.66,2.66,0,0,1,.92-3.17,1.18,1.18,0,0,1,.51-.1c.44.24.83,2.24.24,4.8a2.45,2.45,0,0,1-1.67-1.52ZM111,57.86a10,10,0,0,0,.16,4.59c.29.91,1.2,2.4,3.56,1.62A4.9,4.9,0,0,0,117,62.24a6.86,6.86,0,0,1-6-4.38Zm0,0a10,10,0,0,0,.16,4.59c.29.91,1.2,2.4,3.56,1.62A4.9,4.9,0,0,0,117,62.24a6.86,6.86,0,0,1-6-4.38ZM115.43,51a4.58,4.58,0,0,0-2.21,5.68,5,5,0,0,0,5,3.11C119.78,55.43,119.34,49.72,115.43,51Zm2,6.73a2.45,2.45,0,0,1-1.67-1.52,2.66,2.66,0,0,1,.92-3.17,1.18,1.18,0,0,1,.51-.1c.44.24.83,2.24.24,4.8Zm-2-6.73a4.58,4.58,0,0,0-2.21,5.68,5,5,0,0,0,5,3.11C119.78,55.43,119.34,49.72,115.43,51Zm2,6.73a2.45,2.45,0,0,1-1.67-1.52,2.66,2.66,0,0,1,.92-3.17,1.18,1.18,0,0,1,.51-.1c.44.24.83,2.24.24,4.8Zm-6.47.16a10,10,0,0,0,.16,4.59c.29.91,1.2,2.4,3.56,1.62A4.9,4.9,0,0,0,117,62.24a6.86,6.86,0,0,1-6-4.38Z"/><path d="M108.22,32.86c-.59-.33-1.33-.63-2.07-1.06a5,5,0,0,1-1.5-1.11c-.41,1-1,2.15-1.47,3.36a2.08,2.08,0,0,0,1.63,2.65,3.34,3.34,0,0,0,1.89,0l.34-.1c1.79-.6,2.44-1.84,2.22-2.74a1.75,1.75,0,0,0-1-1Zm-2.56,2c.16-.33.29-.64.42-.93.36.18.72.34,1,.49l.5.22a2.62,2.62,0,0,1-.83.37h-.06a1.17,1.17,0,0,1-1.07-.15Zm9.84-7.13,0,.07,0,0,0,.08,0,0v0c-.34.66-.67,1.28-1,1.87a10.79,10.79,0,0,0-1.1-.91l-1-.67a11.76,11.76,0,0,1-1.26-.9,5.15,5.15,0,0,1,1.82-2.75,2.7,2.7,0,0,0,.64-3.45c-.72-1.57-2.69-3.53-4.83-3.05l-.12,0a3,3,0,0,0-.89.38,11.63,11.63,0,0,0-4.83,6.08,8.87,8.87,0,0,0-.64,3.77c-.5,1-1.06,2.2-1.72,3.54l-.41.83v0l-.49,1a5.71,5.71,0,0,0-.39,3.56c.5-.85,1-1.87,1.59-3a6.45,6.45,0,0,1,.3-.58c.72-1.52,1.35-2.85,1.89-4,.23-.47.45-.94.66-1.34a2.63,2.63,0,0,1,0-.7A9.46,9.46,0,0,1,108.2,20a.47.47,0,0,1,.27-.12c1.38-.39,3.42,2.37,2.63,2.95-1,.74-3,3.16-2.54,4.92.39,1.41,3.24,2.27,4.61,4.16a3.66,3.66,0,0,1,.58,1.21l.1.5c.38-.66.8-1.43,1.28-2.25s1-1.83,1.49-2.81l.07-.11a19.42,19.42,0,0,1,.46-2.27,4,4,0,0,0-1.64,1.61Zm1.08,5a21.66,21.66,0,0,1-1.14,1.86A18.9,18.9,0,0,1,114,36.48a8.74,8.74,0,0,1-1.07,1.1,8.22,8.22,0,0,1-4.77,3,7,7,0,0,1-3.08.19,5.48,5.48,0,0,1-1.91-.57,5.16,5.16,0,0,1-2-1.84c-.3.58-.58,1.1-.83,1.6a2.54,2.54,0,0,0,.23.34,7.36,7.36,0,0,0,1.75,1.55,6.12,6.12,0,0,0,1.8.82,8.93,8.93,0,0,0,4.78.17,3.18,3.18,0,0,0,.43-.12,10.07,10.07,0,0,0,5.69-3.5,2.79,2.79,0,0,0,.48-.49,12.26,12.26,0,0,0,1.31-1.51,17,17,0,0,0,1-1.44,3.27,3.27,0,0,1-1-1.67,9.61,9.61,0,0,1-.21-1.32Zm-9.88,4,.34-.1c1.79-.6,2.44-1.84,2.22-2.74a1.75,1.75,0,0,0-1-1c-.59-.33-1.33-.63-2.07-1.06a5,5,0,0,1-1.5-1.11c-.41,1-1,2.15-1.47,3.36a2.08,2.08,0,0,0,1.63,2.65,3.34,3.34,0,0,0,1.89,0Zm.43-2.27.5.22a2.62,2.62,0,0,1-.83.37h-.06a1.17,1.17,0,0,1-1.07-.15c.16-.33.29-.64.42-.93.36.18.72.34,1,.49Z"/><path d="M67.68,36.87c-.55.15-1,.3-1.32.37-1.4.42-2.75-1.34-3.19-2.22a.7.7,0,0,1,.3-1.07c.06,0,.11,0,.17,0a51.38,51.38,0,0,0,5.07-1.36c3-.88,6.2-1.89,6.62-2,1-.28,3.63,0,3.15,1.68-.63,2.24-2.25,13.72-1.09,13.38.3-.1.73-.67,1.29-1.57v0A33.4,33.4,0,0,0,80.3,41v0c.51-.95,1-1.92,1.46-2.91,0,0,0-.07,0-.08.1-.77.23-1.54.4-2.29a3.86,3.86,0,0,0-1.57,1.63l0,.07-.07.11,0,0c-.08.24-.34.69-.47,1A48.88,48.88,0,0,1,81,33.06a2.93,2.93,0,0,0-.37-2.55,1.47,1.47,0,0,0-.33-.48,5.21,5.21,0,0,0-4.65-1.13l-.25.05a8.22,8.22,0,0,1-.94.3c-1.22.39-3.54,1.1-5.65,1.71S65.13,32,64.35,32.19l-.15,0a.27.27,0,0,1-.13,0l-.09,0c-.09,0-.19,0-.29,0l-.09,0-.06,0a2.35,2.35,0,0,0-1.15.73,2.06,2.06,0,0,0-.54.83,2.72,2.72,0,0,0-.1,1.55,3,3,0,0,0,.34.84,6.21,6.21,0,0,0,3.45,3.11,74.53,74.53,0,0,1-3,8.14A7.89,7.89,0,0,1,61.68,49a.27.27,0,0,0-.1.12c-.58.64-.64.69-1.18.87h0a2.07,2.07,0,0,0-1.1.63,4.2,4.2,0,0,1,2.19.52.42.42,0,0,1,.26.14,2.24,2.24,0,0,0,.21-.53c.16-.16.32-.33.53-.57s.33-.43.51-.69c1.61-2.55,3.53-8.53,4.77-12.56Zm14.17,5.76c-.3.71-.64,1.43-.93,2-.41.83-.81,1.53-1.17,2.16a5.57,5.57,0,0,1-1.84,2.21c-1,.32-5,0-5.7-2.54s.3-7.86,1.22-11.49c-1.26.36-2.59.84-3.74,1.21-.83,4.23-2.27,12.23-4.28,15.51a5.3,5.3,0,0,1-.83,1,2.76,2.76,0,0,1-1.1.62,7.15,7.15,0,0,1,.64,2.3h.06a2.3,2.3,0,0,0,.34-.12,5.53,5.53,0,0,0,2-1.06l.06,0c1.72-1.53,3-5.14,4-9.61a10.18,10.18,0,0,0,.36,2.49c1.11,3.73,6.13,4.3,7.93,3.89l.25,0c.43-.12,1.19-.35,2.5-2.31a16.25,16.25,0,0,0,1-1.74c.29-.45.54-1,.84-1.57a3.65,3.65,0,0,1-1.35-2,8.44,8.44,0,0,1-.23-1Z"/><path d="M102.73,29.94a3.5,3.5,0,0,0-2.09,1.8l0,0s-.36.76-.57,1.16c0,0,0-.07,0-.1v0a45.64,45.64,0,0,1,1-5.34,3,3,0,0,0-.35-2.59,1.47,1.47,0,0,0-.32-.45c-1.26-1.36-3.55-1.43-4.7-1.19l-.19,0A3.46,3.46,0,0,0,93.4,25a6.33,6.33,0,0,0-3.59-.09l-.5.1a10.9,10.9,0,0,0-6.47,5.52,19,19,0,0,0-1.37,3.08,19.87,19.87,0,0,0-.93,3.93l0,0A21.18,21.18,0,0,0,80.3,41c.51-.95,1-1.92,1.47-2.91,0,0,0-.07,0-.08.1-.77.23-1.54.4-2.29h0A15.45,15.45,0,0,1,83,33.3v0c1.19-3.11,3.26-5.78,6.27-6.61,2.39-.66,3.78.05,4.59,1.28.22-.79.42-1.42.55-1.87a1.52,1.52,0,0,1,1-1.13c1-.28,3.61,0,3.12,1.72-.66,2.25-2.42,13.69-1.29,13.36a1.25,1.25,0,0,0,.58-.48,15.74,15.74,0,0,0,1.34-2.1v0c.5-.85,1-1.87,1.58-3a6.45,6.45,0,0,1,.3-.58c.72-1.52,1.35-2.85,1.89-4l-.22.05Zm-11.86-.82C89,29.64,87.72,32.22,87,35c-.77,3.12-.78,6.5-.05,7.48a.58.58,0,0,0,.64.26c3.92-1.12,7-14.64,3.25-13.61Zm-1.2,9.15A9.32,9.32,0,0,1,89,39.54a16.88,16.88,0,0,1,1.35-6.26,5,5,0,0,1,.82-1.37,17.41,17.41,0,0,1-1.52,6.36Zm11.47.06c-.3.58-.58,1.1-.83,1.6-.37.7-.73,1.32-1.07,1.85-.59.9-1.11,1.5-1.51,1.62a1.6,1.6,0,0,1-.29,0,6.43,6.43,0,0,1-2.62-.26c-.1.47-.18,1.17-.29,2a10.67,10.67,0,0,0,2.6.49,6.62,6.62,0,0,0,1.57-.1l.16,0c.49-.14,1.16-.34,2.39-2.06.29-.45.67-1,1-1.68.29-.48.56-1,.89-1.65a5.16,5.16,0,0,1-2-1.84ZM91.78,41.4a.59.59,0,0,1,.12-.06l.3-.1a2,2,0,0,1-.15-.39l-.27.54Zm-4.15,4.83a5.51,5.51,0,0,1-2.39.08,4.6,4.6,0,0,1-1.81-.76,3.65,3.65,0,0,1-1.35-2,8.44,8.44,0,0,1-.23-1c-.3.71-.64,1.43-.93,2a5.39,5.39,0,0,0,1.68,2.44,6,6,0,0,0,1.7,1A6.92,6.92,0,0,0,88,48.5a1.84,1.84,0,0,0,.47-.07l.34-.07a6,6,0,0,0,.61-.19c.29-1.72.52-3.07.67-3.91a6.53,6.53,0,0,1-1.65,1.58A3.23,3.23,0,0,1,87.63,46.23Zm17-15.52c-.41,1-.95,2.15-1.47,3.36a2.08,2.08,0,0,0,1.63,2.65c.41-.83.8-1.76,1.21-2.75a3,3,0,0,0,.14-2.14,4.88,4.88,0,0,1-1.5-1.11ZM90.85,29.12C89,29.64,87.7,32.22,87,35c-.77,3.12-.78,6.5,0,7.48a.58.58,0,0,0,.64.26c3.92-1.12,7-14.64,3.25-13.61Zm-1.2,9.15A9.32,9.32,0,0,1,89,39.54a16.88,16.88,0,0,1,1.35-6.26,5,5,0,0,1,.82-1.37,17.41,17.41,0,0,1-1.52,6.36Z"/><path d="M61.41,51.08a.42.42,0,0,1,.26.14,2.24,2.24,0,0,0,.21-.53A2.37,2.37,0,0,1,61.41,51.08Z"/><path d="M61.86,27.86C60.06,23,54.16,19,45,21.07c-.71.18-1.48.38-2.21.59-11.91,3.77-15.51,12.28-15,16.75a7.39,7.39,0,0,0,3.05,5.24,5.73,5.73,0,0,0,4.5,1l.4-.12a2.7,2.7,0,0,0,1.84-1.91,2.44,2.44,0,0,0-.56-2.22,1.28,1.28,0,0,1-.4-.82,11.47,11.47,0,0,1,3.85-8.89,5.18,5.18,0,0,0-.38,1l0,0v.06c-.14.68-3.45,16.28-3.89,24.26a7.24,7.24,0,0,0,2.27,6.18,7.14,7.14,0,0,0,4.88,1.6,9.81,9.81,0,0,0,1.47-.11,32.66,32.66,0,0,1,1.47-3,11.25,11.25,0,0,1-1.76.43c-4.88.89-7.28-1.56-7-5.54.42-7.88,3.84-23.93,3.84-23.93a2.49,2.49,0,0,1,1.93-2c1.16-.37,2.82-.17,2.59,1.37-.12.51-2.81,19.23-2.79,22.6,0,2.42,1.15,4.08,4,3.39a3.18,3.18,0,0,0,.43-.12,7.59,7.59,0,0,0,2.31-1.2h0a8.94,8.94,0,0,0,2-2.09,10.33,10.33,0,0,0,1.43-2.93c1.42-4.39-.27-9-5.9-7.2-.94.3-.68-1.55,0-1.79,8.68-2.73,9.39-20.06-3.85-15.85A13.33,13.33,0,0,0,34,39.31,3.26,3.26,0,0,0,35,41.26c.13.17.11.69-.47.88-2.22.69-5-1.44-5.4-4.52C28.68,34,31.86,26.42,42.7,23c17-5.39,23.12,11,10,17.9,5.39-.45,7.72,2.92,7,7.13a3.85,3.85,0,0,1-.16.65,8.78,8.78,0,0,1-.65,1.86.48.48,0,0,1,.29,0,4.2,4.2,0,0,1,2.19.52.42.42,0,0,1,.26.14,2.24,2.24,0,0,0,.21-.53c.18-.53.31-1,.43-1.52a9.16,9.16,0,0,0,.17-1.66,8.32,8.32,0,0,0-.12-2.12,8.71,8.71,0,0,0-.49-1.55,6.88,6.88,0,0,0-3.41-3.54,15,15,0,0,0,2.15-2.59,11.4,11.4,0,0,0,1.11-2.28,9,9,0,0,0,.64-2.37,11,11,0,0,0,.08-2.42,10.67,10.67,0,0,0-.58-2.77ZM48.47,46a.62.62,0,0,0,.21-.08l.62-.16c2.23-.5,2.8.52,3.06,1.44a7.81,7.81,0,0,1-3.91,8,4.42,4.42,0,0,1-.89.38,2.11,2.11,0,0,1-.43.12,1.79,1.79,0,0,1-1,0,2.34,2.34,0,0,1-.35-1.52c0-1.2.35-4.65.85-8.49a2.52,2.52,0,0,0,1.85.29ZM46,28c2.39-.53,5.39-.48,6.28,2.84s-1,8.39-4.75,9.57a.45.45,0,0,0-.18.07c.58-4.34,1.13-8.09,1.18-8.46l0-.07a3.17,3.17,0,0,0-.9-2.9,3.73,3.73,0,0,0-2.21-.93ZM59.14,53.73a1.63,1.63,0,0,0-1.58-.12,2.62,2.62,0,0,0-.89.58,15.42,15.42,0,0,1-1.55,1.59.15.15,0,0,1-.11.09,29.29,29.29,0,0,0-3.47,5.73,22.09,22.09,0,0,0,4.69-3,18.13,18.13,0,0,0,2.46-2.37,0,0,0,0,1,0,0c.23-.28.44-.52.65-.79s.33-.43.46-.62l.12-.19a2.87,2.87,0,0,1-.4-.37,1.75,1.75,0,0,1-.39-.47Z"/></g></g></g></g></svg>