<?xml version="1.0" encoding="UTF-8"?>
<svg id="Capa_2" data-name="Capa 2" xmlns="http://www.w3.org/2000/svg" xmlns:xlink="http://www.w3.org/1999/xlink" viewBox="0 0 192 108">
  <defs>
    <style>
      .cls-1 {
        fill: #fff;
      }

      .cls-2 {
        fill: #d92026;
      }

      .cls-3 {
        fill: #141833;
      }

      .cls-4 {
        clip-path: url(#clippath);
      }

      .cls-5 {
        opacity: .12;
      }

      .cls-6 {
        fill: none;
      }

      .cls-7 {
        opacity: .36;
      }
    </style>
    <clipPath id="clippath">
      <rect class="cls-6" width="192" height="108"/>
    </clipPath>
  </defs>
  <g id="Capa_1-2" data-name="Capa 1">
    <g class="cls-5">
      <g class="cls-4">
        <g class="cls-7">
          <path class="cls-1" d="M181.33,23.35c-.69-.83-1.74-1.19-2.8-.97h-.06c-1.29,.35-1.91,1.42-2.13,1.76l-.03,.04s-.4,.73-.6,1.16c.39-2.32,.83-4.53,1.13-5.46,.38-1.12,.15-2.24-.62-3.09-1.27-1.39-3.57-1.52-4.71-1.25l-.09,.02c-.93,.23-1.65,.8-2.12,1.65-.99-.38-2.25-.5-3.83-.14l-.28,.06c-3.54,.91-6.4,3.88-8.05,8.38-.04,.11-.08,.24-.12,.35-.41,1.16-.71,2.36-.91,3.57l-.02,.04v.03c-.18,1.14-.26,2.26-.27,3.34,.47-.88,.98-1.83,1.49-2.81,.03-.04,.05-.08,.07-.11,.1-.77,.27-1.52,.46-2.27h.03c.17-.76,.4-1.49,.68-2.19h.03c1.22-3.15,3.38-5.85,6.47-6.63,2.44-.61,3.79,.11,4.58,1.38,.25-.8,.45-1.43,.59-1.84,.22-.63,.58-.97,1.07-1.1,1.02-.25,3.63,.11,3.07,1.79-.73,2.23-2.79,13.61-1.62,13.33,.8-.2,2.75-3.76,4.67-7.44,.29-.48,.59-.74,.93-.84,.68-.17,1.31,.5,.9,1.37-2.24,4.95-4.85,9.98-6.12,10.31-1.05,.25-4.91-.2-5.6-2.69-1.33,2.62-2.98,4.85-4.58,5.25-.86,.21-1.84,.19-2.72-.11-.66-.19-1.28-.51-1.74-1-.48-.42-.83-1-1-1.67-.08-.4-.18-.84-.21-1.32-.37,.7-.77,1.3-1.14,1.86l.04,.19c.23,.96,.69,1.74,1.31,2.39,.46,.49,1,.89,1.58,1.19,1.47,.8,3.23,1.01,4.81,.65l.16-.03c1.51-.38,2.97-1.63,4.38-3.74,1.96,1.28,4.56,1.48,5.71,1.2l.09-.02c.9-.22,2.59-.64,7.44-11.4,.49-1.08,.37-2.28-.34-3.14Zm-18.28,11.44c3.95-.99,7.33-14.43,3.56-13.51-1.88,.49-3.23,3.02-3.96,5.73-.85,3.07-.94,6.37-.26,7.43,.16,.29,.38,.41,.66,.35Zm2.97-9.36c.32-.65,.62-1.07,.88-1.39-.06,1.44-.54,3.94-1.68,6.36-.23,.47-.46,.91-.68,1.25,.08-1.77,.54-4.24,1.49-6.22Z"/>
          <path class="cls-1" d="M203.86,30.31l-.11-.07h-.1c-.11-.05-.42-.15-.78-.04-.84,.18-1.32,.99-1.09,1.92,0,0-.1,.31-1.15,.86-.43,.25-.97,.5-1.54,.71,.43-.87,.57-1.91,.49-2.47,.01-.1,0-.19-.03-.29,.23,.02,.45-.03,.67-.08,.31-.07,.61-.19,.9-.35,2.03-1.17,3.01-3.62,2.34-5.85-.54-1.8-2.32-3.64-5.68-3.39-.52,.01-1.02,.08-1.48,.21h-.06c-4,.89-6.41,3.96-7.03,6.59-.27,1.32-.17,2.57,.33,3.6-5.12,2.7-6.36,7.6-5.25,11.33,1.16,3.82,5.17,7.29,11.31,5.94h.06c3.84-.89,6.58-3.18,7.51-6.33,.53-1.8,.37-3.65-.37-5.15,1.43-.76,2.61-1.78,2.94-3.34,.33-1.66-.39-3.1-1.87-3.8Zm.23,3.39c-.29,1.42-1.79,2.32-3.6,3.13,2.55,2.55,1.74,9.08-5.58,10.69-10.64,2.36-14.41-11.42-3.78-15.51-2.84-2.26-.43-8.25,5.03-9.43,.4-.08,.84-.18,1.29-.21,5.13-.33,5.77,5.06,2.61,6.86-.17,.13-.35,.2-.53,.24-1.46,.31-3.17-1.02-2.25-1.57,2.22-1.5,2.54-4.46-.35-4.15-.16,0-.35,.04-.5,.07-3.91,.85-5.24,7.07-.9,7.14,.7-.05,1.38-.09,2.12-.09,.68-.01,.02,2.72-.88,2.91l-.12,.03c-1.07,0-1.99,.13-2.83,.3-8.56,1.9-6.41,12.61,.11,11.18,5.03-1.12,4.95-6.27,2.84-7.03-1.97,.8-3.49,1.77-3.24,3.28,.05,.25-.03,.46-.22,.5-.03,0-.09,.02-.13,0-1.45-.12-2.52-2.1-1.46-3.56,2.12-2.91,11.54-3.82,10.91-6.8-.05-.22,.02-.36,.15-.39,.06-.01,.1,.01,.17,.03,.98,.48,1.36,1.37,1.15,2.39Zm-7.82-4.59c.08,.24,.23,.47,.43,.66-.29,.03-.54,.05-.83,.08-1.11-.03-1.3-.6-1.37-1.11-.12-1.21,.81-3.12,2.61-3.5l.37-.08c.38-.05,.59,.04,.66,.06,.05,.22-.2,1.08-1.19,1.74-.74,.48-1.02,1.35-.68,2.16Zm-5.57,12.31c.53,1.12,1.5,1.89,2.64,2.04,.17,.03,.4,.05,.65,0,.87-.18,1.37-1.07,1.2-2.01-.07-.47,.54-.99,1.81-1.58,.15,.26,.27,.66,.22,1.19-.01,.55-.36,2.48-3.14,3.13h-.03c-2.3,.49-3.72-1-4.08-2.71-.51-2.26,.66-5.07,4.44-5.93-1.4,.62-2.64,1.37-3.34,2.36-.76,1.04-.9,2.36-.37,3.52Z"/>
          <path class="cls-3" d="M157.65,63.73c-.64,.87-1.43,1.56-2.28,1.83-2.36,.77-3.26-.71-3.56-1.62-.43-1.33-.42-2.94-.16-4.59,1.16,2.82,3.47,4.16,5.99,4.38Z"/>
          <path class="cls-3" d="M184.97,69.74c-2.2,.67-3.96-.23-5.25-2.01,1.09-.54,2.21-.98,3.33-1.33,4.05-1.24,4.45,2.57,1.92,3.34Z"/>
          <path class="cls-1" d="M184.97,69.74c-2.2,.67-3.96-.23-5.25-2.01,1.09-.54,2.21-.98,3.33-1.33,4.05-1.24,4.45,2.57,1.92,3.34Z"/>
          <path class="cls-1" d="M191.94,66.62c1.26,3.5-.49,7.25-4.1,8.76-.27,.11-.53,.21-.81,.29-4.42,1.36-8.8,.23-11.82-2.94-2.8,1.56-5.68,3.33-8.74,5.2-6.27,3.84-13.39,8.19-21.28,11.48-2.38,.98-4.8,1.85-7.12,2.57-2.87,.87-5.81,.88-8.31,0-2.92-1.06-5.03-3.26-5.96-6.27-.11-.37-.31-1.04-.38-1.8-.1-.68-.07-1.37,.24-1.98,.22-.47,.61-.86,1.22-1.14,.08-.06,.15-.06,.24-.09,.55-.15,1.17-.16,1.78,.08,.12,.05,.29,.12,.43,.21l.08,.04c.44,.24,.9,.46,1.36,.58,2.07,.71,4.54,.58,7.53-.34,4.21-1.27,8.42-2.82,12.88-4.67,2.9-1.23,5.65-2.47,8.31-3.7l.06-.02c.61-.28,1.19-.54,1.76-.81,.03-.01,.08-.06,.11-.08,1.65-.76,3.25-1.54,4.83-2.31,2.56-1.23,4.99-2.41,7.42-3.52-.49-1.82-.78-3.83-.84-5.96,0-.07-.02-.13-.01-.2,0,0-.01-.03,.02-.04-.01-1.74,.26-3.97,.63-6.14,.15-.74,.3-1.49,.43-2.19-.19,.55-.43,1.16-.65,1.8-.42,1.16-.91,2.42-1.43,3.69,0,.07-.05,.12-.06,.19-.48,1.01-1.15,1.49-1.65,1.69l-.27,.11c-.54,.18-1.13,.18-1.67,.02,.39-.74,.73-1.59,1.02-2.5,.06-.09,.09-.21,.12-.29,.4-.98,.76-1.95,1.14-2.89,.24-.68,.47-1.32,.67-1.91,.36-.9,.67-1.74,.92-2.42,1.24-.39,2.76-.9,4.11-1.37-.9,3.65-2.04,9.1-1.98,12.26,.08,2.77,.54,5.12,1.29,7.08-10.68,4.78-22.2,11.34-37.2,15.93-3.26,1-6.47,1.29-9.25,.14h-.03c-.17,.11-.3,.2-.48,.27l-.24,.09c-.42,.14-.92,.27-1.48,.32,.09,.48,.21,.94,.29,1.15,1.57,5.22,7.08,6.41,11.81,4.97,15.24-4.69,27.32-14.1,38.18-19.88,2.65,3.73,6.77,4.79,10.77,3.57,6.89-2.11,4.4-12.37-5.17-9.43-.76,.24-1.51,.5-2.28,.81-.49-1.48-.78-3.15-.86-4.89-.22-4.67,.98-12.88,1.58-15.14,.48-1.7-2.15-1.95-3.14-1.62-.44,.11-3.49,1.12-6.33,1.98-2.34,.73-4.53,1.33-4.87,1.33-.03,.01-.11-.02-.14-.01-.4,.12-.58,.61-.29,1.07,.47,.84,1.83,2.62,3.21,2.21,.15-.06,.34-.1,.57-.19-.17,.44-.36,.9-.57,1.39-.25,.65-.56,1.35-.86,2.05-.34,.78-.69,1.61-1.06,2.41-.05,.05-.1,.18-.15,.3h-.03c-.2,.47-.34,.87-.89,2.08-.56-.8-.65-1.79-.26-2.7l.02-.04c.29-.63,.56-1.25,.86-1.88,.24-.61,.48-1.19,.73-1.76-1.22-.64-2.13-1.82-2.63-2.72-.37-.57-.48-1.21-.42-1.82,.04-.15,.08-.31,.12-.46,.22-.74,.74-1.32,1.48-1.62l.21-.08c.19-.04,.32-.06,.48-.09l.04,.02c.06-.02,.1,0,.16-.03,.45-.08,1.87-.47,4.34-1.22,2.05-.61,4.23-1.31,5.42-1.69,.48-.16,.81-.29,.94-.31,1.22-.38,3.51-.31,4.83,.95,.83,.8,1.12,1.95,.8,3.1-.53,2.02-1.74,10.04-1.51,14.53,.05,.8,.12,1.59,.26,2.36,.1,0,.22-.05,.31-.09,6.07-1.85,10.02,.75,11.25,4.16Z"/>
          <path class="cls-1" d="M106.74,75c-.47-.68-1.1-1.23-1.81-1.67-2.24-1.38-5.42-1.69-7.95-1.97-1.36-.14-3.57-.32-4.21-.74-.14-1.27,.54-4.07,2.45-7.66,.61-1.13,1.18-2.1,1.72-2.93,.99-1.47,1.86-2.44,2.4-2.81,.03,.12,.05,.25,.06,.44,.06,.44,.07,1.12-.11,1.94-.32,1.85-1.34,4.31-3.19,5.51-.71,.51-1.13,1.28-1.11,2.15,0,.97,.5,1.91,1.25,2.4,.82,.48,3.99,1.99,5.73,1.33l.15-.06c3.88-1.63,6.41-9.53,5.13-15.01-.1-.47-.23-.96-.42-1.37-.13-.33-.36-.8-.71-1.35-.53-.8-1.33-1.7-2.5-2.3-.18-.09-.4-.21-.61-.26-.22-.12-.43-.17-.66-.22-.62-.19-1.29-.28-2.07-.25-1.13,.01-2.48,.26-4.01,.84l-.33,.13c-.66,.27-1.3,.63-1.95,1.06-.61,.35-1.16,.8-1.74,1.31-1.08,.88-2.12,1.97-3.1,3.18-.5,.56-.96,1.17-1.4,1.85-.9,1.26-1.75,2.64-2.49,4.06-.43,.9-.85,1.8-1.18,2.72-1.25,3.15-1.87,6.27-1.47,8.78,.85,5.57,7.84,5.47,12.9,5.44,1.26-.04,3.08-.03,4.05,.09-.19,.49-.7,1.28-1.75,2.32-1.4,1.37-3.25,2.63-4.77,3.27l-.27,.09c-1.23,.49-2.63,.49-2.97,.23l-.07-.18-.13-.17c-.65-.77-1.72-1.07-2.66-.74l-.09,.05c-.71,.31-1.23,.94-1.47,1.67-.56,1.84,.42,5.4,2.58,7.48,2.06,1.94,4.79,2.4,7.71,1.3l.36-.14c3.82-1.58,8.37-5.91,10.53-10.62,.37-.86,.71-1.74,.88-2.59,.42-1.55,.5-3.03,.19-4.49-.18-.84-.48-1.52-.87-2.12l-.04-.02Zm-1.68,5.29c-.89,5.35-6.67,11.24-10.7,12.74-6.17,2.3-8.22-4.8-7.71-6.4,.03-.17,.19-.33,.34-.4s.29,0,.41,.11c.9,1.79,3.97,1.28,5.42,.75,3.58-1.37,8.72-5.79,8.2-8.44-.62-3.09-16.07,1.56-17.08-4.95-.35-2.27,.3-5.36,1.63-8.46,.43-1.03,.93-2.05,1.47-3.04,1.02-1.77,2.19-3.48,3.47-4.95h.03c.65-.79,1.34-1.49,2.03-2.09,1.23-1.1,2.52-1.92,3.78-2.42,1.27-.46,2.36-.69,3.3-.69,.09-.02,.19-.04,.29,0,.84-.01,1.56,.16,2.19,.52,.1,.01,.18,.06,.26,.14,.81,.48,1.43,1.23,1.82,2.15,.34,.68,.53,1.45,.64,2.3,.67,4.6-1.48,10.87-4.23,11.86-.63,.23-2.97-.54-3.97-1.15-.26-.17-.52-.93-.12-1.21,3.54-2.33,4.9-7.88,4.01-10.42-.08-.21-.15-.42-.28-.56-.16-.13-.29-.3-.39-.47-.42-.3-.95-.35-1.58-.12-.27,.09-.56,.28-.89,.58-.48,.36-1.01,.89-1.55,1.59-.02,.04-.05,.08-.11,.09-1.21,1.52-2.47,3.57-3.47,5.73h-.03c-1.39,2.96-2.34,6.02-2.04,7.9,.56,3.58,12.14,.73,14.56,5.48,0,1.36,.11,2.7,.32,3.83Z"/>
          <path class="cls-2" d="M105.07,80.3c.18-1,.21-1.97,.01-2.88-.07-.35-.2-.67-.35-.96,0,1.37,.12,2.69,.34,3.84Z"/>
          <path class="cls-1" d="M127.72,74.26c-.06-.12-.09-.27-.13-.46-.29,.64-.54,1.28-.8,1.89-.35,.79-.69,1.51-1,2.06-.21,.37-.35,.66-.53,.89-.37,.56-.72,.9-.99,1.02-.3,.13-.87,.18-1.53,.16-1.57-.06-3.63-.6-4.31-2.28-1.08,2.76-2.5,5.1-4.04,5.65-1.66,.61-3.8,.31-5-1.06-.3-.33-.58-.75-.74-1.21-.62-1.85-.82-4.5-.45-7.24v-.03c.56-4.27,2.55-8.72,6.42-10.05,2.35-.85,3.78-.24,4.67,.9,.19-.79,.35-1.44,.42-1.87,.16-.65,.5-1.01,.98-1.21,.97-.33,3.59-.2,3.21,1.53-.49,2.28-1.49,13.79-.34,13.38,.24-.08,.52-.47,.91-1.1,.45-.78,1.02-1.94,1.61-3.32,0,0,0-.03,.02-.04,.46-1.04,.93-2.21,1.41-3.35l.02-.07h.03c.04-.73,.1-1.52,.2-2.32-.58,.32-1.05,.87-1.38,1.62l-.02,.07-.02,.04c-.05,.08-.04,.11-.09,.18-.1,.28-.22,.63-.38,.96,.16-2.34,.4-4.57,.59-5.52,.28-1.16-.09-2.29-.93-3.05-.12-.1-.24-.21-.38-.28-1.39-.91-3.42-.84-4.48-.46l-.16,.03c-.83,.37-1.46,.96-1.8,1.81-1.07-.3-2.4-.28-4.09,.31-.16,.03-.3,.1-.45,.16-4.12,1.71-6.3,6.03-7.1,10.42-.17,.88-.28,1.75-.34,2.57l.04,.02c-.22,2.51,.08,4.89,.67,6.61l.05,.09c.28,.85,.74,1.53,1.35,2.12,.59,.62,1.36,1.08,2.27,1.37,1.44,.51,3.12,.48,4.6-.06l.21-.08c1.37-.58,2.65-1.92,3.76-4.04,.61,.29,1.24,.52,1.93,.67,.72,.17,1.38,.23,2.03,.22,.78,0,1.47-.11,1.95-.28l.12-.03c.29-.16,.62-.29,1.15-.86,.26-.31,.56-.73,.95-1.34,.05-.08,.12-.22,.17-.29,.24-.41,.5-.88,.74-1.42,.22-.5,.49-1.05,.75-1.68-.82-.35-1.5-.95-1.77-1.77Zm-11.31-8.37c-4.37,1.6-4.5,14.61-2.27,13.79,3.84-1.36,5.93-15.08,2.27-13.79Zm-.37,8.75c-.21,.69-.47,1.3-.68,1.7-.08-1.64,.07-3.98,.81-6.05,.25-.8,.56-1.35,.81-1.7,.08,1.31-.14,3.67-.94,6.04Z"/>
          <path class="cls-1" d="M138.27,58.31c-1.51,.54-3.46,4.88-4.58,8.33-.36,1.05-.62,2.01-.78,2.76,.17,.48,.42,.92,.72,1.28,.72,.95,1.78,1.54,2.93,1.14,2.4-.8,4.01-14.29,1.71-13.51Zm-.51,6.83c-.4,2.72-1.04,4.34-1.4,4.94-.18-.09-.47-.36-.74-.75,.57-2.1,1.51-4.54,2.39-6.41-.06,.66-.13,1.39-.25,2.23Zm.51-6.83c-1.51,.54-3.46,4.88-4.58,8.33-.36,1.05-.62,2.01-.78,2.76,.17,.48,.42,.92,.72,1.28,.72,.95,1.78,1.54,2.93,1.14,2.4-.8,4.01-14.29,1.71-13.51Zm-.51,6.83c-.4,2.72-1.04,4.34-1.4,4.94-.18-.09-.47-.36-.74-.75,.57-2.1,1.51-4.54,2.39-6.41-.06,.66-.13,1.39-.25,2.23Zm.51-6.83c-1.51,.54-3.46,4.88-4.58,8.33-.36,1.05-.62,2.01-.78,2.76,.17,.48,.42,.92,.72,1.28,.72,.95,1.78,1.54,2.93,1.14,2.4-.8,4.01-14.29,1.71-13.51Zm-.51,6.83c-.4,2.72-1.04,4.34-1.4,4.94-.18-.09-.47-.36-.74-.75,.57-2.1,1.51-4.54,2.39-6.41-.06,.66-.13,1.39-.25,2.23Zm.51-6.83c-1.51,.54-3.46,4.88-4.58,8.33-.36,1.05-.62,2.01-.78,2.76,.17,.48,.42,.92,.72,1.28,.72,.95,1.78,1.54,2.93,1.14,2.4-.8,4.01-14.29,1.71-13.51Zm-.51,6.83c-.4,2.72-1.04,4.34-1.4,4.94-.18-.09-.47-.36-.74-.75,.57-2.1,1.51-4.54,2.39-6.41-.06,.66-.13,1.39-.25,2.23Zm8.29-7.52c-.03-.16-.09-.27-.15-.39-.29-.78-.62-1.43-1.06-1.95-1.48-1.93-3.69-2.57-6.12-1.77l-.33,.13c-.54,.21-1.09,.55-1.59,.95,.37-2.87,.76-5.52,1.04-7.43,.06-.5,.13-.94,.17-1.34,.07-.44,.11-.74,.13-.94,.03-.3,.04-.43,.06-.5,.16-1.1-.21-2.07-1-2.75-1.45-1.19-3.63-.89-4.57-.57l-.39,.15c-1.73,.72-2.31,2.01-2.58,3.17l-.04,.14s-.2,1.08-.52,2.77c-.1,.77-.27,1.65-.45,2.66-.34,2.25-.77,4.97-1.19,7.78-.08,.54-.13,1.07-.22,1.6-.52,3.71-.84,6.54-1,8.69-.13,1.68-.13,2.92-.14,3.83,.46-1.04,.93-2.21,1.41-3.35l.02-.07h.03c.04-.73,.1-1.52,.2-2.32,.16-1.56,.34-3.19,.57-4.86,.53-4.14,1.21-8.47,1.75-11.63,.29-1.72,.52-3.07,.67-3.91,.12-.64,.18-.98,.18-.98,.26-1.06,.65-1.56,1.55-1.88,.02-.04,.06-.04,.12-.06,.09-.02,.18-.07,.3-.1,1.12-.24,2.88-.05,2.68,1.32-.02,.04-.04,.27-.07,.6-.1,.47-.18,1.17-.29,2.04-.53,3.68-1.45,10.57-2.05,16.37,1.37-3.53,3.41-7.11,5.5-7.81,2.7-.89,4.28,.73,5.01,3.43,.6,2.24,.59,5.3,.02,8.11-.66,3.68-2.18,6.92-4.22,7.61-2.55,.86-4.95-.06-6.54-1.78-.04-.06-.06-.12-.13-.17,.03,.12,.03,.29,.02,.42v.03c.09,1.02,.25,2.09,.46,2.92,.07,.47-.05,.69-.53,.86-.39,.02-.87,.02-1.38-.07-.64-.09-1.32-.24-1.91-.57-.82-.35-1.5-.95-1.77-1.77-.06-.12-.09-.27-.13-.46-.29,.64-.54,1.28-.8,1.89,.45,.91,1.17,1.54,1.95,2.03,.59,.33,1.22,.56,1.84,.72,1.08,.33,2.19,.35,2.96,.32h.29s.24-.08,.24-.08c.09-.05,.19-.04,.2-.11,.99-.4,1.54-1.17,1.64-2.1,1.56,.48,3.25,.45,4.85-.08l.3-.13c2.33-.94,3.69-3.6,4.47-5.91,.3-.88,.51-1.76,.68-2.48,0-.03,.01-.1,.04-.14,.18-.98,.34-1.95,.42-2.95v-.03c-.21-1.13-.21-2.52,0-4-.12-1.18-.3-2.21-.63-3.15Zm-9.49,14.2c2.4-.8,4.01-14.29,1.71-13.51-1.51,.54-3.46,4.88-4.58,8.33-.36,1.05-.62,2.01-.78,2.76,.17,.48,.42,.92,.72,1.28,.72,.95,1.78,1.54,2.93,1.14Zm1.44-8.91c-.06,.66-.13,1.39-.25,2.23-.4,2.72-1.04,4.34-1.4,4.94-.18-.09-.47-.36-.74-.75,.57-2.1,1.51-4.54,2.39-6.41Zm.27-4.6c-1.51,.54-3.46,4.88-4.58,8.33-.36,1.05-.62,2.01-.78,2.76,.17,.48,.42,.92,.72,1.28,.72,.95,1.78,1.54,2.93,1.14,2.4-.8,4.01-14.29,1.71-13.51Zm-.51,6.83c-.4,2.72-1.04,4.34-1.4,4.94-.18-.09-.47-.36-.74-.75,.57-2.1,1.51-4.54,2.39-6.41-.06,.66-.13,1.39-.25,2.23Zm.51-6.83c-1.51,.54-3.46,4.88-4.58,8.33-.36,1.05-.62,2.01-.78,2.76,.17,.48,.42,.92,.72,1.28,.72,.95,1.78,1.54,2.93,1.14,2.4-.8,4.01-14.29,1.71-13.51Zm-.51,6.83c-.4,2.72-1.04,4.34-1.4,4.94-.18-.09-.47-.36-.74-.75,.57-2.1,1.51-4.54,2.39-6.41-.06,.66-.13,1.39-.25,2.23Zm.51-6.83c-1.51,.54-3.46,4.88-4.58,8.33-.36,1.05-.62,2.01-.78,2.76,.17,.48,.42,.92,.72,1.28,.72,.95,1.78,1.54,2.93,1.14,2.4-.8,4.01-14.29,1.71-13.51Zm-.51,6.83c-.4,2.72-1.04,4.34-1.4,4.94-.18-.09-.47-.36-.74-.75,.57-2.1,1.51-4.54,2.39-6.41-.06,.66-.13,1.39-.25,2.23Z"/>
          <path class="cls-1" d="M151.66,59.35c-.27,1.65-.27,3.26,.16,4.59,.29,.91,1.2,2.4,3.56,1.62,.85-.27,1.63-.96,2.28-1.83-2.52-.22-4.83-1.56-5.99-4.38Zm4.47-6.89c-1.25,.4-3.16,2.7-2.21,5.68,.7,2.08,2.79,3.13,4.97,3.11,1.59-4.33,1.15-10.04-2.76-8.79Zm2,6.73c-.75-.25-1.42-.73-1.67-1.52-.64-1.94,.68-3.08,.92-3.17,.32-.13,.48-.09,.51-.1,.44,.24,.83,2.24,.24,4.8Zm-2-6.73c-1.25,.4-3.16,2.7-2.21,5.68,.7,2.08,2.79,3.13,4.97,3.11,1.59-4.33,1.15-10.04-2.76-8.79Zm2,6.73c-.75-.25-1.42-.73-1.67-1.52-.64-1.94,.68-3.08,.92-3.17,.32-.13,.48-.09,.51-.1,.44,.24,.83,2.24,.24,4.8Zm-6.47,.16c-.27,1.65-.27,3.26,.16,4.59,.29,.91,1.2,2.4,3.56,1.62,.85-.27,1.63-.96,2.28-1.83-2.52-.22-4.83-1.56-5.99-4.38Zm0,0c-.27,1.65-.27,3.26,.16,4.59,.29,.91,1.2,2.4,3.56,1.62,.85-.27,1.63-.96,2.28-1.83-2.52-.22-4.83-1.56-5.99-4.38Zm4.47-6.89c-1.25,.4-3.16,2.7-2.21,5.68,.7,2.08,2.79,3.13,4.97,3.11,1.59-4.33,1.15-10.04-2.76-8.79Zm2,6.73c-.75-.25-1.42-.73-1.67-1.52-.64-1.94,.68-3.08,.92-3.17,.32-.13,.48-.09,.51-.1,.44,.24,.83,2.24,.24,4.8Zm-2-6.73c-1.25,.4-3.16,2.7-2.21,5.68,.7,2.08,2.79,3.13,4.97,3.11,1.59-4.33,1.15-10.04-2.76-8.79Zm2,6.73c-.75-.25-1.42-.73-1.67-1.52-.64-1.94,.68-3.08,.92-3.17,.32-.13,.48-.09,.51-.1,.44,.24,.83,2.24,.24,4.8Zm-6.47,.16c-.27,1.65-.27,3.26,.16,4.59,.29,.91,1.2,2.4,3.56,1.62,.85-.27,1.63-.96,2.28-1.83-2.52-.22-4.83-1.56-5.99-4.38Zm17.55-5.34c-.24-.25-.48-.42-.77-.55-.38,.94-.74,1.91-1.14,2.89-.04,.08-.06,.19-.12,.29-.29,.9-.63,1.76-1.02,2.5-.29,.63-.66,1.19-1.11,1.68-.81,.97-1.9,1.75-3.45,2.34-1.36,2.77-3.57,5.12-6.54,6.07-3.55,1.14-5.61,.19-6.83-1.17v-.03c-.7-.79-1.1-1.69-1.36-2.44-.06-.25-.13-.5-.18-.78v-.03c-.22-1.12-.23-2.51,0-4.01,.19-1.31,.58-2.73,1.15-4.05,1.26-2.93,3.42-5.58,6.63-6.62,4.63-1.51,7.29,.61,8.24,3.93h-.03c.43,1.52,.48,3.28,.21,5.06-.06,.37-.15,.74-.24,1.12,.24-.17,.48-.33,.7-.55,.51-.44,.88-.97,1.16-1.56,.02-.04,.05-.05,.04-.08,.54-1.21,.69-1.61,.89-2.07h.03c.05-.14,.11-.26,.15-.31,.37-.8,.72-1.62,1.06-2.41-.1,0-.2,.01-.32,.06l-.24,.09c-.3,.12-.57,.3-.8,.49-.04-.19-.1-.34-.16-.48-.43-1.5-1.18-2.78-2.22-3.77-.49-.45-1.15-.91-1.98-1.26-1.53-.66-3.62-.92-6.44-.03-.31,.09-.6,.21-.87,.31-2.96,1.25-5.13,3.69-6.55,6.48-.42,.82-.78,1.65-1.05,2.51-1,3.14-1.15,6.38-.4,8.68,.14,.42,.34,.93,.61,1.43,.32,.73,.83,1.48,1.53,2.12v.03c.25,.25,.55,.5,.88,.71,2.02,1.38,4.57,1.59,7.64,.61,.19-.04,.34-.1,.51-.17l.38-.15c.5-.2,.98-.46,1.46-.72,2.01-1.22,3.78-3.05,5.01-5.36,2.07-.9,3.39-2.21,4.33-3.72h.03c.74-1.16,1.25-2.46,1.71-3.78,0-.07,.05-.12,.06-.19,.41-1.12,.18-2.3-.6-3.12Zm-13.08-1.55c-1.25,.4-3.16,2.7-2.21,5.68,.7,2.08,2.79,3.13,4.97,3.11,1.59-4.33,1.15-10.04-2.76-8.79Zm.34,5.2c-.64-1.94,.68-3.08,.92-3.17,.32-.13,.48-.09,.51-.1,.44,.24,.83,2.24,.24,4.8-.75-.25-1.42-.73-1.67-1.52Zm-4.8,1.68c-.27,1.65-.27,3.26,.16,4.59,.29,.91,1.2,2.4,3.56,1.62,.85-.27,1.63-.96,2.28-1.83-2.52-.22-4.83-1.56-5.99-4.38Zm0,0c-.27,1.65-.27,3.26,.16,4.59,.29,.91,1.2,2.4,3.56,1.62,.85-.27,1.63-.96,2.28-1.83-2.52-.22-4.83-1.56-5.99-4.38Zm4.47-6.89c-1.25,.4-3.16,2.7-2.21,5.68,.7,2.08,2.79,3.13,4.97,3.11,1.59-4.33,1.15-10.04-2.76-8.79Zm2,6.73c-.75-.25-1.42-.73-1.67-1.52-.64-1.94,.68-3.08,.92-3.17,.32-.13,.48-.09,.51-.1,.44,.24,.83,2.24,.24,4.8Zm-2-6.73c-1.25,.4-3.16,2.7-2.21,5.68,.7,2.08,2.79,3.13,4.97,3.11,1.59-4.33,1.15-10.04-2.76-8.79Zm2,6.73c-.75-.25-1.42-.73-1.67-1.52-.64-1.94,.68-3.08,.92-3.17,.32-.13,.48-.09,.51-.1,.44,.24,.83,2.24,.24,4.8Zm-6.47,.16c-.27,1.65-.27,3.26,.16,4.59,.29,.91,1.2,2.4,3.56,1.62,.85-.27,1.63-.96,2.28-1.83-2.52-.22-4.83-1.56-5.99-4.38Z"/>
          <path class="cls-1" d="M148.93,34.34c-.59-.33-1.33-.63-2.07-1.06-.54-.28-1.07-.62-1.5-1.11-.41,.96-.95,2.15-1.47,3.36-.44,1,.28,2.28,1.63,2.65,.56,.18,1.18,.21,1.89,.03,.12-.03,.24-.08,.34-.1,1.79-.6,2.44-1.84,2.22-2.74-.13-.46-.52-.77-1.03-1.02Zm-2.56,2.03c.16-.33,.29-.64,.42-.93,.36,.18,.72,.34,1.05,.49,.14,.07,.36,.15,.5,.22-.17,.13-.43,.25-.83,.37h-.06c-.59,.14-.92-.02-1.07-.15Zm9.84-7.13l-.02,.07-.02,.04-.05,.08-.02,.04v.03c-.34,.66-.67,1.28-1,1.87-.36-.35-.75-.65-1.1-.91-.38-.25-.68-.47-.98-.67-.41-.27-1.05-.69-1.26-.9,0-.62,1-2.19,1.82-2.75,.79-.59,1.37-1.81,.64-3.45-.72-1.57-2.69-3.53-4.83-3.05l-.12,.03c-.16,.03-.49,.14-.89,.38-2.39,1.44-4.02,3.77-4.83,6.08-.51,1.31-.72,2.62-.64,3.77-.5,1.01-1.06,2.2-1.72,3.54l-.41,.83v.03s-.49,1.01-.49,1.01c-.51,1.11-.64,2.34-.39,3.56,.5-.85,1-1.87,1.59-2.96,.09-.18,.18-.39,.3-.58,.72-1.52,1.35-2.85,1.89-3.97,.23-.47,.45-.94,.66-1.34-.05-.22-.06-.44-.05-.7-.07-2.32,1.35-5.93,4.62-7.85,.08-.08,.17-.1,.27-.12,1.38-.39,3.42,2.37,2.63,2.95-1.05,.74-3.01,3.16-2.54,4.92,.39,1.41,3.24,2.27,4.61,4.16,.27,.37,.45,.75,.58,1.21l.1,.5c.38-.66,.8-1.43,1.28-2.25,.47-.88,.98-1.83,1.49-2.81,.03-.04,.05-.08,.07-.11,.1-.77,.27-1.52,.46-2.27-.97,.46-1.45,1.31-1.64,1.61Zm1.08,4.97c-.37,.7-.77,1.3-1.14,1.86-.49,.75-.98,1.37-1.42,1.89-.39,.47-.76,.84-1.07,1.1-.85,1.19-2.37,2.32-4.77,2.95-1.14,.3-2.17,.36-3.08,.19-.73-.07-1.36-.3-1.91-.57-.88-.47-1.59-1.09-2.04-1.84-.3,.58-.58,1.1-.83,1.6,.06,.12,.15,.23,.23,.34,.52,.61,1.08,1.14,1.75,1.55,.56,.37,1.14,.64,1.8,.82,1.43,.48,3.1,.55,4.78,.17,.12-.03,.28-.06,.43-.12,3.08-.81,4.78-2.3,5.69-3.5,.17-.13,.33-.3,.48-.49,.43-.42,.85-.89,1.31-1.51,.33-.43,.66-.89,1-1.44-.48-.42-.83-1-1-1.67-.08-.4-.18-.84-.21-1.32Zm-9.88,3.99c.12-.03,.24-.08,.34-.1,1.79-.6,2.44-1.84,2.22-2.74-.13-.46-.52-.77-1.03-1.02-.59-.33-1.33-.63-2.07-1.06-.54-.28-1.07-.62-1.5-1.11-.41,.96-.95,2.15-1.47,3.36-.44,1,.28,2.28,1.63,2.65,.56,.18,1.18,.21,1.89,.03Zm.43-2.27c.14,.07,.36,.15,.5,.22-.17,.13-.43,.25-.83,.37h-.06c-.59,.14-.92-.02-1.07-.15,.16-.33,.29-.64,.42-.93,.36,.18,.72,.34,1.05,.49Z"/>
          <path class="cls-1" d="M108.39,38.35c-.55,.15-.98,.3-1.32,.37-1.4,.42-2.75-1.34-3.19-2.22-.29-.46-.07-.96,.3-1.07,.06-.01,.11,.04,.17,.03,.29,0,2.6-.61,5.07-1.36,2.96-.88,6.2-1.89,6.62-2.01,1.01-.28,3.63-.02,3.15,1.68-.63,2.24-2.25,13.72-1.09,13.38,.3-.1,.73-.67,1.29-1.57v-.03c.5-.82,1.06-1.88,1.62-3.07v-.03c.51-.95,.95-1.92,1.46-2.91,.02-.04,.02-.07,.05-.08,.1-.77,.23-1.54,.4-2.29-.94,.49-1.41,1.33-1.57,1.63l-.02,.07s-.03,.04-.07,.11l-.02,.04c-.08,.24-.34,.69-.47,1.01,.29-2.33,.67-4.56,.93-5.49,.27-.9,.14-1.81-.37-2.55-.07-.18-.2-.35-.33-.48-1.25-1.33-3.48-1.41-4.65-1.13l-.25,.05c-.12,.06-.45,.16-.94,.3-1.22,.39-3.54,1.1-5.65,1.71-1.99,.58-3.67,1.06-4.45,1.23l-.15,.03s-.09,.02-.13,0l-.09,.02c-.09,.02-.19,0-.29,.03l-.09,.02-.06,.04c-.46,.13-.83,.37-1.15,.73-.25,.21-.41,.51-.54,.83-.19,.49-.21,1.02-.1,1.55,.06,.28,.19,.58,.34,.84,.7,1.31,1.93,2.68,3.45,3.11-.85,2.61-2.01,6.04-3.03,8.14-.29,.61-.58,1.13-.83,1.44-.06,.04-.08,.08-.1,.12-.58,.64-.64,.69-1.18,.87h-.03c-.44,.1-.81,.31-1.1,.63,.84-.01,1.56,.16,2.19,.52,.1,.01,.18,.06,.26,.14,.12-.19,.15-.36,.21-.53,.16-.16,.32-.33,.53-.57,.15-.19,.33-.43,.51-.69,1.61-2.55,3.53-8.53,4.77-12.56Zm14.17,5.76c-.3,.71-.64,1.43-.93,2.05-.41,.83-.81,1.53-1.17,2.16-.72,1.22-1.39,2.05-1.84,2.21-1.04,.32-4.97-.03-5.7-2.54-.77-2.6,.3-7.86,1.22-11.49-1.26,.36-2.59,.84-3.74,1.21-.83,4.23-2.27,12.23-4.28,15.51-.27,.41-.55,.77-.83,1.02-.33,.3-.71,.51-1.1,.62,.34,.68,.53,1.45,.64,2.3h.06c.12-.04,.22-.06,.34-.12,.7-.21,1.4-.59,1.95-1.06l.06-.04c1.72-1.53,2.98-5.14,4.02-9.61,.04,.97,.15,1.79,.36,2.49,1.11,3.73,6.13,4.3,7.93,3.89l.25-.05c.43-.12,1.19-.35,2.5-2.31,.32-.49,.66-1.05,1-1.74,.29-.45,.54-.99,.84-1.57-.61-.46-1.11-1.1-1.35-1.96-.1-.3-.16-.62-.23-.96Z"/>
          <path class="cls-1" d="M143.44,31.42c-1.29,.37-1.91,1.44-2.09,1.8l-.02,.04s-.36,.76-.57,1.16c0-.03,.02-.07,.01-.1v-.03c.33-2.28,.69-4.43,.98-5.34,.26-.93,.16-1.85-.35-2.59-.07-.18-.2-.32-.32-.45-1.26-1.36-3.55-1.43-4.7-1.19l-.19,.04c-.89,.25-1.61,.86-2.08,1.7-.91-.33-2.1-.43-3.59-.09l-.5,.1c-2.67,.75-4.89,2.68-6.47,5.52-.52,.92-.98,1.96-1.37,3.08-.45,1.26-.75,2.62-.93,3.93l-.02,.04c-.18,1.17-.23,2.32-.22,3.42,.51-.95,.96-1.92,1.47-2.91,.02-.04,.02-.07,.05-.08,.1-.77,.23-1.54,.4-2.29h.03c.19-.82,.41-1.62,.73-2.4v-.03c1.19-3.11,3.26-5.78,6.27-6.61,2.39-.66,3.78,.05,4.59,1.28,.22-.79,.42-1.42,.55-1.87,.19-.62,.54-.99,1.03-1.13,1.01-.28,3.61,.02,3.12,1.72-.66,2.25-2.42,13.69-1.29,13.36,.16-.03,.35-.2,.58-.48,.36-.43,.82-1.18,1.34-2.1v-.03c.5-.85,1-1.87,1.58-2.96,.09-.18,.18-.39,.3-.58,.72-1.52,1.35-2.85,1.89-3.97l-.22,.05Zm-11.86-.82c-1.87,.52-3.15,3.1-3.83,5.87-.77,3.12-.78,6.5-.05,7.48,.18,.22,.4,.34,.64,.26,3.92-1.12,6.96-14.64,3.25-13.61Zm-1.2,9.15c-.22,.5-.42,.93-.64,1.27,.05-1.76,.41-4.24,1.35-6.26,.29-.64,.55-1.09,.82-1.37,0,1.4-.44,3.92-1.52,6.36Zm11.47,.06c-.3,.58-.58,1.1-.83,1.6-.37,.7-.73,1.32-1.07,1.85-.59,.9-1.11,1.5-1.51,1.62-.06,.01-.16,.03-.29,.03-.6,.09-1.61,.05-2.62-.26-.1,.47-.18,1.17-.29,2.04,.88,.3,1.81,.43,2.6,.49,.62,.03,1.17-.02,1.57-.1l.16-.03c.49-.14,1.16-.34,2.39-2.06,.29-.45,.67-.98,1.04-1.68,.29-.48,.56-1.03,.89-1.65-.88-.47-1.59-1.09-2.04-1.84Zm-9.36,3.07s.06-.04,.12-.06c.09-.02,.18-.07,.3-.1-.06-.12-.11-.24-.15-.39-.09,.18-.18,.36-.27,.54Zm-4.15,4.83c-.77,.19-1.61,.24-2.39,.08-.64-.12-1.28-.38-1.81-.76-.61-.46-1.11-1.1-1.35-1.96-.1-.3-.16-.62-.23-.96-.3,.71-.64,1.43-.93,2.05,.34,1,.93,1.82,1.68,2.44,.51,.44,1.1,.77,1.7,1.01,1.16,.44,2.46,.59,3.65,.37,.16,0,.32-.03,.47-.07l.34-.07c.19-.04,.4-.12,.61-.19,.29-1.72,.52-3.07,.67-3.91-.54,.7-1.1,1.24-1.65,1.58-.25,.18-.52,.3-.76,.39Zm17-15.52c-.41,.96-.95,2.15-1.47,3.36-.44,1,.28,2.28,1.63,2.65,.41-.83,.8-1.76,1.21-2.75,.31-.71,.37-1.47,.14-2.14-.55-.28-1.07-.62-1.5-1.11Zm-13.78-1.59c-1.87,.52-3.15,3.1-3.83,5.87-.77,3.12-.78,6.5-.05,7.48,.18,.22,.4,.34,.64,.26,3.92-1.12,6.96-14.64,3.25-13.61Zm-1.2,9.15c-.22,.5-.42,.93-.64,1.27,.05-1.76,.41-4.24,1.35-6.26,.29-.64,.55-1.09,.82-1.37,0,1.4-.44,3.92-1.52,6.36Z"/>
          <path class="cls-2" d="M102.12,52.56c.1,.01,.18,.06,.26,.14,.12-.19,.15-.36,.21-.53-.16,.16-.3,.29-.47,.39Z"/>
          <path class="cls-1" d="M102.57,29.34c-1.8-4.85-7.7-8.84-16.82-6.79-.71,.18-1.48,.38-2.21,.59-11.91,3.77-15.51,12.28-14.99,16.75,.25,2.12,1.33,4.04,3.05,5.24,1.37,.98,3.01,1.35,4.5,1.03,.12-.03,.24-.08,.4-.12,.91-.29,1.61-.99,1.84-1.91,.19-.79-.02-1.65-.56-2.22-.25-.27-.35-.45-.4-.82-.22-1.67,.51-5.92,3.85-8.89-.16,.33-.29,.64-.38,.99l-.02,.04v.06c-.14,.68-3.45,16.28-3.89,24.26-.16,2.63,.65,4.8,2.27,6.18,.95,.81,2.48,1.62,4.88,1.6,.46,0,.93-.03,1.47-.11,.43-1.03,.93-2.05,1.47-3.04-.61,.19-1.19,.35-1.76,.43-4.88,.89-7.28-1.56-7.04-5.54,.42-7.88,3.84-23.93,3.84-23.93,.31-1.14,.89-1.65,1.93-1.96,1.16-.37,2.82-.17,2.59,1.37-.12,.51-2.81,19.23-2.79,22.6,.05,2.42,1.15,4.08,3.96,3.39,.12-.03,.28-.06,.43-.12,.85-.28,1.61-.66,2.31-1.2h.03c.79-.59,1.48-1.29,2.03-2.09,.65-.92,1.12-1.92,1.43-2.93,1.42-4.39-.27-9-5.9-7.2-.94,.3-.68-1.55,.01-1.79,8.68-2.73,9.39-20.06-3.85-15.85-8.31,2.62-9.93,10.56-9.52,13.43,.1,.79,.39,1.38,.93,1.95,.13,.17,.11,.69-.47,.88-2.22,.69-5.04-1.44-5.4-4.52-.4-3.62,2.78-11.2,13.62-14.61,17.02-5.39,23.12,10.99,9.99,17.9,5.39-.45,7.72,2.92,7.02,7.13-.05,.21-.07,.44-.16,.65-.13,.61-.36,1.24-.65,1.86,.09-.02,.19-.04,.29,0,.84-.01,1.56,.16,2.19,.52,.1,.01,.18,.06,.26,.14,.12-.19,.15-.36,.21-.53,.18-.53,.31-1.01,.43-1.52,.11-.54,.16-1.1,.17-1.66,.04-.72,.02-1.43-.12-2.12-.11-.53-.28-1.04-.49-1.55-.62-1.43-1.71-2.73-3.41-3.54,.86-.83,1.56-1.69,2.15-2.59,.46-.75,.85-1.51,1.11-2.28,.32-.78,.55-1.58,.64-2.37,.12-.84,.14-1.65,.08-2.42-.07-.96-.27-1.89-.58-2.77Zm-13.39,18.17c.06-.01,.12-.03,.21-.08,.22-.05,.43-.12,.62-.16,2.23-.5,2.8,.52,3.06,1.44,.34,1.29,.08,3.17-.81,4.81-.67,1.31-1.71,2.5-3.1,3.18-.26,.15-.59,.29-.89,.38-.15,.06-.27,.09-.43,.12-.53,.11-.89,.09-1,.02-.12-.1-.34-.55-.35-1.52-.02-1.2,.35-4.65,.85-8.49,.52,.31,1.16,.44,1.85,.29Zm-2.52-18.01c2.39-.53,5.39-.48,6.28,2.84,.9,3.38-1,8.39-4.75,9.57-.06,.01-.12,.03-.18,.07,.58-4.34,1.13-8.09,1.18-8.46l.02-.07c.18-1.14-.13-2.18-.9-2.9-.57-.53-1.35-.85-2.21-.93l.56-.12Zm13.19,25.71c-.42-.3-.95-.35-1.58-.12-.27,.09-.56,.28-.89,.58-.47,.55-.97,1.08-1.55,1.59-.02,.04-.05,.08-.11,.09-1.21,1.52-2.47,3.57-3.47,5.73,1.89-.92,3.42-1.95,4.69-3.03,1-.79,1.8-1.61,2.46-2.37,0-.03,.02-.04,.02-.04,.23-.28,.44-.52,.65-.79,.15-.19,.33-.43,.46-.62,.05-.08,.07-.11,.12-.19-.16-.13-.28-.23-.4-.37-.16-.13-.29-.3-.39-.47Z"/>
        </g>
      </g>
    </g>
  </g>
</svg>