<?xml version="1.0" encoding="UTF-8"?>
<svg id="Capa_2" data-name="Capa 2" xmlns="http://www.w3.org/2000/svg" viewBox="0 0 246.99 103.3">
  <defs>
    <style>
      .cls-1 {
        fill: #fff;
      }

      .cls-2 {
        fill: none;
        stroke: #fff;
        stroke-miterlimit: 10;
      }
    </style>
  </defs>
  <g id="Capa_1-2" data-name="Capa 1">
    <path class="cls-1" d="M5.21,27.38c3.14,0,8.36-2.07,8.73-4.45,.41-2.73-12.8-3.7-11.7-9.42C3.29,7.97,12.1,0,17.81,0c10.81,0,2.94,14.84-1.39,14.84-.57,0-2.16-1.36-2.73-2.2-.16-.22-.16-.92,.24-1.01,4.77-1.19,8.07-9.07,4.69-9.07-2.61,0-10.11,6.91-10.81,10.65-.65,3.35,10.36,4.53,9.58,9.99-.73,5.33-8.52,9.6-12.72,9.6C-.74,32.8-.25,26.24,.6,25.09c.08-.13,.24-.22,.37-.22s.24,.09,.28,.22c.16,1.76,2.69,2.29,3.96,2.29Z"/>
    <path class="cls-1" d="M27.84,14.53c2.81,0,3.96,1.81,3.96,3.65,0,3.52-2.89,5.11-5.83,5.11-.57,0-1.14-.04-1.67-.18-.24,.79-.41,1.63-.41,2.38,0,.84,.33,2.33,2.37,2.33,2.2,0,4.45-2.64,6.73-5.37,.33-.35,.61-.53,.9-.53,.61,0,.94,.7,.45,1.36-2.73,3.79-5.87,7.53-9.26,7.53-4.77,0-5.46-3.35-5.46-5.28,0-3.83,4.04-11.01,8.24-11.01Zm-1.96,6.69c2,0,4.04-.88,4.04-3.17,0-.57-.24-1.06-.86-1.06-1.14,0-2.85,1.89-4,4.18,.29,.04,.53,.04,.82,.04Z"/>
    <path class="cls-1" d="M33.59,23.73c-.61,0-1.06-.7-.61-1.28,1.3-1.58,2.57-3.26,3.55-4.53h-.49c-1.18,0-1.84-1.85-2-2.68-.12-.49,.16-.84,.49-.84,.04,0,.08,.05,.12,.05,.24,.09,2.12,.13,4.12,.13,2.45,0,5.1-.04,5.46-.04,.86,0,2.85,.88,2.08,2.2-1.02,1.76-4.94,11.09-3.96,11.09,.69,0,2.94-2.64,5.22-5.37,.33-.35,.61-.53,.9-.53,.61,0,.94,.7,.45,1.36-2.73,3.79-5.87,7.53-6.93,7.53-.9,0-3.92-1.28-3.92-3.57,0-2.42,2.08-6.6,3.63-9.46-1.18,.04-2.45,.09-3.51,.09-.94,1.32-2.37,3.39-3.87,5.41-.24,.31-.49,.44-.73,.44Z"/>
    <path class="cls-1" d="M46.22,27.25c0-3.35,4-10.17,5.1-12.02,.29-.49,.65-.7,1.06-.7,.86,0,2.85,.88,2.08,2.2-.9,1.58-4.12,9.16-4.12,10.21,0,.57,.16,.88,.81,.88,1.39,0,5.87-4.62,7.71-9.69,.53-1.41,1.22-3.52,.9-5.06-.04-.31,.29-.57,.69-.57,1.83,0,3.18,1.89,3.18,3.74,0,.75-.12,1.54-.49,2.38-2.16,5.24-10.52,12.19-12.44,12.19-1.47,0-4.49-1.28-4.49-3.57Z"/>
    <path class="cls-1" d="M71.83,22.45c.32-.35,.61-.53,.9-.53,.61,0,.94,.7,.45,1.36-2.73,3.79-5.87,7.53-6.93,7.53-.9,0-3.91-1.28-3.91-3.57,0-3.35,4-10.17,5.1-12.02,.29-.49,.65-.7,1.06-.7,.86,0,2.85,.88,2.08,2.2-1.02,1.76-4.93,11.09-3.95,11.09,.69,0,2.93-2.64,5.22-5.37Zm-.61-9.33c-.86,0-2.45-.88-2.16-1.76,.12-.4,1.14-3.52,1.75-4.8,.29-.57,.78-.79,1.35-.79,1.43,0,3.3,1.54,2.73,2.47-.73,1.23-2.69,3.83-3.18,4.67-.08,.13-.24,.22-.49,.22Z"/>
    <path class="cls-1" d="M71.22,25.53c0-3.83,4.04-11.01,8.24-11.01,5.02,0,4.69,5.72,2.2,7.18-.08,.04-.2,.09-.32,.09-.61,0-1.47-.84-.98-1.15,1.06-.75,1.84-3.65,.33-3.65-1.84,0-5.18,4.98-5.18,8.5,0,.84,.33,2.33,2.37,2.33,2.2,0,4.45-2.64,6.73-5.37,.33-.35,.61-.53,.9-.53,.61,0,.94,.7,.45,1.36-2.73,3.79-5.87,7.53-9.26,7.53-4.77,0-5.46-3.35-5.46-5.28Z"/>
    <path class="cls-1" d="M92.75,22.45c.32-.35,.61-.53,.9-.53,.61,0,.94,.7,.45,1.36-2.73,3.79-5.87,7.53-6.93,7.53-.9,0-3.91-1.28-3.91-3.57,0-3.35,4-10.17,5.1-12.02,.29-.49,.65-.7,1.06-.7,.86,0,2.85,.88,2.08,2.2-1.02,1.76-4.93,11.09-3.95,11.09,.69,0,2.93-2.64,5.22-5.37Zm-.61-9.33c-.86,0-2.45-.88-2.16-1.76,.12-.4,1.14-3.52,1.75-4.8,.29-.57,.78-.79,1.35-.79,1.43,0,3.3,1.54,2.73,2.47-.73,1.23-2.69,3.83-3.18,4.67-.08,.13-.24,.22-.49,.22Z"/>
    <path class="cls-1" d="M101.96,14.53c6.2,0,6.53,6.03,3.83,10.74,.77-.22,1.47-.66,2-1.28,.73-.88,.98-1.23,1.26-1.54,.29-.35,.61-.53,.9-.53,.57,0,.94,.7,.45,1.36-1.67,2.42-3.1,4.05-6.16,4.18-1.75,1.98-4.08,3.35-6.65,3.35-4.77,0-5.46-3.35-5.46-5.28,0-3.83,4.04-11.01,9.83-11.01Zm-3.18,13.29c.73,0,1.51-.35,2.24-.92-1.92-.88-3.38-2.64-3.59-5.33-.61,1.32-1.02,2.69-1.02,3.92,0,.84,.33,2.33,2.37,2.33Zm3.87-10.83c-1.06,0-3.14,1.41-3.14,4.18,0,1.94,1.39,3.39,3.1,3.96,2.32-3.22,3.43-8.15,.04-8.15Z"/>
    <path class="cls-1" d="M128.05,14.53c2.04,0,2.98,.92,3.34,2.16,.37-.62,.65-1.1,.86-1.45,.29-.49,.65-.7,1.06-.7,.86,0,2.85,.88,2.08,2.2-1.02,1.76-4.94,11.09-3.96,11.09,.69,0,2.93-2.64,5.22-5.37,.33-.35,.61-.53,.9-.53,.57,0,.94,.7,.45,1.36-2.77,3.79-5.87,7.53-6.93,7.53-.9,0-3.87-1.23-3.91-3.52-1.59,1.98-3.34,3.52-4.69,3.52-1.79,0-3.79-1.36-3.79-3.57,0-4.49,3.87-12.72,9.38-12.72Zm-4.81,13.29c3.34,0,8.73-10.83,5.55-10.83-3.83,0-7.5,10.83-5.55,10.83Z"/>
    <path class="cls-1" d="M15.94,71.21H5.26c-3.51,0-5.26-1.54-5.26-4.62v-26.63c0-3.08,1.75-4.62,5.26-4.62H15.94c5.86,.67,9.9,3.91,12.12,9.73,1.1,2.71,1.65,5.45,1.65,8.22s-.55,5.51-1.65,8.2c-2.21,5.81-6.25,9.05-12.12,9.73Zm4.01-18.26c-.02-6.75-2.52-10.21-7.52-10.39h-1.91v21.26l1.91,.05c5.03-.53,7.54-4.17,7.52-10.92Z"/>
    <path class="cls-1" d="M69.57,52.93c0,5.55-1.8,10.03-5.39,13.46-3.6,3.43-8.15,5.14-13.66,5.14s-10.04-1.71-13.61-5.14-5.34-7.91-5.34-13.46,1.77-10.04,5.31-13.49,8.11-5.17,13.7-5.17,10.15,1.72,13.68,5.17c3.53,3.45,5.3,7.94,5.3,13.49Zm-12.6-6.67c-1.59-1.75-3.72-2.63-6.38-2.63s-4.79,.88-6.4,2.64c-1.61,1.76-2.42,3.99-2.42,6.67s.81,4.89,2.42,6.63,3.74,2.6,6.39,2.6,4.78-.88,6.38-2.63c1.6-1.75,2.4-3.97,2.4-6.64s-.8-4.89-2.39-6.64Z"/>
    <path class="cls-1" d="M89.36,46.39l7.39-8.88c1.2-1.45,2.84-2.18,4.89-2.18,3.51,0,5.26,1.54,5.26,4.62v26.63c0,3.08-1.75,4.62-5.26,4.62s-5.26-1.54-5.26-4.62v-14.67l-7.02,8.24-7.02-8.18v14.61c0,3.08-1.75,4.62-5.26,4.62s-5.26-1.54-5.26-4.62v-26.63c0-3.14,1.75-4.68,5.26-4.62,2.02,.02,3.63,.74,4.84,2.18l7.44,8.88Z"/>
    <path class="cls-1" d="M155.66,64.77c0,1.28-1.02,2.73-3.06,4.34-2.04,1.61-5.81,2.42-11.32,2.42s-10.04-1.71-13.61-5.14c-3.56-3.43-5.34-7.91-5.34-13.46s1.77-10.04,5.31-13.49c3.54-3.45,8.11-5.17,13.7-5.17s9.37,.81,11.35,2.42,2.96,3.06,2.96,4.34-.43,2.43-1.28,3.43-1.79,1.5-2.8,1.5-2.63-.39-4.84-1.17c-2.21-.78-3.86-1.17-4.96-1.17-5.95,0-8.93,3.09-8.93,9.27s2.98,9.27,8.93,9.27c1.1,0,2.75-.39,4.96-1.17s3.82-1.17,4.84-1.17,1.95,.5,2.8,1.5,1.28,2.14,1.28,3.43Z"/>
    <path class="cls-1" d="M120.08,66.59c0,3.08-1.75,4.62-5.26,4.62s-5.26-1.54-5.26-4.62v-26.63c0-3.08,1.75-4.62,5.26-4.62s5.26,1.54,5.26,4.62v26.63Z"/>
    <path class="cls-1" d="M168.84,66.59c0,3.08-1.75,4.62-5.26,4.62s-5.26-1.54-5.26-4.62v-26.63c0-3.08,1.75-4.62,5.26-4.62s5.26,1.54,5.26,4.62v26.63Z"/>
    <path class="cls-1" d="M190.26,71.21h-13.5c-3.51,0-5.26-1.54-5.26-4.62v-26.63c0-3.08,1.75-4.62,5.26-4.62s5.26,1.54,5.26,4.62v22.8h8.24c2.2,0,3.29,1.41,3.29,4.23s-1.1,4.23-3.29,4.23Z"/>
    <path class="cls-1" d="M206.73,66.59c0,3.08-1.75,4.62-5.26,4.62s-5.26-1.54-5.26-4.62v-26.63c0-3.08,1.75-4.62,5.26-4.62s5.26,1.54,5.26,4.62v26.63Z"/>
    <path class="cls-1" d="M246.99,52.93c0,5.55-1.8,10.03-5.39,13.46-3.6,3.43-8.15,5.14-13.66,5.14s-10.04-1.71-13.61-5.14c-3.56-3.43-5.34-7.91-5.34-13.46s1.77-10.04,5.31-13.49c3.54-3.45,8.11-5.17,13.7-5.17s10.15,1.72,13.68,5.17c3.53,3.45,5.3,7.94,5.3,13.49Zm-12.6-6.67c-1.59-1.75-3.72-2.63-6.38-2.63s-4.79,.88-6.4,2.64-2.42,3.99-2.42,6.67,.81,4.89,2.42,6.63,3.74,2.6,6.39,2.6,4.78-.88,6.38-2.63c1.6-1.75,2.4-3.97,2.4-6.64s-.8-4.89-2.39-6.64Z"/>
    <rect class="cls-2" x="1.52" y="86.42" width="103.28" height="16.38" rx="8.19" ry="8.19"/>
    <circle class="cls-1" cx="10.25" cy="94.61" r="5.98"/>
    <g>
      <path class="cls-1" d="M20.6,92.07v1.99h2.34v.91h-2.34v2.07h2.63v.91h-3.74v-6.78h3.74v.91h-2.63Z"/>
      <path class="cls-1" d="M28.44,92.75c.33,.18,.6,.43,.78,.78,.19,.34,.28,.76,.28,1.25v3.16h-1.1v-3c0-.48-.12-.85-.36-1.1-.24-.26-.57-.38-.98-.38s-.74,.13-.99,.38c-.24,.26-.37,.62-.37,1.1v3h-1.11v-5.36h1.11v.61c.18-.22,.41-.39,.7-.52,.28-.12,.58-.18,.9-.18,.42,0,.8,.09,1.13,.26Z"/>
      <path class="cls-1" d="M38.3,92.58v5.36h-1.11v-.63c-.18,.22-.4,.39-.69,.52-.28,.13-.58,.19-.9,.19-.42,0-.8-.09-1.13-.26-.33-.18-.6-.43-.79-.78-.19-.34-.29-.76-.29-1.25v-3.15h1.1v2.99c0,.48,.12,.85,.36,1.1,.24,.26,.57,.38,.98,.38s.74-.13,.99-.38c.24-.26,.37-.62,.37-1.1v-2.99h1.11Z"/>
      <path class="cls-1" d="M43.6,92.75c.33,.18,.6,.43,.78,.78,.19,.34,.28,.76,.28,1.25v3.16h-1.1v-3c0-.48-.12-.85-.36-1.1-.24-.26-.57-.38-.98-.38s-.74,.13-.99,.38c-.24,.26-.37,.62-.37,1.1v3h-1.11v-5.36h1.11v.61c.18-.22,.41-.39,.7-.52,.28-.12,.58-.18,.9-.18,.42,0,.8,.09,1.13,.26Z"/>
      <path class="cls-1" d="M49.42,97.8c-.33-.15-.6-.36-.79-.62s-.3-.56-.31-.88h1.15c.02,.23,.13,.42,.33,.57,.2,.15,.45,.23,.74,.23s.55-.06,.73-.18c.17-.12,.26-.27,.26-.46,0-.2-.1-.35-.29-.45-.19-.1-.49-.2-.91-.32-.4-.11-.73-.22-.98-.32s-.47-.26-.66-.48c-.19-.21-.28-.5-.28-.85,0-.29,.08-.55,.25-.78s.41-.42,.73-.56c.31-.14,.68-.2,1.09-.2,.61,0,1.1,.15,1.47,.46,.37,.31,.57,.73,.6,1.26h-1.11c-.02-.24-.12-.43-.29-.57-.18-.14-.41-.21-.71-.21s-.52,.06-.67,.17c-.16,.11-.23,.26-.23,.44,0,.14,.05,.26,.16,.36,.1,.1,.23,.17,.38,.23,.15,.06,.37,.13,.66,.21,.39,.1,.71,.21,.96,.32,.25,.11,.47,.26,.65,.47s.28,.48,.28,.83c0,.31-.08,.58-.25,.82-.17,.24-.41,.43-.72,.56-.31,.14-.67,.2-1.09,.2s-.8-.08-1.13-.23Z"/>
      <path class="cls-1" d="M54.76,97.69c-.41-.23-.73-.55-.96-.97-.23-.42-.35-.9-.35-1.46s.12-1.03,.36-1.45c.24-.42,.57-.75,.98-.97,.42-.23,.88-.34,1.39-.34s.98,.11,1.39,.34c.41,.23,.74,.55,.98,.97,.24,.42,.36,.91,.36,1.45s-.12,1.03-.37,1.45c-.25,.42-.58,.75-1.01,.98-.42,.23-.89,.35-1.41,.35s-.96-.12-1.37-.35Zm2.18-.82c.25-.14,.45-.34,.61-.61,.16-.27,.23-.6,.23-.99s-.07-.72-.22-.99-.35-.47-.59-.61c-.25-.14-.51-.2-.8-.2s-.55,.07-.79,.2-.44,.34-.58,.61c-.14,.27-.21,.6-.21,.99,0,.58,.15,1.02,.44,1.34,.3,.31,.67,.47,1.11,.47,.29,0,.55-.07,.8-.2Z"/>
      <path class="cls-1" d="M61.13,90.74v7.2h-1.11v-7.2h1.11Z"/>
      <path class="cls-1" d="M63.55,97.69c-.41-.23-.73-.55-.96-.97-.23-.42-.35-.9-.35-1.46s.12-1.03,.36-1.45c.24-.42,.57-.75,.98-.97,.42-.23,.88-.34,1.39-.34s.98,.11,1.39,.34c.41,.23,.74,.55,.98,.97,.24,.42,.36,.91,.36,1.45s-.12,1.03-.37,1.45c-.25,.42-.58,.75-1.01,.98-.42,.23-.89,.35-1.41,.35s-.96-.12-1.37-.35Zm2.18-.82c.25-.14,.45-.34,.61-.61,.16-.27,.23-.6,.23-.99s-.07-.72-.22-.99-.35-.47-.59-.61c-.25-.14-.51-.2-.8-.2s-.55,.07-.79,.2-.44,.34-.58,.61c-.14,.27-.21,.6-.21,.99,0,.58,.15,1.02,.44,1.34,.3,.31,.67,.47,1.11,.47,.29,0,.55-.07,.8-.2Z"/>
      <path class="cls-1" d="M72.44,90.74v7.2h-1.11v-7.2h1.11Z"/>
      <path class="cls-1" d="M78.76,92.58v5.36h-1.11v-.63c-.18,.22-.4,.39-.69,.52-.28,.13-.58,.19-.9,.19-.42,0-.8-.09-1.13-.26-.33-.18-.6-.43-.79-.78-.19-.34-.29-.76-.29-1.25v-3.15h1.1v2.99c0,.48,.12,.85,.36,1.1,.24,.26,.57,.38,.98,.38s.74-.13,.99-.38c.24-.26,.37-.62,.37-1.1v-2.99h1.11Z"/>
      <path class="cls-1" d="M83.49,92.74c.32,.17,.57,.37,.75,.62v-.78h1.12v5.45c0,.49-.1,.93-.31,1.32-.21,.39-.51,.69-.9,.91-.39,.22-.86,.33-1.41,.33-.73,0-1.33-.17-1.81-.51-.48-.34-.75-.8-.82-1.39h1.1c.08,.28,.26,.5,.54,.68,.28,.17,.61,.26,.99,.26,.45,0,.81-.14,1.09-.41,.28-.27,.41-.67,.41-1.19v-.9c-.19,.25-.44,.47-.76,.64-.32,.17-.69,.26-1.1,.26-.47,0-.89-.12-1.28-.36-.39-.24-.69-.57-.92-.99s-.34-.91-.34-1.45,.11-1.02,.34-1.43,.53-.74,.92-.97c.39-.23,.81-.35,1.28-.35,.41,0,.78,.08,1.1,.25Zm.53,1.55c-.15-.27-.35-.48-.6-.62-.25-.14-.51-.21-.8-.21s-.55,.07-.8,.21c-.25,.14-.45,.34-.6,.61-.15,.27-.23,.59-.23,.96s.08,.69,.23,.97,.35,.49,.6,.64c.25,.15,.51,.22,.79,.22s.55-.07,.8-.21c.25-.14,.45-.35,.6-.63,.15-.28,.23-.6,.23-.97s-.08-.69-.23-.96Z"/>
      <path class="cls-1" d="M86.79,93.81c.22-.42,.53-.74,.92-.97,.39-.23,.81-.35,1.28-.35,.42,0,.79,.08,1.1,.25,.31,.17,.57,.37,.75,.62v-.78h1.12v5.36h-1.12v-.8c-.19,.25-.44,.46-.77,.63s-.69,.25-1.11,.25c-.46,0-.88-.12-1.27-.36s-.69-.57-.91-.99-.34-.91-.34-1.45,.11-1.02,.34-1.43Zm3.83,.49c-.15-.27-.35-.48-.6-.62-.25-.14-.51-.21-.8-.21s-.55,.07-.8,.21c-.25,.14-.45,.34-.6,.61-.15,.27-.23,.59-.23,.96s.08,.69,.23,.97,.35,.49,.6,.64c.25,.15,.51,.22,.79,.22s.55-.07,.8-.21c.25-.14,.45-.35,.6-.63,.15-.28,.23-.6,.23-.97s-.08-.69-.23-.96Z"/>
      <path class="cls-1" d="M95.18,92.72c.27-.15,.59-.23,.96-.23v1.15h-.28c-.43,0-.76,.11-.99,.33s-.34,.6-.34,1.15v2.82h-1.11v-5.36h1.11v.78c.16-.27,.38-.49,.65-.64Z"/>
    </g>
  </g>
</svg>