<?xml version="1.0" encoding="UTF-8"?>
<svg id="Capa_2" data-name="Capa 2" xmlns="http://www.w3.org/2000/svg" viewBox="0 0 226.11 176.54">
  <defs>
    <style>
      .cls-1 {
        fill: #fff;
      }

      .cls-2 {
        fill: #d5dce2;
      }

      .cls-3 {
        fill: #ffad01;
      }

      .cls-4 {
        fill: #e86877;
      }

      .cls-5 {
        fill: #d92026;
      }

      .cls-6 {
        fill: #feb100;
      }

      .cls-7 {
        fill: #3d1219;
      }

      .cls-8 {
        fill: #bf3e50;
      }

      .cls-9 {
        fill: #141833;
      }

      .cls-10 {
        fill: #fdb93e;
      }

      .cls-11 {
        fill: #7b1312;
      }

      .cls-12 {
        fill: #bd212f;
      }

      .cls-13 {
        fill: #d94f35;
      }

      .cls-14 {
        fill: #e18425;
      }

      .cls-15 {
        fill: #aabcd4;
      }

      .cls-16 {
        fill: #7b1314;
      }

      .cls-17 {
        fill: #1d1d1b;
      }

      .cls-18 {
        fill: #f5ffff;
      }
    </style>
  </defs>
  <g id="Capa_1-2" data-name="Capa 1">
    <g id="Capa_1-2" data-name="Capa 1-2">
      <g>
        <path class="cls-18" d="M125.54,12.35c-.58-.42-1.2-.84-1.83-1.26-.52-.31-1.05-.63-1.62-.94h0c-.68-.37-1.36-.73-2.04-1.05-4.66-2.25-9.89-3.45-15.44-3.45h-1.05c-.68,0-1.31,.05-1.99,.1h0c-.52,0-1.05,.1-1.57,.16-.63,.05-1.26,.16-1.83,.26-.99,.16-1.94,.37-2.88,.63h0c-.89,.26-1.78,.52-2.67,.84h0c-2.98,1.05-5.76,2.46-8.27,4.24-.68,.47-1.36,.94-1.99,1.47-8.37,6.59-13.77,16.85-13.77,28.32,0,19.89,16.17,36.06,36.06,36.06,4.19,0,8.22-.73,11.99-2.04h0c1.47-.52,2.93-1.15,4.29-1.83h0c.37-.16,.68-.37,.99-.52,.58-.31,1.1-.63,1.62-.94,.37-.21,.68-.42,1.05-.68h0s.47-.31,.73-.47c.37-.26,.73-.52,1.1-.84,.42-.31,.84-.63,1.2-.99,.63-.52,1.26-1.1,1.83-1.67,.52-.47,.99-.99,1.52-1.52h0c.42-.42,.79-.89,1.15-1.31,.42-.47,.79-.94,1.15-1.47,4.61-6.02,7.33-13.61,7.33-21.77,0-12.09-5.97-22.77-15.13-29.31h.05Zm7.12,50.09c-.37,.47-.73,.94-1.1,1.41-.37,.42-.68,.84-1.05,1.26-.42,.42-.79,.89-1.26,1.31-1.15,1.15-2.36,2.2-3.61,3.14-.26,.16-.47,.37-.73,.52-.37,.26-.73,.52-1.1,.73-.21,.16-.47,.31-.68,.42s-.42,.26-.63,.37c0,0-.1,.05-.16,.1-.47,.26-.89,.52-1.36,.79-2.15,1.15-4.4,2.04-6.75,2.72-3.04,.89-6.28,1.36-9.63,1.36-19.26,0-34.91-15.65-34.91-34.91,0-7.48,2.41-14.45,6.44-20.15h0c1.73-2.41,3.72-4.61,5.97-6.49,.21-.16,.37-.31,.58-.47,.31-.26,.68-.52,.99-.79,3.3-2.46,7.01-4.4,11.04-5.55h0c.73-.21,1.52-.42,2.25-.58,.31-.05,.58-.1,.89-.21,.58-.1,1.15-.21,1.78-.31,.47-.05,.99-.1,1.47-.16h0c.63-.05,1.2-.1,1.83-.16h1.62c5.71,0,11.1,1.36,15.86,3.82,.63,.31,1.26,.68,1.88,1.05,.52,.31,1.05,.63,1.52,.94,.58,.37,1.15,.79,1.73,1.2,8.43,6.39,13.92,16.49,13.92,27.9,0,7.75-2.56,14.97-6.86,20.73h.05Z"/>
        <path class="cls-18" d="M82.98,66.42c-6.91-6.02-11.25-14.86-11.25-24.76,0-5.76,1.47-11.2,4.08-15.86,.05,.52,.16,1.05,.26,1.52,.31,1.2,.79,2.36,1.36,3.4-1.62,2.77-2.04,6.07-1.1,9.05,.52,1.67,1.41,3.25,2.62,4.5,1.26,1.31,2.77,2.3,4.61,2.93,1.47,.52,2.93,.73,4.34,.84-3.4,4.61-7.38,11.88-4.92,18.27v.1Z"/>
        <path class="cls-3" d="M131.08,55.32v1.62l-.05,.31v.99l-.47-1.26-.58-1.52h0v-.1h0c-.21-.47-.84-1.83-2.09-3.09-2.04-2.04-4.76-2.77-8.01-2.25-.58,.1-1.1,.16-1.67,.16h-1.88c.31,.63,.52,1.26,.73,1.83,.21,.63,.37,1.2,.47,1.83,.16,.68,.21,1.31,.26,1.94,.26,.26,.79,.84,1.73,1.52,1.31,.94,3.3,1.99,6.12,2.56,1.73,.37,3.35,1.26,4.61,2.41-.31,.42-.68,.79-.99,1.2-.37,.42-.79,.84-1.15,1.26-1.41,1.47-2.98,2.77-4.66,3.93-.21,.16-.42,.31-.68,.47-.26,.16-.52,.37-.79,.52-.1,.05-.21,.1-.31,.16-.05,0-.1,.1-.21,.1h0l-.31,.16h-.05c-.47,.26-.94,.52-1.41,.79-.99,.52-2.04,.99-3.09,1.41-.99,.37-1.94,.73-2.98,.99-.73,.21-1.47,.37-2.2,.52-.99,.21-2.04,.37-3.09,.52-.99,.1-1.99,.16-2.98,.21h-.73c-.99,0-1.99,0-2.98-.16-2.62-.26-5.18-.79-7.59-1.62h-.05c-.52-.16-1.05-.37-1.57-.58-1.94-.79-3.82-1.73-5.55-2.88-.79-.79-1.41-1.67-1.94-2.67-3.45-6.96,3.04-15.81,5.02-18.42,.21-.26,.37-.47,.47-.58-.16-.37-.26-.73-.37-1.15-.1,0-.16,.05-.26,.05h-.63c-1.67-.05-3.4-.26-5.02-.84-1.47-.52-2.83-1.36-3.93-2.51-1.05-1.1-1.78-2.41-2.25-3.87-.73-2.3-.47-4.82,.58-6.96,.26-.58,.58-1.1,.94-1.57-.37-.47-.68-.99-.94-1.57,0-.05-.05-.1-.1-.16h0c-.31-.68-.58-1.36-.73-2.09-.31-1.26-.42-2.56-.21-3.87h0c.37-.58,.79-1.1,1.2-1.62h0s.26-.31,.37-.47c.94-1.15,1.94-2.25,3.04-3.25,.05-.05,.16-.1,.21-.16,0,0,.1-.05,.1-.1,.1-.1,.21-.21,.31-.31,.21-.16,.42-.37,.63-.52,.16-.1,.26-.21,.42-.31,.42-.37,.89-.68,1.31-1.05,3.66-2.72,7.9-4.66,12.51-5.65h.16c.58-.1,1.1-.21,1.67-.31h.1c.37-.05,.68-.1,1.05-.16,.58-.05,1.15-.1,1.73-.16,.73,0,1.47-.05,2.2-.05,5.86,0,11.41,1.57,16.17,4.24,.58,.31,1.15,.68,1.73,1.05,.47,.31,.94,.63,1.36,.94,0,.37-.05,.73-.1,1.1-.26,2.2-.84,4.4-1.67,6.44-.73,1.67-1.62,3.3-2.77,4.71-.21,.26-.42,.52-.68,.79-.16,.16-.31,.31-.47,.47s-.31,.31-.47,.47c-.1,.1-.21,.21-.31,.26,0,0-.05,.05-.1,.1-.31,.31-.68,.58-1.05,.89,.1,0,.26,.05,.37,.1,.47,.16,.89,.42,1.26,.73h0c.1,.1,.21,.21,.31,.31,.21,.21,.37,.47,.52,.73,.63,1.05,.84,2.3,.84,3.45,0,.73-.05,1.47-.21,2.2-.1,.58-.26,1.1-.47,1.62,.58,.1,1.1,.26,1.62,.42,1.1,.37,2.2,.84,3.25,1.41,3.09,1.73,5.34,4.66,6.49,8.58,.84,2.93,.79,5.29,.79,5.39l.21-.05Z"/>
        <path class="cls-1" d="M129.46,58.88l.31,.84c-1.15-.73-2.46-1.31-3.82-1.57-3.66-.73-5.76-2.36-6.59-3.14-.1-1.1-.31-2.15-.63-3.19,.47,0,.89-.1,1.36-.16,.58-.1,1.15-.16,1.67-.16,1.99,0,3.56,.63,4.87,1.94,1.05,1.05,1.57,2.2,1.73,2.51v.1l.47,1.36h0l.52,1.47h.1Z"/>
        <path class="cls-18" d="M132.76,55.38c0-.26,0-2.83-.89-5.91-1.26-4.34-3.77-7.64-7.33-9.58-1.15-.63-2.36-1.15-3.56-1.52,.21-.89,.26-1.78,.26-2.67,0-.52-.05-1.15-.21-1.83h0c0-.1,0-.21-.05-.26h0c0-.37-.16-.73-.31-1.1-.1-.31-.26-.63-.47-.99-.1-.21-.26-.47-.42-.68,.1,.26,.21,.47,.21,.52-.31-.42-.68-.79-1.1-1.1h0c.05-.05,.16-.16,.21-.21,.05-.05,.1-.1,.16-.16,.21-.21,.37-.42,.58-.58,.21-.21,.42-.47,.58-.68,1.26-1.52,2.3-3.3,3.14-5.29,.94-2.2,1.57-4.55,1.83-6.91v-.05c7.33,6.02,11.99,15.18,11.99,25.38,0,6.18-1.73,11.99-4.71,16.91v-3.19l.1-.1Z"/>
        <path class="cls-18" d="M121.04,33.55c-.1-.37-.21-.73-.31-1.1,.16,.31,.26,.68,.31,1.1Z"/>
        <path class="cls-14" d="M103.87,44.12s10-.79,10.15-.79h7.75s2.62,2.2,2.77,2.3c.16,.1,2.83,1.52,2.93,1.73,.1,.21,2.62,5.86,2.62,5.86l-3.14-2.15-1.99-1.26-2.83-.47-3.14,.21s-2.98,.1-3.09,.16-3.72-.73-3.72-.73l-3.72-1.31-3.66-2.41-.99-1.31v.16h.05Z"/>
        <path class="cls-8" d="M112.87,52.65s-5.55-2.25-6.7-4.03c0,0,0-.05-.05-.1,.99,.58,2.36,1.15,3.09,1.26,.31,0,.68,.1,.99,.21,1.26,.37,2.25,1.41,2.72,2.67h-.05Z"/>
        <path class="cls-4" d="M112.71,51.82l-1.05-1.52-1.73-.99-3.98-1.05-1.05-.26,.84,1.52,5.91,6.65h1.2l.1-.21,.84-1.73-1.1-2.46v.05Zm-6.59-3.3c.99,.58,2.36,1.15,3.09,1.26,.31,0,.68,.1,.99,.21,1.26,.37,2.25,1.41,2.72,2.67,0,0-5.55-2.25-6.7-4.03,0,0,0-.05-.05-.1h-.05Z"/>
        <path class="cls-7" d="M112.87,52.65c-.47-1.26-1.41-2.3-2.72-2.67-.31-.1-.68-.16-.99-.21-.73-.1-2.04-.68-3.09-1.26h0s-.1-.16-.16-.26c-.52-.84-.94-1.62-1.31-2.3,1.57,.99,3.98,2.3,6.8,3.19h0s.1,.1,.1,.16h0c.05,.1,.16,.21,.21,.31,.16,.21,.26,.42,.37,.68,0,0,0,.1,.05,.16h0c0,.1,.1,.26,.16,.37,.1,.26,.16,.52,.21,.79,.05,.26,.1,.52,.16,.73h0l.21,.31Z"/>
        <path class="cls-1" d="M118.16,36.43s0,.37-.05,.58h0v.42c-.05,.37-.16,.79-.26,1.15-.05,.16-.1,.37-.16,.52,0,.05,0,.1-.05,.16-.47-.05-.89-.1-1.36-.1,.16-.31,.26-.68,.31-1.1,.16-1.26-.37-2.36-1.2-2.46-.84-.1-1.62,.84-1.78,2.09-.05,.58,0,1.1,.16,1.57h-.21c-.52,.05-1.05,.16-1.52,.26,.42-1.67,.58-3.51,.1-5.18,0-.05,0-.16,.05-.26v-.21c0-.1,.05-.21,.1-.37v-.26h0c0-.05,.05-.1,.1-.16,0-.1,.1-.16,.16-.26,0,0,.05-.1,.1-.1h0c.16-.16,.31-.31,.47-.47h0s.05,0,.1-.05c.1-.05,.21-.1,.31-.16,.1,0,.16-.1,.26-.1h0s.1,0,.16-.05c.21-.05,.42-.1,.63-.16h.79c.21,0,.42,.1,.63,.16h.1c.1,0,.21,.1,.31,.16,0,0,.05,0,.1,.05,0,0,.05,.05,.1,.05h.05s.1,.1,.16,.1c.1,.05,.16,.16,.21,.26h0l.05,.05v.05c.05,.1,.16,.21,.21,.37,0,0,0,.1,.05,.16h0c0,.05,0,.1,.05,.16,.1,.31,.21,.63,.26,.99,0,.16,.05,.31,.1,.47h0v1.52l.37,.16Z"/>
        <path class="cls-1" d="M110.88,37.58v.26h0v.26c0,.26-.1,.58-.16,.84-.05,.31-.16,.58-.21,.84h0c-.26,.05-.47,.16-.68,.21,.21-.42,.26-.94,.26-1.52-.05-1.36-.84-2.41-1.73-2.36-.89,0-1.52,1.2-1.47,2.56,.05,.99,.52,1.88,1.1,2.2-.1,.05-.21,.1-.31,.16-.37-.16-1.1-.47-1.99-.73v-.1c-.16-.26-.26-.52-.42-.79,0-.05-.05-.1-.1-.21h0c0-.1-.1-.21-.1-.31-.16-.47-.31-.94-.42-1.41,0-.16-.05-.37-.1-.52h0v-.05h0v-1.41h0v-.1c0-.1,0-.16,.05-.26,0-.16,.1-.31,.16-.47,0-.05,0-.1,.05-.21v-.1c.05-.16,.16-.26,.21-.42,.05-.1,.1-.16,.16-.26h0s.05-.1,.1-.1c0-.05,.1-.1,.16-.16,.1-.1,.21-.21,.31-.31l.05-.05h0s.1-.05,.1-.1c.1-.05,.21-.16,.37-.21,.05,0,.1-.05,.16-.1h.05c.26-.1,.47-.16,.73-.21h1.2c.1,0,.26,.05,.37,.1h0c.05,0,.1,.05,.16,.1,.1,.05,.21,.1,.37,.21,0,0,.1,.05,.16,.1l.05,.05c.1,.1,.21,.21,.31,.31,0,.05,.1,.1,.16,.16h0c.21,.26,.37,.52,.47,.84h0v.05c0,.1,.05,.16,.1,.26,.05,.16,.1,.37,.16,.52,0,.1,0,.16,.05,.26v.16h0v2.04h.1Z"/>
        <path class="cls-1" d="M110.51,73.17c-.79,.52-1.52,.89-2.2,1.1-1.1,.37-2.09,.42-2.98,.21h0s-.16,0-.21-.05c-1.47-.47-2.56-1.78-3.25-2.93-.63-1.1-.94-2.04-.99-2.2,0,.26,.16,2.88,1.62,4.71-.31,.1-.58,.21-.89,.31-2.46,.79-4.5,.68-6.07-.26-.58-.37-1.1-.79-1.52-1.31l-.05-.05c-.68-.84-1.15-1.78-1.47-2.62-.16-.37-.26-.73-.31-1.05-.21-.84-.31-1.47-.31-1.57v1.15h0v.26c0,.52,.05,1.15,.21,1.83-2.98-.84-4.87-2.46-5.91-4.66-1.47-2.98-.89-6.44,.26-9.42h0c.73-1.88,1.73-3.61,2.62-4.97h0c.94-1.47,1.78-2.46,1.99-2.72,.16,.31,.26,.58,.42,.89,.16,.26,.26,.52,.42,.79h0s.1,.16,.16,.21c0,.05,.1,.16,.16,.21,.1,.16,.16,.26,.26,.42h0c.16,.26,.31,.47,.47,.68,0,.05,.1,.1,.16,.21,0,.05,.1,.1,.16,.16,0,.05,.1,.1,.16,.16,.26,.31,.47,.52,.63,.63l.05,.05,.1,.1c-.05-.1-.16-.16-.21-.26-.1-.1-.21-.26-.26-.37-.05-.05-.1-.16-.16-.21-.05-.1-.1-.16-.21-.26,0-.05-.1-.1-.16-.21,0-.05-.1-.16-.1-.21l-.05-.1s-.05-.1-.1-.16c0,0,0-.1-.05-.1-.16-.26-.31-.52-.42-.84,0-.05-.05-.16-.1-.21,0-.05-.05-.16-.1-.21,0-.05-.05-.16-.1-.21-.05-.16-.16-.31-.21-.47,0-.05-.05-.16-.1-.21-.16-.42-.31-.89-.42-1.31,0-.1-.05-.21-.1-.31,0-.16-.1-.26-.1-.42,0-.1,0-.21-.05-.31v-.21c0-.1-.05-.26-.1-.37,0-.16-.05-.26-.1-.42,0-.21-.1-.47-.1-.68,0-.1,0-.26-.05-.37,0-.21-.05-.42-.1-.63,0-.26-.05-.58-.1-.84,0-.47-.1-.99-.1-1.47h0c-.05-1.1-.05-2.15-.05-3.04v-1.2h0v-.31h0c0-.16,0-.26,.05-.42,0-.1,0-.26,.05-.37v-.37c.16-.63,.31-1.2,.47-1.73,0-.05,0-.1,.05-.16,0-.16,.1-.26,.16-.42,0-.1,.05-.16,.1-.26,0-.1,.05-.16,.1-.26,0-.1,.05-.16,.1-.26,0-.05,.05-.16,.1-.21,.05-.16,.1-.26,.21-.37,0-.05,.05-.1,.1-.16,0-.05,.05-.1,.1-.16,0-.05,.05-.1,.1-.16,0-.05,.05-.1,.1-.16,.1-.16,.21-.31,.26-.47,0,0,0-.05,.05-.1,.1-.16,.16-.26,.26-.37v-.05c.1-.1,.16-.21,.16-.21,1.15-1.36,2.62-2.41,4.24-3.04,2.3-.89,4.71-.84,6.86,.1,.1,0,.21,.1,.31,.16,.1,0,.16,.05,.21,.1,.21,.1,.37,.21,.52,.26,.05,0,.1,.05,.21,.1,.37,.21,.68,.42,.99,.63,.05,0,.16,.1,.21,.16,.05,0,.1,.1,.16,.16h0c.1,.1,.26,.21,.37,.31,.05,0,.1,.1,.16,.16,.16,.1,.26,.21,.37,.31,.05,.05,.16,.1,.21,.21l.05,.05s.05,0,.05,.05c.1,.1,.16,.16,.26,.26-.94-.1-1.94,.1-2.72,.52-1.26,.68-2.09,1.88-2.41,3.25-.1,.52-.16,1.05-.16,1.52v.52h0v1.05c0,.1,0,.16,.05,.26,0,.1,0,.16,.05,.26,0,.16,.1,.31,.1,.47,0,.05,0,.16,.05,.21h0c0,.05,0,.16,.05,.21,0,.05,.05,.16,.1,.21,.1,.21,.16,.42,.26,.63-1.36-.21-2.83-.16-3.98,.47-.05,0-.16,.1-.21,.16,0,0-.05,0-.1,.05h0s-.05,0-.1,.05h0s-.05,0-.1,.05h0l-.05,.05h-.05l-.1,.1-.1,.1h0l-.1,.1h0l-.1,.1h0v.05h0v.1h0v.1c-.1,.16-.16,.26-.21,.42h0v.1c0,.05,0,.1-.05,.16h0v.1h0v.21c0,.05,0,.16-.05,.21h0v.16h0v.1h0v.05s0,.03,0,0c0-.05,0,0,0,0v.26h0c0,.21,0,.47-.05,.68,0,.89,.05,1.78,.26,2.67,0,.16,.05,.26,.1,.42,.63,2.25,1.99,4.5,3.72,6.49,.1,.1,.21,.26,.31,.37,.37,.42,.73,.84,1.15,1.26h0c.1,.1,.16,.16,.26,.26-.1,.68-.1,1.41-.1,2.2v.84h0v1.88c0,.1,0,.26,.05,.37,0,.16,0,.26,.05,.42,0,.1,0,.26,.05,.37v.31c0,.1,0,.21,.05,.37,0,.1,0,.16,.05,.26,.05,.31,.16,.58,.21,.89,0,.1,0,.16,.05,.26,0,.1,.05,.16,.1,.26,0,.1,0,.16,.05,.21,.21,.68,.47,1.36,.79,1.99,0,.1,.05,.16,.1,.26,.21,.42,.42,.84,.63,1.26,0,.05,.1,.16,.16,.21,.21,.31,.42,.63,.63,.94,.05,.1,.1,.16,.16,.21,.16,.26,.37,.47,.52,.73,.05,.05,.1,.16,.21,.21,.42,.52,.89,1.05,1.41,1.52,.05,.05,.16,.16,.21,.21,.16,.16,.31,.31,.52,.42,.05,.05,.16,.1,.21,.16,.16,.16,.31,.26,.52,.37l-.1,.63Z"/>
        <path class="cls-12" d="M122.45,13.66v-.47c0-.52-.05-1.05-.1-1.52-.05-.52-.16-.99-.26-1.52-.05-.26-.1-.47-.16-.73h0v-.16c0-.1-.05-.26-.1-.37-.16-.47-.31-.94-.52-1.41-.1-.21-.21-.47-.31-.68-.05-.1-.1-.21-.21-.37,0,0,0-.1-.05-.16h0c-.52-.84-1.1-1.62-1.78-2.3h0l-.05-.05s-.1-.1-.16-.1c-.1-.1-.16-.16-.26-.26-.21-.21-.42-.37-.68-.58-.21-.16-.47-.37-.68-.52-.1-.1-.26-.16-.37-.26-.1,0-.21-.1-.26-.16h-.1c-.05,0-.1-.05-.21-.1-.1-.05-.21-.1-.37-.16-.26-.1-.52-.21-.73-.31-.26-.1-.52-.21-.79-.26-.1,0-.26-.1-.37-.1h-.26c-.52-.1-1.05-.21-1.57-.26h-1.36c-.52,0-.99,.05-1.52,.16-.26,0-.52,.1-.79,.16-.1,0-.26,.05-.37,.1h-.16c-.47,.16-.94,.31-1.41,.52-.21,.1-.42,.21-.68,.31-.1,.05-.21,.1-.31,.21h0s-.05,0-.1,.05c-.42,.26-.79,.52-1.15,.84-.21,.16-.37,.31-.52,.47l-.05,.05h0v.05c-.1,.1-.16,.16-.26,.26-.16,.21-.31,.42-.47,.63h0c0,.05-.1,.1-.1,.16v.05c-.05,.1-.1,.16-.16,.26-.05,.1-.1,.21-.16,.26h0s0,.1-.05,.16c-.1,.21-.21,.42-.31,.63,0,.1-.05,.16-.1,.26v.05c-.79,1.94-1.41,5.23,.58,9.21-.42-.58-.79-1.15-1.1-1.78-.42-.79-.79-1.67-.99-2.56-.26-.21-1.26-1.05-1.52-1.2-.52-.37-1.05-.68-1.57-.94-.26-.16-.52-.26-.79-.37-.05,0-.16-.05-.21-.1h0c-.1,0-.21-.1-.37-.16-.47-.21-.99-.37-1.52-.47-.26-.05-.47-.1-.73-.16,0,0-.37-.1-.37-.05,0,0,.21,0,0,0h-.26c-.47,0-.94-.05-1.41,0h-.84c-.1,0-.21,0-.31,.05-.42,.1-.84,.21-1.26,.31-.1,0-.21,.05-.31,.1h-.16c-.16,.1-.37,.16-.58,.26-.37,.21-.73,.42-1.05,.63,0,0-.1,.05-.16,.1h0c-.05,.05-.16,.1-.21,.16-.16,.16-.31,.26-.47,.42-.16,.16-.26,.31-.42,.47-.05,.1-.16,.16-.21,.26h0s0,.05-.05,.1c-.26,.31-.47,.68-.63,1.05-.1,.16-.21,.37-.26,.58h0v.16h-.05v.05c0,.05,0,.1-.05,.16-.16,.42-.26,.79-.31,1.2,0,.1,0,.21-.05,.31h0v.31h0c-.05,.47-.1,.99-.16,1.57v1.31c.1,1.57,.47,3.35,1.36,5.23-.21-.26-.37-.52-.52-.79-.79-1.2-1.41-2.56-1.78-3.98-.16,.05-.26,.16-.42,.26-.16,.1-.31,.21-.42,.31h0c-.05,0-.1,.1-.16,.16-.26,.21-.47,.47-.73,.68-.1,.1-.21,.21-.26,.37h0s0,.05-.05,.1c0,.05-.1,.1-.1,.16-.16,.26-.31,.52-.47,.84,0,.05-.05,.16-.1,.21v.1h0v.1c0,.05-.05,.16-.1,.21-.1,.31-.21,.58-.26,.89,0,.16-.05,.31-.1,.47v.16h0v.1c-.05,.63-.05,1.31,0,1.94v.21h0c0,.16,.05,.31,.1,.47,.05,.31,.16,.63,.26,.94,0,.16,.1,.26,.16,.42h0s.1,.31,.21,.52h0c0,.05,.05,.16,.1,.21h0c.21,.47,.47,1.15,.84,1.83,.16,.26,.26,.52,.42,.79,.68,1.2,1.52,2.41,2.46,3.25h0c-.05,0-.16,0-.21-.05-.16-.1-.31-.16-.47-.26-.89-.52-1.67-1.2-2.36-1.94-.05,.1-.16,.26-.21,.37-.21,.31-.37,.68-.52,.99h0v.16c0,.1-.05,.21-.1,.31-.05,.21-.1,.37-.16,.58-.05,.21-.1,.37-.16,.58,0,.1,0,.21-.05,.31v.21h0v1.05c0,.37,0,.73,.05,1.1v.42c0,.16,.05,.31,.1,.47,.1,.31,.16,.63,.31,.94,0,0,0,.1,.05,.16h0v.1c.05,.16,.16,.31,.21,.42,.16,.31,.31,.58,.52,.89,.1,.16,.21,.31,.31,.42h0s0,.05,.05,.1c0,.05,.1,.1,.16,.16,.21,.26,.47,.52,.68,.73,.1,.1,.26,.26,.42,.37,.05,0,.1,.1,.16,.16h0s.1,.05,.1,.1c.26,.21,.58,.42,.89,.58,.16,.1,.31,.16,.47,.26,.1,0,.21,.1,.26,.1h.05c.37,.16,.73,.26,1.1,.37,.37,.1,.79,.21,1.15,.26,.21,0,.42,.05,.63,.1h.42c.73,.1,1.52,.1,2.25,.16-.31-1.41-.58-3.09-.63-4.92h0c-.05-.94-.05-1.88,0-2.77,0-.42,.05-.89,.1-1.31,.16-1.05,.37-1.99,.73-2.88,.47-1.1,1.1-2.09,1.83-2.98h0c.21-.31,.37-.47,.42-.52h0c1.26-1.41,2.77-2.46,4.5-3.14,2.62-.99,5.39-.94,7.8,.16,3.93,1.78,5.44,4.08,5.97,5.08,.26,.21,.47,.42,.68,.68,0-.1,.1-.21,.16-.31,0-.05,.05-.1,.1-.16,.31-.47,.68-.84,1.15-1.15,.1-.05,.21-.16,.31-.21,0,0,.1-.1,.16-.1,.21-.1,.42-.21,.63-.31,.1-.05,.21-.1,.31-.16,0,0,.1,0,.16-.05h0s.05,0,.1-.05c.79-.47,1.52-1.05,2.2-1.67,.1-.1,.21-.16,.26-.26,0,0,.05-.05,.1-.1h0c.16-.16,.37-.37,.52-.52,.21-.21,.37-.42,.58-.68,.16-.16,.26-.31,.42-.52,.31-.42,.63-.84,.89-1.26,.05-.1,.16-.21,.21-.37,0,0,.05-.1,.1-.16v-.05h0s.21-.42,.31-.58c.47-.94,.89-1.88,1.26-2.88,.16-.52,.31-.99,.47-1.52v-.1h0v-.1c0-.1,.05-.26,.1-.37,.05-.26,.1-.52,.16-.79,.21-1.05,.31-2.09,.37-3.14v-.89h0l-.79,.42Zm-20.94-6.96s0-.1,.05-.1c0,0,0,.05-.05,.1Z"/>
        <path class="cls-11" d="M121.3,70.24c-.37,.94-1.31,2.83-3.09,3.56-1.41,.58-3.14,.31-5.13-.79-7.01-3.93-8.9-11.57-8.58-16.17,0,0,7.22,22.09,16.8,13.4Z"/>
        <path class="cls-12" d="M128.57,70.82c-1.62,.68-2.98,.47-4.29,.16-.47-.1-.94-.31-1.36-.63h-.16c-.89-.68-1.62-1.47-2.2-2.3-.89-1.2-1.47-2.3-1.47-2.41,0,.16,.79,2.62,2.25,4.61-9.58,8.69-16.8-13.4-16.8-13.4,.73,.68,1.52,1.31,2.25,1.88,.47,.37,.99,.73,1.52,1.1,2.41,1.62,5.29,3.09,7.38,3.09,.37,0,.73,0,1.05-.16l.26-.1,.1-.26s.73-2.15,.79-4.97c1.26,1.31,3.61,3.09,7.54,3.87,2.98,.58,5.6,3.14,5.86,5.71,.16,1.62-.73,2.93-2.56,3.72l-.16,.1Z"/>
        <path class="cls-10" d="M129.99,52.97s-.16-.31-.26-.47c-.31-.58-.73-1.36-.99-1.73-.68-.94-1.47-1.94-2.46-2.88-2.88-2.72-6.18-3.72-9.53-2.98-3.98,.89-7.54,.52-9.94,.05h0c-1.47-.31-2.46-.63-2.88-.79h-.16c-.58-.16-1.1-.31-1.57-.47l.42,.94c.21,.42,5.08,10.83,10.15,12.61h0s.47-.05,.58-.26c.94-2.09,.84-4.66-.1-6.75-.05-.16-.16-.31-.21-.47,.63,.16,1.26,.26,1.88,.37,2.72,5.08,1.41,10.47,1.05,11.78-1.73,.26-5.18-1.31-8.58-3.93-.99-.79-1.99-1.62-2.93-2.56h0c-.37-.37-.73-.79-1.1-1.15-2.46-3.04-3.45-7.59-3.45-7.59-.16,.73-.21,1.47-.16,2.15-.37-.84-.63-1.67-.73-2.51-.05-.52-.1-.99-.1-1.52v-.26c0-.47,.1-.94,.26-1.31,.26-.68,.63-1.2,1.2-1.52,1.15-.68,2.83-.52,4.24-.16,.05,0,.16,0,.21,.05,1.41,.37,2.51,.94,2.51,.94l.31,.16,.26-.21c1.26-.89,4.97-2.51,9.58-1.88,.26,0,.52,.05,.79,.1,1.57,.31,3.25,.84,4.92,1.78,1.88,1.05,3.25,2.46,4.19,3.98h0c.47,.73,.84,1.52,1.15,2.3h0c.47,1.2,1.15,3.25,1.36,4.29l.1-.1Z"/>
        <path class="cls-17" d="M116.27,50.14c-.47,0-.89-.05-1.31-.16,0-.1-.1-.16-.16-.26l.99-.58c.16,.31,.31,.63,.47,.94v.05Z"/>
        <path class="cls-17" d="M103.34,54.12c.37,.42,.73,.79,1.1,1.15-.42-.37-.79-.73-1.1-1.15Z"/>
        <path class="cls-17" d="M116.27,50.14c-.47,0-.89-.05-1.31-.16,0-.1-.1-.16-.16-.26l.99-.58c.16,.31,.31,.63,.47,.94v.05Z"/>
        <path class="cls-17" d="M90.15,46.58c.47,0,.47-.73,0-.73s-.47,.73,0,.73h0Z"/>
        <polygon class="cls-17" points="102.66 15.65 102.72 15.7 102.72 15.65 102.66 15.65"/>
        <path class="cls-17" d="M113.34,56.89s-.37,.26-.58,.26c-.05,0-.1,0-.16-.05-.26-.16-.31-.47-.21-.73v-.05s0-.03,0,0c0,.05,0,0,0,0h0v-.05c0-.05,0-.1,.05-.16,0-.05,0-.1,.05-.21,0-.05,0-.16,.05-.21,.05-.26,.16-.52,.16-.84v-.05h0v-1.99h0s-.1-.52-.16-.79c-.05-.26-.16-.52-.21-.79,0-.1-.1-.26-.16-.37h0c0-.05,0-.1-.05-.16-.1-.21-.21-.47-.37-.68-.05-.1-.16-.21-.21-.31h0s-.1-.1-.1-.16h0c-.16-.21-.16-.52,0-.73,.21-.21,.58-.21,.73,0,.31,.37,.58,.73,.79,1.15,.05,.16,.16,.31,.21,.47,.94,2.09,1.05,4.66,.1,6.75l.05-.31Z"/>
        <path class="cls-17" d="M101.56,6.59s0,.05-.05,.1c0,0,0-.1,.05-.1Z"/>
        <path class="cls-16" d="M123.13,16.91l-1.31,4.45-2.83,5.23-.37,.37h0l-1.31,1.26-.58,.58-.47,.47h0l-.63,.58-.89,.42h0l-.68,.31h0l-.63,.58-.99,.84-.73,1.47-.26,.52-.52-.63-.63-.79-.21-.26h0l-.05-.1-.31-.31-.73-.84-.37-.42-.52-.52-1.57-1.67-2.67-1.2-2.77-.68-2.83,.42-2.56,.73-1.1,1.15-1.2,.94-.73,.73-.79,.58-.73,.52v1.88l-.79,1.1-.37,.52v1.73h0l-.21,1.2-.47,2.83v.47l.37,2.2,.37,1.67h0l.1,.68h-2.98l-3.14-.94-2.51-1.2-1.62-1.52-1.31-3.3-.37-3.98,.89-1.78,.21-.47,.63-1.15,.31-.52-.42-.42-1.2-1.2-.1-.1h0l-.26-4.29,.31-1.26,.58-2.51,.16-.68,1.57-1.99,.1-.16,1.36-.68h.16l.31-.21v-2.41l.73-.37h.05c0,.63,.16,1.2,.26,1.78,.21,1.1,.58,2.15,.99,3.04,2.3,4.82,7.43,6.54,13.03,6.96,1.88,.16,3.82,.16,5.71,.1,2.62-.1,5.18-.31,7.48-.47,3.4-.26,5.86-1.52,7.54-3.04h0c3.09-2.77,3.82-6.49,3.82-6.65h0l.79,.73-.1-.31Z"/>
        <path class="cls-17" d="M116.48,38.1c0,.42-.16,.79-.31,1.1-.37,.68-.89,1.05-1.41,.99-.47-.05-.84-.42-1.05-.94-.16-.42-.26-.99-.16-1.57,.16-1.26,.94-2.2,1.78-2.09s1.36,1.2,1.2,2.46l-.05,.05Z"/>
        <path class="cls-12" d="M121.3,70.24c-9.58,8.69-16.8-13.4-16.8-13.4l3.77,2.98,13.08,10.42h-.05Z"/>
        <path class="cls-11" d="M119.05,65.63s4.71,6.91,11.25,4.03l-1.83,2.04-2.46,.26-2.83-.68-.99-.89-1.62-1.78-1.57-2.98h.05Z"/>
        <path class="cls-17" d="M129.2,72.23c-1.1,.47-2.09,.68-3.09,.68-.89,0-1.73-.21-2.51-.58h-.05c-.37-.21-.68-.42-1.05-.68l-.05-.05c-.42-.37-.84-.84-1.15-1.31,0-.05-.1-.16-.16-.21-1.36-1.94-2.04-4.24-2.09-4.4h0l.21,.42h0c.26,.47,.68,1.15,1.26,1.94,.42,.52,.84,1.05,1.36,1.52,.26,.26,.52,.47,.84,.68,0,0,.1,.05,.16,.1,.26,.21,.58,.31,.89,.47,.16,.05,.31,.1,.47,.16,.31,.05,.63,.16,.99,.21,.99,.16,2.09,.16,3.3-.37,.73-.31,1.31-.68,1.73-1.15h0c.68-.73,.94-1.57,.84-2.56,0-.31-.1-.58-.21-.89-.1-.37-.26-.79-.47-1.15-.31-.58-.79-1.15-1.31-1.62-1.05-.99-2.46-1.78-3.93-2.09-2.62-.52-4.55-1.52-5.91-2.51-.68-.47-1.2-.99-1.62-1.41-.79-.79-1.1-1.41-1.15-1.47l.94-.42s0,.05,.16,.16c.26,.26,.79,.84,1.73,1.52,1.31,.94,3.3,1.99,6.12,2.56,1.73,.37,3.35,1.26,4.61,2.41,.52,.47,.99,.99,1.36,1.57,.21,.31,.42,.68,.58,1.05,.31,.68,.52,1.36,.58,2.04,.26,2.3-1.05,4.29-3.51,5.34l.16,.05Z"/>
        <path class="cls-17" d="M90.52,45.8v.21h0s-.16,.31-.31,.37h0s-.05,0-.1,.05c-.1,0-.16,.05-.26,.05h-.63c-1.67-.05-3.4-.26-5.02-.84-1.47-.52-2.83-1.36-3.93-2.51-1.05-1.1-1.78-2.41-2.25-3.87-.73-2.3-.47-4.82,.58-6.96,.26-.58,.58-1.1,.94-1.57,.1-.16,.21-.26,.31-.42h0c.21-.21,.52-.26,.79-.16,.16,.26,.26,.52,.42,.79,0,.16-.1,.26-.16,.37,0,0-.05,.1-.1,.16h0s0,0,0,0c0,0-.1,.16-.16,.21,0,.05-.05,.1-.1,.16-.05,.1-.16,.26-.21,.37-.21,.31-.37,.68-.52,.99h0v.1h0c0,.1-.05,.21-.1,.31-.05,.21-.1,.37-.16,.58-.05,.21-.1,.37-.16,.58,0,.1,0,.21-.05,.31v.21h0v1.05c0,.37,0,.73,.05,1.1v.42c0,.16,.05,.31,.1,.47,.1,.31,.16,.63,.31,.94,0,0,0,.1,.05,.16h0v.1c.05,.16,.16,.26,.21,.42,.16,.31,.31,.58,.52,.89,.1,.16,.21,.26,.31,.42h0s0,.05,.05,.1c0,.05,.1,.1,.16,.16,.21,.26,.47,.52,.68,.73,.16,.1,.26,.26,.42,.37,.05,0,.1,.1,.16,.16h0s.05,0,.1,.05h0c.26,.21,.58,.42,.89,.58,.16,.1,.31,.16,.47,.26,.1,0,.21,.1,.26,.16h.05c.37,.16,.73,.26,1.1,.37,.37,.1,.79,.21,1.15,.26,.21,0,.42,.05,.63,.1h.42c.73,.1,1.52,.1,2.25,.16h.31c.16,0,.26,.16,.37,.26h0s.1,.26,.1,.37l.05,.47Z"/>
        <path class="cls-17" d="M110.67,32.29l-1.2,.42s-.31-.84-1.26-1.88c-.84-.89-2.15-1.99-4.24-2.93-2.09-.94-4.55-.99-6.86-.1-1.62,.63-3.09,1.67-4.24,3.04,0,0-.05,.05-.16,.21-.68,.84-1.26,1.73-1.67,2.77-.31,.73-.52,1.52-.68,2.36h0c-.31,1.78-.31,3.82-.21,5.81,.21,3.09,.79,6.02,1.2,7.85-.16-.26-.26-.58-.42-.89s-.26-.63-.42-.94h0s-.05-.26-.1-.42c-.1-.37-.21-.73-.31-1.15h0c-.1-.42-.21-.84-.31-1.31-.31-1.41-.58-2.98-.73-4.55h0v-.58c0-.47-.05-.94-.05-1.41v-1.2c0-.42,.05-.89,.1-1.31,.16-1.05,.37-1.99,.73-2.88,.47-1.1,1.1-2.09,1.83-2.98h0c.1-.16,.26-.31,.42-.47h0c1.26-1.41,2.77-2.46,4.5-3.14,2.62-.99,5.39-.94,7.8,.16,3.93,1.78,5.44,4.08,5.97,5.08,.16,.26,.21,.42,.21,.47h.1Z"/>
        <path class="cls-17" d="M92.93,30.46v.31s-.05,.05-.16,.21c-.47,.63-1.99,2.83-2.51,6.44h0c-.21,1.36-.21,2.88,0,4.61h0l-.05-.1-1.05-1.36h0l.42-2.15,.47-2.36,.1-.52,.37-2.98,1.1-.99h0l1.31-1.2v.1Z"/>
        <path class="cls-13" d="M119.26,4.5s-12.25-6.49-18.37,3.04v-1.78l2.36-2.98,2.93-2.25,3.93-.52h2.67l3.09,.52,1.88,1.73,1.57,2.3-.05-.05Z"/>
        <path class="cls-13" d="M99.84,11.62s-9.37-6.23-16.12,.37l-.16-1.15,2.72-2.25,3.66-1.15,1.83-.21,1.73-.21,1.88,.79,1.36,.31,1.67,.73,1.36,.58v2.2h.05Z"/>
        <path class="cls-17" d="M99.79,9.32s-.1-.1-.16-.1c0,0-.1-.05-.1-.1-.52-.37-1.1-.73-1.67-1.1-.26-.16-.52-.31-.79-.42q-.17-.07,0,0c-.58-.26-1.15-.52-1.73-.73h0c-.63-.21-1.26-.37-1.88-.47-1.99-.31-4.03-.16-5.86,.68-1.62,.73-3.04,1.94-3.98,3.45-.58,.89-.94,1.88-1.15,2.88-.1,.42-.16,.89-.21,1.36v1.05c0,.26,0,.52,.05,.79,0,.31,.1,.63,.16,.94h0v.1c0,.1,.05,.26,.1,.37,.1,.42,.21,.79,.37,1.15h0s.1,.31,.16,.47c.31,.84,.73,1.62,1.26,2.36,.16,.26,.37,.52,.52,.79-.58-1.2-.94-2.36-1.1-3.45-.1-.63-.16-1.2-.21-1.73v-1.36c0-.58,.05-1.1,.16-1.57h0v-.1h0v-.16h0c0-.1,0-.21,.05-.31v-.21c.05-.37,.16-.68,.26-.99,0-.05,0-.1,.05-.16v-.05h0v-.16h.05c.05-.1,.1-.26,.16-.37,0-.05,.05-.1,.1-.21,.21-.37,.42-.68,.63-1.05,0,0,0-.05,.05-.1h0c.05-.1,.16-.16,.21-.26,.16-.16,.26-.31,.42-.47,.16-.16,.31-.26,.47-.42,.05-.05,.16-.1,.21-.16h0s.1-.05,.16-.1c.31-.26,.68-.47,1.05-.63,.16-.1,.37-.16,.58-.26h0s.1,0,.16-.05c.1,0,.21-.05,.31-.1,.42-.16,.84-.26,1.26-.31,.1,0,.21,0,.31-.05h2.51c.16,0,0,0,0,0,0,0,.31,0,.37,.05,.26,0,.47,.1,.73,.16,.31,.05,.63,.16,.89,.26h0c.21,.05,.37,.1,.58,.21,.1,0,.21,.1,.37,.16h0c.05,0,.16,.05,.21,.1,.26,.1,.52,.26,.79,.37,.31,.16,.63,.31,.89,.52h0s.1,.05,.16,.1c.16,.1,.31,.21,.47,.31,.26,.16,1.26,1.05,1.52,1.2h0c.31,.21,.05-.63,.21-.89,.21-.37,.05-.73-.26-.99l.16-.21Z"/>
        <path class="cls-17" d="M123.86,15.07c0,.37-.05,.73-.1,1.1-.26,2.2-.84,4.4-1.67,6.44-.73,1.67-1.62,3.3-2.77,4.71-.21,.26-.42,.52-.68,.79-.16,.16-.31,.31-.47,.47-.16,.16-.31,.31-.47,.47-.1,.1-.21,.21-.31,.26,0,0-.05,.05-.1,.1-.31,.31-.68,.58-1.05,.89-.21,.16-.42,.31-.58,.42-.05,0-.1,.1-.16,.1-.42,.26-.84,.52-1.26,.73,0,0-.05-.05-.1-.1-.1-.05-.21-.16-.26-.21,0,0-.05,0-.1-.05h0c-.1-.05-.26-.1-.37-.16-.05,0-.16-.05-.21-.05h-.37c0-.05,.1-.1,.16-.16,.05,0,.1-.1,.16-.1,.1,0,.16-.05,.21-.1h.1c.05,0,.16-.1,.21-.1,.1-.05,.21-.1,.31-.16,0,0,.1,0,.16-.05h0s.05,0,.1-.05c.16-.1,.26-.16,.42-.26,.1-.05,.16-.1,.26-.16,.1-.05,.21-.16,.26-.21,0,0,.05,0,.1-.05h0c.05-.05,.16-.1,.21-.16h0c.1-.05,.16-.1,.21-.21,.1-.05,.16-.16,.26-.21,.1-.1,.21-.21,.37-.31,.1-.1,.21-.16,.26-.26l.1-.1h0s.37-.37,.52-.52c.21-.21,.37-.42,.58-.68h0c.16-.16,.26-.31,.37-.47,.31-.42,.63-.84,.89-1.26,.05-.1,.16-.21,.21-.37,0,0,.05-.1,.1-.16v-.05h0s.21-.42,.31-.58c.47-.94,.89-1.88,1.26-2.88,.16-.52,.31-.99,.47-1.52v-.1h0v-.1c0-.1,.05-.26,.1-.37,.05-.26,.1-.52,.16-.79,0-.1,0-.21,.05-.31v-.16h0c0-.21,.05-.42,.1-.63v-.42h0v-.79h0v-1.73h0v-.47c0-.52-.05-1.05-.1-1.52h0c-.05-.47-.16-.94-.26-1.47h0c-.05-.26-.1-.47-.16-.73h0v-.16c0-.1-.05-.26-.1-.37-.16-.47-.31-.94-.52-1.41-.1-.21-.21-.47-.31-.68-.05-.1-.1-.21-.21-.37,0,0,0-.1-.05-.16h0c-.52-.84-1.1-1.62-1.78-2.3h0l-.05-.05s-.1-.1-.16-.1c-.1-.1-.16-.16-.26-.26-.21-.21-.42-.37-.68-.58-.21-.16-.47-.37-.68-.52-.1-.1-.26-.16-.37-.26-.1,0-.21-.1-.26-.16h-.05s-.03,0,0,0c.05,0,0,0,0,0h-.05c-.05,0-.1-.05-.21-.1s-.21-.1-.37-.16c-.26-.1-.52-.21-.73-.31-.26-.1-.52-.21-.79-.26-.1,0-.26-.1-.37-.1h-.26c-.52-.1-1.05-.21-1.57-.26h-1.36c-.52,0-.99,.05-1.52,.16-.26,0-.52,.1-.73,.16-.1,0-.26,.05-.37,.1h-.16c-.47,.16-.94,.31-1.41,.52-.21,.1-.42,.21-.68,.31-.1,.05-.21,.1-.31,.21h0s-.05,0-.1,.05c-.42,.26-.79,.52-1.15,.84-.21,.16-.37,.31-.52,.47l-.05,.05h0l-.05,.05c-.1,.1-.16,.16-.26,.26-.16,.21-.31,.42-.47,.63h0c0,.05-.1,.1-.1,.16v.05c-.05,.1-.1,.16-.16,.26-.05,.1-.1,.21-.16,.26h0s0,.1-.05,.16c-.05,.1-.1,.26-.21,.37h0c0,.05-.05,.16-.1,.21,0,.1-.05,.16-.1,.26v.05c0,.05,0,.1-.05,.21-.05,.1,0,.1-.05,.21v.26c0,.05,0,.16-.05,.21,0,.1,0,.16-.05,.26,0,.1-.05,.21-.05,.31v.21h0v1.15h0v.31c-.16,1.73,.1,3.82,1.31,6.18-.42-.58-.79-1.15-1.1-1.78-.42-.79-.79-1.67-.99-2.56h0c-.16-.63-.26-1.31-.31-1.99v-.1c0-.58,0-1.2,.1-1.78v-.21h0c.1-.42,.21-.79,.31-1.2,.58-1.57,1.52-2.93,2.83-4.03,1.62-1.36,3.61-2.25,5.65-2.62,2.2-.42,4.5-.21,6.65,.58,2.2,.84,4.13,2.3,5.6,4.13,1.36,1.67,2.25,3.66,2.72,5.76,.1,.47,.21,.94,.26,1.41,.05,.47,.1,.94,.16,1.47,.05,.84,.05,1.67,0,2.51l-.47-1.1Z"/>
        <path class="cls-13" d="M82.77,19.16s-3.87,2.15-3.87,6.12l-.42-1.94,.37-2.88,1.62-1.99,2.2-1.05s.1,1.73,.1,1.73Z"/>
        <path class="cls-17" d="M83.46,34.18s-.16,0-.21-.05c-.16-.1-.31-.16-.47-.26-.37-.21-.79-.47-1.1-.79-.47-.37-.89-.73-1.26-1.15-.16-.16-.31-.37-.47-.58-.16-.16-.26-.37-.42-.58h0c-.37-.52-.68-1.05-.94-1.57,0-.05-.05-.1-.1-.16h0c-.31-.68-.58-1.36-.73-2.09-.31-1.26-.42-2.56-.21-3.87h0c0-.16,0-.26,.05-.42,.26-1.41,.84-2.72,1.73-3.82,.79-.99,1.78-1.73,2.88-2.25,.21-.1,.42-.21,.63-.26,.05,0,.16-.05,.21-.1,.16-.05,.26,0,.42,0v1.36h-.16s-.03,0,0,0c.05,0,0,0,0,0h0c-.1,0-.16,.05-.21,.1-.1,0-.16,.1-.26,.16-.1,0-.16,.1-.26,.16-.16,.1-.26,.16-.42,.26-.16,.1-.31,.21-.42,.31h0c-.05,0-.1,.1-.16,.16-.26,.21-.47,.47-.73,.68-.1,.1-.21,.21-.26,.37h0s0,.05-.05,.1c0,.05-.1,.1-.1,.16-.16,.26-.31,.52-.47,.84,0,.05-.05,.16-.1,.21v.1h0v.1c0,.05-.05,.16-.1,.21-.1,.31-.21,.58-.26,.89,0,.16-.05,.31-.1,.47v.16h0v.1c-.05,.63-.05,1.31,0,1.94v.21h0c0,.16,.05,.31,.1,.47,.05,.31,.16,.63,.26,.94,0,.16,.1,.26,.16,.42h0s.1,.31,.21,.52h0c0,.05,.05,.16,.1,.21h0c0,.05,0,.1,.05,.16,.21,.47,.47,1.05,.79,1.67,.16,.26,.26,.52,.42,.79,.31,.58,.68,1.15,1.05,1.67,.42,.58,.89,1.15,1.41,1.57l-.47,.47Z"/>
        <path class="cls-17" d="M128.1,47.52s1.94,4.5,1.78,5.44c-.16,.94,.47,1.2,.58,1.26,.1,.05,.37,0,.37,0v-.99l-.73-2.62-.79-1.99-.52-1.1h-.68Z"/>
        <path class="cls-15" d="M90.42,37.06s.84,14.13,6.54,18.95c0,0-2.51-1.67-4.03-3.72-1.52-2.04-2.41-6.07-2.41-6.07l-.84-5.6,.73-3.56Z"/>
        <path class="cls-17" d="M94.08,53.44l-.1-.1-.05-.05c-.16-.1-.37-.37-.63-.63l-.16-.16c0-.05-.1-.1-.16-.16,0-.05-.1-.1-.16-.21-.16-.21-.31-.42-.47-.68h0c-.1-.1-.16-.26-.26-.42,0-.05-.1-.16-.16-.21,0-.05-.1-.16-.16-.21h0s-.26-.52-.42-.79c-.16-.26-.26-.58-.42-.89-.1-.26-.26-.58-.37-.89v-.1h0s-.1-.26-.16-.37c-.16-.37-.26-.73-.37-1.15-.05-.21-.16-.47-.21-.73,0-.1,0-.21-.05-.26,0-.1-.05-.26-.1-.37,0-.1-.05-.26-.1-.37-.1-.42-.16-.89-.26-1.36,0-.1,0-.26-.05-.37,0-.21-.05-.47-.1-.68-.05-.68-.16-1.36-.16-2.15v-1.57c0-.52,0-1.1,.05-1.67v-.84h1.2c0,.16-.05,.58-.1,1.26h0v.31h0v1.2c0,.89,0,1.88,.05,3.04h0c0,.47,.05,.94,.1,1.47,0,.26,.05,.58,.1,.84,0,.21,.05,.42,.1,.63,0,.1,0,.26,.05,.37,0,.21,.1,.47,.1,.68,0,.16,.05,.31,.1,.42,0,.1,.05,.26,.1,.37v.21c0,.1,0,.21,.05,.31,0,.16,.05,.26,.1,.42,0,.1,.05,.21,.1,.31,.16,.42,.26,.89,.42,1.31,0,.05,.05,.16,.1,.21,.05,.16,.1,.31,.21,.47,0,.05,.05,.16,.1,.21,0,.05,.05,.16,.1,.21,0,.05,.05,.16,.1,.21,.16,.26,.26,.58,.42,.84,0,0,0,.1,.05,.1,0,.05,.05,.1,.1,.16,0,0,0,.1,.05,.1,0,.05,.1,.16,.1,.21s.1,.16,.16,.21c.05,.1,.1,.16,.21,.26,.05,.05,.1,.16,.16,.21,.1,.1,.21,.26,.26,.37,.05,.1,.16,.16,.21,.26l.16,.21Z"/>
        <path class="cls-17" d="M92.2,29.73h0l-.58,1.94-1.36,4.5-.68,2.36-.47,1.57v.16l-.05,.05c-.05-.99-.05-1.99,0-2.83v-.42c0-.31,.05-.58,.1-.84,.52-3.04,1.83-5.02,2.51-5.86h0c.21-.31,.37-.47,.42-.52h0l.1-.1Z"/>
        <path class="cls-15" d="M89,51.71s-9.05,11.83,2.77,16.7l.47,2.15v1.1l-2.72-.79-1.47-1.05-.79-.99-1.1-.89-.31-.63-1.2-3.93v-2.46l.73-3.35,1.15-2.98,1.88-2.72,.58-.1v-.05Z"/>
        <path class="cls-17" d="M92.56,70.92l-.16,1.26h0c-2.36-.52-4.19-1.52-5.55-2.88-.79-.79-1.41-1.67-1.94-2.67-3.45-6.96,3.04-15.81,5.02-18.42,.21-.26,.37-.47,.47-.58h0l.05-.1,.21,.52,.31,.84-.05,.05c-.21,.26-1.05,1.31-1.99,2.72h0c-.89,1.36-1.88,3.09-2.62,4.97h0c-1.15,2.98-1.73,6.44-.26,9.42,1.05,2.2,2.93,3.82,5.91,4.66,.05,0,.16,0,.21,.05,.1,0,.26,.05,.37,.1v.05Z"/>
        <path class="cls-15" d="M91.88,67.94s1.88,8.48,9.42,3.72l.99,1.47,.63,.84-.1,.79-2.41,.47-2.09,.21-2.09-.16-.89-.63-1.47-.68-.94-1.67-.16-1.2-.84-2.3v-.79l-.05-.05Z"/>
        <path class="cls-17" d="M103.76,74.95s-.16,.05-.26,.1c-1.78,.73-3.45,1.1-4.92,1.1-1.36,0-2.62-.31-3.72-.94-1.26-.73-2.04-1.88-2.46-3.04-.16-.47-.31-.94-.37-1.36-.31-1.67-.1-3.14-.16-3.25,0,.05,.1,1.2,.63,2.62,.52,1.41,1.41,3.04,2.98,3.98,1.78,1.05,4.13,1.05,6.96,0,.26-.1,.52-.21,.79-.31l.52,1.15v-.05Z"/>
        <path class="cls-15" d="M101.15,70.14s1.62,5.5,7.75,1.73l2.41,.73,.37,.94-1.57,.52-2.93,1.26-3.4-.47-1.47-1.83-.89-1.99-.26-.94v.05Z"/>
        <path class="cls-17" d="M112.09,73.59s-.31,.21-.47,.37c-1.83,1.31-3.61,1.99-5.18,1.99-.63,0-1.2-.1-1.78-.26-.42-.16-.84-.37-1.2-.58-.42-.26-.73-.63-.99-.99-1.47-1.83-1.57-4.5-1.62-4.71,0,.1,.37,1.1,.99,2.2,.68,1.15,1.73,2.41,3.25,2.93,1.57,.52,3.4,.1,5.44-1.26,.26-.16,.52-.37,.84-.58l.79,.99-.05-.1Z"/>
        <path class="cls-17" d="M122.92,70.29h0c0,.05-.1,.26-.21,.52-.05,.21-.16,.42-.26,.68,0,.05-.05,.1-.1,.16-.21,.42-.47,.84-.79,1.31-.21,.26-.42,.52-.68,.79h0c-.58,.58-1.26,1.1-2.09,1.41-.68,.26-1.41,.42-2.2,.42h0c-.73,0-1.52-.16-2.36-.42-.63-.21-1.26-.52-1.88-.84-.26-.16-.47-.26-.68-.42-.1,0-.16-.1-.21-.16-.31-.21-.63-.42-.89-.63-.16-.1-.31-.26-.52-.37-.05-.05-.16-.1-.21-.16-.16-.16-.37-.31-.52-.42-.05-.05-.16-.16-.21-.21-.52-.47-.99-.99-1.41-1.52-.05-.05-.1-.16-.21-.21-.21-.21-.37-.47-.52-.73-.05-.05-.1-.16-.16-.21-.21-.31-.42-.63-.63-.94,0-.05-.1-.16-.16-.21-.21-.42-.47-.84-.63-1.26,0-.1-.05-.16-.1-.26-.31-.68-.58-1.31-.79-1.99,0-.1,0-.16-.05-.21,0-.1-.05-.16-.1-.26,0-.1,0-.16-.05-.26-.1-.31-.16-.58-.21-.89,0-.1,0-.16-.05-.26,0-.1,0-.21-.05-.37v-.31c0-.1,0-.26-.05-.37,0-.16,0-.26-.05-.42,0-.1,0-.26-.05-.37v-1.88h0v-.84c0-.79,0-1.57,.1-2.2,0-.16,0-.31,.05-.42l.94,.21c0,.31-.1,.68-.1,1.05v2.3c.37,4.55,2.62,10.52,8.58,13.87,.16,.1,.31,.16,.47,.26,1.78,.89,3.35,1.05,4.66,.52,.99-.42,1.73-1.15,2.2-1.94,.42-.63,.68-1.2,.89-1.62,.05-.16,.1-.31,.16-.37h0l.05-.16h.16l1.15,.52h.16l-.37,.05Z"/>
        <path class="cls-17" d="M103.34,55.74s-.58-.52-1.15-1.26c.37,.42,.73,.84,1.15,1.26Z"/>
        <path class="cls-1" d="M97.48,43.08v7.07s1.05,3.51,1.1,3.56c.05,.05,2.56,.99,2.56,.99l.73-.63-1.47-3.98-.58-3.61-1.36-1.73-1.05-1.73,.05,.05Z"/>
        <path class="cls-17" d="M117.79,57.47c0,.79-.1,1.52-.16,2.15-.21,1.62-.58,2.72-.63,2.83l-.1,.26-.26,.1c-.31,.1-.68,.16-1.05,.16h-.79c-.16,0-.31,0-.47-.1-.1,0-.16,0-.26-.05-.1,0-.16,0-.26-.05-.05,0-.1,0-.16-.05-.05,0-.1,0-.21-.05-.1,0-.21-.05-.31-.1-.05,0-.1,0-.21-.05-.1,0-.21-.05-.26-.1-.1,0-.16-.05-.26-.1-.42-.16-.89-.37-1.36-.63-.1,0-.16-.1-.26-.1h-.05c-.16-.05-.31-.16-.42-.26-.47-.26-.94-.52-1.41-.84-.1,0-.16-.1-.21-.16-.1,0-.16-.1-.21-.16-.05,0-.16-.1-.21-.16-.16-.1-.26-.16-.37-.26-.26-.16-.52-.37-.73-.52-.1-.1-.26-.16-.37-.26-.73-.58-1.52-1.2-2.25-1.88h0c-.31-.26-.58-.58-.89-.84-.1-.1-.16-.16-.26-.26h0c-.37-.42-.79-.84-1.15-1.26-.1-.1-.21-.26-.31-.42-.63-.84-1.31-1.99-1.73-3.3h0v-.05c-.21-.63-.31-1.26-.37-1.99h0c0-.68,0-1.41,.16-2.15h0s.21,.79,.47,1.73h0c.1,.37,.26,.79,.42,1.26,.58,1.47,1.41,3.25,2.56,4.66,.37,.42,.73,.84,1.1,1.15h0c.94,.94,1.94,1.78,2.93,2.56,3.4,2.62,6.86,4.19,8.58,3.93,.16-.52,.42-1.62,.58-3.14,.1-1.26,.1-2.77-.16-4.4-.16-.79-.37-1.62-.63-2.41-.21-.63-.47-1.2-.79-1.83,.42,.05,.89,.1,1.31,.16,.31,.63,.52,1.26,.73,1.83,.21,.63,.37,1.2,.47,1.83,.16,.68,.21,1.31,.26,1.94,0,.58,.05,1.15,0,1.67l-.05-.26Z"/>
        <path class="cls-17" d="M99.84,46.53s-.42-.05-.89-.37c-.58-.37-1.15-1.15-1.1-2.62v-.1h0l1.26-.37s-.26,.58-.26,1.31c0,.63,.21,1.47,.94,2.15h.05Z"/>
        <path class="cls-17" d="M97.9,43.34s-.16,2.72,.99,3.66c0,0,.79,2.46,1.26,3.77,.47,1.31,.26-1.05,.26-1.05l-.1-.73,.1-.73-.47-1.73-.84-.99-1.15-2.2h-.05Z"/>
        <path class="cls-17" d="M98.11,42.71s-.84,2.04,.31,3.66c1.15,1.62,.47-.84,.47-.84l-.42-.99,.16-.99v-.52l-.52-.31Z"/>
        <path class="cls-14" d="M105.86,44.7s-5.18-3.87-6.86-.63c0,0,3.09-.42,4.45,2.15,.47,.84,2.36-1.52,2.36-1.52h.05Z"/>
        <path class="cls-17" d="M131.08,55.32v1.62l-.05,.31v.99l-.47-1.26-.58-1.52h0v-.1h0c-.21-.47-.84-1.83-2.09-3.09-2.04-2.04-4.76-2.77-8.01-2.25-.58,.1-1.1,.16-1.67,.16h-1.88c-.05-.16-.16-.31-.21-.42h0c0-.05-.05-.16-.1-.21h0c0-.05-.1-.16-.1-.21l-.63,.37-.37,.21s.1,.16,.16,.26c-.63-.1-1.26-.21-1.88-.37-.1,0-.16,0-.21-.05-.47-.1-.89-.21-1.31-.37-2.83-.89-5.29-2.2-6.8-3.19,.37,.68,.79,1.47,1.31,2.3,0,.05,.1,.16,.16,.21h0s0,.05,.05,.1c1.73,2.77,4.08,6.02,6.44,7.17,.1,.05,.26,.1,.37,.16,.05,0,.1,0,.16,.05l-.37,1.05h-.1c-.05,0-.1,0-.16-.05-.1,0-.16-.05-.26-.1h0c-.1,0-.16-.1-.26-.16-.05,0-.1-.05-.16-.1-.1-.05-.26-.16-.37-.21,0,0-.1-.05-.1-.1h0c-.1-.05-.21-.16-.31-.21-.1-.05-.16-.1-.26-.21-.05,0-.1-.1-.16-.16-.05,0-.1-.1-.16-.16-.16-.1-.26-.26-.42-.37-.05-.05-.1-.1-.16-.16-.16-.16-.31-.31-.47-.47s-.31-.31-.47-.47c-.1-.1-.21-.26-.31-.37-.16-.21-.31-.37-.47-.58-.05-.1-.16-.16-.21-.26-.05-.1-.16-.16-.21-.26v-.05c-.1-.16-.21-.26-.31-.42v-.05c-.05-.1-.16-.16-.21-.26-.05-.1-.1-.16-.21-.26-.05-.1-.1-.16-.21-.26-.05-.1-.1-.16-.21-.26-.1-.16-.21-.26-.31-.42-.31-.42-.58-.84-.84-1.26-.05-.1-.1-.21-.21-.31-.37-.63-.73-1.2-1.05-1.78,0-.05-.05-.1-.1-.16-.21-.31-.37-.68-.52-.94h0c-.1-.21-.21-.42-.31-.63,0-.05-.05-.1-.1-.16,0-.1-.1-.16-.1-.21-.16-.37-.26-.58-.31-.63l-.42-.94c.47,.16,.99,.31,1.57,.52l-.42,1.05h.31c.1,0,.16,.05,.26,.1h0s.1,0,.16,.05c.05,0,.1,0,.21,.05h.1c.1,0,.26,.05,.37,.1h0c.05,0,.16,0,.21,.05,.05,0,.16,0,.21,.05,.1,0,.21,0,.31,.05h0s.42,.1,.68,.16c.1,0,.21,0,.31,.05h0c.1,0,.26,0,.37,.05,1.36,.73,3.04,1.52,4.92,2.04h0c1.73,.52,3.61,.84,5.55,.84,.68,0,1.31-.05,1.99-.16,3.19-.52,5.55,.16,7.22,1.2,.73,.42,1.31,.94,1.78,1.41,.16,.16,.31,.31,.47,.47,.31,.37,.58,.68,.79,.99h0s.1,.16,.16,.26h0c.21,.31,.37,.63,.52,.84-.47-2.04-1.26-3.98-1.94-5.39h0c-.05-.16-.1-.31-.21-.47,0-.05-.05-.1-.1-.16,0-.05-.05-.16-.1-.21,0-.1-.05-.16-.1-.26h0c-.1-.21-.21-.37-.31-.58-.1-.21-.21-.37-.31-.58h0c-.99-1.52-2.3-2.93-4.19-3.98-.1-.05-.21-.1-.31-.16h-.1c-.16-.1-.31-.16-.47-.21-.05,0-.16-.05-.21-.1-.05,0-.1-.05-.16-.1-.16-.05-.31-.16-.47-.21-.1,0-.21-.1-.26-.1-.1,0-.21-.1-.31-.1h-.05c-.1,0-.21-.05-.31-.1h0c-.05,0-.1,0-.21-.05-.05,0-.1,0-.21-.05-.1,0-.16,0-.26-.05-.05,0-.16,0-.21-.05-.16,0-.26-.05-.42-.1-.1,0-.26-.05-.37-.1h0c-.1,0-.21,0-.26-.05-.1,0-.21,0-.31-.05-.26,0-.52-.1-.79-.1-.63-.1-1.26-.1-1.88-.16-3.77,0-6.65,1.26-7.75,1.99l-.26,.21-.31-.16s-1.15-.58-2.51-.94c-.05,0-.16,0-.21-.05-1.41-.37-3.09-.52-4.24,.16-.52,.31-.94,.84-1.2,1.52-.16,.37-.21,.84-.26,1.31h0v.89h0v.31h0v.37h0v.1c-.05,0-.16-.1-.21-.16l-.1-.1-.05-.05-.05-.05c0-.05-.1-.1-.16-.16v-.05c-.1-.16-.21-.31-.26-.47,0-.05,0-.1-.05-.21v-.47h0v-.31h0v-.21h0v-.21h0v-.31h0c0-.05,0-.16,.05-.21s0-.16,.05-.21h0v-.1h0c0-.05,0-.1,.05-.16v-.1h0c.05-.16,.16-.31,.21-.42v-.1h0v-.1h0v-.05h0l.1-.1h0l.1-.1h0l.1-.1,.1-.1h.05l.05-.05h0s.05,0,.1-.05h0s.05,0,.1-.05h0s.05,0,.1-.05c.05,0,.16-.1,.21-.16,1.15-.68,2.62-.73,3.98-.47h.26c.52,.1,.99,.21,1.47,.37,.89,.26,1.62,.58,1.99,.73,.1-.05,.21-.1,.31-.16,.47-.26,1.1-.58,1.88-.84,.21-.1,.42-.16,.68-.21,.16,0,.26-.1,.42-.1,.37-.1,.79-.21,1.15-.31,.47-.1,.99-.21,1.52-.26h.21c.68-.05,1.36-.1,2.04-.1h.42c.47,0,.89,.05,1.36,.1,.47,.05,.94,.16,1.41,.26,.58,.1,1.1,.26,1.62,.42,1.1,.37,2.2,.84,3.25,1.41,3.09,1.73,5.34,4.66,6.49,8.58,.84,2.93,.79,5.29,.79,5.39l.37-.73Z"/>
        <path class="cls-17" d="M103.87,44.12c.58,.42,1.73,1.2,3.3,2.04-2.25-.42-3.66-.99-3.82-1.05l.42-1.05h.05s.03,0,0,0l.05,.05Z"/>
        <path class="cls-14" d="M103.97,43.6s2.09,1.36,5.71,1.73c3.61,.37,.58,1.1,.58,1.1l-2.36-.26-2.25-.89-1.73-1.67h.05Z"/>
        <path class="cls-17" d="M118.73,32.24s-.31-.52-.52-.73c-.1-.1-.21-.21-.31-.31h0c-.37-.31-.79-.58-1.26-.73-.1,0-.26-.1-.37-.1-.26-.05-.52-.1-.79-.16h-.79c-.47,0-.94,.16-1.41,.31-.16,.05-.31,.16-.47,.21-.1,.05-.21,.1-.31,.21-.47,.31-.84,.68-1.15,1.15,0,.05-.05,.1-.1,.16,0,0-.05,.1-.05,.16,0,0-.05,.1-.05,.16-.1,.21-.21,.47-.26,.73-.1,.26-.1,.58-.16,.84,0,.37,.37,.73,.68,.73s.58-.21,.63-.47c0-.05,0-.16,.05-.26v-.21c0-.1,.05-.21,.1-.37v-.26h0c0-.05,.05-.1,.1-.16,0-.1,.1-.16,.16-.26,0,0,.05-.1,.1-.1h0c.16-.16,.26-.31,.42-.42h0s.05,0,.1-.05c.1-.05,.21-.1,.26-.16,.1,0,.16-.1,.26-.1h0s.1,0,.16-.05c.21-.05,.42-.1,.63-.16h.79c.21,0,.42,.1,.63,.16h.1c.1,0,.21,.1,.31,.16,0,0,.05,0,.1,.05h.05s.1,.1,.16,.1c.1,.05,.16,.16,.21,.26h0l.05,.05h0v.05c.1,.1,.16,.21,.21,.37,0,.05,0,.1,.05,.16h0s0,0,0,0h0c0,.05,0,.1,.05,.16,.1,.31,.21,.63,.26,.99,0,.16,.05,.31,.1,.47h0v1.52c0,.21,0,.37-.05,.58h0v.1c0,.1,0,.21-.05,.31v.21h0v.16h0v.26h0c0,.16-.1,.31-.16,.47-.05,.16-.1,.37-.16,.52,0,.05,0,.1-.05,.16v.21h0v.05c-.1,.31-.1,.63,.1,.89,.26,0,.52,.05,.79,.1,.16-.05,.26-.16,.31-.26,.1-.26,.21-.47,.31-.73,.21-.52,.37-1.1,.47-1.62,.16-.73,.21-1.47,.21-2.2,0-1.15-.26-2.46-.84-3.45l.37,.16Zm-1.47,.37h0l-.05-.05,.05,.05Z"/>
        <path class="cls-17" d="M101.25,33.18s2.88-3.93,6.07-3.77c0,0-5.39-2.04-6.07,3.77Z"/>
        <path class="cls-17" d="M118.16,28.58s-.31,.31-.47,.47c-.1,.1-.21,.21-.31,.26,0,0-.05,.05-.1,.1-.37-.1-.68-.21-1.05-.31h0s-.42-.1-.63-.1c-1.26-.21-2.25-.21-2.25-.21,.1-.05,.26-.16,.37-.21,1.2-.63,2.25-.79,3.04-.63,.21,0,.37,.1,.52,.16,.31,.1,.58,.26,.84,.47h.05Z"/>
        <path class="cls-2" d="M104.29,36.48s1.47,4.08,6.49,1.73v1.62l-.99,1.05-2.2,.73-2.09-.63-1.41-.68-.31-3.09,.52-.73Z"/>
        <path class="cls-17" d="M109.73,40.2h0c-.26,.58-.68,.99-1.2,1.05-.21,0-.47,0-.63-.16-.58-.37-1.05-1.2-1.1-2.2-.1-1.36,.58-2.51,1.47-2.56,.89,0,1.67,.99,1.73,2.36,0,.58-.05,1.1-.26,1.52Z"/>
        <path class="cls-17" d="M111.98,39.52s-.1,.52-.21,.79c-.1,.37-.47,.58-.89,.47-.37-.1-.58-.47-.52-.84h0c.1-.26,.16-.58,.21-.84,.05-.26,.1-.58,.16-.84v-.26h0v-.26c0-.47,.05-.94,0-1.41v-.63h0v-.16c0-.1,0-.16-.05-.26,0-.21-.1-.37-.16-.52,0-.1-.05-.16-.1-.26v-.05h0c-.16-.31-.26-.58-.47-.84h0c0-.05-.1-.1-.16-.16-.1-.1-.21-.21-.31-.31l-.05-.05s-.1-.05-.16-.1c-.1-.05-.21-.16-.37-.21-.05,0-.1-.05-.16-.1h0c-.1,0-.26-.1-.37-.1h-1.2c-.26,0-.52,.1-.73,.21h-.05c-.05,0-.1,.05-.16,.1-.1,.05-.26,.16-.37,.21,0,0-.1,.05-.1,.1h0l-.05,.05c-.1,.1-.21,.21-.31,.31,0,.05-.1,.1-.16,.16,0,0-.05,.05-.1,.1h0c-.05,.1-.1,.16-.16,.26-.1,.16-.16,.26-.21,.42v.1c0,.05,0,.1-.05,.21-.05,.16-.1,.31-.16,.47,0,.1,0,.16-.05,.26v.1h0v1.47h0v.05h0c0,.16,.05,.37,.1,.52,.1,.47,.26,.94,.42,1.41,0,.1,.05,.21,.1,.31h0c0,.05,.05,.1,.1,.21,.1,.26,.26,.52,.42,.79v.1c.1,.31,0,.68-.31,.89-.1,.1-.26,.1-.42,.1-.05,0-.16,0-.21-.05-.16-.05-.26-.16-.31-.31-.16-.26-.26-.52-.37-.79,0-.05-.05-.16-.1-.26-.73-1.73-1.2-3.61-.73-5.44,.31-1.36,1.2-2.56,2.41-3.25,.84-.47,1.83-.63,2.72-.52,.31,0,.63,.1,.94,.21,.47,.21,.94,.47,1.31,.79,.26,.21,.47,.42,.68,.68,.37,.47,.68,1.05,.89,1.62,0,.05,0,.16,.05,.21,.52,1.67,.31,3.51-.1,5.18l-.1-.05Z"/>
        <polygon class="cls-17" points="130.98 58.31 130.56 57.05 131.03 57 131.03 57.31 130.98 58.31"/>
        <path class="cls-3" d="M120.3,31.51c.16,.31,.31,.63,.47,.99-.58-1.2-1.62-2.09-1.78-2.25,.42,.31,.84,.63,1.1,1.1,0,0-.05-.21-.21-.52,.16,.21,.31,.47,.42,.68Z"/>
      </g>
      <g>
        <path class="cls-9" d="M25.67,92.64c-3.3,0-4.97-1.26-5.81-2.36-1.15-1.47-1.41-3.35-.84-5.44,.42-1.62,1.15-3.72,1.94-5.81-1.26-.05-2.46-.68-3.4-1.67-1.2-1.26-1.78-3.04-1.57-4.76,.21-2.04,1.47-4.29,3.4-6.02,1.67-1.52,4.71-3.4,9.63-3.87,.58-.05,1.1-.1,1.62-.1,6.91-.1,10.62,3.82,11.2,7.75,.42,2.93-.79,5.86-3.19,7.9,.73,1.05,1.15,2.3,1.15,3.66,0,2.46-1.36,4.97-3.72,6.96-1.67,1.47-4.66,3.25-9.26,3.72-.37,0-.79,.05-1.15,.05h0Zm3.4-10.94c-.63,1.78-.89,2.77-1.05,3.35,1.52-.52,2.51-2.3,2.46-3.25v-.05h-1.36l-.05-.05Zm3.45-9.79s-.26,.73-.63,1.67c.31-.58,.58-1.15,.63-1.73v.05Z"/>
        <path class="cls-9" d="M38.29,90.02c-1.88,0-3.51-1.05-4.24-2.83h0v-.1c-.31-.89-.21-1.88,.31-2.67,.52-.73,1.31-1.2,2.2-1.2,.05,0,.1-.1,.16-.1,.21-.16,.99-.99,2.98-4.34-.79-.84-1.2-1.88-1.36-2.41-.31-.89-.16-1.88,.31-2.67,.52-.79,1.36-1.31,2.3-1.36h.73c.52,0,1.62-.1,2.88-.16,1.47-.1,3.04-.26,3.87-.31,.37,0,.58-.05,.68-.05h.26c1.31,0,3.09,.58,3.98,1.99,.58,.99,.63,2.15,.16,3.25,1.05,.1,1.99,.68,2.51,1.62,.58,1.05,.47,2.36-.21,3.4-4.24,6.39-5.81,7.01-7.01,7.12h-.21c-1.47,0-3.87-.84-5.13-2.62-.89,1.47-1.73,2.36-2.62,2.83h0c-.63,.37-1.26,.58-1.94,.63h-.63Z"/>
        <path class="cls-9" d="M54.83,88.66c-2.62,0-5.5-1.78-5.65-4.87-.16-2.25,.63-5.18,2.04-7.59,1.83-3.09,4.4-4.92,7.22-5.08h.42c.79,0,1.47,.1,2.09,.31,.52-.31,1.1-.52,1.73-.58h.21c.94,0,2.98,.37,3.98,2.04,.58,.99,.63,2.2,.1,3.25,1.05,.1,1.94,.73,2.46,1.62,.58,1.05,.47,2.36-.26,3.4-4.4,6.39-5.81,6.96-7.12,7.01h-.16c-.94,0-2.25-.37-3.4-1.05-1.1,.94-2.2,1.41-3.3,1.52h-.37Z"/>
        <path class="cls-9" d="M68.7,87.83c-2.72,0-5.08-1.26-6.18-3.45-.94-1.88-.84-4.03,.37-5.6l.89-1.15c.52-.68,.94-1.26,1.36-1.78,.52-2.36,2.51-5.13,5.6-6.23,.47-.21,.89-.21,1.05-.21h.1c2.04,0,3.61,1.83,3.98,3.61,.31,1.41-.16,2.46-.89,3.09,.47-.31,.99-.47,1.52-.47h.1c1.2,0,2.25,.63,2.83,1.67,.58,1.1,.47,2.41-.31,3.4-1.67,2.36-3.72,4.45-5.29,5.39-.89,.73-2.41,1.57-4.82,1.73h-.31Zm5.23-10.83h.05s.31-.37,.47-.52c-.1,0-.16,.1-.26,.1s-.26,.16-.37,.26c0,0,.05,.1,.1,.1v.05Z"/>
        <path class="cls-9" d="M78.43,87.3c-2.62,0-5.55-1.88-5.71-5.02-.1-2.25,.79-5.18,2.25-7.54,1.88-3.04,4.5-4.76,7.38-4.92h.21c.84,0,1.62,.1,2.3,.37,.52-.31,1.1-.52,1.73-.52h.1c.99,0,3.04,.42,4.03,2.09,.58,.99,.63,2.25,0,3.3,1.05,.1,1.94,.73,2.41,1.67,.58,1.1,.42,2.41-.31,3.45-4.55,6.23-6.02,6.8-7.33,6.86h-.05c-.94,0-2.3-.37-3.51-1.15-1.15,.89-2.25,1.36-3.3,1.41h-.21Z"/>
        <path class="cls-1" d="M78.38,85.99c-2.04,0-4.29-1.41-4.4-3.77-.1-1.99,.73-4.66,2.04-6.8,1.67-2.67,3.93-4.19,6.33-4.29h.16c1.1,0,1.88,.26,2.46,.58,.42-.47,.94-.73,1.57-.79h.05c.79,0,2.25,.37,2.88,1.47,.37,.63,.37,1.41,0,2.09-.31,.52-.89,1.94-1.47,3.35,.21-.21,.52-.63,.52-.63h0s.73-.84,1.62-.84h0c.68,0,1.36,.37,1.67,.99,.31,.63,.26,1.47-.21,2.09-4.55,6.23-5.71,6.28-6.33,6.33h-.05c-.79,0-2.41-.47-3.51-1.52-1.2,1.15-2.3,1.78-3.3,1.83h-.1l.05-.1Zm4.13-10.15s-.47,.42-.73,.79c-.89,1.15-1.52,2.67-1.78,3.82,.21-.21,.37-.42,.63-.73,1.05-1.36,1.73-2.93,1.94-3.82l-.05-.05Z"/>
        <path class="cls-9" d="M104.65,86.73c-4.66,0-7.07-3.14-7.33-6.12-.21-2.72,1.2-5.86,4.82-7.22,0-.68,.1-1.41,.47-2.15,.84-1.83,3.09-3.72,6.18-3.77h0c.37,0,.73,0,1.1,.05,2.67,.37,3.82,2.25,3.93,3.72,.1,1.1-.26,2.15-.94,2.98l.1,.1c1.15,.89,1.52,2.3,.94,3.72-.47,1.1-1.36,1.67-2.15,1.99,.1,1.05-.1,2.2-.68,3.19-1.15,2.15-3.51,3.45-6.44,3.51h0Z"/>
        <path class="cls-1" d="M104.6,85.89c-4.13,0-6.23-2.72-6.49-5.34-.21-2.56,1.26-5.55,4.92-6.59-.16-.73-.1-1.57,.26-2.36,.73-1.62,2.72-3.25,5.39-3.3h0c.31,0,.63,0,.99,.05,2.2,.31,3.09,1.73,3.19,2.93,.16,1.52-.84,2.93-2.3,3.45-.21,.05-.42,.1-.63,.1h-.42v.21c0,.37-.26,.99-.68,1.52,.42-.05,.79-.16,1.1-.26,.73-.21,.84-.42,.84-.42,0-.63,.42-1.1,.99-1.1,.26,0,.42,.1,.52,.16h.05l.05,.1c.84,.63,1.1,1.67,.68,2.72-.42,.94-1.31,1.47-2.36,1.78,.26,1.05,.1,2.25-.47,3.35-.99,1.88-3.09,2.98-5.71,3.04h0l.05-.05Zm1.05-8.79c-2.56,0-3.66,1.67-3.66,3.25,0,1.15,.73,2.3,2.25,2.3h0c1.88,0,2.36-1.2,2.46-1.57,.1-.31,.05-.63,0-.79-.89,.21-1.36,.47-1.36,.79,0,.63-.47,1.1-1.05,1.1-.16,0-.31,0-.42-.1-.68-.26-1.26-.89-1.41-1.67-.21-.84,.1-1.67,.68-2.25,.58-.52,1.47-.84,2.46-1.05h.05Zm1.73-3.45s.37,0,.52,.05c-.1-.16-.16-.31-.21-.47-.1-.58,.21-1.1,.73-1.31,.73-.31,.99-.84,.99-.94,0,0-.16-.1-.42-.1h-.16c-1.2,0-2.04,1.1-2.15,1.88,0,.31,0,.73,.73,.89h-.05Z"/>
        <path class="cls-5" d="M107.43,76.31h-.1c-.68-.16-1.31-.21-1.88-.21-5.76,.05-5.81,7.22-1.41,7.17,3.4,0,4.03-3.35,2.77-4.13-1.36,.26-2.46,.68-2.51,1.67,0,.16-.1,.31-.21,.31h-.1c-.94-.26-1.36-1.67-.47-2.46,1.78-1.62,7.96-.89,7.9-2.93,0-.16,.05-.21,.16-.21h.1c.58,.42,.68,1.05,.42,1.73-.37,.89-1.47,1.26-2.72,1.52,1.31,1.99-.1,6.07-5.02,6.12-7.17,.05-7.75-9.32-.37-10.47-1.52-1.83,.84-5.34,4.5-5.39,.26,0,.58,0,.89,.05,3.35,.47,3.04,4.03,.73,4.76-.1,0-.26,.05-.37,.05-.99,0-1.88-1.1-1.26-1.31,1.62-.63,2.25-2.51,.37-2.72h-.31c-2.62,0-4.34,3.82-1.57,4.45,.47,.05,.89,.1,1.41,.21,.42,.1-.37,1.78-.99,1.78h.05Z"/>
        <path class="cls-9" d="M125.27,86.83h-.31c-2.56-.05-4.55-1.31-5.55-3.45-.94-2.09-.79-5.02,.42-6.54,.52-.73,1.41-1.15,2.3-1.15h.1c1.15,0,2.15,.73,2.56,1.78,.21,.05,.47,.1,.79,.16h.16c.68,0,1.52-.16,2.3-.42-3.19-1.2-8.27-3.3-7.22-7.9,1.2-5.29,9.32-11.67,14.97-11.78h.31c5.08,.1,6.86,3.19,6.86,6.02,0,3.87-3.14,8.37-6.39,9.74,1.05,1.15,1.67,2.62,1.36,4.45-.89,5.34-8.22,9-12.67,9.05h0v.05Z"/>
        <path class="cls-9" d="M146.58,85.99h-.16c-.94,0-2.3-.52-3.45-1.41-1.1,.73-2.2,1.15-3.19,1.15h-.21c-1.31,0-2.62-.58-3.61-1.41-1.2-1.05-1.88-2.46-1.83-4.03,.16-3.93,3.87-11.57,10.15-11.62h.37c.94,0,1.73,.21,2.46,.58,.47-.26,.99-.37,1.57-.42h.21c1.1,0,3.09,.68,3.93,2.36,.52,1.05,.47,2.3-.21,3.3,.99,.21,1.83,.89,2.25,1.83,.47,1.15,.26,2.46-.58,3.45-4.92,5.76-6.39,6.23-7.64,6.28l-.05-.05Z"/>
        <path class="cls-9" d="M157.25,86.47h-.31c-.99,0-1.88-.31-2.72-.73-.47,.31-1.05,.47-1.67,.52h-.58l-.31-.1c-1.57-.52-4.45-2.25-4.29-5.34,0-.79,.16-2.46,4.97-10.83,2.25-3.93,4.5-7.43,4.55-7.59h0v-.16c.58-.79,1.52-1.83,3.35-1.83h.37c.99,0,2.88,.58,3.72,2.15,.52,.99,.52,2.15,0,3.14-.05,.1-.16,.26-.47,.84-.37,.68-.99,1.73-1.73,2.98,2.41,.47,3.98,2.51,3.93,5.23,0,2.15-1.05,4.87-2.62,7.28-1.36,1.99-3.51,4.4-6.23,4.45h.05Z"/>
        <path class="cls-9" d="M168.4,87.09h-.73c-2.51-.16-4.34-1.1-5.5-2.83-.99-1.47-1.1-3.09-.99-4.19,.26-3.93,4.55-9.94,10.47-10.05h.73c3.77,.26,5.34,2.36,5.91,3.61,.37,.73,.52,1.52,.58,2.41,.99,.21,1.83,.94,2.2,1.88,.47,1.15,.21,2.41-.63,3.4-1.47,1.67-3.14,3.35-6.12,3.61-1.78,1.36-3.87,2.15-5.91,2.15Z"/>
        <path class="cls-9" d="M185.99,97.3h-.68c-3.14-.26-5.76-1.94-7.17-4.55-1.78,.26-3.66,.58-5.6,.89-4.82,.84-10.26,1.78-15.96,1.83-1.73,0-3.45,0-5.08-.16-2.25-.21-4.29-.99-5.81-2.36-1.83-1.62-2.77-3.87-2.56-6.39,.26-3.4,2.09-3.93,3.14-3.93h.26c.84,.05,1.57,.47,2.15,1.15h0c.84,1.1,2.3,1.73,4.45,1.88,2.83,.21,5.76,.31,8.9,.26,3.82-.05,7.38-.31,10.78-.52,1.52-.1,2.93-.21,4.34-.26,.16-.89,.42-1.78,.73-2.67h-.31c-1.26-.1-2.36-.94-2.77-2.09-.42-1.15-.16-2.41,.73-3.3h0c.37-.37,.68-.73,1.1-1.1-.37-.79-.52-1.57-.58-1.94-.16-.89,.1-1.78,.68-2.46,.58-.68,1.41-1.1,2.3-1.1h.31c.16,0,.26,0,.42,.05h.1l.16,.05c.37,0,1.2,.16,2.72,.26,1.36,.1,2.88,.21,3.66,.26h.68c1.1,.1,3.04,.84,3.77,2.51,.52,1.1,.37,2.41-.42,3.4-.68,.94-3.35,5.44-4.29,8.11h0c4.03,.84,5.81,3.82,5.71,6.44-.1,3.14-2.67,5.55-5.91,5.6h0l.05,.1Z"/>
        <path class="cls-1" d="M185.99,96.04h-.58c-3.04-.26-5.44-1.99-6.49-4.66-2.09,.26-4.29,.63-6.59,1.05-4.76,.84-10.15,1.73-15.75,1.83-1.73,0-3.35,0-4.97-.16-1.94-.16-3.77-.89-5.08-2.04-1.52-1.36-2.3-3.25-2.09-5.29,.05-.68,.21-2.72,1.88-2.72h.16c.47,0,.94,.26,1.31,.73h0c1.1,1.36,2.83,2.15,5.39,2.36,2.88,.26,5.81,.31,9,.26,3.82-.05,7.43-.31,10.83-.52,1.88-.1,3.66-.26,5.39-.37,.16-1.2,.47-2.51,.94-3.82,.52-1.47,1.67-3.35,2.72-4.97-.73,.84-1.67,1.88-2.67,2.88h0c-.52,.58-1.1,.68-1.47,.68h-.16c-.73-.05-1.41-.58-1.67-1.26-.26-.68-.05-1.41,.47-1.94h0c.63-.63,1.26-1.26,1.83-1.83-.58-.68-.84-1.62-.94-2.3-.1-.52,0-1.05,.37-1.47,.31-.37,.79-.63,1.31-.63h.16c.1,0,.21,0,.31,.05h.1c.31,0,1.26,.16,2.93,.31,1.41,.1,2.93,.21,3.72,.26h.63c.84,.05,2.2,.68,2.72,1.78,.31,.68,.21,1.47-.26,2.09-.84,1.1-3.51,5.71-4.45,8.48-.16,.52-.31,.99-.42,1.52h.21c4.13,.37,5.91,2.88,5.86,5.29-.1,2.46-2.09,4.29-4.66,4.34h0v.05Z"/>
        <path class="cls-5" d="M145.95,85.05s.26,.1,.42,.26c1.47,1.83,3.72,2.62,6.28,2.83,10.26,.84,18.89-.31,26.59-.63,0-1.36,.31-2.93,.94-4.66,.73-1.94,2.72-4.97,4.19-7.01-.94,0-1.99-.1-2.83-.16-.84,.89-2.09,2.36-3.4,3.77-.21,.21-.42,.31-.63,.26-.47,0-.79-.58-.42-.99,1.15-1.1,2.25-2.25,3.09-3.14h-.37c-.94-.05-1.36-1.47-1.41-2.09-.05-.37,.16-.63,.42-.58h.1c.21,.1,1.67,.26,3.3,.37,1.94,.16,4.08,.31,4.34,.31,.68,.05,2.2,.84,1.52,1.78-.94,1.26-3.66,5.97-4.66,8.85-.37,1.1-.63,2.2-.68,3.19,.52,0,1.05,0,1.57,.05,6.59,.52,5.6,7.38,.84,7.01-2.72-.21-4.97-1.88-5.71-4.82-8.01,.89-17.69,3.66-28.16,2.83-3.25-.26-6.28-2.3-6.02-5.91,0-.31,.16-1.57,.63-1.57l.05,.05Zm36.95,4.34c.37,1.41,1.2,2.41,2.72,2.51,1.73,.16,2.41-2.3-.37-2.51-.79-.05-1.57-.05-2.36,0Z"/>
        <path class="cls-1" d="M125.27,85.52h-.26c-2.04,0-3.61-.99-4.4-2.67-.84-1.78-.52-4.19,.26-5.18,.31-.42,.79-.63,1.31-.68h.05c.68,0,1.26,.47,1.41,1.1v.16l.05,.16c.16,.21,.99,.58,1.88,.58h.21c1.1,0,2.51-.31,3.72-.84,.89-.37,1.41-.73,1.67-.99-.58-.31-1.67-.73-2.46-1.05-3.14-1.2-7.38-2.88-6.54-6.49,1.1-4.76,8.64-10.68,13.71-10.78h.26c5.18,.1,5.55,3.66,5.55,4.71,0,3.82-3.87,8.79-6.86,8.85h-.1c-1.26,0-2.83-1.73-3.19-2.2s-.42-1.15-.21-1.78c.21-.52,.68-.94,1.2-1.05,1.41-.31,2.67-1.52,3.3-2.56,.42-.63,.58-1.15,.63-1.47-.63,.16-2.15,.99-3.93,2.51-2.04,1.73-3.14,3.25-3.35,4.08,.31,.42,1.62,1.1,2.41,1.47,2.41,1.26,5.65,2.93,5.08,6.12-.79,4.55-7.33,7.9-11.41,7.96v.05Z"/>
        <path class="cls-5" d="M125.17,79.98c2.51,.05,6.7-1.41,7.07-3.14,.37-2.04-10.21-2.98-9.21-7.17,.94-4.08,8.11-9.84,12.67-9.74,8.64,.21,2.09,11.04-1.36,10.99-.47,0-1.73-1.05-2.15-1.67-.1-.16-.1-.68,.21-.73,3.82-.79,6.59-6.59,3.87-6.65-2.09,0-8.22,4.97-8.79,7.69-.58,2.46,8.22,3.56,7.48,7.59-.68,3.93-6.96,6.96-10.31,6.91-4.34-.1-3.82-4.97-3.14-5.76,.05-.1,.21-.16,.31-.16s.21,.05,.21,.16c.1,1.31,2.09,1.73,3.14,1.78v-.1Z"/>
        <path class="cls-1" d="M146.58,84.69h-.1c-.84,0-2.46-.68-3.4-1.83-1.2,.99-2.3,1.52-3.3,1.57h-.16c-.99,0-2.04-.42-2.83-1.1-.94-.79-1.41-1.83-1.36-2.98,.16-3.61,3.61-10.31,8.9-10.42h.31c1.15,0,1.99,.37,2.56,.79,.42-.42,.94-.63,1.52-.63h.1c.84,0,2.25,.58,2.77,1.62,.31,.68,.26,1.41-.16,2.09-.37,.52-1.05,1.83-1.73,3.19,.21-.21,.42-.42,.58-.58h0c.52-.47,.99-.68,1.57-.73h.1c.73,0,1.36,.47,1.62,1.1,.31,.68,.16,1.47-.37,2.09-4.97,5.81-6.07,5.81-6.7,5.81h.05Zm-2.15-10.1s-.52,.42-.89,.84c-.94,1.1-1.62,2.46-1.99,3.51,.26-.21,.52-.52,.84-.89,1.05-1.26,1.78-2.62,2.04-3.45Z"/>
        <path class="cls-1" d="M157.25,85.16h-.21c-1.15-.05-2.15-.47-2.98-1.15-.26,.52-.84,.89-1.52,.89h-.31l-.16-.05c-1.2-.42-3.51-1.73-3.4-4.03,0-.58,.1-2.15,4.82-10.26,2.25-3.93,4.5-7.48,4.55-7.54h0v-.05c.47-.63,1.1-1.31,2.36-1.31h.31c.68,0,2.04,.37,2.62,1.47,.31,.63,.31,1.31,0,1.94,0,.1-.16,.26-.47,.84-.63,1.05-1.67,2.93-2.88,5.08,.42-.16,.79-.21,1.2-.21h.21c2.2,.1,3.56,1.67,3.51,4.03,0,1.94-.94,4.4-2.41,6.59-.94,1.41-2.88,3.82-5.18,3.87h0l-.05-.1Zm-1.62-5.6c0,.31,.16,.52,.26,.63,.37-.26,1.1-1.1,2.04-2.67,.26-.47,.52-.89,.68-1.31-.99,.89-2.15,2.2-2.98,3.3v.05Z"/>
        <path class="cls-5" d="M158.72,63.49c.47-.63,.79-.79,1.52-.79s2.04,.58,1.52,1.47c-.1,.21-3.61,6.18-6.12,10.99,1.67-1.83,3.82-3.51,5.23-3.4,5.55,.31-.42,12.09-4.19,11.88-1.83-.1-3.09-1.31-3.61-2.83-.21,.68-.42,1.52-.52,2.15,0,.31-.21,.42-.52,.42-.94-.31-2.56-1.31-2.51-2.72,.16-2.93,9.16-17.22,9.16-17.22l.05,.05Zm-4.82,15.49c0,1.15,.52,2.3,1.62,2.36,1.67,.1,5.91-7.75,4.34-7.8-1.36-.05-4.76,3.66-5.97,5.44Z"/>
        <path class="cls-1" d="M168.4,85.78h-.63c-2.09-.16-3.61-.89-4.5-2.25-.79-1.15-.84-2.46-.79-3.35,.26-3.51,4.19-8.74,9.16-8.85h.63c2.98,.21,4.24,1.67,4.82,2.83,.42,.94,.58,2.04,.42,3.14,.21-.05,.42-.1,.63-.1h.16c.73,0,1.31,.47,1.57,1.15,.26,.68,.1,1.47-.42,2.04-1.41,1.62-2.88,3.09-5.6,3.19-1.62,1.36-3.56,2.09-5.44,2.15v.05Zm4.13-9.94s-1.26,.37-1.36,1.73c0,.58,.26,.99,.63,1.36,.99-1.41,1.2-2.72,.99-2.98,0,0-.1-.05-.31-.1h.05Z"/>
        <path class="cls-5" d="M171.8,72.44c4.97,.31,4.92,4.82,2.51,8.16,.63-.1,1.2-.42,1.67-.84,.63-.63,.84-.84,1.1-1.05,.26-.26,.52-.37,.73-.37,.47,0,.73,.58,.31,1.05-1.47,1.67-2.67,2.83-5.13,2.77-1.52,1.36-3.4,2.25-5.5,2.09-3.82-.26-4.19-2.77-4.08-4.19,.21-2.83,3.77-7.9,8.43-7.59l-.05-.05Zm-3.19,9.68c.58,0,1.2-.16,1.83-.58-1.47-.73-2.56-2.15-2.62-4.13-.58,.94-.94,1.94-.99,2.83,0,.63,.16,1.73,1.78,1.83v.05Zm3.66-7.8c-.84-.05-2.56,.89-2.72,2.93-.1,1.41,.94,2.56,2.25,3.09,2.04-2.25,3.14-5.86,.42-6.02h.05Z"/>
        <path class="cls-5" d="M144.22,70.97c1.62,.05,2.36,.79,2.62,1.67,.31-.47,.58-.79,.73-1.05,.26-.37,.52-.52,.89-.47,.68,0,2.25,.73,1.62,1.67-.89,1.26-4.24,8.06-3.45,8.11,.58,0,2.41-1.88,4.34-3.82,.26-.26,.52-.37,.73-.37,.47,0,.73,.58,.31,1.05-2.3,2.72-4.92,5.39-5.76,5.34-.73,0-3.09-1.05-3.04-2.72-1.31,1.41-2.77,2.51-3.87,2.46-1.41-.05-2.98-1.15-2.93-2.77,.1-3.35,3.45-9.32,7.85-9.16l-.05,.05Zm-4.24,9.68c2.67,.1,7.28-7.75,4.76-7.85-3.09-.1-6.33,7.8-4.76,7.85Z"/>
        <path class="cls-1" d="M68.7,86.52c-2.25,0-4.13-.99-5.02-2.77-.73-1.41-.63-3.09,.21-4.24l.84-1.1c.58-.79,1.15-1.47,1.57-2.04,.31-2.04,2.15-4.61,4.87-5.6,.26-.1,.52-.1,.63-.16h.05c1.47,0,2.46,1.52,2.72,2.62,.26,1.15-.26,1.83-.89,2.09-.63,.26-1.47,1.15-1.52,1.52,.1,.16,.47,.52,.68,.79,.37,.37,.79,.79,1.15,1.31,.31-.37,.63-.73,.99-1.15h0c.16-.21,.73-.79,1.57-.84h.05c.68,0,1.31,.37,1.67,.99,.31,.63,.26,1.41-.21,2.04-1.62,2.25-3.61,4.29-4.97,5.08-.73,.63-2.04,1.36-4.13,1.47-.1,0-.21,0-.26,0Zm-.99-5.5s.26,.26,.63,.26h.05c.26,0,.47-.05,.58-.1-.1-.05-.21-.16-.31-.21-.21-.16-.37-.26-.58-.47-.1,.16-.26,.37-.42,.52h.05Z"/>
        <path class="cls-5" d="M82.09,72.23c1.62-.05,2.41,.58,2.72,1.47,.26-.47,.47-.84,.63-1.1,.21-.37,.52-.52,.84-.58,.68,0,2.3,.58,1.73,1.57-.79,1.36-3.61,8.37-2.83,8.32,.58,0,2.25-2.04,4.03-4.13,.26-.26,.47-.42,.68-.42,.47,0,.79,.47,.42,.99-2.09,2.88-4.45,5.76-5.34,5.81-.73,0-3.14-.79-3.25-2.46-1.2,1.52-2.56,2.72-3.66,2.77-1.41,.05-3.09-.89-3.14-2.51-.16-3.35,2.72-9.53,7.12-9.74h.05Zm-3.45,10c2.67-.1,6.65-8.32,4.13-8.22-3.09,.1-5.71,8.27-4.13,8.22Z"/>
        <path class="cls-1" d="M38.23,88.72c-1.36,0-2.51-.73-3.04-2.04h0v-.05c-.21-.52-.1-1.05,.16-1.47,.26-.42,.73-.63,1.15-.63h0c.37,0,.42-.05,.89-.37,.94-.73,2.67-3.61,3.87-5.71-.89-.47-1.52-1.52-1.78-2.46-.16-.52-.1-1.1,.16-1.57,.26-.47,.79-.73,1.31-.79h.42c.52,0,1.67-.1,3.04-.21,1.47-.1,3.04-.26,3.87-.31,.31,0,.58,0,.63-.05h.16c.79,0,2.2,.37,2.83,1.36,.37,.63,.42,1.36,0,2.04-.31,.58-.84,1.94-1.31,3.4,.21-.26,.52-.68,.52-.68h0s.73-.84,1.57-.94h.1c.68,0,1.31,.37,1.62,.94,.37,.63,.26,1.41-.16,2.04-4.24,6.44-5.5,6.54-6.07,6.59h-.16c-1.2,0-4.4-1.05-4.61-3.56,0-.47,0-.99,.1-1.62-1.31,2.72-2.56,4.87-3.87,5.65h0c-.42,.26-.94,.42-1.41,.42h0Z"/>
        <path class="cls-1" d="M54.77,87.36c-2.04,0-4.19-1.31-4.34-3.66-.1-1.99,.63-4.66,1.88-6.86,1.62-2.72,3.82-4.29,6.23-4.45h.37c.99,0,1.73,.21,2.3,.52,.42-.47,.94-.79,1.57-.79h.1c.79,0,2.2,.37,2.83,1.41,.37,.63,.37,1.36,0,2.04-.31,.58-.84,1.94-1.36,3.4,.21-.26,.52-.68,.52-.68h0s.73-.84,1.57-.89h.1c.68,0,1.31,.37,1.62,.99,.37,.63,.26,1.41-.16,2.04-4.4,6.39-5.55,6.44-6.18,6.49h-.1c-.79,0-2.41-.42-3.45-1.47-1.15,1.2-2.25,1.83-3.3,1.88h-.21Zm3.98-10.26s-.42,.42-.73,.79c-.84,1.15-1.41,2.72-1.73,3.82,.16-.21,.37-.42,.58-.73,1.05-1.41,1.62-2.98,1.83-3.87h.05Z"/>
        <path class="cls-5" d="M58.28,73.49c1.62-.1,2.41,.52,2.77,1.41,.26-.47,.47-.84,.63-1.1,.21-.37,.47-.58,.84-.58,.68,0,2.3,.52,1.78,1.52-.73,1.36-3.4,8.48-2.62,8.43,.58,0,2.2-2.09,3.93-4.24,.26-.26,.47-.42,.68-.42,.47,0,.79,.47,.42,.99-2.04,2.93-4.34,5.86-5.18,5.91-.73,0-3.14-.73-3.3-2.41-1.15,1.57-2.51,2.77-3.56,2.83-1.41,.1-3.09-.84-3.19-2.46-.21-3.3,2.46-9.63,6.86-9.89h-.05Zm-3.19,10.1c2.67-.16,6.44-8.48,3.93-8.32-3.04,.21-5.5,8.43-3.93,8.32Z"/>
        <path class="cls-5" d="M36.19,85.63c.73-.05,.99-.16,1.67-.68,1.36-1.05,3.66-5.13,5.18-7.8-.37,0-.68,.05-.89,.05-.94,.05-1.57-1.26-1.73-1.83-.1-.37,.1-.63,.37-.63h.1c.21,0,1.78,0,3.45-.16,2.04-.16,4.24-.37,4.5-.42,.68-.05,2.36,.47,1.78,1.52-.73,1.36-3.3,8.53-2.51,8.43,.58,0,2.2-2.15,3.87-4.29,.26-.26,.47-.42,.68-.47,.47,0,.79,.47,.42,.99-1.94,2.98-4.24,5.91-5.08,6.02-.73,.05-3.19-.68-3.35-2.41-.16-1.78,1.26-5.02,2.36-7.22-.84,.05-1.78,.16-2.56,.26-1.26,2.93-3.66,8.85-5.5,9.94-.26,.16-.63,.26-.89,.26-.84,.05-1.62-.37-1.99-1.2-.1-.21,.05-.42,.16-.37h-.05Z"/>
        <path class="cls-1" d="M25.62,91.39c-2.72,0-4.13-.99-4.76-1.83-.89-1.1-1.1-2.62-.63-4.29,1.36-5.08,5.6-14.66,5.76-15.07h0v-.05c.1-.21,.21-.42,.37-.58-2.56,1.47-3.56,4.08-3.66,5.18,0,.26,0,.37,.16,.58,.26,.42,.31,.99,.05,1.52s-.79,.89-1.41,.99h-.26c-.99,0-1.99-.47-2.77-1.26-.94-.99-1.36-2.41-1.26-3.77,.26-2.93,3.77-7.9,11.88-8.74,.52,0,1.05-.1,1.52-.1,6.12-.1,9.37,3.3,9.89,6.65,.37,2.56-.73,5.6-3.87,7.54,1.31,.99,1.83,2.46,1.83,3.82,0,2.04-1.2,4.24-3.25,6.02-1.57,1.31-4.29,2.98-8.53,3.4-.37,0-.68,.05-1.05,.05h0v-.05Zm2.67-11.36c-.84,2.41-1.52,4.55-1.67,5.34-.1,.63,0,.94,0,.99,.05,.05,.26,.16,.63,.16h.26c2.56-.26,4.29-3.04,4.19-4.76,0-.63-.26-1.36-1.78-1.31h-.58c-.47,0-.84-.16-1.15-.42h.1Zm3.04-8.58s-.94,2.56-1.88,5.29h.16c2.56-.26,4.45-3.19,4.34-5.5-.1-2.25-2.04-2.72-3.66-2.67h-.37c.52,.16,.99,.47,1.31,.89,.42,.58,.47,1.26,.21,1.99h-.1Z"/>
        <path class="cls-5" d="M18.14,72.44c.21-2.41,3.3-6.8,10.73-7.54,11.67-1.15,13.4,10.21,3.98,12.88,7.38,.89,3.87,10.78-6.7,11.83-4.24,.42-5.81-1.62-5.08-4.45,1.36-5.02,5.71-14.86,5.71-14.86,.37-.68,.79-.94,1.52-.99,.79-.05,1.83,.26,1.47,1.26-.16,.31-4.4,11.99-4.82,14.13-.31,1.62,.21,2.88,2.36,2.67,5.34-.52,8.01-9.26,1.78-8.64-.63,.05-.26-1.1,.26-1.15,5.97-.58,8.74-11.62-.37-10.73-5.71,.58-7.8,5.44-7.9,7.33,0,.52,.05,.94,.31,1.36,.05,.1,0,.47-.42,.52-1.52,.16-3.04-1.62-2.83-3.61Z"/>
        <path class="cls-5" d="M64.61,80.03c1.1-1.41,1.94-2.56,2.62-3.4,.05-1.47,1.47-3.98,4.08-4.87h.21c.94,0,1.88,1.99,1.31,2.25-.79,.31-2.36,1.62-2.3,2.83,.05,1.15,2.51,2.25,2.62,4.13v.31c.68-.73,1.57-1.78,2.46-2.88,.26-.26,.47-.42,.68-.42,.47,0,.79,.47,.42,.99-1.73,2.46-3.61,4.19-4.71,4.76-.73,.68-1.83,1.15-3.45,1.26-3.77,.21-5.29-3.14-3.93-4.92v-.05Zm3.51,2.25c1.36-.05,2.04-.84,1.99-1.47,0-.89-1.73-1.31-2.51-2.67-.42,.58-.89,1.26-1.41,1.99-.58,.84,.21,2.25,1.94,2.2v-.05Z"/>
      </g>
    </g>
    <rect class="cls-1" x="0" y="144.24" width="111.34" height="31.91" rx="15.95" ry="15.95"/>
    <g>
      <path class="cls-5" d="M24.46,159.93c0,.07,0,.14,0,.21,0,.03,0,.06-.05,.06-.22,0-.44,0-.66,0,0,0,0,0,0,0-.03-.1-.02-.2-.02-.31-.02-.28-.06-.55-.12-.82-.02-.09-.05-.18-.08-.27-.04-.17-.1-.34-.17-.5-.01-.03-.02-.05-.03-.08-.09-.18-.17-.36-.28-.54-.06-.11-.14-.22-.21-.32-.01-.02-.03-.04-.05-.06-.33-.45-.72-.83-1.18-1.14-.09-.06-.18-.13-.27-.17-.17-.11-.35-.19-.53-.28-.02,0-.03,0-.05-.01-.26-.12-.53-.21-.81-.27-.35-.08-.7-.12-1.05-.13-.03,0-.06,0-.08-.02,0-.01-.01-.02-.02-.04,0-.13,0-.26,0-.39,0-.07,0-.13,0-.2,0-.09,0-.1,.1-.11,.06,0,.12,0,.19,0,.14,0,.29,.02,.43,.04,.05,0,.11,0,.15,.04,.37,.06,.74,.15,1.1,.28,1.03,.38,1.88,1.01,2.55,1.88,.01,.01,.02,.03,.03,.04,.05,.04,.08,.09,.12,.14,.1,.15,.2,.3,.29,.45,.1,.17,.19,.35,.27,.54,.09,.2,.16,.4,.22,.61,.02,.07,.06,.14,.04,.21,.06,.26,.12,.53,.15,.8,.01,.13,.02,.25,.03,.38Z"/>
      <path class="cls-5" d="M13.17,156.93s0-.09,.02-.13c0-.09,.05-.17,.08-.25,.03-.08,.08-.14,.14-.2,.22-.22,.45-.44,.67-.67,.08-.08,.16-.15,.25-.21,.09-.06,.2-.1,.3-.13,.07-.02,.13-.03,.2-.05,.1,0,.21,0,.31,0,.09,.02,.18,.04,.27,.07,.4,.14,.68,.41,.87,.79,.07,.14,.1,.29,.14,.44,.1,.36,.2,.72,.29,1.08,.09,.35,.02,.68-.15,.99-.06,.1-.13,.19-.21,.27-.12,.12-.24,.25-.37,.36-.06,.06-.08,.11-.05,.2,.05,.14,.1,.29,.15,.43,.07,.18,.15,.35,.24,.52,.16,.32,.37,.62,.59,.9,.06,.07,.12,.15,.19,.22,.42,.45,.89,.83,1.44,1.11,.17,.09,.35,.17,.53,.24,.15,.07,.31,.11,.47,.16,.05,.02,.09,0,.13-.03,.12-.12,.25-.25,.37-.37,.29-.3,.65-.43,1.06-.41,.17,0,.34,.07,.5,.11,.03,0,.05,.02,.08,.02,.32,.09,.65,.18,.97,.26,.03,0,.06,.02,.09,.03,.34,.13,.6,.36,.79,.68,.05,.09,.08,.18,.11,.27,.02,.07,.05,.14,.06,.22,0,.11,0,.22,0,.33-.01,.07-.02,.14-.04,.2-.07,.24-.2,.44-.38,.61-.19,.18-.38,.37-.56,.56-.07,.07-.15,.14-.25,.18-.13,.05-.26,.1-.4,.12-.21,.01-.42,0-.63-.02-.23-.01-.45-.04-.68-.07-.25-.04-.5-.08-.75-.14-.45-.11-.89-.24-1.32-.42-.05-.02-.1-.04-.15-.06-.09-.04-.17-.08-.26-.12-.21-.1-.41-.2-.61-.31-.28-.16-.55-.33-.81-.51-.22-.16-.44-.33-.65-.51-.23-.21-.46-.41-.67-.64-.19-.2-.36-.41-.54-.63-.05-.06-.09-.13-.14-.19-.02-.04-.04-.07-.07-.1-.18-.26-.36-.53-.51-.8-.11-.2-.22-.4-.31-.61-.04-.07-.06-.15-.1-.22-.09-.21-.17-.43-.25-.64-.1-.28-.18-.56-.25-.85-.01-.07-.03-.15-.05-.22-.02-.11-.04-.23-.07-.34,0-.07-.04-.13-.01-.2-.02-.21-.05-.42-.06-.64,0-.18-.02-.36-.03-.53,0-.05,0-.1,0-.16Z"/>
      <path class="cls-5" d="M18.82,157.37c0-.22,0-.43,0-.65,0-.05,.02-.06,.06-.06,.17,0,.35,.03,.52,.04,.08-.01,.15,0,.22,.04,.24,.07,.48,.14,.7,.25,1.02,.51,1.67,1.31,1.94,2.42,0,.01,0,.03,.01,.04,.03,.05,.04,.1,.03,.15,.01,.16,.03,.32,.04,.48,.02,.11,0,.13-.11,.12-.16,0-.33,0-.49,0-.03,0-.07,0-.1-.01-.03-.02-.03-.06-.03-.09,0-.08-.01-.17-.02-.25,0-.06-.02-.13-.03-.19-.02-.11-.05-.22-.08-.33-.14-.45-.38-.84-.72-1.16-.31-.3-.68-.53-1.1-.66-.1-.04-.21-.06-.32-.08-.06-.01-.12-.02-.18-.03-.08,0-.17-.02-.25-.02-.03,0-.06,0-.09-.01,0,0,0,0,0,0Z"/>
      <path class="cls-5" d="M18.92,159.5q-.1-.03-.1-.14c0-.19,0-.38,0-.58,.2,0,.38,.05,.56,.11,.06,0,.1,.04,.15,.06,.04,.02,.08,.04,.11,.07,.13,.09,.24,.2,.33,.33,.06,.09,.12,.18,.16,.28,.07,.14,.09,.3,.11,.45,0,.03,0,.07,0,.1,0,0-.01,.01-.02,.02-.09,.02-.18,0-.27,0-.11,0-.22,0-.33,0-.09,0-.1,0-.12-.1-.03-.23-.14-.4-.34-.52-.06-.04-.12-.05-.18-.07-.02,0-.05,0-.06-.03Z"/>
    </g>
    <g>
      <path class="cls-5" d="M35.15,152.9c.45-.37,1.03-.56,1.76-.56,.5,0,.92,.09,1.27,.26s.62,.41,.8,.71c.18,.3,.27,.63,.27,1.01,0,.43-.11,.79-.33,1.09-.22,.3-.48,.5-.79,.6v.04c.39,.12,.7,.34,.92,.66,.22,.31,.33,.72,.33,1.21,0,.41-.09,.78-.28,1.1-.19,.32-.46,.57-.83,.75-.36,.18-.8,.27-1.31,.27-.77,0-1.39-.19-1.88-.58-.48-.39-.74-.96-.76-1.72h1.39c.01,.34,.13,.6,.34,.8,.21,.2,.51,.3,.88,.3,.35,0,.61-.1,.8-.29,.19-.2,.28-.45,.28-.75,0-.41-.13-.7-.39-.88s-.66-.27-1.2-.27h-.3v-1.18h.3c.97,0,1.45-.32,1.45-.97,0-.29-.09-.52-.26-.69-.17-.16-.42-.25-.75-.25s-.57,.09-.74,.26-.27,.39-.3,.66h-1.4c.03-.68,.27-1.21,.72-1.58Z"/>
      <path class="cls-5" d="M40.34,153.84v-1.32h2.46v7.47h-1.47v-6.15h-.99Z"/>
      <path class="cls-5" d="M44.84,153.38c.43-.67,1.13-1,2.12-1s1.69,.33,2.12,1c.42,.67,.64,1.6,.64,2.78s-.21,2.12-.64,2.8c-.43,.68-1.13,1.01-2.12,1.01s-1.69-.34-2.12-1.01c-.42-.68-.64-1.61-.64-2.8s.21-2.11,.64-2.78Zm3.37,1.5c-.06-.35-.19-.63-.39-.85-.19-.22-.48-.33-.86-.33s-.67,.11-.86,.33c-.19,.22-.32,.5-.39,.85-.06,.34-.1,.77-.1,1.28s.03,.96,.09,1.31,.19,.63,.39,.85c.2,.22,.49,.32,.87,.32s.67-.11,.87-.32c.2-.22,.33-.5,.39-.85s.09-.79,.09-1.31-.03-.93-.1-1.28Z"/>
      <path class="cls-5" d="M51.24,158.37c.65-.55,1.17-1,1.56-1.37,.39-.37,.71-.75,.97-1.14,.26-.4,.39-.79,.39-1.17,0-.35-.08-.62-.24-.82-.16-.2-.41-.3-.75-.3s-.6,.11-.79,.34c-.18,.23-.28,.54-.29,.94h-1.39c.03-.82,.27-1.44,.73-1.87,.46-.42,1.04-.64,1.75-.64,.77,0,1.37,.21,1.78,.62,.41,.41,.62,.96,.62,1.63,0,.53-.14,1.04-.43,1.53-.29,.48-.61,.91-.98,1.27s-.85,.79-1.44,1.3h3.01v1.19h-5.04v-1.07l.53-.45Z"/>
      <path class="cls-5" d="M57.39,152.9c.45-.37,1.03-.56,1.76-.56,.5,0,.92,.09,1.27,.26s.62,.41,.8,.71c.18,.3,.27,.63,.27,1.01,0,.43-.11,.79-.33,1.09-.22,.3-.48,.5-.79,.6v.04c.39,.12,.7,.34,.92,.66,.22,.31,.33,.72,.33,1.21,0,.41-.09,.78-.28,1.1-.19,.32-.46,.57-.83,.75-.36,.18-.8,.27-1.31,.27-.77,0-1.39-.19-1.88-.58-.48-.39-.74-.96-.76-1.72h1.39c.01,.34,.13,.6,.34,.8,.21,.2,.51,.3,.88,.3,.35,0,.61-.1,.8-.29,.19-.2,.28-.45,.28-.75,0-.41-.13-.7-.39-.88s-.66-.27-1.2-.27h-.3v-1.18h.3c.97,0,1.45-.32,1.45-.97,0-.29-.09-.52-.26-.69-.17-.16-.42-.25-.75-.25s-.57,.09-.74,.26-.27,.39-.3,.66h-1.4c.03-.68,.27-1.21,.72-1.58Z"/>
      <path class="cls-5" d="M67.49,153.6l-2.71,6.38h-1.45l2.73-6.22h-3.49v-1.23h4.91v1.07Z"/>
      <path class="cls-5" d="M69.08,152.9c.45-.37,1.03-.56,1.76-.56,.5,0,.92,.09,1.27,.26s.62,.41,.8,.71c.18,.3,.27,.63,.27,1.01,0,.43-.11,.79-.33,1.09-.22,.3-.48,.5-.79,.6v.04c.39,.12,.7,.34,.92,.66,.22,.31,.33,.72,.33,1.21,0,.41-.09,.78-.28,1.1-.19,.32-.46,.57-.83,.75-.36,.18-.8,.27-1.31,.27-.77,0-1.39-.19-1.88-.58-.48-.39-.74-.96-.76-1.72h1.39c.01,.34,.13,.6,.34,.8,.21,.2,.51,.3,.88,.3,.35,0,.61-.1,.8-.29,.19-.2,.28-.45,.28-.75,0-.41-.13-.7-.39-.88s-.66-.27-1.2-.27h-.3v-1.18h.3c.97,0,1.45-.32,1.45-.97,0-.29-.09-.52-.26-.69-.17-.16-.42-.25-.75-.25s-.57,.09-.74,.26-.27,.39-.3,.66h-1.4c.03-.68,.27-1.21,.72-1.58Z"/>
      <path class="cls-5" d="M74.39,158.53v-1.13l3.33-4.8h1.66v4.67h.9v1.25h-.9v1.46h-1.43v-1.46h-3.57Zm3.66-4.39l-2.09,3.14h2.09v-3.14Z"/>
      <path class="cls-5" d="M84.69,153.73c-.17-.14-.41-.22-.72-.22-.47,0-.81,.19-1.03,.57-.22,.38-.34,1-.34,1.85,.16-.27,.4-.49,.71-.64,.31-.15,.65-.23,1.02-.23,.44,0,.83,.1,1.17,.29,.34,.19,.61,.47,.8,.84,.19,.37,.29,.8,.29,1.32,0,.48-.1,.92-.29,1.3-.19,.38-.48,.67-.85,.89-.37,.21-.82,.32-1.34,.32-.71,0-1.26-.16-1.67-.47s-.69-.75-.85-1.32c-.16-.56-.24-1.26-.24-2.08,0-1.25,.21-2.19,.64-2.83,.43-.64,1.1-.96,2.03-.96,.71,0,1.27,.19,1.66,.58,.39,.39,.62,.87,.68,1.46h-1.33c-.07-.29-.19-.5-.35-.65Zm-1.6,2.83c-.24,.21-.37,.52-.37,.92s.11,.72,.34,.95c.23,.23,.55,.35,.96,.35,.37,0,.66-.11,.87-.34s.32-.53,.32-.91-.1-.71-.31-.94c-.21-.23-.51-.35-.91-.35-.36,0-.66,.11-.91,.32Z"/>
      <path class="cls-5" d="M91.22,153.73c-.17-.14-.41-.22-.72-.22-.47,0-.81,.19-1.03,.57-.22,.38-.34,1-.34,1.85,.16-.27,.4-.49,.71-.64,.31-.15,.65-.23,1.02-.23,.44,0,.83,.1,1.17,.29,.34,.19,.61,.47,.8,.84,.19,.37,.29,.8,.29,1.32,0,.48-.1,.92-.29,1.3-.19,.38-.48,.67-.85,.89-.37,.21-.82,.32-1.34,.32-.71,0-1.26-.16-1.67-.47s-.69-.75-.85-1.32c-.16-.56-.24-1.26-.24-2.08,0-1.25,.21-2.19,.64-2.83,.43-.64,1.1-.96,2.03-.96,.71,0,1.27,.19,1.66,.58,.39,.39,.62,.87,.68,1.46h-1.33c-.07-.29-.19-.5-.35-.65Zm-1.6,2.83c-.24,.21-.37,.52-.37,.92s.11,.72,.34,.95c.23,.23,.55,.35,.96,.35,.37,0,.66-.11,.87-.34s.32-.53,.32-.91-.1-.71-.31-.94c-.21-.23-.51-.35-.91-.35-.36,0-.66,.11-.91,.32Z"/>
    </g>
    <g>
      <path d="M35.68,163.5c-.4,0-.69,.15-.89,.46s-.29,.81-.29,1.51c.1-.23,.27-.41,.51-.54,.24-.13,.5-.2,.8-.2,.46,0,.82,.14,1.1,.43s.41,.68,.41,1.18c0,.3-.06,.57-.18,.81-.12,.24-.3,.43-.53,.57-.24,.14-.53,.21-.86,.21-.46,0-.82-.1-1.07-.31s-.44-.49-.54-.85-.15-.81-.15-1.33c0-1.63,.57-2.45,1.71-2.45,.44,0,.78,.12,1.03,.35,.25,.24,.4,.53,.44,.89h-.56c-.1-.49-.4-.74-.91-.74Zm-.53,1.85c-.17,.08-.31,.2-.41,.35s-.16,.35-.16,.58c0,.34,.1,.61,.29,.82,.2,.21,.48,.32,.84,.32,.31,0,.56-.1,.74-.29s.28-.45,.28-.78c0-.35-.09-.62-.27-.82-.18-.2-.44-.3-.78-.3-.19,0-.37,.04-.54,.12Z"/>
      <path d="M41.11,163.57l-1.86,4.35h-.61l1.88-4.29h-2.58v-.52h3.16v.46Z"/>
      <path d="M44.75,163.57l-1.86,4.35h-.61l1.88-4.29h-2.58v-.52h3.16v.46Z"/>
      <path d="M45.8,163.66c.25-.43,.69-.64,1.31-.64s1.05,.21,1.3,.64c.25,.43,.37,1.03,.37,1.79s-.12,1.38-.37,1.82c-.25,.43-.68,.65-1.3,.65s-1.06-.22-1.31-.65c-.25-.43-.37-1.04-.37-1.82s.12-1.36,.37-1.79Zm2.31,.81c-.05-.27-.16-.49-.31-.65-.16-.16-.39-.25-.68-.25s-.53,.08-.69,.25c-.16,.16-.26,.38-.31,.65-.05,.27-.08,.6-.08,.98s.03,.74,.08,1.01c.05,.27,.16,.49,.31,.65,.16,.16,.39,.25,.69,.25s.53-.08,.68-.25c.16-.16,.26-.38,.31-.65,.05-.27,.08-.61,.08-1.01s-.03-.72-.08-.98Z"/>
      <path d="M49.99,163.66c.25-.43,.69-.64,1.31-.64s1.05,.21,1.3,.64c.25,.43,.37,1.03,.37,1.79s-.12,1.38-.37,1.82c-.25,.43-.68,.65-1.3,.65s-1.06-.22-1.31-.65c-.25-.43-.37-1.04-.37-1.82s.12-1.36,.37-1.79Zm2.31,.81c-.05-.27-.16-.49-.31-.65-.16-.16-.39-.25-.68-.25s-.53,.08-.69,.25c-.16,.16-.26,.38-.31,.65-.05,.27-.08,.6-.08,.98s.03,.74,.08,1.01c.05,.27,.16,.49,.31,.65,.16,.16,.39,.25,.69,.25s.53-.08,.68-.25c.16-.16,.26-.38,.31-.65,.05-.27,.08-.61,.08-1.01s-.03-.72-.08-.98Z"/>
      <path d="M56.78,163.57l-1.86,4.35h-.61l1.88-4.29h-2.58v-.52h3.16v.46Z"/>
      <path d="M60.42,163.57l-1.86,4.35h-.61l1.88-4.29h-2.58v-.52h3.16v.46Z"/>
      <path d="M63.74,165.21v.51h-2.66v-.51h2.66Z"/>
      <path d="M66.55,163.5c-.4,0-.69,.15-.89,.46-.2,.3-.29,.81-.29,1.51,.1-.23,.27-.41,.51-.54,.24-.13,.5-.2,.8-.2,.46,0,.82,.14,1.1,.43s.41,.68,.41,1.18c0,.3-.06,.57-.18,.81-.12,.24-.3,.43-.53,.57s-.53,.21-.86,.21c-.46,0-.82-.1-1.07-.31s-.44-.49-.54-.85-.15-.81-.15-1.33c0-1.63,.57-2.45,1.71-2.45,.44,0,.78,.12,1.03,.35,.25,.24,.4,.53,.44,.89h-.56c-.1-.49-.4-.74-.91-.74Zm-.53,1.85c-.17,.08-.31,.2-.41,.35-.1,.16-.16,.35-.16,.58,0,.34,.1,.61,.29,.82,.2,.21,.48,.32,.84,.32,.31,0,.56-.1,.74-.29,.19-.19,.28-.45,.28-.78,0-.35-.09-.62-.27-.82-.18-.2-.44-.3-.78-.3-.19,0-.37,.04-.54,.12Z"/>
      <path d="M70.79,163.5c-.4,0-.69,.15-.89,.46s-.29,.81-.29,1.51c.1-.23,.27-.41,.51-.54,.24-.13,.5-.2,.8-.2,.46,0,.82,.14,1.1,.43s.41,.68,.41,1.18c0,.3-.06,.57-.18,.81-.12,.24-.3,.43-.53,.57-.24,.14-.53,.21-.86,.21-.46,0-.82-.1-1.07-.31s-.44-.49-.54-.85-.15-.81-.15-1.33c0-1.63,.57-2.45,1.71-2.45,.44,0,.78,.12,1.03,.35,.25,.24,.4,.53,.44,.89h-.56c-.1-.49-.4-.74-.91-.74Zm-.53,1.85c-.17,.08-.31,.2-.41,.35s-.16,.35-.16,.58c0,.34,.1,.61,.29,.82,.2,.21,.48,.32,.84,.32,.31,0,.56-.1,.74-.29s.28-.45,.28-.78c0-.35-.09-.62-.27-.82-.18-.2-.44-.3-.78-.3-.19,0-.37,.04-.54,.12Z"/>
      <path d="M74.35,167.21c.16,.14,.38,.21,.66,.21,.37,0,.64-.14,.82-.43,.18-.29,.26-.78,.25-1.46-.09,.2-.25,.36-.47,.47-.22,.11-.46,.17-.73,.17-.3,0-.56-.06-.8-.18-.23-.12-.42-.3-.55-.54-.13-.24-.2-.52-.2-.85,0-.48,.14-.86,.41-1.15s.67-.44,1.17-.44c.62,0,1.06,.2,1.31,.61,.25,.4,.38,1.01,.38,1.81,0,.56-.05,1.02-.15,1.39-.1,.37-.27,.64-.51,.83-.24,.19-.56,.29-.98,.29-.45,0-.81-.12-1.06-.37s-.4-.56-.43-.93h.56c.04,.25,.15,.45,.31,.59Zm1.36-1.84c.19-.18,.29-.44,.29-.75,0-.33-.09-.6-.28-.81s-.45-.31-.79-.31c-.31,0-.56,.1-.74,.29s-.28,.45-.28,.77,.09,.59,.27,.78,.45,.29,.79,.29c.3,0,.54-.09,.73-.28Z"/>
      <path d="M77.77,164.98c-.13-.19-.2-.41-.2-.68,0-.24,.06-.46,.18-.65s.3-.35,.54-.46,.53-.17,.86-.17,.63,.06,.86,.17c.24,.11,.42,.27,.54,.46s.18,.41,.18,.65c0,.26-.07,.48-.21,.68-.14,.19-.33,.34-.57,.43,.28,.08,.49,.23,.66,.44,.16,.21,.24,.47,.24,.76s-.07,.54-.21,.76c-.14,.22-.34,.38-.6,.5-.26,.12-.56,.18-.9,.18s-.63-.06-.89-.18c-.26-.12-.45-.28-.6-.5-.14-.22-.21-.47-.21-.76s.08-.55,.24-.77c.16-.21,.38-.36,.65-.44-.25-.1-.44-.24-.57-.43Zm.57,.92c-.21,.15-.31,.38-.31,.69,0,.28,.1,.51,.3,.69,.2,.17,.48,.26,.82,.26s.61-.09,.81-.26c.2-.17,.3-.4,.3-.69s-.1-.53-.31-.68-.47-.24-.81-.24-.6,.08-.81,.23Zm1.54-2.16c-.18-.15-.42-.22-.73-.22s-.55,.07-.73,.22-.27,.36-.27,.63c0,.25,.09,.45,.28,.6,.18,.15,.42,.23,.72,.23s.54-.08,.72-.23c.19-.15,.28-.35,.28-.6,0-.27-.09-.48-.27-.63Z"/>
      <path d="M82.13,163.35c.28-.23,.65-.35,1.11-.35,.3,0,.56,.05,.78,.16,.22,.11,.39,.26,.5,.44,.11,.19,.17,.4,.17,.63,0,.28-.08,.51-.24,.71-.16,.2-.36,.33-.62,.39v.03c.29,.07,.52,.21,.69,.42,.17,.21,.25,.48,.25,.82,0,.25-.06,.48-.17,.68-.12,.2-.29,.36-.52,.48s-.51,.17-.83,.17c-.47,0-.86-.12-1.16-.37s-.47-.6-.51-1.05h.59c.03,.27,.14,.48,.33,.65s.44,.25,.75,.25,.55-.08,.71-.24,.24-.37,.24-.63c0-.33-.11-.57-.33-.72-.22-.15-.56-.22-1.01-.22h-.15v-.51h.16c.41,0,.72-.07,.93-.2s.31-.33,.31-.61c0-.24-.08-.42-.23-.57-.15-.14-.37-.21-.66-.21s-.5,.07-.67,.21c-.17,.14-.27,.33-.3,.57h-.59c.03-.41,.19-.73,.47-.96Z"/>
      <path d="M85.98,163.66c.25-.43,.69-.64,1.31-.64s1.05,.21,1.3,.64c.25,.43,.37,1.03,.37,1.79s-.12,1.38-.37,1.82c-.25,.43-.68,.65-1.3,.65s-1.06-.22-1.31-.65c-.25-.43-.37-1.04-.37-1.82s.12-1.36,.37-1.79Zm2.31,.81c-.05-.27-.16-.49-.31-.65-.16-.16-.39-.25-.68-.25s-.53,.08-.69,.25c-.16,.16-.26,.38-.31,.65-.05,.27-.08,.6-.08,.98s.03,.74,.08,1.01c.05,.27,.16,.49,.31,.65,.16,.16,.39,.25,.69,.25s.53-.08,.68-.25c.16-.16,.26-.38,.31-.65,.05-.27,.08-.61,.08-1.01s-.03-.72-.08-.98Z"/>
      <path d="M91.57,163.5c-.4,0-.69,.15-.89,.46s-.29,.81-.29,1.51c.1-.23,.27-.41,.51-.54,.24-.13,.5-.2,.8-.2,.46,0,.82,.14,1.1,.43s.41,.68,.41,1.18c0,.3-.06,.57-.18,.81-.12,.24-.3,.43-.53,.57-.24,.14-.53,.21-.86,.21-.46,0-.82-.1-1.07-.31s-.44-.49-.54-.85-.15-.81-.15-1.33c0-1.63,.57-2.45,1.71-2.45,.44,0,.78,.12,1.03,.35,.25,.24,.4,.53,.44,.89h-.56c-.1-.49-.4-.74-.91-.74Zm-.53,1.85c-.17,.08-.31,.2-.41,.35s-.16,.35-.16,.58c0,.34,.1,.61,.29,.82,.2,.21,.48,.32,.84,.32,.31,0,.56-.1,.74-.29s.28-.45,.28-.78c0-.35-.09-.62-.27-.82-.18-.2-.44-.3-.78-.3-.19,0-.37,.04-.54,.12Z"/>
    </g>
    <rect class="cls-6" x="114.77" y="144.63" width="111.34" height="31.91" rx="15.95" ry="15.95"/>
    <path class="cls-5" d="M135.47,156.21c-.54-.47-1.15-.82-1.88-.89-.19-.02-.39-.01-.59-.06h-.89s-.09,.02-.14,.03c-.31,.03-.62,.02-.92,.13-1.7,.62-2.91,2.23-2.92,4.14,0,.88,.21,1.72,.59,2.51,.73,1.55,1.79,2.84,3.04,3.99,.19,.18,.4,.3,.65,.35h.35c.18-.06,.37-.07,.51-.22,.36-.34,.72-.67,1.06-1.04,.67-.74,1.28-1.53,1.78-2.4,.52-.92,.89-1.88,.93-2.95,.05-1.44-.47-2.65-1.56-3.6Zm-2.9,5.56c-1.25-.04-2.21-1.03-2.16-2.23,.04-1.21,1.05-2.17,2.22-2.13,1.22,.04,2.18,1.05,2.14,2.24-.05,1.21-1.04,2.16-2.2,2.12Z"/>
    <g>
      <path class="cls-1" d="M145.41,159.87c.25-.43,.59-.76,1.02-1,.43-.24,.9-.36,1.41-.36,.59,0,1.11,.14,1.56,.43,.46,.29,.79,.7,.99,1.22h-1.08c-.14-.29-.34-.51-.59-.65-.25-.14-.55-.21-.88-.21-.36,0-.69,.08-.97,.25s-.51,.4-.67,.7c-.16,.31-.24,.66-.24,1.07s.08,.76,.24,1.07c.16,.31,.38,.54,.67,.71s.61,.25,.97,.25c.33,0,.63-.07,.88-.21,.25-.14,.45-.36,.59-.65h1.08c-.21,.53-.54,.93-.99,1.22s-.98,.43-1.56,.43c-.52,0-.99-.12-1.42-.36s-.77-.57-1.02-1c-.25-.43-.38-.91-.38-1.45s.13-1.02,.38-1.45Z"/>
      <path class="cls-1" d="M152.36,158.22v5.86h-.9v-5.86h.9Z"/>
      <path class="cls-1" d="M154.45,158.22v5.86h-.9v-5.86h.9Z"/>
      <path class="cls-1" d="M155.59,163.96c-.11-.11-.17-.25-.17-.41s.06-.3,.17-.41c.11-.11,.25-.17,.41-.17s.29,.06,.4,.17c.11,.11,.17,.25,.17,.41s-.06,.3-.17,.41-.25,.17-.4,.17-.3-.06-.41-.17Z"/>
      <path class="cls-1" d="M159.36,159.13v-.82h1.65v5.77h-.91v-4.95h-.74Z"/>
      <path class="cls-1" d="M165.03,159.1c-.15-.12-.37-.18-.64-.18-.42,0-.73,.16-.93,.48-.21,.32-.31,.85-.32,1.59,.14-.23,.34-.41,.6-.54,.26-.13,.55-.19,.85-.19,.35,0,.66,.08,.92,.23,.27,.15,.47,.37,.63,.65,.15,.29,.23,.63,.23,1.02,0,.37-.07,.7-.22,.99-.14,.29-.36,.52-.64,.68s-.63,.25-1.03,.25c-.54,0-.97-.12-1.28-.36-.31-.24-.53-.58-.65-1.02-.12-.44-.19-.98-.19-1.64,0-1.93,.68-2.9,2.04-2.9,.53,0,.94,.14,1.25,.43,.3,.29,.48,.64,.53,1.05h-.83c-.06-.24-.16-.42-.32-.55Zm-1.46,2.2c-.22,.19-.34,.47-.34,.83s.1,.65,.31,.87c.21,.21,.5,.32,.87,.32,.33,0,.59-.1,.79-.31,.19-.21,.29-.48,.29-.82s-.09-.64-.28-.86-.46-.32-.83-.32c-.32,0-.59,.1-.82,.29Z"/>
      <path class="cls-1" d="M167.79,158.98c.31-.51,.84-.77,1.59-.77s1.29,.26,1.59,.77c.31,.51,.46,1.23,.46,2.14s-.15,1.64-.46,2.16c-.31,.52-.84,.78-1.59,.78s-1.29-.26-1.59-.78-.46-1.24-.46-2.16,.15-1.63,.46-2.14Zm2.68,1.06c-.06-.3-.17-.54-.34-.72s-.42-.28-.75-.28-.58,.09-.75,.28-.28,.43-.34,.72c-.06,.3-.08,.66-.08,1.08s.03,.82,.08,1.12c.05,.3,.16,.54,.34,.73,.17,.18,.42,.28,.76,.28s.58-.09,.76-.28c.17-.18,.28-.43,.34-.73,.05-.3,.08-.67,.08-1.12s-.03-.79-.08-1.08Z"/>
      <path class="cls-1" d="M179.19,160.45l-.29,1.37h1.04v.79h-1.21l-.32,1.46h-.86l.32-1.46h-1.55l-.32,1.46h-.86l.32-1.46h-1.23v-.79h1.39l.29-1.37h-1.22v-.79h1.38l.31-1.44h.86l-.31,1.44h1.55l.31-1.44h.86l-.31,1.44h1.05v.79h-1.22Zm-.86,0h-1.55l-.29,1.37h1.55l.29-1.37Z"/>
      <path class="cls-1" d="M185.08,159.08h-2.65v1.57c.11-.15,.28-.27,.49-.37,.22-.1,.45-.15,.7-.15,.44,0,.8,.1,1.08,.28,.28,.19,.47,.43,.59,.72,.12,.29,.18,.6,.18,.92,0,.39-.07,.74-.23,1.04s-.37,.54-.67,.72c-.3,.17-.66,.26-1.1,.26-.57,0-1.04-.14-1.38-.43-.35-.28-.56-.66-.62-1.13h.88c.06,.25,.19,.44,.39,.59,.2,.15,.45,.22,.75,.22,.37,0,.66-.11,.84-.34s.28-.53,.28-.9-.1-.67-.28-.87c-.19-.2-.47-.3-.84-.3-.26,0-.48,.06-.65,.19-.18,.13-.3,.3-.38,.53h-.85v-3.33h3.48v.79Z"/>
      <path class="cls-1" d="M190.13,159.08h-2.65v1.57c.11-.15,.28-.27,.49-.37,.22-.1,.45-.15,.7-.15,.44,0,.8,.1,1.08,.28,.28,.19,.47,.43,.59,.72,.12,.29,.18,.6,.18,.92,0,.39-.07,.74-.23,1.04s-.37,.54-.67,.72c-.3,.17-.66,.26-1.1,.26-.57,0-1.04-.14-1.38-.43-.35-.28-.56-.66-.62-1.13h.88c.06,.25,.19,.44,.39,.59,.2,.15,.45,.22,.75,.22,.37,0,.66-.11,.84-.34s.28-.53,.28-.9-.1-.67-.28-.87c-.19-.2-.47-.3-.84-.3-.26,0-.48,.06-.65,.19-.18,.13-.3,.3-.38,.53h-.85v-3.33h3.48v.79Z"/>
      <path class="cls-1" d="M194.94,160.83v.76h-3.25v-.76h3.25Z"/>
      <path class="cls-1" d="M197.56,163.11c.17,.14,.41,.21,.7,.21,.37,0,.65-.15,.82-.44,.17-.3,.26-.8,.26-1.51-.13,.18-.3,.32-.53,.42-.23,.1-.48,.15-.75,.15-.34,0-.65-.07-.93-.21-.28-.14-.5-.35-.66-.63-.16-.28-.24-.61-.24-1.01,0-.58,.17-1.04,.51-1.39,.34-.35,.81-.52,1.4-.52,.72,0,1.23,.24,1.53,.72,.3,.48,.46,1.21,.46,2.2,0,.68-.06,1.24-.17,1.67-.11,.43-.31,.76-.59,.98-.28,.22-.67,.33-1.16,.33-.56,0-1-.15-1.31-.44-.31-.3-.48-.67-.51-1.12h.83c.05,.26,.17,.46,.34,.6Zm1.41-2.24c.18-.2,.27-.46,.27-.79,0-.36-.1-.65-.29-.85-.19-.2-.45-.3-.79-.3s-.59,.1-.79,.31c-.19,.21-.29,.48-.29,.82s.09,.59,.28,.8c.19,.21,.47,.31,.85,.31,.32,0,.57-.1,.75-.3Z"/>
      <path class="cls-1" d="M201,159.13v-.82h1.65v5.77h-.91v-4.95h-.74Z"/>
    </g>
  </g>
</svg>